<svg width="1094" height="636" viewBox="0 0 1094 636" fill="none" xmlns="http://www.w3.org/2000/svg">
<rect x="84.0977" y="77" width="5.94444" height="464.657" fill="white"/>
<path d="M34.0845 584.734C34.3731 584.758 34.5934 585.002 34.5884 585.292L34.5559 587.154L34.7804 591.318L35.4582 595.044L36.4384 598.479L37.0771 599.952C37.6014 601.161 38.274 602.3 39.0792 603.344L39.2469 603.561C39.8745 604.374 40.5928 605.113 41.3878 605.764C42.4397 606.624 43.6328 607.328 44.8927 607.838L46.1633 608.249C47.5759 608.706 49.0411 608.981 50.5233 609.066C51.5071 609.123 52.4939 609.096 53.4731 608.985L55.4258 608.765L58.7091 607.931L60.5021 607.199C62.0948 606.549 63.6068 605.717 65.0078 604.719C65.9077 604.078 66.7587 603.37 67.5536 602.603L68.9535 601.251C70.2445 600.004 71.4265 598.65 72.4869 597.202L74.5465 594.389L75.5669 592.626C76.4173 591.156 77.1474 589.62 77.7503 588.033L78.2462 586.728L79.3403 583.627L80.3093 579.186L80.8457 573.995L80.9235 569.539L80.5427 565.818L80.3137 564.221C80.0255 562.212 79.5439 560.235 78.8755 558.319L78.0765 556.027C77.9685 555.718 78.0504 555.374 78.2862 555.146L115.158 519.54C115.288 519.414 115.488 519.39 115.644 519.483C116.834 520.191 118.116 520.733 119.454 521.092L120.987 521.504L122.459 521.886C124.333 522.374 126.249 522.687 128.181 522.823L130.916 523.014L137.16 522.826L141.289 522.15C142.904 521.885 144.497 521.495 146.052 520.982L147.828 520.398C149.368 519.89 150.867 519.265 152.311 518.527L152.554 518.403C153.942 517.693 155.276 516.881 156.544 515.974L157.415 515.351C158.672 514.452 159.862 513.462 160.974 512.388L162.024 511.374L164.603 508.299L166.95 504.667C167.724 503.469 168.34 502.176 168.783 500.82C169.174 499.625 169.428 498.389 169.539 497.136L169.577 496.713C169.686 495.485 169.683 494.25 169.569 493.022L169.365 490.849L169.17 489.893C168.937 488.748 168.529 487.645 167.961 486.624C167.478 485.755 166.884 484.952 166.193 484.237L165.336 483.35C163.49 481.839 161.436 480.603 159.238 479.679L158.128 479.212L154.433 478.108L151.321 477.608L147.907 477.399L146.811 477.38C146.295 477.371 145.909 476.903 145.998 476.395L146.323 474.549L146.545 472.824C146.854 470.424 146.886 467.996 146.64 465.589L146.629 465.491L146.267 463.277C146.151 462.569 145.974 461.872 145.737 461.194C145.316 459.987 144.711 458.852 143.944 457.829L143.069 456.662C141.527 455.066 139.688 453.787 137.654 452.897L137.195 452.697L135.201 452.127C133.58 451.665 131.906 451.416 130.222 451.386C128.946 451.364 127.671 451.468 126.416 451.696L125.684 451.829C123.464 452.233 121.305 452.914 119.255 453.857L118.297 454.298L116.208 455.616C114.699 456.567 113.274 457.645 111.947 458.837L109.563 460.981L106.681 464.348L104.091 468.017L102.247 471.551L102.048 471.952C101.258 473.548 100.604 475.207 100.094 476.913L99.7559 478.045L98.8077 481.297L98.0002 484.997L97.6409 488.557L97.589 491.528L97.6935 494.056L97.9387 497.031L98.4862 499.715L98.7832 500.884C98.8574 501.177 98.7694 501.486 98.5524 501.696L60.7127 538.237C60.4977 538.445 60.1886 538.523 59.9009 538.442L57.5563 537.781L53.7047 537.119L51.1822 536.926L47.9144 536.869L43.302 537.235L41.3377 537.538C39.7691 537.78 38.2212 538.141 36.707 538.616L34.0513 539.45L31.6798 540.337C29.9738 540.975 28.3263 541.76 26.7558 542.682L23.7116 544.47L21.3548 546.273C20.0167 547.297 18.7629 548.427 17.6053 549.651L16.1656 551.173L13.4245 554.989L13.1912 555.385C12.0232 557.37 11.0763 559.477 10.3674 561.668L10.3345 561.769L10.0487 562.982C9.70514 564.439 9.49755 565.926 9.42866 567.422C9.33851 569.379 9.48647 571.341 9.8693 573.263L9.97598 573.798L10.2691 574.732C10.6355 575.898 11.1364 577.018 11.7618 578.069L12.0013 578.471C12.4636 579.248 13.0142 579.969 13.6421 580.619C14.1783 581.174 14.7764 581.681 15.4111 582.12C15.9382 582.485 16.5009 582.812 17.0798 583.087L17.3793 583.23C18.754 583.884 20.215 584.338 21.718 584.58L22.5634 584.716L25.68 584.919L29.396 584.835L30.6591 584.731C31.799 584.637 32.9448 584.638 34.0845 584.734Z" fill="#FFD4F1"/>
<path d="M40.3969 580.06L40.418 578.849C40.4213 578.66 40.278 578.502 40.0902 578.486C39.3485 578.423 38.6029 578.423 37.8611 578.484L37.0392 578.552L34.6211 578.606L32.5929 578.474L32.0429 578.386C31.0648 578.228 30.1141 577.932 29.2195 577.507L29.0246 577.414C28.6479 577.235 28.2817 577.022 27.9387 576.785C27.5257 576.499 27.1365 576.169 26.7875 575.808C26.3789 575.385 26.0206 574.916 25.7198 574.41L25.564 574.149C25.157 573.465 24.831 572.736 24.5926 571.977L24.4019 571.37L24.3325 571.021C24.0833 569.77 23.9871 568.494 24.0457 567.22C24.0905 566.247 24.2256 565.279 24.4492 564.331L24.6352 563.542L24.6566 563.476C25.1179 562.05 25.7341 560.679 26.4941 559.387L26.646 559.129L28.4297 556.647L29.3666 555.656C30.1198 554.859 30.9357 554.124 31.8065 553.458L33.3401 552.285L35.3211 551.121C36.3431 550.521 37.4151 550.01 38.5253 549.595L40.0686 549.018L41.7967 548.476C42.782 548.166 43.7893 547.932 44.81 547.774L46.0883 547.576L49.0898 547.339L54.06 547.454L59.8919 548.121L62.9213 548.738C65.4225 549.248 67.3813 551.196 67.9049 553.694L69.8911 563.172L70.3221 566.176L70.5699 568.598L70.5193 571.498L70.1703 574.876L69.5397 577.765L68.8277 579.783L68.505 580.633C68.1127 581.666 67.6376 582.665 67.0842 583.621L66.4202 584.769L65.0799 586.599C64.3899 587.541 63.6207 588.423 62.7807 589.234L61.8697 590.114C61.3524 590.613 60.7987 591.073 60.213 591.491C59.3013 592.14 58.3174 592.682 57.281 593.105L56.1142 593.581L53.9777 594.124L52.707 594.267C52.0698 594.339 51.4276 594.356 50.7875 594.32C49.8229 594.264 48.8694 594.086 47.9502 593.788L47.1234 593.521C46.3036 593.189 45.5272 592.731 44.8427 592.171C44.3253 591.747 43.8579 591.266 43.4495 590.737L43.3404 590.596C42.8164 589.917 42.3787 589.175 42.0375 588.389L41.6219 587.43L40.9841 585.195L40.543 582.77L40.3969 580.06Z" fill="#FF50C7"/>
<path d="M142.723 481.243L141.511 481.222C141.322 481.219 141.169 481.07 141.16 480.882C141.123 480.138 141.148 479.393 141.235 478.654L141.332 477.835L141.471 475.42L141.409 473.388L141.34 472.836C141.217 471.853 140.955 470.892 140.561 469.983L140.475 469.785C140.309 469.403 140.109 469.029 139.884 468.678C139.613 468.255 139.297 467.855 138.948 467.494C138.539 467.07 138.083 466.696 137.588 466.378L137.332 466.213C136.663 465.782 135.946 465.431 135.195 465.166L134.595 464.954L134.249 464.873C133.008 464.58 131.736 464.44 130.461 464.454C129.486 464.465 128.515 464.566 127.559 464.756L126.764 464.914L126.697 464.934C125.256 465.345 123.865 465.913 122.547 466.627L122.284 466.77L119.741 468.466L118.718 469.368C117.895 470.093 117.132 470.883 116.436 471.729L115.21 473.221L113.978 475.16C113.343 476.161 112.795 477.214 112.341 478.309L111.711 479.832L111.108 481.54C110.764 482.514 110.495 483.512 110.302 484.527L110.06 485.797L109.717 488.789L109.659 493.76L110.122 499.611L110.633 502.661C111.055 505.178 112.934 507.204 115.412 507.814L124.815 510.13L127.803 510.666L130.214 510.998L133.114 511.048L136.502 510.817L139.412 510.288L141.453 509.647L142.313 509.354C143.359 508.998 144.375 508.558 145.35 508.038L146.52 507.415L148.396 506.139C149.361 505.483 150.269 504.745 151.109 503.933L152.02 503.054C152.537 502.554 153.017 502.017 153.454 501.446C154.135 500.558 154.711 499.593 155.17 498.572L155.686 497.423L156.303 495.306L156.491 494.041C156.585 493.407 156.625 492.766 156.61 492.125C156.589 491.159 156.443 490.2 156.178 489.271L155.94 488.435C155.637 487.604 155.206 486.812 154.67 486.109C154.265 485.577 153.801 485.093 153.286 484.666L153.149 484.552C152.488 484.005 151.763 483.542 150.988 483.173L150.045 482.724L147.834 482.009L145.426 481.484L142.723 481.243Z" fill="#FF50C7"/>
<rect x="498.098" width="5.94444" height="464.657" fill="white"/>
<path d="M448.085 507.734C448.373 507.758 448.593 508.002 448.588 508.292L448.556 510.154L448.78 514.318L449.458 518.044L450.438 521.479L451.077 522.952C451.601 524.161 452.274 525.3 453.079 526.344L453.247 526.561C453.875 527.374 454.593 528.113 455.388 528.764C456.44 529.624 457.633 530.328 458.893 530.838L460.163 531.249C461.576 531.706 463.041 531.981 464.523 532.066C465.507 532.123 466.494 532.096 467.473 531.985L469.426 531.765L472.709 530.931L474.502 530.199C476.095 529.549 477.607 528.717 479.008 527.719C479.908 527.078 480.759 526.37 481.554 525.603L482.954 524.251C484.244 523.004 485.427 521.65 486.487 520.202L488.546 517.389L489.567 515.626C490.417 514.156 491.147 512.62 491.75 511.033L492.246 509.728L493.34 506.627L494.309 502.186L494.846 496.995L494.923 492.539L494.543 488.818L494.314 487.221C494.025 485.212 493.544 483.235 492.875 481.319L492.076 479.027C491.969 478.718 492.05 478.374 492.286 478.146L529.158 442.54C529.288 442.414 529.488 442.39 529.644 442.483C530.834 443.191 532.116 443.733 533.454 444.092L534.987 444.504L536.459 444.886C538.333 445.374 540.249 445.687 542.181 445.823L544.916 446.014L551.16 445.826L555.289 445.15C556.904 444.885 558.497 444.495 560.052 443.982L561.828 443.398C563.368 442.89 564.867 442.265 566.311 441.527L566.554 441.403C567.942 440.693 569.276 439.881 570.544 438.974L571.415 438.351C572.672 437.452 573.862 436.462 574.974 435.388L576.024 434.374L578.603 431.299L580.95 427.667C581.724 426.469 582.34 425.176 582.783 423.82C583.174 422.625 583.428 421.389 583.539 420.136L583.577 419.713C583.686 418.485 583.683 417.25 583.569 416.022L583.365 413.849L583.17 412.893C582.937 411.748 582.529 410.645 581.961 409.624C581.478 408.755 580.884 407.952 580.193 407.237L579.336 406.35C577.49 404.839 575.436 403.603 573.238 402.679L572.128 402.212L568.433 401.108L565.321 400.608L561.907 400.399L560.811 400.38C560.295 400.371 559.909 399.903 559.998 399.395L560.323 397.549L560.545 395.824C560.854 393.424 560.886 390.996 560.64 388.589L560.629 388.491L560.267 386.277C560.151 385.569 559.974 384.872 559.737 384.194C559.316 382.987 558.711 381.852 557.944 380.829L557.069 379.662C555.527 378.066 553.688 376.787 551.654 375.897L551.195 375.697L549.201 375.127C547.58 374.665 545.906 374.416 544.222 374.386C542.946 374.364 541.671 374.468 540.416 374.696L539.684 374.829C537.464 375.233 535.305 375.914 533.255 376.857L532.297 377.298L530.208 378.616C528.699 379.567 527.274 380.645 525.947 381.837L523.563 383.981L520.681 387.348L518.091 391.017L516.247 394.551L516.048 394.952C515.258 396.548 514.604 398.207 514.094 399.913L513.756 401.045L512.808 404.297L512 407.997L511.641 411.557L511.589 414.528L511.693 417.056L511.939 420.031L512.486 422.715L512.783 423.884C512.857 424.177 512.769 424.486 512.552 424.696L474.713 461.237C474.498 461.445 474.189 461.523 473.901 461.442L471.556 460.781L467.705 460.119L465.182 459.926L461.914 459.869L457.302 460.235L455.338 460.538C453.769 460.78 452.221 461.141 450.707 461.616L448.051 462.45L445.68 463.337C443.974 463.975 442.326 464.76 440.756 465.682L437.712 467.47L435.355 469.273C434.017 470.297 432.763 471.427 431.605 472.651L430.166 474.173L427.425 477.989L427.191 478.385C426.023 480.37 425.076 482.477 424.367 484.668L424.335 484.769L424.049 485.982C423.705 487.439 423.498 488.926 423.429 490.422C423.339 492.379 423.486 494.341 423.869 496.263L423.976 496.798L424.269 497.732C424.635 498.898 425.136 500.018 425.762 501.069L426.001 501.471C426.464 502.248 427.014 502.969 427.642 503.619C428.178 504.174 428.776 504.681 429.411 505.12C429.938 505.485 430.501 505.812 431.08 506.087L431.379 506.23C432.754 506.884 434.215 507.338 435.718 507.58L436.563 507.716L439.68 507.919L443.396 507.835L444.659 507.731C445.799 507.637 446.945 507.638 448.085 507.734Z" fill="#FFD4F1"/>
<path d="M454.397 503.06L454.418 501.849C454.421 501.66 454.278 501.502 454.09 501.486C453.348 501.423 452.603 501.423 451.861 501.484L451.039 501.552L448.621 501.606L446.593 501.474L446.043 501.386C445.065 501.228 444.114 500.932 443.219 500.507L443.025 500.414C442.648 500.235 442.282 500.022 441.939 499.785C441.526 499.499 441.136 499.169 440.788 498.808C440.379 498.385 440.021 497.916 439.72 497.41L439.564 497.149C439.157 496.465 438.831 495.736 438.593 494.977L438.402 494.37L438.332 494.021C438.083 492.77 437.987 491.494 438.046 490.22C438.091 489.247 438.226 488.279 438.449 487.331L438.635 486.542L438.657 486.476C439.118 485.05 439.734 483.679 440.494 482.387L440.646 482.129L442.43 479.647L443.367 478.656C444.12 477.859 444.936 477.124 445.807 476.458L447.34 475.285L449.321 474.121C450.343 473.521 451.415 473.01 452.525 472.595L454.069 472.018L455.797 471.476C456.782 471.166 457.789 470.932 458.81 470.774L460.088 470.576L463.09 470.339L468.06 470.454L473.892 471.121L476.921 471.738C479.423 472.248 481.381 474.196 481.905 476.694L483.891 486.172L484.322 489.176L484.57 491.598L484.519 494.498L484.17 497.876L483.54 500.765L482.828 502.783L482.505 503.633C482.113 504.666 481.638 505.665 481.084 506.621L480.42 507.769L479.08 509.599C478.39 510.541 477.621 511.423 476.781 512.234L475.87 513.114C475.352 513.613 474.799 514.073 474.213 514.491C473.301 515.14 472.317 515.682 471.281 516.105L470.114 516.581L467.978 517.124L466.707 517.267C466.07 517.339 465.428 517.356 464.787 517.32C463.823 517.264 462.869 517.086 461.95 516.788L461.123 516.521C460.304 516.189 459.527 515.731 458.843 515.171C458.325 514.747 457.858 514.266 457.45 513.737L457.34 513.596C456.816 512.917 456.379 512.175 456.038 511.389L455.622 510.43L454.984 508.195L454.543 505.77L454.397 503.06Z" fill="#FF50C7"/>
<path d="M556.723 404.243L555.511 404.222C555.322 404.219 555.169 404.07 555.16 403.882C555.123 403.138 555.148 402.393 555.235 401.654L555.332 400.835L555.471 398.42L555.409 396.388L555.34 395.836C555.217 394.853 554.955 393.892 554.561 392.983L554.475 392.785C554.309 392.403 554.109 392.029 553.884 391.678C553.613 391.255 553.297 390.855 552.948 390.494C552.539 390.07 552.083 389.696 551.588 389.378L551.332 389.213C550.663 388.782 549.946 388.431 549.195 388.166L548.595 387.954L548.249 387.873C547.008 387.58 545.736 387.44 544.461 387.454C543.486 387.465 542.515 387.566 541.559 387.756L540.764 387.914L540.697 387.934C539.256 388.345 537.865 388.913 536.547 389.627L536.284 389.77L533.741 391.466L532.718 392.368C531.895 393.093 531.132 393.883 530.436 394.729L529.21 396.221L527.978 398.16C527.343 399.161 526.795 400.214 526.341 401.309L525.711 402.832L525.108 404.54C524.764 405.514 524.495 406.512 524.302 407.527L524.06 408.797L523.717 411.789L523.659 416.76L524.122 422.611L524.633 425.661C525.055 428.178 526.934 430.204 529.412 430.814L538.815 433.13L541.803 433.666L544.214 433.998L547.114 434.048L550.502 433.817L553.412 433.288L555.453 432.647L556.313 432.354C557.359 431.998 558.375 431.558 559.35 431.038L560.52 430.415L562.396 429.139C563.361 428.483 564.269 427.745 565.109 426.933L566.02 426.054C566.537 425.554 567.017 425.017 567.454 424.446C568.135 423.558 568.711 422.593 569.17 421.572L569.686 420.423L570.303 418.306L570.491 417.041C570.585 416.407 570.625 415.766 570.61 415.125C570.589 414.159 570.443 413.2 570.178 412.271L569.94 411.435C569.637 410.604 569.206 409.812 568.67 409.109C568.265 408.577 567.801 408.093 567.286 407.666L567.149 407.552C566.488 407.005 565.763 406.542 564.988 406.173L564.045 405.724L561.834 405.009L559.426 404.484L556.723 404.243Z" fill="#FF50C7"/>
<rect x="998.098" y="94" width="5.94444" height="464.657" fill="white"/>
<path d="M948.085 601.734C948.373 601.758 948.593 602.002 948.588 602.292L948.556 604.154L948.78 608.318L949.458 612.044L950.438 615.479L951.077 616.952C951.601 618.161 952.274 619.3 953.079 620.344L953.247 620.561C953.875 621.374 954.593 622.113 955.388 622.764C956.44 623.624 957.633 624.328 958.893 624.838L960.163 625.249C961.576 625.706 963.041 625.981 964.523 626.066C965.507 626.123 966.494 626.096 967.473 625.985L969.426 625.765L972.709 624.931L974.502 624.199C976.095 623.549 977.607 622.717 979.008 621.719C979.908 621.078 980.759 620.37 981.554 619.603L982.954 618.251C984.244 617.004 985.427 615.65 986.487 614.202L988.546 611.389L989.567 609.626C990.417 608.156 991.147 606.62 991.75 605.033L992.246 603.728L993.34 600.627L994.309 596.186L994.846 590.995L994.923 586.539L994.543 582.818L994.314 581.221C994.025 579.212 993.544 577.235 992.875 575.319L992.076 573.027C991.969 572.718 992.05 572.374 992.286 572.146L1029.16 536.54C1029.29 536.414 1029.49 536.39 1029.64 536.483C1030.83 537.191 1032.12 537.733 1033.45 538.092L1034.99 538.504L1036.46 538.886C1038.33 539.374 1040.25 539.687 1042.18 539.823L1044.92 540.014L1051.16 539.826L1055.29 539.15C1056.9 538.885 1058.5 538.495 1060.05 537.982L1061.83 537.398C1063.37 536.89 1064.87 536.265 1066.31 535.527L1066.55 535.403C1067.94 534.693 1069.28 533.881 1070.54 532.974L1071.42 532.351C1072.67 531.452 1073.86 530.462 1074.97 529.388L1076.02 528.374L1078.6 525.299L1080.95 521.667C1081.72 520.469 1082.34 519.176 1082.78 517.82C1083.17 516.625 1083.43 515.389 1083.54 514.136L1083.58 513.713C1083.69 512.485 1083.68 511.25 1083.57 510.022L1083.37 507.849L1083.17 506.893C1082.94 505.748 1082.53 504.645 1081.96 503.624C1081.48 502.755 1080.88 501.952 1080.19 501.237L1079.34 500.35C1077.49 498.839 1075.44 497.603 1073.24 496.679L1072.13 496.212L1068.43 495.108L1065.32 494.608L1061.91 494.399L1060.81 494.38C1060.29 494.371 1059.91 493.903 1060 493.395L1060.32 491.549L1060.55 489.824C1060.85 487.424 1060.89 484.996 1060.64 482.589L1060.63 482.491L1060.27 480.277C1060.15 479.569 1059.97 478.872 1059.74 478.194C1059.32 476.987 1058.71 475.852 1057.94 474.829L1057.07 473.662C1055.53 472.066 1053.69 470.787 1051.65 469.897L1051.2 469.697L1049.2 469.127C1047.58 468.665 1045.91 468.416 1044.22 468.386C1042.95 468.364 1041.67 468.468 1040.42 468.696L1039.68 468.829C1037.46 469.233 1035.3 469.914 1033.26 470.857L1032.3 471.298L1030.21 472.616C1028.7 473.567 1027.27 474.645 1025.95 475.837L1023.56 477.981L1020.68 481.348L1018.09 485.017L1016.25 488.551L1016.05 488.952C1015.26 490.548 1014.6 492.207 1014.09 493.913L1013.76 495.045L1012.81 498.297L1012 501.997L1011.64 505.557L1011.59 508.528L1011.69 511.056L1011.94 514.031L1012.49 516.715L1012.78 517.884C1012.86 518.177 1012.77 518.486 1012.55 518.696L974.713 555.237C974.498 555.445 974.189 555.523 973.901 555.442L971.556 554.781L967.705 554.119L965.182 553.926L961.914 553.869L957.302 554.235L955.338 554.538C953.769 554.78 952.221 555.141 950.707 555.616L948.051 556.45L945.68 557.337C943.974 557.975 942.326 558.76 940.756 559.682L937.712 561.47L935.355 563.273C934.017 564.297 932.763 565.427 931.605 566.651L930.166 568.173L927.425 571.989L927.191 572.385C926.023 574.37 925.076 576.477 924.367 578.668L924.335 578.769L924.049 579.982C923.705 581.439 923.498 582.926 923.429 584.422C923.339 586.379 923.486 588.341 923.869 590.263L923.976 590.798L924.269 591.732C924.635 592.898 925.136 594.018 925.762 595.069L926.001 595.471C926.464 596.248 927.014 596.969 927.642 597.619C928.178 598.174 928.776 598.681 929.411 599.12C929.938 599.485 930.501 599.812 931.08 600.087L931.379 600.23C932.754 600.884 934.215 601.338 935.718 601.58L936.563 601.716L939.68 601.919L943.396 601.835L944.659 601.731C945.799 601.637 946.945 601.638 948.085 601.734Z" fill="#FFD4F1"/>
<path d="M954.397 597.06L954.418 595.849C954.421 595.66 954.278 595.502 954.09 595.486C953.348 595.423 952.603 595.423 951.861 595.484L951.039 595.552L948.621 595.606L946.593 595.474L946.043 595.386C945.065 595.228 944.114 594.932 943.219 594.507L943.025 594.414C942.648 594.235 942.282 594.022 941.939 593.785C941.526 593.499 941.136 593.169 940.788 592.808C940.379 592.385 940.021 591.916 939.72 591.41L939.564 591.149C939.157 590.465 938.831 589.736 938.593 588.977L938.402 588.37L938.332 588.021C938.083 586.77 937.987 585.494 938.046 584.22C938.091 583.247 938.226 582.279 938.449 581.331L938.635 580.542L938.657 580.476C939.118 579.05 939.734 577.679 940.494 576.387L940.646 576.129L942.43 573.647L943.367 572.656C944.12 571.859 944.936 571.124 945.807 570.458L947.34 569.285L949.321 568.121C950.343 567.521 951.415 567.01 952.525 566.595L954.069 566.018L955.797 565.476C956.782 565.166 957.789 564.932 958.81 564.774L960.088 564.576L963.09 564.339L968.06 564.454L973.892 565.121L976.921 565.738C979.423 566.248 981.381 568.196 981.905 570.694L983.891 580.172L984.322 583.176L984.57 585.598L984.519 588.498L984.17 591.876L983.54 594.765L982.828 596.783L982.505 597.633C982.113 598.666 981.638 599.665 981.084 600.621L980.42 601.769L979.08 603.599C978.39 604.541 977.621 605.423 976.781 606.234L975.87 607.114C975.352 607.613 974.799 608.073 974.213 608.491C973.301 609.14 972.317 609.682 971.281 610.105L970.114 610.581L967.978 611.124L966.707 611.267C966.07 611.339 965.428 611.356 964.787 611.32C963.823 611.264 962.869 611.086 961.95 610.788L961.123 610.521C960.304 610.189 959.527 609.731 958.843 609.171C958.325 608.747 957.858 608.266 957.45 607.737L957.34 607.596C956.816 606.917 956.379 606.175 956.038 605.389L955.622 604.43L954.984 602.195L954.543 599.77L954.397 597.06Z" fill="#FF50C7"/>
<path d="M1056.72 498.243L1055.51 498.222C1055.32 498.219 1055.17 498.07 1055.16 497.882C1055.12 497.138 1055.15 496.393 1055.24 495.654L1055.33 494.835L1055.47 492.42L1055.41 490.388L1055.34 489.836C1055.22 488.853 1054.95 487.892 1054.56 486.983L1054.47 486.785C1054.31 486.403 1054.11 486.029 1053.88 485.678C1053.61 485.255 1053.3 484.855 1052.95 484.494C1052.54 484.07 1052.08 483.696 1051.59 483.378L1051.33 483.213C1050.66 482.782 1049.95 482.431 1049.2 482.166L1048.6 481.954L1048.25 481.873C1047.01 481.58 1045.74 481.44 1044.46 481.454C1043.49 481.465 1042.51 481.566 1041.56 481.756L1040.76 481.914L1040.7 481.934C1039.26 482.345 1037.86 482.913 1036.55 483.627L1036.28 483.77L1033.74 485.466L1032.72 486.368C1031.9 487.093 1031.13 487.883 1030.44 488.729L1029.21 490.221L1027.98 492.16C1027.34 493.161 1026.79 494.214 1026.34 495.309L1025.71 496.832L1025.11 498.54C1024.76 499.514 1024.49 500.512 1024.3 501.527L1024.06 502.797L1023.72 505.789L1023.66 510.76L1024.12 516.611L1024.63 519.661C1025.06 522.178 1026.93 524.204 1029.41 524.814L1038.81 527.13L1041.8 527.666L1044.21 527.998L1047.11 528.048L1050.5 527.817L1053.41 527.288L1055.45 526.647L1056.31 526.354C1057.36 525.998 1058.37 525.558 1059.35 525.038L1060.52 524.415L1062.4 523.139C1063.36 522.483 1064.27 521.745 1065.11 520.933L1066.02 520.054C1066.54 519.554 1067.02 519.017 1067.45 518.446C1068.14 517.558 1068.71 516.593 1069.17 515.572L1069.69 514.423L1070.3 512.306L1070.49 511.041C1070.58 510.407 1070.62 509.766 1070.61 509.125C1070.59 508.159 1070.44 507.2 1070.18 506.271L1069.94 505.435C1069.64 504.604 1069.21 503.812 1068.67 503.109C1068.27 502.577 1067.8 502.093 1067.29 501.666L1067.15 501.552C1066.49 501.005 1065.76 500.542 1064.99 500.173L1064.04 499.724L1061.83 499.009L1059.43 498.484L1056.72 498.243Z" fill="#FF50C7"/>
</svg>
