<svg width="1444" height="84" viewBox="0 0 1444 84" fill="none" xmlns="http://www.w3.org/2000/svg">
<path d="M380.71 83.8301L344.41 20.9569H417.009L380.71 83.8301Z" fill="#FFC9E4"/>
<rect x="339.484" y="17.7578" width="427.485" height="3.58228" fill="#FFC9E4"/>
<path d="M467.858 83.8301L431.558 20.9569H504.158L467.858 83.8301Z" fill="#001AFF"/>
<path d="M551.686 83.8301L515.386 20.9569H587.986L551.686 83.8301Z" fill="#FFC9E4"/>
<path d="M635.518 83.8301L599.218 20.9569H671.818L635.518 83.8301Z" fill="#001AFF"/>
<path d="M719.35 83.8301L683.05 20.9569H755.65L719.35 83.8301Z" fill="#FFC9E4"/>
<rect y="18" width="342" height="3" fill="#FFC9E4"/>
<path d="M42.2564 83.8301L5.95654 20.9569H78.5563L42.2564 83.8301Z" fill="#FFC9E4"/>
<path d="M126.085 83.8301L89.7847 20.9569H162.384L126.085 83.8301Z" fill="#001AFF"/>
<path d="M209.913 83.8301L173.613 20.9569H246.213L209.913 83.8301Z" fill="#FFC9E4"/>
<path d="M293.749 83.8301L257.449 20.9569H330.048L293.749 83.8301Z" fill="#001AFF"/>
<path d="M1057.71 83.8301L1021.41 20.9569H1094.01L1057.71 83.8301Z" fill="#FFC9E4"/>
<rect x="1016.48" y="17.7578" width="427.485" height="3.58228" fill="#FFC9E4"/>
<path d="M1144.86 83.8301L1108.56 20.9569H1181.16L1144.86 83.8301Z" fill="#001AFF"/>
<path d="M1228.69 83.8301L1192.39 20.9569H1264.99L1228.69 83.8301Z" fill="#FFC9E4"/>
<path d="M1312.52 83.8301L1276.22 20.9569H1348.82L1312.52 83.8301Z" fill="#001AFF"/>
<path d="M1396.35 83.8301L1360.05 20.9569H1432.65L1396.35 83.8301Z" fill="#FFC9E4"/>
<rect x="677" y="18" width="342" height="3" fill="#FFC9E4"/>
<path d="M719.256 83.8301L682.957 20.9569H755.556L719.256 83.8301Z" fill="#FFC9E4"/>
<path d="M803.085 83.8301L766.785 20.9569H839.384L803.085 83.8301Z" fill="#001AFF"/>
<path d="M886.913 83.8301L850.613 20.9569H923.213L886.913 83.8301Z" fill="#FFC9E4"/>
<path d="M970.749 83.8301L934.449 20.9569H1007.05L970.749 83.8301Z" fill="#001AFF"/>
</svg>
