<svg width="1026" height="468" viewBox="0 0 1026 468" fill="none" xmlns="http://www.w3.org/2000/svg">
<rect x="49.5391" y="77" width="5.94444" height="315.055" fill="white"/>
<path d="M56.1671 358.58L54.4707 360.602C54.2069 360.916 53.7445 360.972 53.4133 360.73C52.1051 359.773 50.8787 358.709 49.7469 357.548L48.4928 356.263L44.5963 352.718L41.0743 350.038L40.0439 349.397C38.2118 348.258 36.2266 347.386 34.1483 346.808L33.6954 346.682C32.8202 346.438 31.9149 346.264 31.0119 346.164C29.9247 346.044 28.8138 346.03 27.7241 346.125C26.448 346.237 25.1891 346.496 23.9725 346.897L23.3423 347.104C21.6966 347.647 20.1195 348.379 18.6431 349.286L17.4619 350.012L16.8498 350.485C14.6535 352.185 12.6717 354.145 10.9481 356.323C9.63093 357.987 8.47108 359.769 7.48344 361.648L6.66204 363.21L6.60274 363.349C5.32379 366.352 4.3778 369.485 3.78172 372.694L3.66264 373.335L3.04713 379.964L3.17136 382.931C3.27123 385.316 3.56224 387.69 4.04159 390.029L4.88585 394.148L6.47918 398.891C7.30118 401.338 8.33375 403.708 9.56528 405.977L11.2772 409.13L13.3421 412.491C14.5194 414.407 15.8399 416.232 17.2921 417.949L19.1109 420.1L23.7043 424.779L32.0372 431.691L42.5755 438.927L48.4364 442.24C53.2755 444.976 59.2779 444.573 63.708 441.215L80.5128 428.476L85.5142 424.153L89.3811 420.527L93.4407 415.689L97.6932 409.639L100.785 403.989L102.498 399.655L103.181 397.798C104.012 395.54 104.659 393.218 105.116 390.856L105.664 388.021L106.076 383.098C106.288 380.564 106.283 378.016 106.062 375.483L105.821 372.736C105.685 371.176 105.432 369.628 105.066 368.105C104.496 365.735 103.652 363.439 102.553 361.264L101.316 358.814L98.5799 354.869L96.6961 352.818C95.7515 351.79 94.7212 350.844 93.6165 349.99C91.952 348.703 90.1298 347.634 88.1941 346.809L86.453 346.068C84.6315 345.442 82.7008 345.086 80.7756 345.028C79.3206 344.985 77.8653 345.107 76.438 345.394L76.0566 345.47C74.2254 345.837 72.4469 346.431 70.7619 347.236L68.7094 348.218L64.4681 350.98L60.2787 354.335L56.1671 358.58Z" fill="#FF50C7"/>
<rect x="463.539" width="5.94444" height="315.055" fill="white"/>
<path d="M470.167 281.58L468.471 283.602C468.207 283.916 467.745 283.972 467.413 283.73C466.105 282.773 464.879 281.709 463.747 280.548L462.493 279.263L458.596 275.718L455.074 273.038L454.044 272.397C452.212 271.258 450.227 270.386 448.148 269.808L447.695 269.682C446.82 269.438 445.915 269.264 445.012 269.164C443.925 269.044 442.814 269.03 441.724 269.125C440.448 269.237 439.189 269.496 437.973 269.897L437.342 270.104C435.697 270.647 434.12 271.379 432.643 272.286L431.462 273.012L430.85 273.485C428.653 275.185 426.672 277.145 424.948 279.323C423.631 280.987 422.471 282.769 421.483 284.648L420.662 286.21L420.603 286.349C419.324 289.352 418.378 292.485 417.782 295.694L417.663 296.335L417.047 302.964L417.171 305.931C417.271 308.316 417.562 310.69 418.042 313.029L418.886 317.148L420.479 321.891C421.301 324.338 422.334 326.708 423.565 328.977L425.277 332.13L427.342 335.491C428.519 337.407 429.84 339.232 431.292 340.949L433.111 343.1L437.704 347.779L446.037 354.691L456.576 361.927L462.436 365.24C467.276 367.976 473.278 367.573 477.708 364.215L494.513 351.476L499.514 347.153L503.381 343.527L507.441 338.689L511.693 332.639L514.785 326.989L516.498 322.655L517.181 320.798C518.012 318.54 518.659 316.218 519.116 313.856L519.664 311.021L520.076 306.098C520.288 303.564 520.283 301.016 520.062 298.483L519.821 295.736C519.685 294.176 519.432 292.628 519.066 291.105C518.496 288.735 517.652 286.439 516.553 284.264L515.316 281.814L512.58 277.869L510.696 275.818C509.751 274.79 508.721 273.844 507.617 272.99C505.952 271.703 504.13 270.634 502.194 269.809L500.453 269.068C498.632 268.442 496.701 268.086 494.776 268.028C493.321 267.985 491.865 268.107 490.438 268.394L490.057 268.47C488.225 268.837 486.447 269.431 484.762 270.236L482.709 271.218L478.468 273.98L474.279 277.335L470.167 281.58Z" fill="#FF50C7"/>
<rect x="963.539" y="94" width="5.94444" height="315.055" fill="white"/>
<path d="M970.167 375.58L968.471 377.602C968.207 377.916 967.745 377.972 967.413 377.73C966.105 376.773 964.879 375.709 963.747 374.548L962.493 373.263L958.596 369.718L955.074 367.038L954.044 366.397C952.212 365.258 950.227 364.386 948.148 363.808L947.695 363.682C946.82 363.438 945.915 363.264 945.012 363.164C943.925 363.044 942.814 363.03 941.724 363.125C940.448 363.237 939.189 363.496 937.973 363.897L937.342 364.104C935.697 364.647 934.12 365.379 932.643 366.286L931.462 367.012L930.85 367.485C928.653 369.185 926.672 371.145 924.948 373.323C923.631 374.987 922.471 376.769 921.483 378.648L920.662 380.21L920.603 380.349C919.324 383.352 918.378 386.485 917.782 389.694L917.663 390.335L917.047 396.964L917.171 399.931C917.271 402.316 917.562 404.69 918.042 407.029L918.886 411.148L920.479 415.891C921.301 418.338 922.334 420.708 923.565 422.977L925.277 426.13L927.342 429.491C928.519 431.407 929.84 433.232 931.292 434.949L933.111 437.1L937.704 441.779L946.037 448.691L956.576 455.927L962.436 459.24C967.276 461.976 973.278 461.573 977.708 458.215L994.513 445.476L999.514 441.153L1003.38 437.527L1007.44 432.689L1011.69 426.639L1014.79 420.989L1016.5 416.655L1017.18 414.798C1018.01 412.54 1018.66 410.218 1019.12 407.856L1019.66 405.021L1020.08 400.098C1020.29 397.564 1020.28 395.016 1020.06 392.483L1019.82 389.736C1019.68 388.176 1019.43 386.628 1019.07 385.105C1018.5 382.735 1017.65 380.439 1016.55 378.264L1015.32 375.814L1012.58 371.869L1010.7 369.818C1009.75 368.79 1008.72 367.844 1007.62 366.99C1005.95 365.703 1004.13 364.634 1002.19 363.809L1000.45 363.068C998.632 362.442 996.701 362.086 994.776 362.028C993.321 361.985 991.865 362.107 990.438 362.394L990.057 362.47C988.225 362.837 986.447 363.431 984.762 364.236L982.709 365.218L978.468 367.98L974.279 371.335L970.167 375.58Z" fill="#FF50C7"/>
</svg>
