<svg width="2675" height="132" viewBox="0 0 2675 132" fill="none" xmlns="http://www.w3.org/2000/svg">
<rect y="28.1133" width="674.749" height="5.62291" fill="#FF50C7"/>
<path d="M735.715 131.584L678.737 32.8953H792.693L735.715 131.584Z" fill="#FF50C7"/>
<rect x="671" y="27.873" width="671" height="5.62291" fill="#FF50C7"/>
<path d="M872.501 131.584L815.523 32.8953H929.478L872.501 131.584Z" fill="#001AFF"/>
<path d="M1004.08 131.584L947.105 32.8953H1061.06L1004.08 131.584Z" fill="#FF50C7"/>
<path d="M1135.67 131.584L1078.69 32.8953H1192.65L1135.67 131.584Z" fill="#001AFF"/>
<path d="M1267.25 131.584L1210.28 32.8953H1324.23L1267.25 131.584Z" fill="#FF50C7"/>
<path d="M67.6685 131.584L10.6906 32.8953H124.646L67.6685 131.584Z" fill="#001AFF"/>
<path d="M204.458 131.584L147.48 32.8953H261.435L204.458 131.584Z" fill="#FF50C7"/>
<path d="M336.036 131.584L279.058 32.8953H393.014L336.036 131.584Z" fill="#001AFF"/>
<path d="M467.622 131.584L410.644 32.8953H524.6L467.622 131.584Z" fill="#FF50C7"/>
<path d="M599.208 131.584L542.23 32.8953H656.185L599.208 131.584Z" fill="#001AFF"/>
<rect x="1333" y="28.1133" width="674.749" height="5.62291" fill="#FF50C7"/>
<path d="M2068.72 131.584L2011.74 32.8953H2125.69L2068.72 131.584Z" fill="#FF50C7"/>
<rect x="2004" y="27.873" width="671" height="5.62291" fill="#FF50C7"/>
<path d="M2205.5 131.584L2148.52 32.8953H2262.48L2205.5 131.584Z" fill="#001AFF"/>
<path d="M2337.08 131.584L2280.1 32.8953H2394.06L2337.08 131.584Z" fill="#FF50C7"/>
<path d="M2468.67 131.584L2411.69 32.8953H2525.65L2468.67 131.584Z" fill="#001AFF"/>
<path d="M2600.25 131.584L2543.28 32.8953H2657.23L2600.25 131.584Z" fill="#FF50C7"/>
<path d="M1400.67 131.584L1343.69 32.8953H1457.65L1400.67 131.584Z" fill="#001AFF"/>
<path d="M1537.46 131.584L1480.48 32.8953H1594.44L1537.46 131.584Z" fill="#FF50C7"/>
<path d="M1669.04 131.584L1612.06 32.8953H1726.01L1669.04 131.584Z" fill="#001AFF"/>
<path d="M1800.62 131.584L1743.64 32.8953H1857.6L1800.62 131.584Z" fill="#FF50C7"/>
<path d="M1932.21 131.584L1875.23 32.8953H1989.19L1932.21 131.584Z" fill="#001AFF"/>
</svg>
