<svg width="544" height="363" viewBox="0 0 544 363" fill="none" xmlns="http://www.w3.org/2000/svg">
<path d="M58.8545 306.884C58.3659 304.148 58.1201 301.374 58.1201 298.594V289.057C58.1201 272.122 70.0737 257.541 86.6802 254.219V254.219L129.52 251.363H200.92H246.617H305.165H356.573H397.985V279.924V280.383C397.985 290.361 400.697 300.151 405.83 308.707V308.707C406.192 309.31 407.039 309.391 407.519 308.877V308.877C419.564 295.972 436.567 288.492 454.22 288.492H491.333C508.644 288.492 525.53 293.851 539.672 303.834V303.834C540.739 304.587 542.213 303.824 542.213 302.517V284.208V270.85C542.213 257.922 540.411 245.057 536.86 232.627V232.627C534.721 225.139 531.956 217.844 528.597 210.819L522.879 198.864C519.589 191.986 515.775 185.371 511.469 179.078L499.373 161.399L490.736 151.611C483.468 143.373 483.585 130.979 491.009 122.881V122.881C492.762 120.967 494.155 118.752 495.119 116.343L497.271 110.961C500.507 102.873 501.32 94.0191 499.611 85.4773L499.309 83.9685C498.408 79.4609 496.669 75.1622 494.183 71.2954L490.309 65.2685C486.997 60.116 481.609 56.6572 475.545 55.7909L473.887 55.5541C468.356 54.764 462.776 56.6241 458.825 60.5747L458.646 60.7536C454.64 64.7602 452.854 70.4776 453.867 76.0524L454.157 77.6466C454.766 80.9923 456.64 83.975 459.39 85.9751L463.159 88.7165C467.302 91.7297 468.034 97.6182 464.754 101.554V101.554C464.04 102.411 463.17 103.125 462.19 103.66L447.965 111.419L426.545 94.2831L429.336 74.7434C430.33 67.7866 430.829 60.768 430.829 53.7406V41.9795C430.829 37.8299 430.358 33.6937 429.425 29.6503L428.052 23.7003C427.061 19.4052 425.093 15.3963 422.302 11.9847V11.9847C416.853 5.3251 408.703 1.46289 400.098 1.46289H395.34C392.392 1.46289 389.493 2.2142 386.915 3.6459L383.986 5.2734C380.287 7.3284 377.993 11.2273 377.993 15.4588V15.4588C377.993 19.2217 379.81 22.753 382.872 24.9401L387.21 28.0389C393.84 32.7743 397.312 40.7841 396.235 48.8596L395.83 51.8961C395.367 55.3691 394.235 58.7193 392.497 61.7614L383.705 77.1471L365.141 71.435L336.253 66.4544C327.919 65.0174 319.477 64.295 311.02 64.295H297.022C287.242 64.295 277.487 65.2611 267.897 67.179L262.257 68.3069C251.876 70.3831 241.819 73.8339 232.35 78.5683L227.922 80.7822C225.158 82.1646 222.286 83.3223 219.336 84.2443L217.371 84.8584C206.695 88.1946 195.223 87.9643 184.69 84.2024V84.2024C182.186 83.3082 179.617 82.6092 177.005 82.1118L162.468 79.3428C154.881 77.8976 147.065 78.1806 139.601 80.1708V80.1708C132.949 81.9449 126.72 85.0373 121.285 89.2646L103.816 102.851L87.9641 112.362C84.5369 114.419 80.2554 114.419 76.8283 112.362V112.362C75.7876 111.738 74.8594 110.943 74.0825 110.011L65.3307 99.5085C62.453 96.0554 60.2466 92.0945 58.8252 87.8301L57.129 82.7417C55.9147 79.0987 53.6183 75.9127 50.5463 73.6087L47.3486 71.2104C41.9909 67.1921 34.5391 67.5251 29.5612 72.0053V72.0053C26.0024 75.2082 24.3245 80.006 25.1117 84.7287L26.9561 95.795C27.7318 100.45 29.4547 104.895 32.0182 108.857L36.4592 115.72C41.3389 123.262 47.5529 129.85 54.7963 135.162L65.2601 142.835L85.2522 158.543V158.543C91.4335 162.075 95.2482 168.649 95.2482 175.768V177.861C95.2482 182.933 93.6029 187.869 90.5594 191.927L86.7587 196.995C83.8714 200.844 80.3504 204.175 76.3464 206.845L66.8344 213.186C62.9578 215.77 58.6656 217.669 54.1456 218.799V218.799C47.3887 220.488 40.3112 220.413 33.5918 218.58L28.1321 217.091L17.8735 215.226C14.3672 214.589 10.7492 215.282 7.72715 217.171V217.171C3.54228 219.786 1 224.373 1 229.308V233.767C1 236.895 1.65646 239.988 2.92694 242.847L3.85413 244.933C5.70173 249.09 8.93693 252.476 13.0059 254.51V254.51C19.6507 257.833 23.8481 264.624 23.8481 272.053V299.524C23.8481 303.584 24.234 307.635 25.0008 311.622L28.8783 331.785C30.2532 338.934 33.7397 345.507 38.8876 350.655L46.7862 358.554C48.5572 360.325 50.9592 361.32 53.4637 361.32V361.32C57.8611 361.32 61.6766 358.284 62.6654 354L64.384 346.552C64.9621 344.047 65.0271 341.451 64.5752 338.92L58.8545 306.884Z" fill="white"/>
<path d="M33.2008 197.501C31.7292 201.033 30.6102 204.701 29.8598 208.453L28.1321 217.091L33.5918 218.58C40.3112 220.413 47.3887 220.488 54.1456 218.799V218.799C58.6656 217.669 62.9578 215.77 66.8344 213.186L76.3464 206.845C80.3504 204.175 83.8714 200.844 86.7587 196.995L90.5594 191.927C93.6029 187.869 95.2482 182.933 95.2482 177.861V175.768C95.2482 168.649 91.4335 162.075 85.2522 158.543V158.543V158.543C78.7017 158.543 72.2646 160.253 66.5772 163.503L61.1895 166.581C57.2515 168.832 53.5768 171.514 50.2334 174.579L47.5718 177.019C41.3507 182.721 36.4467 189.711 33.2008 197.501V197.501Z" fill="white"/>
<path d="M28.1321 217.091L17.8735 215.226C14.3672 214.589 10.7492 215.282 7.72715 217.171V217.171C3.54228 219.786 1 224.373 1 229.308V233.767C1 236.895 1.65646 239.988 2.92694 242.847L3.85413 244.933C5.70173 249.09 8.93693 252.476 13.0059 254.51V254.51C19.6507 257.833 23.8481 264.624 23.8481 272.053V299.524C23.8481 303.584 24.234 307.635 25.0008 311.622L28.8783 331.785C30.2532 338.934 33.7397 345.507 38.8876 350.655L46.7862 358.554C48.5572 360.325 50.9592 361.32 53.4637 361.32V361.32C57.8611 361.32 61.6766 358.284 62.6654 354L64.384 346.552C64.9621 344.047 65.0271 341.451 64.5752 338.92L58.8545 306.884C58.3659 304.148 58.1201 301.374 58.1201 298.594V289.057C58.1201 272.122 70.0737 257.541 86.6802 254.219V254.219L129.52 251.363H200.92H246.617H305.165H356.573H397.985M28.1321 217.091L29.8598 208.453C30.6102 204.701 31.7292 201.033 33.2008 197.501V197.501C36.4467 189.711 41.3507 182.721 47.5718 177.019L50.2334 174.579C53.5768 171.514 57.2515 168.832 61.1895 166.581L66.5772 163.503C72.2646 160.253 78.7017 158.543 85.2522 158.543V158.543M28.1321 217.091L33.5918 218.58C40.3112 220.413 47.3887 220.488 54.1456 218.799V218.799C58.6656 217.669 62.9578 215.77 66.8344 213.186L76.3464 206.845C80.3504 204.175 83.8714 200.844 86.7587 196.995L90.5594 191.927C93.6029 187.869 95.2482 182.933 95.2482 177.861V175.768C95.2482 168.649 91.4335 162.075 85.2522 158.543V158.543M85.2522 158.543L65.2601 142.835L54.7963 135.162C47.5529 129.85 41.3389 123.262 36.4592 115.72L32.0182 108.857C29.4547 104.895 27.7318 100.45 26.9561 95.795L25.1117 84.7287C24.3245 80.006 26.0024 75.2082 29.5612 72.0053V72.0053C34.5391 67.5251 41.9909 67.1921 47.3486 71.2104L50.5463 73.6087C53.6183 75.9127 55.9147 79.0987 57.129 82.7417L58.8252 87.8301C60.2466 92.0945 62.453 96.0554 65.3307 99.5085L74.0825 110.011C74.8594 110.943 75.7876 111.738 76.8283 112.362V112.362C80.2554 114.419 84.5369 114.419 87.9641 112.362L103.816 102.851L121.285 89.2646C126.72 85.0373 132.949 81.9449 139.601 80.1708V80.1708C147.065 78.1806 154.881 77.8976 162.468 79.3428L177.005 82.1118C179.617 82.6092 182.186 83.3082 184.69 84.2024V84.2024C195.223 87.9643 206.695 88.1946 217.371 84.8584L219.336 84.2443C222.286 83.3223 225.158 82.1646 227.922 80.7822L232.35 78.5683C241.819 73.8339 251.876 70.3831 262.257 68.3069L267.897 67.179C277.487 65.2611 287.242 64.295 297.022 64.295H311.02C319.477 64.295 327.919 65.0174 336.253 66.4544L365.141 71.435L383.705 77.1471M383.705 77.1471L373.359 91.4715C367.893 99.041 361.724 106.078 354.936 112.489L349.731 117.405C342.884 123.872 335.437 129.673 327.491 134.729L323.729 137.123M383.705 77.1471L392.497 61.7614C394.235 58.7193 395.367 55.3691 395.83 51.8961L396.235 48.8596C397.312 40.7841 393.84 32.7743 387.21 28.0389L382.872 24.9401C379.81 22.753 377.993 19.2217 377.993 15.4588V15.4588C377.993 11.2273 380.287 7.3284 383.986 5.2734L386.915 3.6459C389.493 2.2142 392.392 1.46289 395.34 1.46289H400.098C408.703 1.46289 416.853 5.3251 422.302 11.9847V11.9847C425.093 15.3963 427.061 19.4052 428.052 23.7003L429.425 29.6503C430.358 33.6937 430.829 37.8299 430.829 41.9795V53.7406C430.829 60.768 430.33 67.7866 429.336 74.7434L426.545 94.2831M426.545 94.2831L413.693 119.987L397.985 142.835L383.705 158.543M426.545 94.2831L447.965 111.419M447.965 111.419L462.19 103.66C463.17 103.125 464.04 102.411 464.754 101.554V101.554C468.034 97.6182 467.302 91.7297 463.159 88.7165L459.39 85.9751C456.64 83.975 454.766 80.9923 454.157 77.6466L453.867 76.0524C452.854 70.4776 454.64 64.7602 458.646 60.7536L458.825 60.5747C462.776 56.6241 468.356 54.764 473.887 55.5541L475.545 55.7909C481.609 56.6572 486.997 60.116 490.309 65.2685L494.183 71.2954C496.669 75.1622 498.408 79.4609 499.309 83.9685L499.611 85.4773C501.32 94.0191 500.507 102.873 497.271 110.961L495.119 116.343C494.155 118.752 492.762 120.967 491.009 122.881V122.881C483.585 130.979 483.468 143.373 490.736 151.611L499.373 161.399L511.469 179.078C515.775 185.371 519.589 191.986 522.879 198.864L528.597 210.819C531.956 217.844 534.721 225.139 536.86 232.627V232.627C540.411 245.057 542.213 257.922 542.213 270.85V284.208V302.517C542.213 303.824 540.739 304.587 539.672 303.834V303.834C525.53 293.851 508.644 288.492 491.333 288.492H454.22C436.567 288.492 419.564 295.972 407.519 308.877V308.877C407.039 309.391 406.192 309.31 405.83 308.707V308.707C400.697 300.151 397.985 290.361 397.985 280.383V279.924V251.363M447.965 111.419L463.673 127.127M397.985 251.363L398.888 248.204C402 237.311 408.743 227.809 417.999 221.276V221.276C424.551 216.651 432.125 213.682 440.074 212.622L449.393 211.379H467.957" stroke="#001AFF" stroke-width="1.92748"/>
<path d="M116.669 251.363H163.793H222.341L277.595 250.309L272.274 239.765C269.455 234.18 266.149 228.853 262.395 223.848L255.63 214.827C252.502 210.657 248.656 207.079 244.272 204.261L240.237 201.667C234.21 197.793 227.015 196.157 219.905 197.046V197.046C212.289 197.998 205.309 201.779 200.351 207.638L194.934 214.04C193.237 216.046 191.095 217.629 188.68 218.664V218.664C184.626 220.402 180.053 220.488 175.936 218.905L169.614 216.473C165.766 214.993 161.679 214.234 157.556 214.234H149.5C146.671 214.234 143.861 214.69 141.177 215.585V215.585C135.482 217.483 130.607 221.272 127.361 226.321L123.84 231.797C120.986 236.238 118.939 241.148 117.793 246.301L116.669 251.363Z" fill="#FFC9E4"/>
<path d="M486.504 144.813C484.755 142.713 481.997 141.74 479.318 142.276V142.276C477.52 142.635 475.917 143.645 474.817 145.112L474.765 145.181C473.193 147.278 472.798 150.031 473.718 152.485L475.56 157.396C476.2 159.102 477.105 160.695 478.243 162.117L481.563 166.267C481.878 166.661 481.679 167.25 481.189 167.372L469.338 170.335C466.649 171.007 464.388 172.821 463.148 175.3V175.3C461.697 178.204 461.829 181.648 463.499 184.432L464.317 185.794C464.838 186.663 465.464 187.465 466.18 188.181L466.819 188.82C470.307 192.308 474.975 194.362 479.903 194.579L519.975 196.339V196.339C517.73 190.192 514.989 184.236 511.779 178.532L509.37 174.25V174.25C504.633 165.724 498.731 157.899 491.834 151.002L490.806 149.974L486.504 144.813Z" fill="#FFC9E4"/>
<path d="M24.6133 296.087L26.7045 317.051L28.1132 325.503C29.0713 331.251 30.9855 336.799 33.7763 341.916L36.1472 346.262C37.4582 348.666 39.1748 350.825 41.2212 352.644L47.0865 357.857C49.5116 360.013 52.8704 360.779 55.9902 359.887V359.887C59.0972 359 61.5382 356.591 62.4668 353.495L63.9537 348.539C64.8128 345.676 64.9818 342.649 64.447 339.708L62.4046 328.475L56.0404 331.202C53.7596 332.18 51.1482 332.002 49.0204 330.726V330.726C46.6928 329.329 45.2686 326.814 45.2686 324.099V319.404C45.2686 316.917 44.6895 314.465 43.5773 312.24L42.8204 310.726C40.6959 306.477 37.3176 302.983 33.1426 300.717L24.6133 296.087Z" fill="#FFC9E4"/>
<path d="M423.691 269.928L428.545 265.074C430.98 262.638 433.997 260.863 437.309 259.917V259.917C440.555 258.989 443.981 258.887 447.276 259.62L448.137 259.811C452.635 260.81 456.626 263.386 459.391 267.072V267.072M487.951 267.072L491.441 262.883C493.819 260.03 497.001 257.958 500.573 256.938V256.938C503.535 256.091 506.662 255.998 509.67 256.666L510.569 256.866C515.347 257.928 519.639 260.543 522.772 264.303L525.079 267.072M467.959 255.648H472.957M477.955 255.648H472.957M472.957 255.648V248.508V242.796M472.957 242.796V242.796C476.182 240.031 480.29 238.512 484.538 238.512H487.951M472.957 242.796V242.796C469.732 240.031 465.624 238.512 461.376 238.512H459.391M406.555 288.492H415.123L409.411 298.488L406.555 288.492ZM525.079 284.208H536.503V295.632L525.079 284.208Z" stroke="#001AFF" stroke-width="2.85601"/>
</svg>
