<svg width="342" height="285" viewBox="0 0 342 285" fill="none" xmlns="http://www.w3.org/2000/svg">
<path d="M122.765 92.2614C120.268 92.2614 118.293 91.5354 116.841 90.0833C115.389 88.6313 114.663 86.6566 114.663 84.1591V39.1178C115.302 39.0016 116.318 38.8564 117.712 38.6822C119.106 38.4498 120.442 38.3337 121.72 38.3337C123.055 38.3337 124.217 38.4498 125.204 38.6822C126.25 38.8564 127.121 39.2049 127.818 39.7276C128.515 40.2503 129.038 40.9763 129.386 41.9056C129.735 42.8349 129.909 44.0546 129.909 45.5647V79.9773H149.86C150.266 80.6162 150.644 81.4874 150.992 82.591C151.341 83.6364 151.515 84.7399 151.515 85.9016C151.515 88.2248 151.021 89.8801 150.034 90.8674C149.046 91.7967 147.74 92.2614 146.113 92.2614H122.765ZM154.078 65.5153C154.078 60.985 154.775 56.9775 156.169 53.4927C157.621 50.0078 159.567 47.1038 162.006 44.7806C164.504 42.3993 167.408 40.5988 170.718 39.3791C174.087 38.1594 177.717 37.5496 181.608 37.5496C185.5 37.5496 189.101 38.1594 192.411 39.3791C195.78 40.5988 198.713 42.3993 201.21 44.7806C203.708 47.1038 205.654 50.0078 207.047 53.4927C208.5 56.9775 209.226 60.985 209.226 65.5153C209.226 70.0456 208.529 74.0822 207.135 77.6251C205.741 81.1099 203.795 84.043 201.298 86.4243C198.858 88.7475 195.954 90.5189 192.585 91.7386C189.217 92.9583 185.558 93.5682 181.608 93.5682C177.659 93.5682 174 92.9583 170.631 91.7386C167.262 90.4609 164.358 88.6313 161.919 86.25C159.48 83.8687 157.563 80.9357 156.169 77.4509C154.775 73.966 154.078 69.9875 154.078 65.5153ZM169.76 65.5153C169.76 70.8006 170.834 74.7501 172.983 77.3637C175.132 79.9773 178.007 81.2842 181.608 81.2842C185.267 81.2842 188.171 79.9773 190.32 77.3637C192.469 74.7501 193.544 70.8006 193.544 65.5153C193.544 60.2881 192.469 56.3677 190.32 53.754C188.229 51.1404 185.354 49.8336 181.695 49.8336C178.094 49.8336 175.19 51.1404 172.983 53.754C170.834 56.3096 169.76 60.23 169.76 65.5153ZM248.297 90.2576C247.484 90.9546 246.206 91.5644 244.464 92.0871C242.779 92.6098 240.921 92.8712 238.888 92.8712C236.449 92.8712 234.358 92.5227 232.615 91.8258C230.873 91.0707 229.682 90.0543 229.043 88.7765C228.405 87.4407 227.62 85.7273 226.691 83.6364C225.762 81.4874 224.774 79.1061 223.729 76.4925C222.742 73.8789 221.696 71.1201 220.593 68.2161C219.547 65.254 218.531 62.2628 217.543 59.2426C216.556 56.2225 215.627 53.2603 214.756 50.3563C213.884 47.4523 213.129 44.7225 212.49 42.167C213.304 41.3539 214.465 40.6279 215.975 39.989C217.543 39.292 219.199 38.9435 220.941 38.9435C223.09 38.9435 224.833 39.4082 226.168 40.3374C227.562 41.2087 228.579 42.864 229.218 45.3033C230.786 50.9952 232.354 56.4548 233.922 61.682C235.548 66.8512 237.233 72.2527 238.975 77.8865H239.498C241.066 72.4269 242.663 66.4736 244.29 60.0267C245.974 53.5798 247.571 47.1619 249.081 40.7731C250.127 40.2503 251.23 39.8147 252.392 39.4662C253.611 39.1178 254.976 38.9435 256.486 38.9435C258.635 38.9435 260.465 39.4372 261.975 40.4246C263.485 41.3539 264.24 42.922 264.24 45.1291C264.24 46.4069 263.921 48.2654 263.282 50.7048C262.701 53.1442 261.917 55.903 260.93 58.9813C260 62.0015 258.926 65.1668 257.706 68.4774C256.544 71.788 255.354 74.9244 254.134 77.8865C252.973 80.7905 251.869 83.3751 250.824 85.6402C249.778 87.8472 248.936 89.3864 248.297 90.2576ZM271.888 47.3071C271.888 44.8096 272.614 42.8349 274.066 41.3829C275.518 39.9309 277.493 39.2049 279.991 39.2049H308.74C309.147 39.8438 309.495 40.6859 309.786 41.7314C310.134 42.7768 310.309 43.8804 310.309 45.042C310.309 47.249 309.815 48.8172 308.828 49.7465C307.898 50.6758 306.65 51.1404 305.081 51.1404H286.699V59.2426H306.301C306.708 59.8815 307.056 60.7237 307.347 61.7691C307.695 62.7565 307.869 63.831 307.869 64.9926C307.869 67.1997 307.405 68.7678 306.475 69.6971C305.546 70.6264 304.297 71.091 302.729 71.091H286.699V80.2387H309.089C309.495 80.8776 309.844 81.7198 310.134 82.7652C310.483 83.8107 310.657 84.9142 310.657 86.0758C310.657 88.2829 310.163 89.8801 309.176 90.8674C308.247 91.7967 306.998 92.2614 305.43 92.2614H279.991C277.493 92.2614 275.518 91.5354 274.066 90.0833C272.614 88.6313 271.888 86.6566 271.888 84.1591V47.3071Z" fill="white"/>
<path d="M122.765 214.261C120.268 214.261 118.293 213.535 116.841 212.083C115.389 210.631 114.663 208.657 114.663 206.159V161.118C115.302 161.002 116.318 160.856 117.712 160.682C119.106 160.45 120.442 160.334 121.72 160.334C123.055 160.334 124.217 160.45 125.204 160.682C126.25 160.856 127.121 161.205 127.818 161.728C128.515 162.25 129.038 162.976 129.386 163.906C129.735 164.835 129.909 166.055 129.909 167.565V201.977H149.86C150.266 202.616 150.644 203.487 150.992 204.591C151.341 205.636 151.515 206.74 151.515 207.902C151.515 210.225 151.021 211.88 150.034 212.867C149.046 213.797 147.74 214.261 146.113 214.261H122.765ZM154.078 187.515C154.078 182.985 154.775 178.977 156.169 175.493C157.621 172.008 159.567 169.104 162.006 166.781C164.504 164.399 167.408 162.599 170.718 161.379C174.087 160.159 177.717 159.55 181.608 159.55C185.5 159.55 189.101 160.159 192.411 161.379C195.78 162.599 198.713 164.399 201.21 166.781C203.708 169.104 205.654 172.008 207.047 175.493C208.5 178.977 209.226 182.985 209.226 187.515C209.226 192.046 208.529 196.082 207.135 199.625C205.741 203.11 203.795 206.043 201.298 208.424C198.858 210.747 195.954 212.519 192.585 213.739C189.217 214.958 185.558 215.568 181.608 215.568C177.659 215.568 174 214.958 170.631 213.739C167.262 212.461 164.358 210.631 161.919 208.25C159.48 205.869 157.563 202.936 156.169 199.451C154.775 195.966 154.078 191.988 154.078 187.515ZM169.76 187.515C169.76 192.801 170.834 196.75 172.983 199.364C175.132 201.977 178.007 203.284 181.608 203.284C185.267 203.284 188.171 201.977 190.32 199.364C192.469 196.75 193.544 192.801 193.544 187.515C193.544 182.288 192.469 178.368 190.32 175.754C188.229 173.14 185.354 171.834 181.695 171.834C178.094 171.834 175.19 173.14 172.983 175.754C170.834 178.31 169.76 182.23 169.76 187.515ZM248.297 212.258C247.484 212.955 246.206 213.564 244.464 214.087C242.779 214.61 240.921 214.871 238.888 214.871C236.449 214.871 234.358 214.523 232.615 213.826C230.873 213.071 229.682 212.054 229.043 210.777C228.405 209.441 227.62 207.727 226.691 205.636C225.762 203.487 224.774 201.106 223.729 198.493C222.742 195.879 221.696 193.12 220.593 190.216C219.547 187.254 218.531 184.263 217.543 181.243C216.556 178.222 215.627 175.26 214.756 172.356C213.884 169.452 213.129 166.723 212.49 164.167C213.304 163.354 214.465 162.628 215.975 161.989C217.543 161.292 219.199 160.944 220.941 160.944C223.09 160.944 224.833 161.408 226.168 162.337C227.562 163.209 228.579 164.864 229.218 167.303C230.786 172.995 232.354 178.455 233.922 183.682C235.548 188.851 237.233 194.253 238.975 199.886H239.498C241.066 194.427 242.663 188.474 244.29 182.027C245.974 175.58 247.571 169.162 249.081 162.773C250.127 162.25 251.23 161.815 252.392 161.466C253.611 161.118 254.976 160.944 256.486 160.944C258.635 160.944 260.465 161.437 261.975 162.425C263.485 163.354 264.24 164.922 264.24 167.129C264.24 168.407 263.921 170.265 263.282 172.705C262.701 175.144 261.917 177.903 260.93 180.981C260 184.001 258.926 187.167 257.706 190.477C256.544 193.788 255.354 196.924 254.134 199.886C252.973 202.79 251.869 205.375 250.824 207.64C249.778 209.847 248.936 211.386 248.297 212.258ZM271.888 169.307C271.888 166.81 272.614 164.835 274.066 163.383C275.518 161.931 277.493 161.205 279.991 161.205H308.74C309.147 161.844 309.495 162.686 309.786 163.731C310.134 164.777 310.309 165.88 310.309 167.042C310.309 169.249 309.815 170.817 308.828 171.746C307.898 172.676 306.65 173.14 305.081 173.14H286.699V181.243H306.301C306.708 181.882 307.056 182.724 307.347 183.769C307.695 184.757 307.869 185.831 307.869 186.993C307.869 189.2 307.405 190.768 306.475 191.697C305.546 192.626 304.297 193.091 302.729 193.091H286.699V202.239H309.089C309.495 202.878 309.844 203.72 310.134 204.765C310.483 205.811 310.657 206.914 310.657 208.076C310.657 210.283 310.163 211.88 309.176 212.867C308.247 213.797 306.998 214.261 305.43 214.261H279.991C277.493 214.261 275.518 213.535 274.066 212.083C272.614 210.631 271.888 208.657 271.888 206.159V169.307Z" fill="white"/>
<path d="M122.765 153.261C120.268 153.261 118.293 152.535 116.841 151.083C115.389 149.631 114.663 147.657 114.663 145.159V100.118C115.302 100.002 116.318 99.8564 117.712 99.6822C119.106 99.4498 120.442 99.3337 121.72 99.3337C123.055 99.3337 124.217 99.4498 125.204 99.6822C126.25 99.8564 127.121 100.205 127.818 100.728C128.515 101.25 129.038 101.976 129.386 102.906C129.735 103.835 129.909 105.055 129.909 106.565V140.977H149.86C150.266 141.616 150.644 142.487 150.992 143.591C151.341 144.636 151.515 145.74 151.515 146.902C151.515 149.225 151.021 150.88 150.034 151.867C149.046 152.797 147.74 153.261 146.113 153.261H122.765ZM154.078 126.515C154.078 121.985 154.775 117.977 156.169 114.493C157.621 111.008 159.567 108.104 162.006 105.781C164.504 103.399 167.408 101.599 170.718 100.379C174.087 99.1594 177.717 98.5496 181.608 98.5496C185.5 98.5496 189.101 99.1594 192.411 100.379C195.78 101.599 198.713 103.399 201.21 105.781C203.708 108.104 205.654 111.008 207.047 114.493C208.5 117.977 209.226 121.985 209.226 126.515C209.226 131.046 208.529 135.082 207.135 138.625C205.741 142.11 203.795 145.043 201.298 147.424C198.858 149.747 195.954 151.519 192.585 152.739C189.217 153.958 185.558 154.568 181.608 154.568C177.659 154.568 174 153.958 170.631 152.739C167.262 151.461 164.358 149.631 161.919 147.25C159.48 144.869 157.563 141.936 156.169 138.451C154.775 134.966 154.078 130.988 154.078 126.515ZM169.76 126.515C169.76 131.801 170.834 135.75 172.983 138.364C175.132 140.977 178.007 142.284 181.608 142.284C185.267 142.284 188.171 140.977 190.32 138.364C192.469 135.75 193.544 131.801 193.544 126.515C193.544 121.288 192.469 117.368 190.32 114.754C188.229 112.14 185.354 110.834 181.695 110.834C178.094 110.834 175.19 112.14 172.983 114.754C170.834 117.31 169.76 121.23 169.76 126.515ZM248.297 151.258C247.484 151.955 246.206 152.564 244.464 153.087C242.779 153.61 240.921 153.871 238.888 153.871C236.449 153.871 234.358 153.523 232.615 152.826C230.873 152.071 229.682 151.054 229.043 149.777C228.405 148.441 227.62 146.727 226.691 144.636C225.762 142.487 224.774 140.106 223.729 137.493C222.742 134.879 221.696 132.12 220.593 129.216C219.547 126.254 218.531 123.263 217.543 120.243C216.556 117.222 215.627 114.26 214.756 111.356C213.884 108.452 213.129 105.723 212.49 103.167C213.304 102.354 214.465 101.628 215.975 100.989C217.543 100.292 219.199 99.9435 220.941 99.9435C223.09 99.9435 224.833 100.408 226.168 101.337C227.562 102.209 228.579 103.864 229.218 106.303C230.786 111.995 232.354 117.455 233.922 122.682C235.548 127.851 237.233 133.253 238.975 138.886H239.498C241.066 133.427 242.663 127.474 244.29 121.027C245.974 114.58 247.571 108.162 249.081 101.773C250.127 101.25 251.23 100.815 252.392 100.466C253.611 100.118 254.976 99.9435 256.486 99.9435C258.635 99.9435 260.465 100.437 261.975 101.425C263.485 102.354 264.24 103.922 264.24 106.129C264.24 107.407 263.921 109.265 263.282 111.705C262.701 114.144 261.917 116.903 260.93 119.981C260 123.001 258.926 126.167 257.706 129.477C256.544 132.788 255.354 135.924 254.134 138.886C252.973 141.79 251.869 144.375 250.824 146.64C249.778 148.847 248.936 150.386 248.297 151.258ZM271.888 108.307C271.888 105.81 272.614 103.835 274.066 102.383C275.518 100.931 277.493 100.205 279.991 100.205H308.74C309.147 100.844 309.495 101.686 309.786 102.731C310.134 103.777 310.309 104.88 310.309 106.042C310.309 108.249 309.815 109.817 308.828 110.746C307.898 111.676 306.65 112.14 305.081 112.14H286.699V120.243H306.301C306.708 120.882 307.056 121.724 307.347 122.769C307.695 123.757 307.869 124.831 307.869 125.993C307.869 128.2 307.405 129.768 306.475 130.697C305.546 131.626 304.297 132.091 302.729 132.091H286.699V141.239H309.089C309.495 141.878 309.844 142.72 310.134 143.765C310.483 144.811 310.657 145.914 310.657 147.076C310.657 149.283 310.163 150.88 309.176 151.867C308.247 152.797 306.998 153.261 305.43 153.261H279.991C277.493 153.261 275.518 152.535 274.066 151.083C272.614 149.631 271.888 147.657 271.888 145.159V108.307Z" fill="white"/>
<path d="M53.6222 251.575C55.4986 251.575 57.1895 250.443 57.9039 248.708L58.1007 248.23C58.445 247.394 58.5739 246.485 58.4756 245.586L56.7232 229.564L53.734 213.803L52.6775 199.434C52.4763 196.698 52.4826 193.951 52.6963 191.216L53.2901 183.615C53.5852 179.837 54.2746 176.101 55.347 172.466L58.6254 161.356L61.7528 153.985C62.066 153.246 63.0434 153.09 63.5714 153.693L75.7453 167.606L94.4958 187.987L115.284 208.64L127.733 219.681C129.848 221.557 132.105 223.264 134.485 224.789L155.095 237.988L183.356 253.206L225.694 271.243C228.082 272.261 230.541 273.106 233.05 273.772L256.207 279.92C258.725 280.588 261.287 281.075 263.875 281.376L295.043 285H324.423C325.625 285 326.782 284.543 327.659 283.72V283.72C329.372 282.114 329.648 279.495 328.307 277.567L327.844 276.902C326.864 275.493 325.298 274.604 323.586 274.484L299.12 272.771L279.907 270.892C276.059 270.516 272.263 269.73 268.582 268.548L251.712 263.131C246.928 261.595 242.388 259.382 238.23 256.561V256.561C237.808 256.275 237.999 255.615 238.509 255.598L257.229 254.981C260.151 254.885 263.06 254.553 265.929 253.988L273.417 252.515C276.596 251.89 279.713 250.981 282.731 249.801L284.445 249.13L286.245 248.061C290.818 245.346 294.967 241.974 298.561 238.054L299.12 237.445L302.616 231.241C305.872 225.464 308.018 219.128 308.941 212.561L309.129 211.224C309.7 207.166 309.695 203.049 309.116 198.993V198.993C308.084 191.771 305.256 184.925 300.891 179.08L292.666 168.067C292.138 167.359 291.049 167.46 290.66 168.253L289.542 170.531C286.256 177.224 279.449 181.465 271.993 181.465V181.465C265.505 181.465 259.44 178.247 255.804 172.875L250.598 165.185C250.1 164.449 249.072 164.314 248.4 164.896L237.634 174.227C234.876 176.617 231.348 177.933 227.699 177.933V177.933C224.156 177.933 220.724 176.693 218 174.427L202.966 161.927C199.687 159.201 196.74 156.098 194.187 152.683L175.476 127.66L159.952 104.271C156.735 99.4238 152.76 95.1243 148.179 91.537L139.776 84.9561C134.986 81.205 129.6 78.2847 123.843 76.3171L119.618 74.873C113.96 72.9391 108.021 71.9523 102.041 71.9523H87.4522C82.5685 71.9523 77.7071 72.6106 72.9992 73.9093L53.4963 79.2894L51.9478 79.9567C46.6562 82.2368 40.7585 82.7003 35.1756 81.2749V81.2749L30.338 79.8705C26.1019 78.6406 22.37 76.0883 19.6877 72.5864L19.4859 72.323C17.9905 70.3706 16.8886 68.1463 16.2415 65.7737L15.9086 64.5529C15.6856 63.7351 15.5726 62.8912 15.5726 62.0435V61.6718C15.5726 58.9039 16.8758 56.2975 19.0901 54.6367V54.6367C20.6123 53.4951 22.4637 52.8779 24.3665 52.8779H31.2419C32.4151 52.8779 33.3783 51.9502 33.4222 50.7778L33.6249 45.3665L33.5382 43.3337C33.4177 40.5081 34.8061 37.8308 37.1851 36.3015V36.3015C39.5704 34.7681 42.5914 34.62 45.1152 35.9127L46.8768 36.8149C47.9846 37.3823 48.992 38.1274 49.8588 39.0206L50.9276 40.1217C53.3345 42.6016 55.0822 45.6447 56.0111 48.9734L56.794 51.7787L58.9226 62.9893C59.3035 64.9951 60.7663 66.6236 62.7199 67.2167V67.2167C66.2446 68.2867 69.8017 65.6491 69.8017 61.9656V56.1703C69.8017 55.4433 69.7207 54.7186 69.5601 54.0095L68.3024 48.4548C67.837 46.3991 67.21 44.3834 66.4272 42.4264L65.7415 40.7121C64.0707 36.5352 61.525 32.7644 58.2756 29.6532L57.3465 28.7637C55.5244 27.0191 53.4338 25.5785 51.1547 24.4969L48.7299 23.3461C45.5274 21.8263 41.9071 21.4271 38.4504 22.2127V22.2127C31.9738 23.6847 27.1084 29.0486 26.2732 35.6376L26.0153 37.6718V42.4352C26.0153 44.0541 24.7029 45.3665 23.084 45.3665H18.3206L13.4592 45.9452C7.20963 46.6892 2.18679 51.4422 1.09924 57.6413V57.6413L0.65638 60.4461C0.221522 63.2002 0.224403 66.0057 0.664915 68.7589V68.7589C1.19394 72.0653 2.34531 75.2413 4.05799 78.1186L5.38961 80.3557C8.82536 86.1278 13.6568 90.9437 19.4398 94.361L25.3865 97.8749C28.9694 99.9921 32.2973 102.514 35.3048 105.391L38.9479 108.875C39.1047 109.025 39.1573 109.254 39.0817 109.457L35.3488 119.505C34.2019 122.592 33.3379 125.777 32.7676 129.021L30.0922 144.236L28.4617 163.802V186.573C28.4617 189.323 28.6705 192.07 29.0864 194.789L31.1154 208.056C31.6997 211.876 32.69 215.624 34.0693 219.234L39.9451 234.615C40.8002 236.853 41.9563 238.965 43.3816 240.891L49.9 249.699C50.7732 250.879 52.1542 251.575 53.6222 251.575V251.575Z" fill="#001AFF"/>
<path d="M94.4958 187.987L96.6679 206.016C97.0308 209.028 97.6453 212.005 98.5051 214.914L102.351 227.93L105.788 237.095C106.01 237.69 106.281 238.265 106.596 238.816L112.45 249.062C113.808 251.438 117.136 251.693 118.84 249.551V249.551C119.596 248.601 119.862 247.352 119.56 246.176L116.126 232.836C115.567 230.661 115.241 228.432 115.154 226.188L114.733 215.229C114.648 213.019 114.833 210.806 115.284 208.64V208.64L94.4958 187.987Z" fill="#001AFF"/>
<path d="M299.12 237.445L298.561 238.054C294.967 241.974 290.818 245.346 286.245 248.061L284.445 249.13L303.468 254.836L321.09 260.006C322.92 260.542 324.816 260.815 326.723 260.815H334.467C336.485 260.815 338.364 259.784 339.447 258.081V258.081C340.702 256.109 340.675 253.582 339.379 251.637L339.18 251.338C338.237 249.923 336.773 248.938 335.107 248.596L327.109 246.956L314.895 243.699C312.172 242.973 309.51 242.036 306.933 240.897L299.12 237.445Z" fill="#001AFF"/>
<path d="M55.1029 79.2389C52.8896 79.9973 51.519 82.212 51.8276 84.5311L52.2956 88.0473C53.5449 97.4341 59.0766 105.711 67.2718 110.456V110.456C68.9309 111.416 70.6768 112.218 72.4863 112.852L76.6922 114.324C82.8505 116.479 89.4434 117.092 95.8934 116.108L97.2905 115.895C100.48 115.408 103.573 114.426 106.459 112.983V112.983C109.69 111.367 112.613 109.198 115.096 106.574L117.049 104.509C119.565 101.849 121.587 98.7606 123.02 95.3903V95.3903C124.639 91.5802 125.474 87.4829 125.474 83.343V80.237C125.474 78.2195 124.161 76.437 122.234 75.839L117.582 74.3953C112.365 72.7764 106.935 71.9531 101.473 71.9531H94.7665L84.9692 72.1039C79.7523 72.1841 74.5742 73.0152 69.5943 74.5714L59.7115 77.6598L55.1029 79.2389Z" fill="#FF50C7"/>
<path d="M158.106 103.524C155.018 102.266 151.481 103.576 149.958 106.543L147.486 111.355L147.206 112.065C144.698 118.419 143.41 125.189 143.41 132.02V137.485C143.41 141.062 143.913 144.622 144.905 148.059L145.042 148.535C146.648 154.102 149.57 159.202 153.561 163.402V163.402C156.375 166.365 159.671 168.828 163.31 170.688L164.133 171.109C168.032 173.101 172.292 174.286 176.66 174.593L178.198 174.701C182.998 175.038 187.801 174.08 192.105 171.928L194.098 170.932C194.905 170.528 195.654 170.02 196.327 169.419L200.896 165.34C202.058 164.302 202.28 162.567 201.415 161.27V161.27C201.333 161.147 201.242 161.029 201.144 160.919L196.672 155.922L189.335 146.139L181.183 135.269L173.846 125.214L167.867 116.518L161.086 105.996C160.371 104.886 159.33 104.023 158.106 103.524V103.524Z" fill="#FF50C7"/>
<path d="M135.846 225.463C133.946 223.291 133.923 220.055 135.792 217.856L136.608 216.895C136.974 216.465 137.389 216.079 137.843 215.744L142.225 212.523C144.995 210.486 148.018 208.815 151.216 207.552V207.552C154.868 206.111 158.713 205.216 162.626 204.896L165.356 204.673C168.46 204.42 171.584 204.65 174.617 205.355V205.355C179.288 206.442 183.631 208.629 187.285 211.735L187.833 212.2C190.98 214.875 193.597 218.116 195.549 221.754L196.304 223.16C197.812 225.97 198.99 228.945 199.817 232.025L201.193 237.155C201.439 238.07 201.596 239.007 201.662 239.952L202.08 245.888C202.517 252.081 197.204 257.139 191.04 256.399V256.399C189.911 256.264 188.814 255.934 187.797 255.426L175.203 249.129L159.17 240.161L146.398 232.824L136.969 226.453C136.554 226.173 136.176 225.84 135.846 225.463V225.463Z" fill="#FF50C7"/>
<path d="M57.4057 159.051C56.7779 156.809 56.6363 154.458 56.9903 152.157V152.157C57.3525 149.803 58.2246 147.557 59.5458 145.575L60.444 144.227C61.7615 142.251 63.369 140.485 65.2123 138.987L66.0061 138.342C69.3811 135.6 73.3045 133.613 77.5122 132.515L78.9816 132.132C82.0663 131.327 85.2412 130.92 88.4291 130.92H93.6201C96.5471 130.92 99.4609 131.31 102.285 132.08V132.08C107.346 133.461 112.005 136.03 115.872 139.576L117.119 140.718C118.882 142.334 120.478 144.123 121.885 146.057V146.057C124.791 150.053 126.84 154.607 127.901 159.433L127.992 159.844C128.845 163.724 129.06 167.736 128.631 171.685V171.685C128.163 175.983 126.932 180.183 124.999 184.05V184.05C123.157 187.735 120.702 191.079 117.741 193.943L114.655 196.925C114.262 197.306 113.828 197.643 113.363 197.931V197.931C110.411 199.758 106.599 199.373 104.072 196.991L98.8453 192.063L88.7908 181.464L80.6384 173.04L72.2143 163.258L62.9932 153.78C62.7246 153.504 62.2619 153.587 62.1064 153.94L58.3553 162.442L57.4057 159.051Z" fill="#FF50C7"/>
<path d="M31.7655 209.827C31.8594 210.234 32.3777 210.358 32.6462 210.039L34.8743 207.386C36.7471 205.157 38.2645 202.651 39.3731 199.959V199.959C40.7805 196.541 41.5047 192.881 41.5047 189.184V187.817C41.5047 183.462 40.4909 179.168 38.5435 175.273V175.273C37.2642 172.714 35.6011 170.366 33.6118 168.311L29.395 163.953C29.0553 163.602 28.4609 163.843 28.4609 164.331V186.63L28.7327 192.065L29.5479 197.228L31.1784 207.283L31.7655 209.827Z" fill="#FF50C7"/>
<path d="M305.391 217.355L314.386 215.497L329.078 212.195" stroke="white" stroke-width="1.40715" stroke-linecap="round"/>
<path d="M304.688 220.17L311.536 222.978L322.981 227.909" stroke="white" stroke-width="1.40715" stroke-linecap="round"/>
<path d="M286.992 216.105L286.992 228.143M286.992 228.143L287.765 227.829C290.029 226.907 292.033 225.444 293.601 223.568L294.939 221.969M286.992 228.143L285.447 228.323C282.997 228.607 280.541 227.838 278.692 226.206V226.206C277.976 225.574 277.369 224.829 276.895 224L275.734 221.969" stroke="white" stroke-width="1.40715"/>
<path d="M258.484 201.641L260.327 203.266C261.731 204.505 263.442 205.343 265.281 205.694L265.955 205.822C266.906 206.003 267.884 205.988 268.828 205.778V205.778C270.618 205.381 272.186 204.307 273.203 202.781L273.963 201.641" stroke="white" stroke-width="1.40715"/>
<path d="M291.086 200V200C292.265 201.621 294.148 202.58 296.152 202.58H296.973C297.58 202.58 298.186 202.51 298.777 202.37L299.91 202.104C301.176 201.806 302.291 201.058 303.047 200V200" stroke="white" stroke-width="1.40715"/>
<ellipse cx="254.97" cy="220.638" rx="8.2084" ry="7.50482" fill="#FF50C7"/>
<path d="M307.636 213.315C307.882 213.251 308.114 213.458 308.078 213.71L307.441 218.167L305.615 224.976C305.55 225.215 305.267 225.318 305.065 225.174L304.045 224.452C302.537 223.383 301.641 221.649 301.641 219.801V219.124C301.641 217.829 302.098 216.576 302.932 215.586V215.586C303.664 214.716 304.648 214.094 305.748 213.807L307.636 213.315Z" fill="#FF50C7"/>
<path d="M253.327 218.059L243.317 212.646L230.578 205.863" stroke="white" stroke-width="1.40715" stroke-linecap="round"/>
<path d="M252.86 222.279L241.537 224.224L228 226.735" stroke="white" stroke-width="1.40715" stroke-linecap="round"/>
</svg>
