<svg width="635" height="830" viewBox="0 0 635 830" fill="none" xmlns="http://www.w3.org/2000/svg">
<g clip-path="url(#clip0_958_22)">
<rect width="635" height="830" fill="#001AFF"/>
<path d="M157.06 429.973L169.902 429.973C170.602 429.973 171.169 430.54 171.169 431.239L171.169 438.553L171.169 460.283L171.169 588.936L171.166 613.959C171.166 614.659 170.599 615.226 169.899 615.226L151.915 615.226L128.429 614.794L105.5 613.287C102.214 613.071 99.1921 611.409 97.2501 608.749V608.749C95.187 605.923 94.5748 602.29 95.5979 598.944L97.4811 592.784C97.971 591.182 98.6273 589.635 99.4394 588.169L101.156 585.071C102.517 582.615 103.231 579.854 103.231 577.046V577.046C103.231 572.127 101.043 567.463 97.2616 564.318L95.6314 562.962V562.962C88.4382 557.661 78.6319 557.557 71.3014 562.666V562.666C70.3195 563.35 69.3939 564.121 68.5432 564.962L66.8521 566.636C65.0966 568.373 63.7997 570.519 63.0776 572.88V572.88C62.1575 575.89 62.2124 579.113 63.2343 582.09L65.234 587.914L65.5507 588.771C67.9922 595.376 65.144 602.766 58.9012 606.025V606.025V606.025C53.4696 608.956 47.4983 610.752 41.3507 611.302L3.25588 614.713C2.00439 614.825 0.874407 615.508 0.192937 616.563V616.563C-2.01265 619.98 -7.31237 618.418 -7.31237 614.351L-7.31237 587.914L-7.31237 549.324C-7.31237 548.085 -7.53432 546.856 -7.96768 545.696V545.696C-9.44151 541.749 -13.1565 539.086 -17.3675 538.958L-19.5584 538.891C-21.6013 538.829 -23.632 539.227 -25.5004 540.055L-36.3162 544.851C-40.0968 546.528 -44.3552 546.785 -48.3102 545.576V545.576C-51.6829 544.545 -54.6569 542.501 -56.8286 539.722L-57.6754 538.639C-60.2221 535.38 -61.7774 531.457 -62.1557 527.339L-62.2769 526.02C-62.5864 522.651 -62.2368 519.254 -61.2476 516.018L-60.9467 515.034C-59.7558 511.139 -57.5689 507.622 -54.6022 504.831L-53.3002 503.605C-50.92 501.366 -47.9525 499.849 -44.7433 499.231V499.231C-41.3269 498.573 -37.7915 498.964 -34.6014 500.353L-22.1281 505.782L-12.406 508.754C-12.0325 508.868 -11.6442 508.926 -11.2536 508.926V508.926C-9.07694 508.926 -7.31237 507.162 -7.31237 504.985L-7.31238 490.768L-7.31238 470.503L-7.31238 440.739L-7.31237 431.239C-7.31237 430.54 -6.74531 429.973 -6.04581 429.973L24.0708 429.973L64.78 429.973C65.4727 429.973 66.1461 430.201 66.6961 430.622V430.622C68.4413 431.958 70.9838 431.143 71.6264 429.041L72.196 427.178C72.4951 426.2 72.4523 425.149 72.0747 424.198L68.9555 416.343C68.0386 414.035 67.4264 411.616 67.1344 409.149L66.458 403.434C66.059 400.062 66.5904 396.645 67.9948 393.554V393.554C69.9314 389.291 73.4045 385.915 77.7208 384.1L78.2272 383.887C81.1168 382.672 84.2515 382.153 87.3786 382.372L91.2117 382.64C94.9769 382.904 98.6296 384.038 101.882 385.953L103.659 387C107.03 388.985 109.669 392.005 111.185 395.611V395.611C112.832 399.528 113.054 403.898 111.811 407.961L108.864 417.601C108.653 418.293 108.537 419.011 108.52 419.734L108.429 423.563C108.331 427.712 112.636 430.512 116.388 428.738V428.738C117.309 428.303 118.332 428.128 119.345 428.233L136.161 429.973L157.06 429.973Z" fill="#FFC9E4"/>
<path d="M168.939 764.719C168.903 766.671 168.595 768.609 168.024 770.477L167.647 771.71C167.114 773.452 166.254 775.077 165.113 776.496V776.496C162.734 779.455 159.276 781.348 155.501 781.758L145.11 782.887L81.7028 783.345L16.475 783.345L-10.0188 783.345C-10.7577 783.345 -11.3396 782.715 -11.2815 781.978L-9.83233 763.633L-9.40001 740.147L-7.67087 713.832C-7.59437 712.668 -7.11895 711.566 -6.32469 710.711V710.711C-4.8162 709.088 -2.42886 708.632 -0.428354 709.585L7.69821 713.455C8.90137 714.028 10.1666 714.46 11.4688 714.743L19.2291 716.43C22.4197 717.124 25.7242 717.102 28.9054 716.366L31.8274 715.691C37.2458 714.438 41.6718 710.545 43.6068 705.332V705.332C44.5049 702.912 44.8241 700.315 44.5389 697.75L44.2596 695.237C43.9627 692.566 43.0914 689.99 41.7057 687.687L41.4552 687.271C39.2355 683.582 35.7252 680.848 31.6047 679.6V679.6C29.9709 679.105 28.2731 678.853 26.5659 678.853L25.6029 678.853C22.5027 678.853 19.4321 679.457 16.5627 680.631L11.1175 682.858C8.39877 683.971 5.44689 684.392 2.52557 684.085L0.48198 683.87C-3.06541 683.497 -6.3038 681.683 -8.47473 678.853V678.853C-10.356 676.401 -11.3019 673.358 -11.1427 670.271L-8.22659 613.698C-8.22432 613.654 -8.19612 613.615 -8.1548 613.6V613.6C1.85906 609.845 12.4396 607.823 23.1325 607.623L53.5291 607.052C55.9177 607.007 58.2491 606.313 60.2733 605.044V605.044C63.9921 602.713 66.3039 598.681 66.4375 594.294L66.4854 592.723C66.5589 590.309 66.0889 587.91 65.1101 585.703L60.5423 575.402C58.8658 571.621 58.6085 567.363 59.8177 563.408V563.408C60.8489 560.035 62.8925 557.061 65.6714 554.89L66.7549 554.043C70.0136 551.496 73.9362 549.941 78.0546 549.562L79.373 549.441C82.7423 549.132 86.1396 549.481 89.3751 550.471L90.3592 550.771C94.2546 551.962 97.7717 554.149 100.563 557.116L101.788 558.418C104.027 560.798 105.545 563.766 106.162 566.975V566.975C106.82 570.391 106.429 573.927 105.041 577.117L99.612 589.59L96.8329 598.68C96.5908 599.472 96.478 600.297 96.4987 601.125V601.125C96.5817 604.44 98.7765 607.329 101.947 608.299L108.001 610.15C110.007 610.763 112.111 610.988 114.201 610.812L128.352 609.624L156.788 609.051C160.633 608.974 164.307 610.639 166.783 613.58V613.58C168.779 615.951 169.842 618.968 169.772 622.067L169.477 635.131L166.878 675.604C166.819 676.517 167.168 677.41 167.832 678.041V678.041C169.619 679.741 168.791 682.747 166.385 683.292L151.364 686.695L151.073 686.743C147.227 687.373 143.284 686.595 139.965 684.553V684.553V684.553C144.067 686.939 143.146 693.112 138.526 694.197L128.352 696.585L100.743 701.451C99.9936 701.583 99.2707 701.837 98.6036 702.204L98.0965 702.483C96.1872 703.532 95.001 705.537 95.0013 707.716V707.716C95.0018 711.012 97.6748 713.685 100.972 713.684L113.613 713.683C115.548 713.683 117.471 713.984 119.312 714.577L128.352 717.483L150.148 723.9C161.001 727.095 168.656 736.791 169.245 748.09V748.09L168.939 764.719Z" fill="#001AFF"/>
<rect x="-17.5234" y="171.889" width="153.21" height="642.58" fill="#001AFF"/>
<rect x="94.3711" y="153.863" width="79.7932" height="756.136" fill="#001AFF"/>
<path d="M557.935 558.949C558.425 558.96 558.815 559.36 558.815 559.85V787.432C558.815 787.93 558.412 788.333 557.914 788.333H518.26L472.297 782.475L398.396 762.648L331.254 740.568L189.363 710.932C189.05 710.867 188.727 710.972 188.512 711.208L153.389 749.801C152.926 750.308 153.179 751.126 153.848 751.284L280.307 781.19C283.901 782.04 287.618 782.241 291.282 781.783V781.783C294.773 781.346 298.312 781.508 301.748 782.259L303.044 782.543C308.275 783.687 313.212 785.904 317.543 789.054L320.71 791.357C320.767 791.398 320.738 791.488 320.668 791.488H63.1317C62.6359 791.488 62.2331 791.087 62.2305 790.591L60.5459 472.625C60.4711 458.504 62.937 444.486 67.8258 431.239V431.239C72.1817 419.436 78.4013 408.407 86.248 398.573L92.6896 390.499C102.943 377.648 115.449 366.77 129.598 358.397V358.397C144.63 349.5 161.24 343.594 178.515 341.003L184.962 340.035C193.256 338.791 201.631 338.167 210.018 338.167H354.39C360.881 338.167 367.358 337.55 373.732 336.324L377.388 335.621C384.151 334.32 390.705 332.099 396.865 329.018V329.018C404.44 325.231 411.323 320.194 417.225 314.119L423.42 307.742C423.509 307.649 423.459 307.494 423.333 307.472L390.735 301.667L324.495 282.29L225.359 242.636L179.846 216.5L143.612 195.475C143.475 195.395 143.299 195.462 143.248 195.612L117.613 271.677C116.493 275 116.788 278.638 118.429 281.738V281.738C119.404 283.58 119.914 285.633 119.914 287.717V288.544C119.914 290.37 119.604 292.182 118.996 293.904L118.319 295.821C117.583 297.908 116.601 299.901 115.395 301.756L111.554 307.666C111.494 307.757 111.353 307.715 111.353 307.606V144.057C111.353 143.387 112.058 142.951 112.657 143.251L124.871 149.358L151.007 159.722L187.957 170.988L223.556 179.099L269.519 185.858L315.482 189.012L354.686 187.21L384.979 181.479C385.803 181.323 385.883 180.175 385.088 179.906L143.971 98.3645C141.545 97.5438 138.896 97.6848 136.57 98.7583V98.7583C135.101 99.4361 133.49 99.7479 131.875 99.6672L129.687 99.5578C126.815 99.4142 124.013 98.6173 121.494 97.2279L112.524 92.2787C112.452 92.239 112.48 92.1296 112.562 92.1296H537.636C538.134 92.1296 538.538 91.7261 538.538 91.2284V55.1808C538.538 54.6824 538.133 54.2786 537.635 54.2795L77.5545 55.1773C77.0574 55.1782 76.655 55.5814 76.655 56.0785V334.139C76.655 335.908 76.3273 337.667 75.6923 339.318V339.318C74.8468 341.516 73.471 343.48 71.6911 345.022V345.022C69.08 347.285 65.7406 348.531 62.2853 348.531H59.1096C59.0937 348.531 59.0809 348.518 59.0808 348.502L58.1892 58.262C58.1829 56.2169 58.4648 54.1811 59.0267 52.2146V52.2146C60.236 47.9819 62.7002 44.2152 66.094 41.4116L68.448 39.4671C70.291 37.9445 72.4513 36.8534 74.7705 36.2736V36.2736C76.0223 35.9607 77.3072 35.8 78.5974 35.795L542.109 34.0123C544.213 34.0042 546.299 34.4126 548.245 35.214V35.214C551.31 36.4761 553.906 38.6616 555.673 41.4667L556.995 43.5662C559.362 47.327 560.626 51.6773 560.642 56.1214L561.931 413.878C561.957 421.046 560.96 428.181 558.97 435.068V435.068C557.073 441.634 554.292 447.912 550.703 453.728L549.507 455.667C545.217 462.619 540.021 468.97 534.055 474.551L529.075 479.21L525.278 481.922C519.426 486.102 513.026 489.458 506.258 491.894V491.894C498.094 494.833 489.498 496.397 480.822 496.522L249.011 499.857C245.368 499.91 241.851 501.2 239.039 503.516V503.516C236.867 505.305 235.203 507.634 234.214 510.269L234.111 510.545C233.389 512.471 233.019 514.51 233.019 516.566V583.315C233.019 586.535 233.996 589.68 235.821 592.334V592.334C237.238 594.395 239.12 596.093 241.316 597.291L245.157 599.386C246.95 600.364 248.96 600.877 251.003 600.877V600.877C257.745 600.877 263.211 595.411 263.211 588.669V519.477C263.211 519.417 263.283 519.387 263.325 519.429V519.429C273.35 529.454 286.947 535.086 301.124 535.086H367.278C382.852 535.086 397.767 528.795 408.635 517.64V517.64C408.681 517.594 408.76 517.626 408.76 517.691V605.563C408.76 612.615 407.73 619.629 405.704 626.384V626.384C403.254 634.549 399.383 642.219 394.268 649.039L385.932 660.154C385.83 660.29 385.718 660.418 385.598 660.538V660.538C383.337 662.8 384.938 666.667 388.136 666.667H392.294C393.049 666.667 393.795 666.828 394.482 667.138L445.26 690.099L462.383 700.463L494.377 721.191L508.148 731.408C508.243 731.479 508.378 731.43 508.407 731.316L547.889 575.105C548.86 571.262 545.955 567.531 541.99 567.531V567.531C541.493 567.531 540.997 567.47 540.515 567.349L537.119 566.5C533.876 565.69 530.768 564.412 527.893 562.708L523.074 559.853C522.263 559.372 522.62 558.127 523.562 558.149L557.935 558.949Z" fill="#FFC9E4"/>
<path d="M300.523 588.767C298.878 587.686 298.903 585.265 300.569 584.218L308.58 579.182C311.158 577.562 314.426 577.522 317.042 579.078L325.63 584.184C327.373 585.22 327.397 587.734 325.676 588.804L317.183 594.083C314.498 595.752 311.088 595.709 308.446 593.973L300.523 588.767Z" fill="#FFC9E4"/>
<path d="M354.769 588.672C353.124 587.591 353.148 585.171 354.815 584.124L362.826 579.088C365.404 577.468 368.671 577.427 371.288 578.983L379.876 584.089C381.618 585.125 381.643 587.639 379.921 588.71L371.429 593.989C368.744 595.658 365.334 595.615 362.692 593.879L354.769 588.672Z" fill="#FFC9E4"/>
<path d="M300.523 588.767C298.878 587.686 298.903 585.265 300.569 584.218L308.58 579.182C311.158 577.562 314.426 577.522 317.042 579.078L325.63 584.184C327.373 585.22 327.397 587.734 325.676 588.804L317.183 594.083C314.498 595.752 311.088 595.709 308.446 593.973L300.523 588.767Z" stroke="#7F2121"/>
<path d="M354.769 588.672C353.124 587.591 353.148 585.171 354.815 584.124L362.826 579.088C365.404 577.468 368.671 577.427 371.288 578.983L379.876 584.089C381.618 585.125 381.643 587.639 379.921 588.71L371.429 593.989C368.744 595.658 365.334 595.615 362.692 593.879L354.769 588.672Z" stroke="#7F2121"/>
<path d="M341.166 603.58L334.142 596.821H348.191L341.166 603.58Z" fill="#FF50C7"/>
<rect x="340.266" y="601.777" width="1.80247" height="22.5309" fill="#FF50C7"/>
<rect x="349.277" y="614.395" width="0.901235" height="18.0247" transform="rotate(-90 349.277 614.395)" fill="#FF50C7"/>
<rect x="349.277" y="617.014" width="0.901235" height="18.0247" transform="rotate(-65 349.277 617.014)" fill="#FF50C7"/>
<rect x="365.613" y="603.58" width="0.901235" height="18.0247" transform="rotate(65 365.613 603.58)" fill="#FF50C7"/>
<rect width="0.901235" height="18.0247" transform="matrix(0 -1 -1 0 332.156 614.395)" fill="#FF50C7"/>
<rect width="0.901235" height="18.0247" transform="matrix(-0.422618 -0.906308 -0.906308 0.422618 332.156 617.014)" fill="#FF50C7"/>
<rect width="0.901235" height="18.0247" transform="matrix(-0.422618 0.906308 0.906308 0.422618 315.82 603.58)" fill="#FF50C7"/>
<circle cx="313.228" cy="586.457" r="8.11111" fill="#001AFF"/>
<circle cx="367.303" cy="586.457" r="8.11111" fill="#001AFF"/>
<path d="M71.1052 631.542L69.8982 632.981C69.7105 633.204 69.3815 633.244 69.1458 633.072C68.215 632.391 67.3424 631.634 66.537 630.808L65.6447 629.894L62.8723 627.372L60.3663 625.464L59.6331 625.009C58.3295 624.198 56.917 623.578 55.4382 623.166L55.1159 623.076C54.4932 622.903 53.849 622.779 53.2066 622.708C52.433 622.623 51.6426 622.613 50.8672 622.68C49.9592 622.76 49.0635 622.944 48.1978 623.229L47.7494 623.377C46.5784 623.763 45.4563 624.284 44.4058 624.929L43.5653 625.446L43.1298 625.783C41.567 626.992 40.1569 628.387 38.9305 629.936C37.9933 631.12 37.1681 632.389 36.4653 633.725L35.8809 634.837L35.8387 634.936C34.9287 637.072 34.2556 639.302 33.8314 641.585L33.7467 642.041L33.3088 646.757L33.3971 648.869C33.4682 650.566 33.6753 652.255 34.0163 653.919L34.6171 656.85L35.7508 660.225C36.3356 661.966 37.0703 663.653 37.9466 665.267L39.1647 667.51L40.6339 669.902C41.4717 671.265 42.4112 672.563 43.4445 673.785L44.7386 675.316L48.007 678.645L53.936 683.563L61.4344 688.711L65.6046 691.069C69.0478 693.016 73.3187 692.729 76.4708 690.34L88.428 681.275L91.9866 678.2L94.738 675.62L97.6265 672.177L100.652 667.872L102.852 663.852L104.071 660.768L104.557 659.447C105.149 657.84 105.609 656.189 105.934 654.508L106.324 652.491L106.617 648.988C106.768 647.185 106.764 645.372 106.607 643.569L106.436 641.614C106.339 640.504 106.159 639.403 105.898 638.32C105.492 636.634 104.893 635 104.11 633.452L103.23 631.709L101.283 628.902L99.9429 627.443C99.2707 626.711 98.5377 626.038 97.7516 625.43C96.5673 624.514 95.2707 623.754 93.8934 623.167L92.6546 622.64C91.3585 622.194 89.9848 621.941 88.6149 621.9C87.5796 621.869 86.5442 621.956 85.5286 622.16L85.2572 622.214C83.9543 622.476 82.6888 622.898 81.4899 623.471L80.0294 624.169L77.0116 626.135L74.0307 628.522L71.1052 631.542Z" fill="#FF50C7"/>
<path d="M118.506 519.175L118.571 521.051C118.581 521.343 118.364 521.593 118.073 521.623C116.926 521.74 115.771 521.761 114.62 521.686L113.345 521.603L109.597 521.584L106.458 521.844L105.608 521.996C104.097 522.266 102.632 522.75 101.258 523.433L100.958 523.582C100.38 523.87 99.8182 524.209 99.2932 524.586C98.6611 525.04 98.0669 525.562 97.5361 526.131C96.9145 526.798 96.3721 527.534 95.9197 528.325L95.6853 528.735C95.0734 529.805 94.588 530.943 94.2392 532.126L93.9601 533.072L93.862 533.614C93.5099 535.558 93.3952 537.538 93.5205 539.51C93.6163 541.017 93.8518 542.512 94.2238 543.976L94.5333 545.193L94.5682 545.295C95.3214 547.491 96.3131 549.598 97.5256 551.579L97.7678 551.975L100.598 555.773L102.077 557.282C103.265 558.496 104.549 559.613 105.916 560.621L108.324 562.398L111.424 564.147C113.024 565.049 114.699 565.811 116.43 566.424L118.836 567.277L121.528 568.071C123.063 568.523 124.63 568.86 126.216 569.076L128.202 569.348L132.858 569.635L140.555 569.322L149.572 568.131L154.249 567.092C158.11 566.235 161.092 563.164 161.836 559.279L164.657 544.543L165.243 539.876L165.562 536.117L165.405 531.626L164.773 526.402L163.718 521.943L162.56 518.836L162.037 517.528C161.402 515.939 160.638 514.403 159.755 512.937L158.695 511.176L156.57 508.377C155.475 506.936 154.26 505.592 152.936 504.357L151.501 503.019C150.686 502.259 149.816 501.561 148.897 500.931C147.467 499.949 145.928 499.136 144.311 498.509L142.49 497.803L139.166 497.02L137.193 496.832C136.204 496.738 135.209 496.728 134.218 496.803C132.725 496.915 131.253 497.217 129.837 497.703L128.563 498.139C127.302 498.676 126.111 499.407 125.066 500.293C124.276 500.963 123.565 501.72 122.946 502.551L122.781 502.773C121.988 503.839 121.33 505 120.822 506.228L120.204 507.724L119.277 511.204L118.659 514.973L118.506 519.175Z" fill="#FF50C7"/>
<path d="M300.148 475.256L298.992 473.776C298.812 473.546 298.842 473.216 299.059 473.021C299.919 472.253 300.841 471.556 301.816 470.94L302.896 470.258L305.94 468.07L308.326 466.015L308.924 465.393C309.988 464.286 310.889 463.034 311.599 461.673L311.754 461.376C312.053 460.803 312.308 460.199 312.511 459.585C312.755 458.846 312.929 458.075 313.024 457.303C313.135 456.398 313.141 455.484 313.042 454.578L312.991 454.108C312.857 452.883 312.581 451.677 312.168 450.515L311.837 449.585L311.598 449.089C310.74 447.309 309.669 445.64 308.409 444.118C307.445 442.955 306.376 441.885 305.215 440.919L304.249 440.116L304.161 440.055C302.261 438.72 300.22 437.598 298.075 436.709L297.646 436.531L293.124 435.122L291.041 434.77C289.366 434.486 287.67 434.338 285.972 434.325L282.98 434.303L279.443 434.711C277.619 434.921 275.816 435.289 274.055 435.81L271.607 436.535L268.963 437.475C267.455 438.011 265.989 438.66 264.579 439.417L262.813 440.365L258.877 442.869L252.834 447.646L246.239 453.91L243.066 457.499C240.446 460.463 239.839 464.7 241.52 468.28L247.9 481.86L250.169 485.98L252.12 489.208L254.887 492.749L258.469 496.604L261.944 499.592L264.707 501.425L265.898 502.175C267.347 503.088 268.867 503.881 270.443 504.549L272.335 505.35L275.7 506.365C277.433 506.887 279.207 507.261 281.003 507.481L282.951 507.72C284.057 507.856 285.171 507.909 286.285 507.88C288.019 507.833 289.741 507.586 291.418 507.143L293.306 506.644L296.456 505.324L298.162 504.316C299.018 503.811 299.829 503.234 300.587 502.591C301.729 501.623 302.742 500.513 303.602 499.288L304.376 498.186C305.081 497.01 305.615 495.719 305.94 494.388C306.185 493.382 306.315 492.351 306.327 491.315L306.33 491.038C306.345 489.709 306.196 488.384 305.884 487.092L305.505 485.518L304.21 482.158L302.494 478.746L300.148 475.256Z" fill="#FF50C7"/>
<path d="M167.347 385.309L165.606 386.013C165.335 386.122 165.026 386.003 164.898 385.74C164.396 384.702 163.981 383.623 163.658 382.516L163.299 381.29L162.035 377.761L160.718 374.901L160.285 374.154C159.514 372.827 158.558 371.616 157.446 370.558L157.203 370.328C156.735 369.882 156.224 369.47 155.69 369.106C155.048 368.667 154.354 368.287 153.638 367.983C152.799 367.627 151.922 367.369 151.023 367.215L150.558 367.135C149.343 366.926 148.108 366.859 146.877 366.936L145.892 366.997L145.35 367.09C143.402 367.424 141.502 367.994 139.692 368.786C138.309 369.391 136.985 370.124 135.737 370.974L134.699 371.681L134.615 371.749C132.809 373.208 131.167 374.86 129.721 376.677L129.432 377.04L126.831 380.999L125.918 382.904C125.184 384.436 124.574 386.025 124.094 387.654L123.248 390.525L122.665 394.036C122.364 395.848 122.221 397.682 122.237 399.519L122.259 402.072L122.433 404.873C122.533 406.47 122.753 408.058 123.092 409.622L123.516 411.58L124.839 416.054L127.765 423.18L131.969 431.246L134.544 435.286C136.67 438.621 140.576 440.373 144.481 439.743L159.293 437.353L163.879 436.308L167.52 435.322L171.687 433.639L176.379 431.258L180.209 428.741L182.733 426.591L183.783 425.652C185.059 424.511 186.241 423.269 187.317 421.937L188.608 420.34L190.511 417.385C191.491 415.863 192.339 414.261 193.046 412.595L193.813 410.789C194.248 409.763 194.607 408.707 194.885 407.628C195.319 405.948 195.556 404.224 195.592 402.49L195.633 400.538L195.232 397.146L194.733 395.228C194.483 394.266 194.152 393.328 193.744 392.422C193.128 391.057 192.34 389.777 191.399 388.613L190.553 387.565C189.618 386.564 188.524 385.695 187.334 385.016C186.434 384.502 185.479 384.093 184.487 383.796L184.221 383.717C182.948 383.336 181.633 383.115 180.305 383.058L178.688 382.989L175.1 383.307L171.348 384.016L167.347 385.309Z" fill="#FF50C7"/>
<path d="M313.4 338.705L313.204 340.572C313.173 340.863 312.923 341.08 312.631 341.069C311.478 341.025 310.332 340.885 309.202 340.651L307.951 340.391L304.242 339.851L301.098 339.671L300.235 339.703C298.702 339.76 297.184 340.036 295.727 340.521L295.41 340.627C294.797 340.832 294.194 341.089 293.621 341.39C292.932 341.751 292.271 342.185 291.666 342.675C290.958 343.249 290.318 343.902 289.76 344.623L289.471 344.996C288.716 345.971 288.077 347.03 287.567 348.153L287.159 349.051L286.987 349.574C286.367 351.45 285.978 353.395 285.828 355.365C285.713 356.871 285.738 358.384 285.903 359.885L286.04 361.133L286.06 361.239C286.5 363.519 287.189 365.744 288.114 367.874L288.299 368.299L290.573 372.454L291.827 374.155C292.835 375.523 293.951 376.807 295.165 377.996L297.302 380.09L300.129 382.254C301.587 383.37 303.14 384.358 304.769 385.206L307.033 386.384L309.588 387.545C311.045 388.207 312.55 388.758 314.09 389.194L316.019 389.739L320.59 390.671L328.256 391.433L337.351 391.508L342.127 391.131C346.07 390.819 349.45 388.193 350.727 384.45L355.572 370.249L356.802 365.709L357.64 362.031L358.11 357.562L358.211 352.301L357.787 347.738L357.073 344.5L356.737 343.133C356.329 341.47 355.787 339.843 355.116 338.268L354.312 336.378L352.596 333.31C351.713 331.731 350.696 330.23 349.557 328.823L348.323 327.298C347.621 326.433 346.857 325.62 346.035 324.868C344.755 323.697 343.344 322.678 341.83 321.832L340.126 320.879L336.942 319.641L335.015 319.18C334.049 318.95 333.064 318.801 332.073 318.737C330.579 318.64 329.079 318.735 327.609 319.019L326.287 319.274C324.963 319.629 323.683 320.188 322.524 320.92C321.649 321.473 320.839 322.124 320.111 322.861L319.916 323.058C318.982 324.003 318.169 325.061 317.496 326.206L316.676 327.602L315.273 330.919L314.136 334.565L313.4 338.705Z" fill="#FF50C7"/>
<path d="M431.462 413.508L431.266 415.375C431.236 415.665 430.985 415.883 430.693 415.871C429.541 415.827 428.394 415.688 427.265 415.454L426.013 415.194L422.305 414.654L419.161 414.474L418.298 414.506C416.764 414.563 415.246 414.839 413.79 415.324L413.473 415.43C412.859 415.635 412.256 415.892 411.684 416.193C410.995 416.554 410.334 416.988 409.729 417.478C409.021 418.051 408.381 418.705 407.823 419.425L407.534 419.799C406.779 420.774 406.14 421.833 405.63 422.955L405.222 423.853L405.049 424.376C404.43 426.253 404.041 428.198 403.89 430.168C403.775 431.674 403.8 433.187 403.965 434.688L404.102 435.936L404.123 436.042C404.563 438.322 405.252 440.547 406.177 442.676L406.362 443.102L408.636 447.257L409.89 448.958C410.898 450.325 412.014 451.61 413.227 452.799L415.364 454.893L418.191 457.056C419.65 458.173 421.202 459.16 422.831 460.008L425.096 461.187L427.651 462.348C429.108 463.01 430.613 463.561 432.153 463.996L434.081 464.542L438.653 465.474L446.318 466.236L455.413 466.311L460.189 465.933C464.132 465.622 467.513 462.996 468.79 459.252L473.634 445.051L474.864 440.512L475.703 436.834L476.172 432.365L476.274 427.104L475.849 422.541L475.135 419.303L474.8 417.935C474.391 416.273 473.849 414.646 473.179 413.071L472.374 411.18L470.659 408.113C469.775 406.533 468.759 405.032 467.62 403.626L466.385 402.101C465.684 401.235 464.919 400.423 464.097 399.67C462.818 398.499 461.407 397.48 459.893 396.634L458.188 395.682L455.005 394.443L453.078 393.983C452.111 393.752 451.127 393.604 450.135 393.54C448.641 393.443 447.141 393.538 445.671 393.821L444.349 394.077C443.026 394.432 441.745 394.99 440.587 395.722C439.711 396.276 438.901 396.927 438.173 397.664L437.979 397.861C437.045 398.806 436.232 399.863 435.558 401.009L434.738 402.405L433.335 405.722L432.199 409.368L431.462 413.508Z" fill="#FF50C7"/>
<path d="M554.614 340.474L552.771 340.832C552.484 340.888 552.204 340.712 552.129 340.429C551.834 339.314 551.632 338.177 551.526 337.028L551.408 335.756L550.841 332.051L550.094 328.992L549.811 328.176C549.308 326.726 548.6 325.355 547.71 324.104L547.516 323.832C547.141 323.305 546.719 322.804 546.264 322.344C545.717 321.791 545.109 321.286 544.463 320.85C543.708 320.341 542.896 319.92 542.043 319.597L541.602 319.43C540.449 318.993 539.249 318.691 538.027 318.532L537.048 318.404L536.498 318.392C534.522 318.348 532.549 318.545 530.621 318.977C529.147 319.308 527.708 319.774 526.32 320.37L525.167 320.866L525.072 320.917C523.02 322.004 521.094 323.314 519.327 324.821L518.974 325.122L515.666 328.512L514.406 330.208C513.393 331.572 512.491 333.015 511.709 334.523L510.331 337.179L509.088 340.515C508.447 342.236 507.957 344.009 507.622 345.815L507.157 348.325L506.793 351.108C506.586 352.695 506.499 354.295 506.533 355.895L506.576 357.899L507.021 362.543L508.534 370.097L511.121 378.816L512.878 383.273C514.329 386.953 517.829 389.418 521.782 389.544L536.779 390.025L541.48 389.874L545.242 389.601L549.653 388.743L554.714 387.302L558.953 385.562L561.841 383.933L563.051 383.212C564.521 382.335 565.918 381.341 567.229 380.239L568.801 378.917L571.233 376.38C572.485 375.073 573.624 373.662 574.635 372.162L575.733 370.535C576.356 369.612 576.909 368.643 577.388 367.637C578.134 366.071 578.696 364.424 579.063 362.728L579.475 360.82L579.729 357.413L579.605 355.436C579.543 354.444 579.397 353.46 579.169 352.493C578.825 351.036 578.296 349.629 577.595 348.306L576.964 347.116C576.237 345.955 575.329 344.893 574.29 343.999C573.505 343.324 572.645 342.74 571.728 342.259L571.483 342.131C570.306 341.514 569.057 341.045 567.764 340.736L566.19 340.36L562.608 339.988L558.789 339.967L554.614 340.474Z" fill="#FF50C7"/>
<path d="M438.575 236.561L437.995 238.347C437.905 238.625 437.615 238.785 437.332 238.714C436.214 238.431 435.121 238.056 434.065 237.592L432.895 237.078L429.38 235.779L426.342 234.949L425.491 234.801C423.979 234.538 422.437 234.492 420.911 234.664L420.579 234.702C419.937 234.774 419.293 234.901 418.671 235.076C417.921 235.286 417.185 235.573 416.491 235.926C415.679 236.34 414.918 236.846 414.222 237.435L413.862 237.74C412.92 238.537 412.075 239.44 411.343 240.432L410.757 241.225L410.479 241.701C409.484 243.408 408.699 245.229 408.142 247.125C407.716 248.574 407.426 250.059 407.276 251.562L407.15 252.811L407.148 252.919C407.105 255.241 407.316 257.56 407.778 259.836L407.87 260.29L409.231 264.828L410.104 266.752C410.805 268.299 411.63 269.787 412.57 271.203L414.225 273.695L416.54 276.399C417.734 277.794 419.048 279.083 420.465 280.251L422.434 281.875L424.693 283.542C425.98 284.493 427.338 285.345 428.753 286.09L430.527 287.025L434.804 288.887L442.144 291.226L451.025 293.19L455.774 293.814C459.696 294.329 463.549 292.464 465.576 289.067L473.267 276.184L475.414 271.999L476.999 268.576L478.388 264.303L479.58 259.177L480.114 254.626L480.089 251.31L480.045 249.903C479.991 248.192 479.799 246.488 479.471 244.808L479.077 242.791L478.037 239.434C477.501 237.705 476.819 236.026 475.997 234.414L475.106 232.665C474.601 231.672 474.021 230.719 473.374 229.812C472.366 228.4 471.198 227.11 469.893 225.968L468.423 224.682L465.567 222.809L463.777 221.958C462.88 221.531 461.948 221.181 460.992 220.912C459.551 220.507 458.064 220.288 456.567 220.26L455.221 220.234C453.852 220.307 452.483 220.587 451.198 221.062C450.227 221.421 449.299 221.89 448.434 222.459L448.203 222.611C447.092 223.342 446.077 224.207 445.18 225.188L444.088 226.382L442.026 229.335L440.156 232.665L438.575 236.561Z" fill="#FF50C7"/>
<path d="M511.566 157.899L512.939 159.18C513.152 159.379 513.175 159.71 512.99 159.936C512.262 160.83 511.46 161.662 510.593 162.423L509.633 163.266L506.97 165.903L504.934 168.305L504.44 169.014C503.563 170.273 502.869 171.651 502.381 173.106L502.274 173.423C502.069 174.036 501.911 174.673 501.807 175.311C501.681 176.079 501.629 176.868 501.657 177.646C501.688 178.557 501.825 179.461 502.065 180.34L502.189 180.796C502.513 181.985 502.975 183.133 503.564 184.216L504.036 185.082L504.35 185.535C505.476 187.159 506.795 188.64 508.278 189.946C509.411 190.944 510.635 191.834 511.932 192.606L513.012 193.248L513.109 193.295C515.194 194.316 517.386 195.104 519.643 195.647L520.094 195.756L524.782 196.44L526.895 196.462C528.593 196.48 530.291 196.362 531.971 196.108L534.929 195.662L538.358 194.706C540.127 194.213 541.85 193.568 543.508 192.777L545.812 191.678L548.277 190.336C549.683 189.571 551.029 188.701 552.303 187.733L553.899 186.521L557.395 183.431L562.617 177.767L568.15 170.549L570.723 166.508C572.847 163.171 572.784 158.891 570.563 155.618L562.137 143.203L559.252 139.488L556.819 136.606L553.533 133.541L549.392 130.294L545.493 127.887L542.477 126.508L541.183 125.953C539.609 125.279 537.984 124.733 536.322 124.32L534.328 123.825L530.846 123.349C529.053 123.104 527.242 123.013 525.434 123.076L523.473 123.144C522.359 123.183 521.25 123.305 520.155 123.509C518.449 123.826 516.787 124.339 515.2 125.039L513.413 125.827L510.508 127.624L508.981 128.887C508.215 129.519 507.504 130.216 506.856 130.969C505.88 132.104 505.053 133.359 504.395 134.704L503.803 135.913C503.29 137.184 502.965 138.543 502.853 139.909C502.768 140.941 502.801 141.98 502.951 143.005L502.991 143.278C503.184 144.593 503.539 145.879 504.049 147.106L504.67 148.601L506.474 151.718L508.702 154.82L511.566 157.899Z" fill="#FF50C7"/>
<path d="M436.67 96.215L434.806 96.4438C434.516 96.4794 434.249 96.2842 434.194 95.9974C433.977 94.8645 433.856 93.7157 433.83 92.5627L433.801 91.2851L433.493 87.5499L432.961 84.4459L432.736 83.6126C432.335 82.1308 431.725 80.7136 430.925 79.404L430.75 79.1187C430.413 78.5672 430.026 78.0374 429.605 77.5473C429.097 76.9571 428.526 76.4107 427.913 75.9315C427.194 75.3704 426.414 74.8942 425.586 74.5125L425.157 74.3147C424.038 73.7983 422.862 73.4141 421.653 73.1696L420.686 72.9741L420.138 72.9235C418.17 72.7422 416.188 72.8006 414.234 73.0973C412.741 73.324 411.273 73.6889 409.847 74.1871L408.662 74.6014L408.563 74.6451C406.441 75.5869 404.428 76.7585 402.561 78.1389L402.188 78.4147L398.651 81.5655L397.276 83.1698C396.17 84.4596 395.17 85.836 394.284 87.2858L392.724 89.8392L391.252 93.0803C390.493 94.7524 389.879 96.4872 389.42 98.2652L388.78 100.737L388.224 103.488C387.907 105.056 387.708 106.647 387.631 108.245L387.533 110.247L387.653 114.911L388.635 122.551L390.608 131.43L392.05 135.999C393.241 139.771 396.56 142.474 400.495 142.876L415.421 144.402L420.121 144.579L423.893 144.569L428.354 144.021L433.502 142.936L437.853 141.496L440.848 140.072L442.104 139.437C443.633 138.666 445.096 137.772 446.48 136.764L448.141 135.555L450.744 133.193C452.084 131.977 453.318 130.649 454.432 129.223L455.64 127.677C456.326 126.799 456.946 125.871 457.494 124.901C458.347 123.391 459.022 121.787 459.506 120.121L460.051 118.246L460.541 114.865L460.556 112.884C460.564 111.891 460.487 110.898 460.327 109.918C460.085 108.44 459.655 107 459.048 105.631L458.502 104.401C457.858 103.191 457.026 102.069 456.052 101.105C455.316 100.376 454.499 99.7335 453.617 99.1899L453.382 99.0446C452.251 98.3471 451.037 97.7927 449.77 97.3944L448.225 96.9091L444.678 96.2882L440.87 96.0012L436.67 96.215Z" fill="#FF50C7"/>
<path d="M299.635 222.178L300.428 223.88C300.552 224.145 300.449 224.46 300.193 224.601C299.182 225.157 298.127 225.627 297.039 226.008L295.833 226.431L292.375 227.877L289.588 229.343L288.865 229.814C287.579 230.653 286.42 231.671 285.422 232.838L285.204 233.092C284.784 233.583 284.4 234.114 284.064 234.667C283.659 235.332 283.316 236.044 283.05 236.775C282.738 237.632 282.527 238.521 282.419 239.426L282.364 239.895C282.219 241.12 282.217 242.357 282.358 243.582L282.47 244.562L282.592 245.099C283.027 247.026 283.695 248.894 284.581 250.66C285.258 252.01 286.059 253.294 286.973 254.495L287.734 255.495L287.806 255.575C289.357 257.302 291.094 258.855 292.984 260.204L293.361 260.474L297.451 262.864L299.401 263.676C300.97 264.329 302.588 264.855 304.24 265.249L307.151 265.944L310.688 266.342C312.513 266.548 314.353 266.595 316.186 266.483L318.734 266.327L321.522 266.006C323.112 265.823 324.686 265.52 326.23 265.1L328.164 264.574L332.562 263.019L339.525 259.724L347.36 255.104L351.259 252.321C354.479 250.023 356.024 246.031 355.191 242.164L352.029 227.497L350.745 222.972L349.57 219.388L347.671 215.315L345.048 210.753L342.334 207.06L340.054 204.653L339.062 203.654C337.856 202.439 336.553 201.323 335.168 200.318L333.504 199.112L330.454 197.367C328.883 196.468 327.239 195.705 325.538 195.086L323.694 194.415C322.647 194.034 321.573 193.731 320.481 193.51C318.781 193.165 317.047 193.018 315.314 193.073L313.362 193.134L309.995 193.712L308.107 194.31C307.159 194.61 306.239 194.99 305.356 195.445C304.026 196.132 302.789 196.986 301.675 197.986L300.673 198.886C299.722 199.872 298.911 201.01 298.295 202.234C297.83 203.159 297.471 204.135 297.227 205.141L297.161 205.41C296.848 206.701 296.695 208.027 296.708 209.356L296.724 210.974L297.23 214.54L298.134 218.251L299.635 222.178Z" fill="#FF50C7"/>
<path d="M204.791 629.395L204.442 630.905C204.388 631.14 204.161 631.293 203.923 631.254C202.983 631.102 202.057 630.872 201.156 630.567L200.156 630.228L197.172 629.413L194.614 628.949L193.904 628.888C192.642 628.781 191.37 628.854 190.128 629.105L189.858 629.16C189.335 629.266 188.815 629.416 188.316 629.605C187.715 629.832 187.129 630.121 186.585 630.461C185.947 630.86 185.357 631.331 184.827 631.865L184.553 632.142C183.836 632.865 183.206 633.668 182.675 634.537L182.25 635.231L182.056 635.643C181.36 637.118 180.846 638.672 180.524 640.271C180.279 641.493 180.147 642.735 180.131 643.982L180.118 645.018L180.124 645.107C180.255 647.019 180.596 648.911 181.139 650.749L181.248 651.117L182.693 654.75L183.55 656.269C184.238 657.491 185.023 658.656 185.898 659.752L187.438 661.683L189.536 663.74C190.619 664.801 191.792 665.766 193.041 666.625L194.778 667.819L196.754 669.027C197.881 669.716 199.059 670.319 200.277 670.83L201.802 671.471L205.454 672.694L211.658 674.09L219.102 675.066L223.053 675.238C226.315 675.379 229.348 673.568 230.771 670.629L236.169 659.481L237.633 655.886L238.69 652.957L239.525 649.343L240.137 645.042L240.248 641.261L239.989 638.536L239.852 637.382C239.684 635.979 239.404 634.592 239.013 633.233L238.544 631.604L237.447 628.918C236.882 627.535 236.2 626.203 235.409 624.936L234.55 623.563C234.063 622.783 233.518 622.04 232.92 621.341C231.99 620.253 230.937 619.276 229.781 618.43L228.48 617.478L225.997 616.144L224.464 615.573C223.696 615.286 222.904 615.066 222.098 614.913C220.884 614.684 219.645 614.61 218.412 614.695L217.304 614.771C216.183 614.929 215.078 615.258 214.055 615.741C213.282 616.106 212.553 616.558 211.883 617.089L211.704 617.231C210.843 617.911 210.071 618.696 209.404 619.567L208.591 620.628L207.108 623.204L205.81 626.077L204.791 629.395Z" fill="#FF50C7"/>
<path d="M325.506 711.467L323.971 711.251C323.732 711.218 323.56 711.005 323.578 710.765C323.647 709.815 323.796 708.873 324.021 707.948L324.271 706.923L324.824 703.879L325.063 701.291L325.061 700.578C325.058 699.311 324.875 698.051 324.516 696.836L324.438 696.571C324.287 696.059 324.092 695.554 323.861 695.073C323.582 694.494 323.243 693.937 322.857 693.423C322.404 692.823 321.883 692.276 321.305 691.795L321.005 691.546C320.223 690.895 319.367 690.337 318.456 689.884L317.727 689.521L317.3 689.364C315.77 688.799 314.177 688.422 312.556 688.241C311.317 688.103 310.068 688.08 308.825 688.173L307.791 688.25L307.704 688.264C305.81 688.561 303.955 689.065 302.171 689.767L301.815 689.907L298.321 691.664L296.882 692.649C295.725 693.441 294.633 694.325 293.618 695.292L291.828 696.995L289.962 699.264C288.999 700.435 288.14 701.688 287.393 703.007L286.355 704.841L285.324 706.916C284.736 708.099 284.238 709.324 283.835 710.582L283.329 712.157L282.429 715.902L281.579 722.204L281.255 729.705L281.429 733.655C281.572 736.917 283.641 739.781 286.693 740.943L298.268 745.348L301.978 746.494L304.988 747.291L308.661 747.808L312.998 748.043L316.775 747.824L319.467 747.329L320.604 747.091C321.988 746.802 323.345 746.402 324.664 745.894L326.247 745.285L328.827 743.958C330.155 743.275 331.423 742.479 332.616 741.58L333.909 740.605C334.644 740.052 335.336 739.444 335.981 738.788C336.984 737.766 337.865 736.632 338.606 735.407L339.441 734.028L340.555 731.438L340.99 729.861C341.208 729.071 341.359 728.263 341.44 727.447C341.563 726.217 341.528 724.977 341.337 723.756L341.164 722.658C340.909 721.556 340.486 720.483 339.915 719.507C339.484 718.768 338.97 718.082 338.383 717.46L338.226 717.294C337.473 716.496 336.624 715.795 335.698 715.206L334.571 714.489L331.875 713.236L328.9 712.194L325.506 711.467Z" fill="#FF50C7"/>
<path d="M421.003 703.45L420.504 704.428C420.427 704.58 420.245 704.646 420.088 704.579C419.468 704.313 418.871 703.997 418.304 703.632L417.675 703.229L415.764 702.157L414.086 701.4L413.608 701.236C412.759 700.946 411.872 700.778 410.976 700.738L410.78 700.73C410.403 700.713 410.02 700.727 409.644 700.771C409.192 700.824 408.741 700.922 408.308 701.063C407.801 701.228 407.315 701.45 406.859 701.727L406.623 701.87C406.007 702.244 405.436 702.688 404.923 703.194L404.512 703.599L404.308 703.848C403.577 704.742 402.957 705.722 402.462 706.766C402.084 707.564 401.78 708.395 401.556 709.249L401.369 709.959L401.358 710.021C401.121 711.358 401.031 712.717 401.089 714.073L401.101 714.344L401.472 717.089L401.8 718.28C402.063 719.237 402.404 720.172 402.817 721.075L403.544 722.666L404.634 724.44C405.196 725.354 405.837 726.219 406.548 727.023L407.537 728.141L408.689 729.31C409.345 729.977 410.051 730.593 410.801 731.153L411.739 731.855L414.039 733.321L418.064 735.343L423.012 737.29L425.698 738.085C427.916 738.741 430.311 738.016 431.793 736.24L437.412 729.504L439.035 727.283L440.263 725.452L441.456 723.111L442.614 720.26L443.338 717.681L443.627 715.764L443.73 714.947C443.856 713.954 443.901 712.952 443.865 711.952L443.822 710.752L443.528 708.718C443.377 707.671 443.136 706.638 442.809 705.632L442.455 704.541C442.254 703.921 442.006 703.318 441.715 702.735C441.262 701.827 440.706 700.976 440.057 700.197L439.326 699.319L437.848 697.976L436.892 697.321C436.413 696.993 435.907 696.706 435.379 696.463C434.584 696.097 433.745 695.834 432.883 695.681L432.108 695.544C431.311 695.46 430.495 695.497 429.71 695.654C429.116 695.772 428.537 695.958 427.986 696.208L427.838 696.274C427.13 696.595 426.465 697.001 425.857 697.486L425.117 698.076L423.656 699.592L422.272 701.344L421.003 703.45Z" fill="#FF50C7"/>
<path d="M120.639 722.916L120.141 723.895C120.064 724.047 119.881 724.113 119.724 724.046C119.105 723.78 118.508 723.464 117.941 723.099L117.312 722.695L115.401 721.623L113.722 720.866L113.245 720.703C112.395 720.413 111.509 720.245 110.612 720.205L110.417 720.196C110.04 720.18 109.656 720.194 109.281 720.238C108.829 720.291 108.377 720.389 107.945 720.53C107.438 720.694 106.952 720.917 106.496 721.194L106.26 721.337C105.644 721.711 105.073 722.155 104.559 722.661L104.148 723.065L103.945 723.315C103.213 724.209 102.594 725.189 102.099 726.233C101.721 727.031 101.417 727.862 101.193 728.716L101.006 729.426L100.995 729.488C100.757 730.825 100.667 732.184 100.726 733.54L100.738 733.811L101.108 736.555L101.436 737.747C101.7 738.704 102.04 739.639 102.453 740.542L103.181 742.133L104.271 743.906C104.833 744.821 105.473 745.686 106.185 746.49L107.174 747.608L108.325 748.777C108.982 749.444 109.688 750.06 110.437 750.62L111.376 751.322L113.676 752.788L117.7 754.81L122.649 756.757L125.335 757.552C127.553 758.208 129.948 757.483 131.429 755.707L137.049 748.971L138.672 746.75L139.9 744.919L141.093 742.578L142.25 739.727L142.975 737.147L143.264 735.23L143.367 734.414C143.492 733.421 143.537 732.419 143.501 731.419L143.458 730.218L143.165 728.184C143.013 727.137 142.773 726.105 142.446 725.099L142.092 724.008C141.89 723.388 141.643 722.784 141.352 722.202C140.899 721.294 140.342 720.442 139.693 719.663L138.962 718.786L137.484 717.443L136.529 716.788C136.05 716.46 135.543 716.173 135.016 715.93C134.221 715.564 133.382 715.301 132.52 715.148L131.745 715.01C130.948 714.927 130.132 714.964 129.346 715.12C128.752 715.239 128.174 715.425 127.622 715.674L127.475 715.741C126.767 716.061 126.102 716.468 125.494 716.953L124.754 717.542L123.293 719.059L121.909 720.811L120.639 722.916Z" fill="#FF50C7"/>
<path d="M217.069 196.596L216.571 197.574C216.493 197.727 216.311 197.792 216.154 197.725C215.534 197.46 214.938 197.143 214.37 196.779L213.742 196.375L211.83 195.303L210.152 194.546L209.674 194.383C208.825 194.093 207.939 193.925 207.042 193.885L206.847 193.876C206.469 193.859 206.086 193.874 205.711 193.918C205.259 193.971 204.807 194.069 204.374 194.209C203.867 194.374 203.381 194.597 202.926 194.873L202.69 195.016C202.073 195.39 201.503 195.835 200.989 196.34L200.578 196.745L200.374 196.994C199.643 197.889 199.023 198.869 198.528 199.913C198.15 200.711 197.847 201.542 197.622 202.396L197.436 203.106L197.425 203.168C197.187 204.504 197.097 205.863 197.156 207.22L197.167 207.491L197.538 210.235L197.866 211.426C198.13 212.384 198.47 213.319 198.883 214.222L199.611 215.813L200.701 217.586C201.263 218.501 201.903 219.365 202.615 220.17L203.604 221.288L204.755 222.457C205.412 223.123 206.118 223.739 206.867 224.3L207.806 225.001L210.105 226.468L214.13 228.49L219.079 230.437L221.765 231.231C223.982 231.887 226.378 231.162 227.859 229.387L233.479 222.65L235.102 220.43L236.33 218.598L237.522 216.257L238.68 213.407L239.405 210.827L239.693 208.91L239.797 208.093C239.922 207.1 239.967 206.099 239.931 205.099L239.888 203.898L239.594 201.864C239.443 200.817 239.203 199.785 238.876 198.779L238.521 197.687C238.32 197.068 238.073 196.464 237.782 195.881C237.329 194.974 236.772 194.122 236.123 193.343L235.392 192.466L233.914 191.123L232.958 190.468C232.479 190.14 231.973 189.852 231.445 189.609C230.65 189.244 229.812 188.981 228.95 188.828L228.175 188.69C227.378 188.607 226.562 188.643 225.776 188.8C225.182 188.919 224.604 189.105 224.052 189.354L223.905 189.421C223.197 189.741 222.531 190.148 221.924 190.632L221.183 191.222L219.723 192.739L218.339 194.491L217.069 196.596Z" fill="#FF50C7"/>
<path d="M324.319 117.288L323.821 118.266C323.743 118.418 323.561 118.484 323.404 118.417C322.784 118.151 322.188 117.835 321.62 117.47L320.992 117.066L319.08 115.994L317.402 115.237L316.924 115.074C316.075 114.784 315.189 114.616 314.292 114.576L314.097 114.568C313.719 114.551 313.336 114.565 312.961 114.609C312.509 114.662 312.057 114.76 311.624 114.901C311.117 115.066 310.631 115.288 310.176 115.565L309.94 115.708C309.323 116.082 308.753 116.526 308.239 117.032L307.828 117.437L307.624 117.686C306.893 118.58 306.273 119.56 305.778 120.604C305.4 121.402 305.097 122.233 304.872 123.087L304.686 123.797L304.675 123.859C304.437 125.196 304.347 126.555 304.406 127.911L304.417 128.182L304.788 130.927L305.116 132.118C305.38 133.075 305.72 134.01 306.133 134.913L306.861 136.504L307.951 138.278C308.513 139.192 309.153 140.057 309.865 140.861L310.854 141.979L312.005 143.148C312.662 143.815 313.368 144.431 314.117 144.991L315.056 145.693L317.355 147.159L321.38 149.181L326.329 151.128L329.015 151.923C331.232 152.579 333.628 151.854 335.109 150.078L340.729 143.342L342.352 141.121L343.58 139.29L344.772 136.949L345.93 134.098L346.655 131.519L346.943 129.602L347.047 128.785C347.172 127.792 347.217 126.79 347.181 125.79L347.138 124.589L346.844 122.556C346.693 121.508 346.453 120.476 346.126 119.47L345.771 118.379C345.57 117.759 345.323 117.155 345.032 116.573C344.579 115.665 344.022 114.814 343.373 114.034L342.642 113.157L341.164 111.814L340.208 111.159C339.729 110.831 339.223 110.544 338.695 110.301C337.9 109.935 337.062 109.672 336.2 109.519L335.425 109.382C334.628 109.298 333.812 109.335 333.026 109.491C332.432 109.61 331.854 109.796 331.302 110.046L331.155 110.112C330.447 110.432 329.781 110.839 329.174 111.324L328.433 111.914L326.973 113.43L325.589 115.182L324.319 117.288Z" fill="#FF50C7"/>
<path d="M116.942 171.225L116.635 171.828C116.587 171.922 116.475 171.962 116.379 171.921C115.997 171.757 115.629 171.562 115.28 171.338L114.892 171.089L113.715 170.429L112.681 169.963L112.387 169.862C111.864 169.683 111.318 169.58 110.766 169.555L110.645 169.55C110.413 169.54 110.177 169.548 109.946 169.575C109.667 169.608 109.389 169.669 109.122 169.755C108.81 169.857 108.511 169.994 108.23 170.164L108.085 170.252C107.705 170.483 107.354 170.756 107.037 171.068L106.784 171.317L106.659 171.471C106.208 172.022 105.826 172.625 105.521 173.268C105.289 173.76 105.102 174.272 104.963 174.798L104.848 175.235L104.842 175.273C104.695 176.097 104.64 176.934 104.676 177.769L104.683 177.936L104.911 179.627L105.114 180.36C105.276 180.95 105.485 181.526 105.74 182.083L106.188 183.062L106.859 184.155C107.206 184.718 107.6 185.251 108.038 185.746L108.648 186.435L109.357 187.155C109.761 187.566 110.196 187.945 110.658 188.29L111.236 188.722L112.653 189.626L115.132 190.871L118.18 192.07L119.835 192.56C121.201 192.964 122.676 192.517 123.589 191.424L127.05 187.274L128.05 185.907L128.806 184.778L129.541 183.336L130.254 181.58L130.7 179.991L130.878 178.811L130.942 178.307C131.019 177.696 131.047 177.079 131.025 176.463L130.998 175.723L130.817 174.47C130.724 173.825 130.576 173.189 130.375 172.57L130.156 171.898C130.032 171.516 129.88 171.144 129.701 170.785C129.422 170.226 129.079 169.701 128.679 169.222L128.229 168.681L127.318 167.854L126.73 167.451C126.435 167.248 126.123 167.071 125.798 166.922C125.308 166.696 124.791 166.535 124.26 166.44L123.783 166.355C123.292 166.304 122.789 166.327 122.305 166.423C121.94 166.496 121.583 166.611 121.244 166.764L121.153 166.805C120.717 167.003 120.307 167.253 119.932 167.552L119.477 167.915L118.577 168.849L117.724 169.928L116.942 171.225Z" fill="#FF50C7"/>
<path d="M259.182 94.616L258.532 94.4296C258.431 94.4006 258.37 94.2982 258.392 94.1954C258.48 93.7894 258.601 93.3914 258.754 93.0055L258.925 92.5779L259.348 91.2963L259.609 90.1924L259.651 89.8844C259.727 89.3368 259.724 88.7812 259.643 88.2343L259.625 88.1152C259.591 87.8849 259.538 87.6549 259.467 87.4331C259.382 87.166 259.269 86.9045 259.133 86.6593C258.974 86.3722 258.782 86.1045 258.562 85.8615L258.447 85.7356C258.149 85.4068 257.813 85.114 257.447 84.8629L257.154 84.662L256.979 84.5681C256.352 84.2311 255.687 83.9714 254.997 83.7949C254.471 83.66 253.932 83.5743 253.39 83.5388L252.938 83.5094L252.9 83.51C252.063 83.5235 251.231 83.6287 250.418 83.8236L250.256 83.8625L248.64 84.4093L247.958 84.7477C247.41 85.0197 246.885 85.3352 246.387 85.6912L245.511 86.3182L244.566 87.1855C244.079 87.633 243.632 88.1218 243.229 88.6465L242.67 89.376L242.098 90.2097C241.772 90.685 241.483 91.1843 241.232 91.7033L240.918 92.3533L240.301 93.9162L239.552 96.5874L238.956 99.8086L238.791 101.526C238.655 102.944 239.375 104.307 240.623 104.994L245.357 107.601L246.89 108.321L248.142 108.848L249.698 109.294L251.557 109.659L253.202 109.794L254.395 109.743L254.901 109.71C255.517 109.669 256.128 109.578 256.728 109.439L257.449 109.272L258.644 108.855C259.26 108.641 259.856 108.374 260.426 108.058L261.044 107.716C261.395 107.521 261.731 107.301 262.049 107.056C262.544 106.676 262.994 106.239 263.389 105.755L263.833 105.21L264.471 104.158L264.755 103.503C264.898 103.175 265.012 102.835 265.096 102.488C265.224 101.964 265.285 101.426 265.276 100.887L265.268 100.402C265.225 99.9102 265.107 99.4211 264.92 98.9644C264.778 98.6193 264.598 98.2914 264.382 97.9871L264.324 97.9057C264.047 97.5153 263.723 97.1608 263.359 96.8503L262.915 96.4721L261.827 95.7671L260.604 95.1361L259.182 94.616Z" fill="#FF50C7"/>
<path d="M520.378 757.52L519.301 757.31C519.133 757.278 519.019 757.121 519.041 756.951C519.125 756.282 519.265 755.622 519.459 754.976L519.674 754.26L520.177 752.128L520.442 750.305L520.468 749.801C520.512 748.905 520.429 748.007 520.221 747.134L520.175 746.944C520.087 746.576 519.968 746.212 519.822 745.863C519.647 745.443 519.428 745.036 519.173 744.659C518.875 744.217 518.527 743.811 518.136 743.449L517.933 743.262C517.404 742.773 516.82 742.346 516.192 741.992L515.689 741.709L515.394 741.582C514.332 741.125 513.219 740.799 512.079 740.612C511.208 740.468 510.326 740.405 509.443 740.425L508.709 740.441L508.646 740.448C507.296 740.588 505.965 740.876 504.677 741.306L504.42 741.392L501.884 742.505L500.83 743.148C499.982 743.666 499.177 744.25 498.422 744.897L497.094 746.035L495.69 747.571C494.965 748.363 494.311 749.217 493.734 750.123L492.932 751.382L492.125 752.811C491.666 753.626 491.268 754.474 490.936 755.349L490.52 756.445L489.744 759.06L488.91 763.486L488.403 768.779L488.379 771.58C488.36 773.893 489.717 775.995 491.832 776.93L499.857 780.475L502.438 781.423L504.537 782.099L507.116 782.6L510.176 782.927L512.855 782.913L514.777 782.662L515.591 782.536C516.58 782.383 517.555 782.15 518.507 781.84L519.649 781.467L521.523 780.624C522.488 780.19 523.414 779.675 524.291 779.083L525.242 778.442C525.782 778.077 526.295 777.673 526.775 777.233C527.522 776.547 528.187 775.778 528.757 774.939L529.399 773.995L530.282 772.203L530.649 771.104C530.832 770.553 530.969 769.988 531.057 769.413C531.189 768.548 531.211 767.67 531.12 766.799L531.039 766.016C530.899 765.227 530.64 764.453 530.272 763.741C529.995 763.202 529.657 762.698 529.264 762.236L529.16 762.113C528.657 761.52 528.082 760.993 527.449 760.542L526.678 759.993L524.818 759.007L522.752 758.16L520.378 757.52Z" fill="#FF50C7"/>
<path d="M543.596 701.406L543.536 702.266C543.527 702.4 543.415 702.503 543.281 702.503C542.751 702.501 542.223 702.456 541.701 702.366L541.122 702.267L539.411 702.079L537.965 702.046L537.57 702.075C536.867 702.126 536.174 702.277 535.514 702.523L535.37 702.576C535.092 702.68 534.819 702.808 534.561 702.955C534.25 703.132 533.954 703.342 533.684 703.576C533.368 703.851 533.085 704.161 532.84 704.501L532.714 704.677C532.383 705.136 532.107 705.633 531.89 706.156L531.718 706.575L531.647 706.818C531.392 707.689 531.245 708.588 531.208 709.495C531.179 710.188 531.215 710.882 531.315 711.568L531.397 712.139L531.408 712.187C531.647 713.227 531.999 714.237 532.458 715.2L532.549 715.392L533.66 717.263L534.263 718.023C534.747 718.635 535.28 719.206 535.856 719.733L536.871 720.66L538.203 721.607C538.89 722.096 539.618 722.525 540.38 722.888L541.438 723.393L542.63 723.885C543.309 724.165 544.009 724.394 544.722 724.569L545.616 724.788L547.73 725.143L551.26 725.37L555.436 725.259L557.622 725.009C559.427 724.803 560.937 723.543 561.463 721.804L563.459 715.208L563.951 713.105L564.277 711.404L564.421 709.345L564.383 706.928L564.115 704.84L563.735 703.366L563.559 702.743C563.345 701.987 563.07 701.249 562.737 700.537L562.338 699.682L561.501 698.301C561.07 697.59 560.58 696.918 560.034 696.291L559.443 695.61C559.107 695.224 558.743 694.863 558.354 694.531C557.748 694.014 557.084 693.569 556.375 693.205L555.578 692.795L554.097 692.278L553.205 692.097C552.757 692.007 552.303 691.955 551.847 691.941C551.16 691.921 550.473 691.988 549.803 692.142L549.2 692.28C548.598 692.465 548.019 692.741 547.499 693.096C547.106 693.364 546.745 693.676 546.423 694.026L546.337 694.119C545.923 694.568 545.567 695.067 545.276 695.603L544.922 696.257L544.331 697.802L543.868 699.494L543.596 701.406Z" fill="#FF50C7"/>
<path d="M194.819 780.716L194.759 781.577C194.749 781.71 194.638 781.814 194.504 781.814C193.974 781.812 193.445 781.766 192.923 781.677L192.345 781.578L190.634 781.389L189.188 781.357L188.792 781.386C188.089 781.436 187.397 781.587 186.736 781.833L186.592 781.887C186.314 781.991 186.041 782.119 185.784 782.266C185.473 782.443 185.177 782.652 184.907 782.887C184.591 783.162 184.308 783.472 184.063 783.811L183.936 783.987C183.605 784.447 183.329 784.943 183.113 785.467L182.94 785.886L182.869 786.128C182.615 787 182.468 787.899 182.43 788.805C182.402 789.498 182.437 790.192 182.537 790.879L182.62 791.449L182.631 791.498C182.87 792.537 183.222 793.547 183.68 794.51L183.772 794.702L184.882 796.573L185.485 797.334C185.97 797.945 186.503 798.517 187.079 799.043L188.093 799.97L189.425 800.918C190.113 801.407 190.841 801.835 191.602 802.199L192.661 802.703L193.852 803.195C194.532 803.476 195.231 803.705 195.945 803.88L196.839 804.099L198.952 804.454L202.483 804.68L206.659 804.569L208.845 804.319C210.65 804.113 212.159 802.854 212.685 801.115L214.681 794.519L215.173 792.415L215.499 790.714L215.643 788.655L215.605 786.239L215.337 784.151L214.958 782.676L214.782 782.054C214.568 781.297 214.293 780.559 213.96 779.847L213.56 778.992L212.724 777.612C212.293 776.901 211.802 776.228 211.257 775.601L210.666 774.921C210.33 774.535 209.966 774.174 209.577 773.842C208.971 773.325 208.307 772.88 207.598 772.516L206.8 772.106L205.319 771.588L204.427 771.408C203.98 771.318 203.526 771.265 203.07 771.252C202.383 771.231 201.695 771.299 201.025 771.452L200.423 771.591C199.821 771.775 199.242 772.052 198.722 772.407C198.329 772.675 197.968 772.986 197.645 773.336L197.559 773.43C197.146 773.879 196.789 774.377 196.499 774.914L196.144 775.568L195.554 777.112L195.091 778.804L194.819 780.716Z" fill="#FF50C7"/>
<path d="M104.187 781.586L103.354 781.809C103.224 781.844 103.09 781.772 103.047 781.645C102.876 781.144 102.747 780.629 102.662 780.106L102.567 779.527L102.188 777.848L101.748 776.47L101.592 776.106C101.315 775.457 100.947 774.852 100.499 774.307L100.402 774.189C100.213 773.959 100.003 773.743 99.7803 773.547C99.5118 773.311 99.217 773.099 98.9075 772.92C98.5449 772.711 98.1594 772.544 97.7586 772.424L97.5509 772.361C97.0087 772.198 96.4493 772.098 95.8841 772.064L95.4318 772.037L95.1792 772.049C94.2727 772.093 93.3748 772.246 92.5052 772.506C91.8407 772.704 91.1961 772.964 90.5796 773.282L90.0669 773.546L90.0249 773.572C89.1198 774.136 88.2792 774.798 87.5182 775.545L87.3662 775.694L85.9589 777.353L85.436 778.171C85.0156 778.828 84.6486 779.518 84.3385 780.234L83.7923 781.495L83.3299 783.063C83.0913 783.872 82.9234 784.7 82.8279 785.538L82.6951 786.703L82.6179 787.99C82.5738 788.724 82.5853 789.46 82.6521 790.192L82.7358 791.109L83.0884 793.222L84.0235 796.634L85.4883 800.546L86.4361 802.532C87.2187 804.171 88.9011 805.189 90.7164 805.12L97.6028 804.86L99.7518 804.64L101.467 804.394L103.46 803.86L105.733 803.038L107.619 802.105L108.89 801.266L109.421 800.897C110.067 800.448 110.675 799.948 111.24 799.401L111.919 798.745L112.951 797.504C113.483 796.866 113.96 796.183 114.375 795.463L114.826 794.682C115.082 794.239 115.304 793.778 115.491 793.301C115.783 792.56 115.988 791.787 116.101 790.999L116.229 790.111L116.236 788.542L116.116 787.64C116.056 787.188 115.958 786.741 115.822 786.306C115.618 785.649 115.33 785.022 114.967 784.438L114.64 783.913C114.269 783.404 113.819 782.947 113.315 782.571C112.933 782.286 112.521 782.046 112.085 781.856L111.969 781.804C111.409 781.56 110.822 781.385 110.22 781.285L109.487 781.163L107.834 781.107L106.083 781.22L104.187 781.586Z" fill="#FF50C7"/>
<path d="M540.185 626.235L539.565 626.834C539.468 626.927 539.316 626.929 539.217 626.839C538.824 626.484 538.462 626.096 538.134 625.68L537.77 625.22L536.625 623.935L535.572 622.943L535.259 622.7C534.702 622.267 534.087 621.916 533.431 621.657L533.288 621.6C533.012 621.491 532.724 621.404 532.434 621.34C532.085 621.264 531.724 621.222 531.367 621.215C530.948 621.208 530.53 621.249 530.121 621.338L529.909 621.384C529.356 621.504 528.818 621.688 528.307 621.932L527.899 622.128L527.684 622.261C526.912 622.738 526.201 623.308 525.566 623.957C525.081 624.452 524.643 624.992 524.258 625.569L523.938 626.048L523.914 626.092C523.396 627.024 522.981 628.01 522.678 629.032L522.617 629.237L522.191 631.37L522.13 632.339C522.081 633.117 522.094 633.899 522.17 634.675L522.304 636.043L522.66 637.639C522.843 638.462 523.098 639.268 523.421 640.047L523.869 641.13L524.426 642.293C524.743 642.956 525.11 643.594 525.523 644.202L526.04 644.963L527.374 646.641L529.846 649.172L533.023 651.883L534.815 653.16C536.294 654.215 538.259 654.289 539.813 653.349L545.71 649.783L547.483 648.549L548.864 647.502L550.349 646.069L551.937 644.248L553.135 642.517L553.84 641.167L554.125 640.587C554.473 639.881 554.762 639.149 554.991 638.397L555.266 637.494L555.568 635.908C555.724 635.092 555.809 634.264 555.824 633.433L555.84 632.532C555.848 632.02 555.819 631.508 555.752 631.001C555.648 630.211 555.452 629.436 555.169 628.691L554.851 627.853L554.096 626.478L553.554 625.747C553.282 625.38 552.98 625.037 552.65 624.722C552.153 624.247 551.597 623.837 550.996 623.503L550.456 623.203C549.885 622.937 549.27 622.755 548.646 622.671C548.175 622.607 547.698 622.597 547.224 622.642L547.097 622.653C546.49 622.71 545.891 622.842 545.316 623.047L544.616 623.296L543.143 624.048L541.667 624.996L540.185 626.235Z" fill="#FF50C7"/>
<path d="M209.586 74.5547H289.796V92.1288H209.586L209.586 74.5547Z" fill="#001AFF"/>
<path d="M370.008 68.2461H450.218V92.1288H370.008L370.008 68.2461Z" fill="#001AFF"/>
<rect x="561.07" y="127.729" width="19.8272" height="76.6049" fill="#001AFF"/>
<rect x="561.969" y="331.408" width="23.4321" height="76.6049" fill="#001AFF"/>
<path d="M558.816 685.592L570.983 685.592V731.555H558.816V685.592Z" fill="#001AFF"/>
<rect x="522.793" y="617.268" width="13.9023" height="30.0224" transform="rotate(14 522.793 617.268)" fill="#001AFF"/>
<path d="M178.043 791.488H224.006V806.359H178.043V791.488Z" fill="#001AFF"/>
<path d="M74.4023 791.488H120.365V806.809H74.4023L74.4023 791.488Z" fill="#001AFF"/>
<path d="M29.3398 608.988H61.3337L61.7843 705.42H29.3398V608.988Z" fill="#001AFF"/>
<rect x="102.34" y="167.383" width="9.01235" height="25.2346" fill="#001AFF"/>
<path d="M261.857 499.488L315.029 499.037V516.161H256.449L261.857 499.488Z" fill="#001AFF"/>
<rect x="305.117" y="316.988" width="56.7778" height="20.7284" fill="#001AFF"/>
<path d="M281.239 730.183L333.506 741.468L336.688 761.105L269.072 745.494L281.239 730.183Z" fill="#001AFF"/>
<rect x="-17.5234" y="409.814" width="51.3704" height="224.407" fill="#001AFF"/>
</g>
<defs>
<clipPath id="clip0_958_22">
<rect width="635" height="830" fill="white"/>
</clipPath>
</defs>
</svg>
