<svg width="342" height="285" viewBox="0 0 342 285" fill="none" xmlns="http://www.w3.org/2000/svg">
<path d="M53.6222 251.575C55.4986 251.575 57.1895 250.443 57.9039 248.708L58.1007 248.23C58.445 247.394 58.5739 246.485 58.4756 245.586L56.7232 229.564L53.734 213.803L52.6775 199.434C52.4763 196.698 52.4826 193.951 52.6963 191.216L53.2901 183.615C53.5852 179.837 54.2746 176.101 55.347 172.466L58.6254 161.356L61.7528 153.985C62.066 153.246 63.0434 153.09 63.5714 153.693L75.7453 167.606L94.4958 187.987L115.284 208.64L127.733 219.681C129.848 221.557 132.105 223.264 134.485 224.789L155.095 237.988L183.356 253.206L225.694 271.243C228.082 272.261 230.541 273.106 233.05 273.772L256.207 279.92C258.725 280.588 261.287 281.075 263.875 281.376L295.043 285H324.423C325.625 285 326.782 284.543 327.659 283.72C329.372 282.114 329.648 279.495 328.307 277.567L327.844 276.902C326.864 275.493 325.298 274.604 323.586 274.484L299.12 272.771L279.907 270.892C276.059 270.516 272.263 269.73 268.582 268.548L251.712 263.131C246.928 261.595 242.388 259.382 238.23 256.561C237.808 256.275 237.999 255.615 238.509 255.598L257.229 254.981C260.151 254.885 263.06 254.553 265.929 253.988L273.417 252.515C276.596 251.89 279.713 250.981 282.731 249.801L284.445 249.13L286.245 248.061C290.818 245.346 294.967 241.974 298.561 238.054L299.12 237.445L302.616 231.241C305.872 225.464 308.018 219.128 308.941 212.561L309.129 211.224C309.7 207.166 309.695 203.049 309.116 198.993C308.084 191.771 305.256 184.925 300.891 179.08L292.666 168.067C292.138 167.359 291.049 167.46 290.66 168.253L289.542 170.531C286.256 177.224 279.449 181.465 271.993 181.465C265.505 181.465 259.44 178.247 255.804 172.875L250.598 165.185C250.1 164.449 249.072 164.314 248.4 164.896L237.634 174.227C234.876 176.617 231.348 177.933 227.699 177.933C224.156 177.933 220.724 176.693 218 174.427L202.966 161.927C199.687 159.201 196.74 156.098 194.187 152.683L175.476 127.66L159.952 104.271C156.735 99.4238 152.76 95.1243 148.179 91.537L139.776 84.9561C134.986 81.205 129.6 78.2847 123.843 76.3171L119.618 74.873C113.96 72.9391 108.021 71.9523 102.041 71.9523H87.4522C82.5685 71.9523 77.7071 72.6106 72.9992 73.9093L53.4963 79.2894L51.9478 79.9567C46.6562 82.2368 40.7585 82.7003 35.1756 81.2749L30.338 79.8705C26.1019 78.6406 22.37 76.0883 19.6877 72.5864L19.4859 72.323C17.9905 70.3706 16.8886 68.1463 16.2415 65.7737L15.9086 64.5529C15.6856 63.7351 15.5726 62.8912 15.5726 62.0435V61.6718C15.5726 58.9039 16.8758 56.2975 19.0901 54.6367C20.6123 53.4951 22.4637 52.8779 24.3665 52.8779H31.2419C32.4151 52.8779 33.3783 51.9501 33.4222 50.7778L33.6249 45.3665L33.5382 43.3337C33.4177 40.5081 34.8061 37.8308 37.1851 36.3015C39.5704 34.7681 42.5914 34.62 45.1152 35.9127L46.8768 36.8149C47.9846 37.3823 48.992 38.1274 49.8588 39.0206L50.9276 40.1217C53.3345 42.6016 55.0822 45.6447 56.0111 48.9734L56.794 51.7787L58.9226 62.9893C59.3035 64.9951 60.7663 66.6236 62.7199 67.2167C66.2446 68.2867 69.8017 65.6491 69.8017 61.9656V56.1703C69.8017 55.4433 69.7206 54.7186 69.5601 54.0095L68.3024 48.4548C67.837 46.3991 67.21 44.3834 66.4272 42.4264L65.7415 40.7121C64.0707 36.5352 61.525 32.7644 58.2756 29.6532L57.3465 28.7637C55.5244 27.0191 53.4338 25.5785 51.1547 24.4969L48.7299 23.3461C45.5274 21.8263 41.9071 21.4271 38.4504 22.2127C31.9738 23.6847 27.1084 29.0486 26.2732 35.6376L26.0153 37.6718V42.4352C26.0153 44.0541 24.7029 45.3665 23.084 45.3665H18.3206L13.4592 45.9452C7.20963 46.6892 2.18679 51.4422 1.09924 57.6413L0.65638 60.4461C0.221522 63.2002 0.224403 66.0057 0.664915 68.7589C1.19394 72.0653 2.34531 75.2413 4.05799 78.1186L5.38961 80.3557C8.82536 86.1278 13.6568 90.9437 19.4398 94.361L25.3865 97.8749C28.9694 99.9921 32.2973 102.514 35.3048 105.391L38.9479 108.875C39.1047 109.025 39.1573 109.254 39.0817 109.457L35.3488 119.505C34.2019 122.592 33.3379 125.777 32.7676 129.021L30.0922 144.236L28.4617 163.802V186.573C28.4617 189.323 28.6705 192.07 29.0864 194.789L31.1154 208.056C31.6997 211.876 32.69 215.624 34.0693 219.234L39.9451 234.615C40.8002 236.853 41.9563 238.965 43.3816 240.891L49.9 249.699C50.7732 250.879 52.1542 251.575 53.6222 251.575Z" fill="#FF50C7"/>
<path d="M94.4958 187.987L96.6679 206.016C97.0308 209.028 97.6453 212.005 98.5051 214.914L102.351 227.93L105.788 237.095C106.01 237.69 106.281 238.265 106.596 238.816L112.45 249.062C113.808 251.438 117.136 251.693 118.84 249.551C119.596 248.601 119.862 247.352 119.56 246.176L116.126 232.836C115.567 230.661 115.241 228.432 115.154 226.188L114.733 215.229C114.648 213.019 114.833 210.806 115.284 208.64L94.4958 187.987Z" fill="#FF50C7"/>
<path d="M299.12 237.445L298.561 238.054C294.967 241.974 290.818 245.346 286.245 248.061L284.445 249.13L303.467 254.836L321.09 260.006C322.92 260.542 324.816 260.815 326.723 260.815H334.467C336.485 260.815 338.364 259.784 339.447 258.081C340.702 256.109 340.675 253.582 339.379 251.637L339.18 251.338C338.237 249.923 336.773 248.938 335.107 248.596L327.109 246.956L314.895 243.699C312.172 242.973 309.51 242.036 306.933 240.897L299.12 237.445Z" fill="#FF50C7"/>
<path d="M55.1029 79.2389C52.8896 79.9973 51.519 82.212 51.8276 84.5311L52.2956 88.0473C53.5449 97.4341 59.0766 105.711 67.2718 110.456C68.9309 111.416 70.6768 112.218 72.4863 112.852L76.6922 114.324C82.8505 116.479 89.4434 117.092 95.8934 116.108L97.2905 115.895C100.48 115.408 103.573 114.426 106.459 112.983C109.69 111.367 112.613 109.198 115.096 106.574L117.049 104.509C119.565 101.849 121.587 98.7606 123.02 95.3903C124.639 91.5802 125.474 87.4829 125.474 83.343V80.237C125.474 78.2195 124.161 76.437 122.234 75.839L117.582 74.3953C112.365 72.7764 106.935 71.9531 101.473 71.9531H94.7665L84.9692 72.1039C79.7523 72.1841 74.5742 73.0152 69.5943 74.5714L59.7115 77.6598L55.1029 79.2389Z" fill="#001AFF"/>
<path d="M158.106 103.524C155.018 102.266 151.481 103.576 149.958 106.543L147.486 111.355L147.206 112.065C144.698 118.419 143.41 125.189 143.41 132.02V137.485C143.41 141.062 143.913 144.622 144.905 148.059L145.042 148.535C146.648 154.102 149.57 159.202 153.561 163.402C156.375 166.365 159.671 168.828 163.31 170.688L164.133 171.109C168.032 173.101 172.292 174.286 176.66 174.593L178.198 174.701C182.998 175.038 187.801 174.08 192.105 171.928L194.098 170.932C194.905 170.528 195.654 170.02 196.327 169.419L200.896 165.34C202.058 164.302 202.28 162.567 201.415 161.27C201.333 161.147 201.242 161.029 201.144 160.919L196.672 155.922L189.335 146.139L181.183 135.269L173.846 125.214L167.867 116.518L161.086 105.996C160.371 104.886 159.33 104.023 158.106 103.524Z" fill="#001AFF"/>
<path d="M135.846 225.463C133.946 223.291 133.923 220.055 135.792 217.856L136.608 216.895C136.974 216.465 137.389 216.079 137.843 215.744L142.225 212.523C144.995 210.486 148.018 208.815 151.216 207.552C154.868 206.111 158.713 205.216 162.626 204.896L165.356 204.673C168.46 204.42 171.584 204.65 174.617 205.355C179.288 206.442 183.631 208.629 187.285 211.735L187.833 212.2C190.98 214.875 193.597 218.116 195.549 221.754L196.304 223.16C197.812 225.97 198.99 228.945 199.817 232.025L201.193 237.155C201.439 238.07 201.596 239.007 201.662 239.952L202.08 245.888C202.517 252.081 197.204 257.139 191.04 256.399C189.911 256.264 188.814 255.934 187.797 255.426L175.203 249.129L159.17 240.161L146.398 232.824L136.969 226.453C136.554 226.173 136.176 225.84 135.846 225.463Z" fill="#001AFF"/>
<path d="M57.4057 159.051C56.7779 156.809 56.6363 154.458 56.9903 152.157C57.3525 149.803 58.2246 147.557 59.5458 145.575L60.444 144.227C61.7615 142.251 63.369 140.485 65.2123 138.987L66.0061 138.342C69.3811 135.6 73.3045 133.613 77.5122 132.515L78.9816 132.132C82.0663 131.327 85.2412 130.92 88.4291 130.92H93.6201C96.5471 130.92 99.4609 131.31 102.285 132.08C107.346 133.461 112.005 136.03 115.872 139.576L117.119 140.718C118.882 142.334 120.478 144.123 121.885 146.057C124.791 150.053 126.84 154.607 127.901 159.433L127.992 159.844C128.845 163.724 129.06 167.736 128.631 171.685C128.163 175.983 126.932 180.183 124.999 184.05C123.157 187.735 120.702 191.079 117.741 193.943L114.655 196.925C114.262 197.306 113.828 197.643 113.363 197.931C110.411 199.758 106.599 199.373 104.072 196.991L98.8453 192.063L88.7908 181.464L80.6384 173.04L72.2143 163.258L62.9932 153.78C62.7246 153.504 62.2619 153.587 62.1064 153.94L58.3553 162.442L57.4057 159.051Z" fill="#001AFF"/>
<path d="M31.7655 209.827C31.8594 210.234 32.3777 210.358 32.6462 210.039L34.8743 207.386C36.7471 205.157 38.2645 202.651 39.3731 199.959C40.7805 196.541 41.5047 192.881 41.5047 189.184V187.817C41.5047 183.462 40.4909 179.168 38.5435 175.273C37.2642 172.714 35.6011 170.366 33.6118 168.311L29.395 163.953C29.0553 163.602 28.4609 163.843 28.4609 164.331V186.63L28.7327 192.065L29.5479 197.228L31.1784 207.283L31.7655 209.827Z" fill="#001AFF"/>
<path d="M305.391 217.355L314.386 215.497L329.078 212.195" stroke="white" stroke-width="1.40715" stroke-linecap="round"/>
<path d="M304.688 220.17L311.536 222.978L322.981 227.909" stroke="white" stroke-width="1.40715" stroke-linecap="round"/>
<path d="M286.992 216.105L286.992 228.143M286.992 228.143L287.765 227.829C290.029 226.907 292.033 225.444 293.601 223.568L294.939 221.969M286.992 228.143L285.447 228.323C282.997 228.607 280.541 227.838 278.692 226.206V226.206C277.976 225.574 277.369 224.829 276.895 224L275.734 221.969" stroke="white" stroke-width="1.40715"/>
<path d="M258.484 201.641L260.327 203.266C261.731 204.505 263.442 205.343 265.281 205.694L265.955 205.822C266.906 206.003 267.884 205.988 268.828 205.778V205.778C270.618 205.381 272.186 204.307 273.203 202.781L273.963 201.641" stroke="white" stroke-width="1.40715"/>
<path d="M291.086 200V200C292.265 201.621 294.148 202.58 296.152 202.58H296.973C297.58 202.58 298.186 202.51 298.777 202.37L299.91 202.104C301.176 201.806 302.291 201.058 303.047 200V200" stroke="white" stroke-width="1.40715"/>
<ellipse cx="254.97" cy="220.638" rx="8.2084" ry="7.50482" fill="#001AFF"/>
<path d="M307.636 213.315C307.882 213.251 308.114 213.458 308.078 213.71L307.441 218.167L305.615 224.976C305.55 225.215 305.267 225.318 305.065 225.174L304.045 224.452C302.537 223.383 301.641 221.649 301.641 219.801V219.124C301.641 217.829 302.098 216.576 302.932 215.586C303.664 214.716 304.648 214.094 305.748 213.807L307.636 213.315Z" fill="#001AFF"/>
<path d="M253.327 218.059L243.317 212.646L230.578 205.863" stroke="white" stroke-width="1.40715" stroke-linecap="round"/>
<path d="M252.86 222.279L241.537 224.224L228 226.735" stroke="white" stroke-width="1.40715" stroke-linecap="round"/>
</svg>
