<svg width="1802" height="198" viewBox="0 0 1802 198" fill="none" xmlns="http://www.w3.org/2000/svg">
<path d="M66.0462 134.518C66.4262 133.779 66.6731 132.978 66.7754 132.152L66.9768 130.528L67.0047 129.847C67.0606 128.484 66.7217 127.134 66.0289 125.959L63.511 121.688L60.4835 116.243L58.2176 110.905C58.0802 110.581 57.9188 110.268 57.7349 109.968L55.8336 106.869C55.4292 106.21 54.9195 105.621 54.3248 105.127L52.3106 103.452C51.7471 102.984 51.1144 102.605 50.435 102.331L49.2244 101.842C48.3053 101.47 47.3186 101.296 46.328 101.33L45.4751 101.359C44.6061 101.389 43.7501 101.578 42.9497 101.918L41.8411 102.389C40.6592 102.89 39.6359 103.704 38.8805 104.742L38.2388 105.624C37.6347 106.455 37.2183 107.407 37.0185 108.414L36.5466 110.794L36.2236 114.082L35.9373 116.781L35.5667 119.186C35.4835 119.726 35.3382 120.254 35.1335 120.761L34.6733 121.9L34.2659 122.908C33.9807 123.614 33.5835 124.27 33.0897 124.849L32.3059 125.769L30.4696 127.645C30.0969 128.026 29.7683 128.448 29.4901 128.903L29.031 129.653C28.8274 129.986 28.6515 130.335 28.5054 130.697L27.6011 132.935C27.466 133.269 27.3566 133.613 27.2739 133.965L27.0681 134.838C26.9141 135.492 26.8539 136.164 26.8893 136.835L26.9418 137.832C26.9793 138.544 27.1239 139.245 27.3709 139.914L27.4657 140.171C27.7911 141.052 28.2884 141.859 28.9286 142.546L29.5156 143.176C29.8791 143.566 30.2854 143.914 30.7269 144.212L31.6514 144.838C32.0646 145.118 32.5062 145.353 32.9688 145.54L33.997 145.955C34.4596 146.142 34.9406 146.28 35.4321 146.366L36.2068 146.501C36.9457 146.63 37.7004 146.641 38.4427 146.533L39.1327 146.433C39.633 146.36 40.124 146.235 40.5975 146.057L42.7276 145.261L45.1545 144.23L47.096 143.406L49.5228 142.376L51.3969 141.695C51.7184 141.578 52.048 141.484 52.383 141.415L54.5127 140.974L56.6602 140.635L58.8775 140.124L60.3202 139.609C60.7668 139.45 61.1964 139.246 61.6023 139.001L62.1333 138.68C62.4358 138.497 62.7241 138.292 62.996 138.067L63.9505 137.274C64.4514 136.858 64.8926 136.376 65.2616 135.839L65.6797 135.232L66.0462 134.518Z" fill="white"/>
<ellipse cx="79.933" cy="126.223" rx="7.77971" ry="10.7063" transform="rotate(91 79.933 126.223)" fill="white"/>
<ellipse cx="72.4375" cy="150.561" rx="7.77971" ry="10.7063" transform="rotate(126 72.4375 150.561)" fill="white"/>
<ellipse cx="48.9275" cy="158.24" rx="7.01547" ry="9.25231" transform="rotate(138 48.9275 158.24)" fill="white"/>
<ellipse cx="71.6383" cy="104.557" rx="7.01548" ry="9.25231" transform="rotate(82 71.6383 104.557)" fill="white"/>
<path d="M203.175 133.036C203.555 132.296 203.802 131.495 203.904 130.67L204.106 129.046L204.134 128.364C204.189 127.002 203.851 125.651 203.158 124.476L200.64 120.206L197.612 114.76L195.347 109.422C195.209 109.099 195.048 108.785 194.864 108.486L192.963 105.387C192.558 104.728 192.048 104.139 191.454 103.645L189.439 101.97C188.876 101.501 188.243 101.123 187.564 100.848L186.353 100.359C185.434 99.9879 184.448 99.8136 183.457 99.8475L182.604 99.8768C181.735 99.9065 180.879 100.096 180.079 100.436L178.97 100.906C177.788 101.408 176.765 102.221 176.009 103.26L175.368 104.142C174.764 104.972 174.347 105.924 174.147 106.932L173.675 109.312L173.353 112.599L173.066 115.298L172.696 117.704C172.612 118.244 172.467 118.772 172.262 119.279L171.802 120.418L171.395 121.426C171.11 122.132 170.712 122.787 170.219 123.367L169.435 124.287L167.599 126.163C167.226 126.544 166.897 126.966 166.619 127.42L166.16 128.171C165.956 128.503 165.78 128.852 165.634 129.214L164.73 131.452C164.595 131.787 164.486 132.131 164.403 132.482L164.197 133.356C164.043 134.01 163.983 134.682 164.018 135.353L164.071 136.35C164.108 137.061 164.253 137.763 164.5 138.431L164.595 138.688C164.92 139.569 165.417 140.377 166.057 141.063L166.645 141.693C167.008 142.083 167.414 142.431 167.856 142.73L168.78 143.356C169.194 143.635 169.635 143.871 170.098 144.058L171.126 144.473C171.588 144.66 172.07 144.797 172.561 144.883L173.336 145.019C174.075 145.148 174.829 145.158 175.572 145.051L176.262 144.951C176.762 144.878 177.253 144.752 177.726 144.575L179.857 143.778L182.283 142.748L184.225 141.924L186.652 140.894L188.526 140.212C188.847 140.095 189.177 140.002 189.512 139.932L191.642 139.492L193.789 139.153L196.006 138.641L197.449 138.127C197.896 137.967 198.325 137.764 198.731 137.518L199.262 137.198C199.565 137.015 199.853 136.81 200.125 136.584L201.079 135.792C201.58 135.376 202.021 134.893 202.391 134.357L202.809 133.749L203.175 133.036Z" fill="white"/>
<ellipse cx="217.062" cy="124.74" rx="7.77971" ry="10.7063" transform="rotate(91 217.062 124.74)" fill="white"/>
<ellipse cx="209.566" cy="149.079" rx="7.77971" ry="10.7063" transform="rotate(126 209.566 149.079)" fill="white"/>
<ellipse cx="186.056" cy="156.758" rx="7.01547" ry="9.25231" transform="rotate(138 186.056 156.758)" fill="white"/>
<ellipse cx="208.767" cy="103.075" rx="7.01548" ry="9.25231" transform="rotate(82 208.767 103.075)" fill="white"/>
<path d="M131.394 76.2925C131.469 75.4644 131.398 74.6294 131.184 73.8259L130.762 72.2442L130.533 71.6022C130.074 70.3176 129.254 69.1928 128.172 68.3629L124.237 65.3465L119.39 61.4316L115.29 57.3311C115.041 57.0823 114.774 56.8525 114.491 56.6434L111.568 54.4825C110.946 54.0228 110.253 53.668 109.516 53.4323L107.021 52.6339C106.323 52.4106 105.595 52.2969 104.862 52.2969L103.556 52.2969C102.565 52.2969 101.585 52.5049 100.679 52.9074L99.8992 53.254C99.1047 53.6072 98.382 54.1036 97.7671 54.7184L96.9155 55.57C96.0076 56.4779 95.3635 57.6154 95.0521 58.8611L94.7876 59.9193C94.5385 60.9156 94.509 61.9542 94.7012 62.963L95.1552 65.3465L96.0873 68.5157L96.833 71.1257L97.3904 73.4945C97.5155 74.0263 97.5787 74.5708 97.5787 75.1171L97.5787 76.3455L97.5787 77.433C97.5787 78.1944 97.4559 78.9509 97.2152 79.6732L96.833 80.8197L95.8334 83.2473C95.6305 83.7401 95.4838 84.2543 95.3962 84.78L95.2516 85.6477C95.1874 86.0326 95.1552 86.4221 95.1552 86.8123L95.1552 89.2263C95.1552 89.5869 95.1827 89.947 95.2376 90.3035L95.3741 91.1906C95.4762 91.8545 95.6722 92.5005 95.9563 93.1092L96.3784 94.0138C96.6798 94.6595 97.0768 95.256 97.5561 95.7833L97.7403 95.9859C98.372 96.6807 99.1354 97.243 99.9864 97.6401L100.767 98.0043C101.25 98.2297 101.757 98.3999 102.278 98.5116L103.37 98.7455C103.858 98.8501 104.355 98.9028 104.854 98.9028L105.963 98.9028C106.462 98.9028 106.959 98.8501 107.447 98.7455L108.216 98.5808C108.95 98.4236 109.654 98.151 110.301 97.773L110.904 97.4217C111.34 97.167 111.748 96.8663 112.121 96.5247L113.798 94.9879L115.662 93.1237L117.153 91.6323L119.017 89.768L120.5 88.434C120.754 88.2051 121.025 87.995 121.309 87.8052L123.119 86.5988L124.983 85.4803L126.847 84.1753L127.992 83.1577C128.346 82.8427 128.668 82.4928 128.953 82.1134L129.325 81.6171C129.537 81.3345 129.728 81.0363 129.895 80.7252L130.483 79.633C130.792 79.0598 131.02 78.4467 131.161 77.8112L131.321 77.0912L131.394 76.2925Z" fill="white"/>
<ellipse cx="141.16" cy="63.3966" rx="7.77971" ry="10.7063" transform="rotate(69 141.16 63.3966)" fill="white"/>
<ellipse cx="143.331" cy="88.771" rx="7.77971" ry="10.7063" transform="rotate(104 143.331 88.771)" fill="white"/>
<ellipse cx="124.409" cy="104.699" rx="7.01548" ry="9.25231" transform="rotate(116 124.409 104.699)" fill="white"/>
<ellipse cx="125.354" cy="46.4166" rx="7.01548" ry="9.25231" transform="rotate(60 125.354 46.4166)" fill="white"/>
<path d="M346.062 129.012C346.442 128.273 346.689 127.472 346.791 126.647L346.992 125.022L347.02 124.341C347.076 122.978 346.737 121.628 346.045 120.453L343.527 116.182L340.499 110.737L338.233 105.399C338.096 105.075 337.934 104.762 337.75 104.462L335.849 101.363C335.445 100.704 334.935 100.116 334.34 99.6211L332.326 97.9462C331.763 97.4777 331.13 97.0994 330.451 96.8249L329.24 96.3358C328.321 95.9645 327.334 95.7902 326.344 95.8241L325.491 95.8533C324.622 95.8831 323.766 96.0726 322.965 96.4123L321.857 96.8829C320.675 97.3846 319.651 98.1981 318.896 99.2363L318.254 100.118C317.65 100.949 317.234 101.901 317.034 102.908L316.562 105.288L316.239 108.576L315.953 111.275L315.582 113.68C315.499 114.22 315.354 114.749 315.149 115.255L314.689 116.394L314.282 117.402C313.996 118.108 313.599 118.764 313.105 119.343L312.321 120.263L310.485 122.14C310.113 122.52 309.784 122.942 309.506 123.397L309.047 124.147C308.843 124.48 308.667 124.829 308.521 125.191L307.617 127.429C307.482 127.763 307.372 128.108 307.29 128.459L307.084 129.332C306.93 129.986 306.87 130.659 306.905 131.329L306.957 132.326C306.995 133.038 307.14 133.74 307.386 134.408L307.481 134.665C307.807 135.546 308.304 136.353 308.944 137.04L309.531 137.67C309.895 138.06 310.301 138.408 310.743 138.707L311.667 139.332C312.08 139.612 312.522 139.847 312.984 140.034L314.013 140.45C314.475 140.637 314.956 140.774 315.448 140.86L316.222 140.995C316.961 141.124 317.716 141.135 318.458 141.027L319.148 140.927C319.649 140.855 320.14 140.729 320.613 140.552L322.743 139.755L325.17 138.725L327.112 137.9L329.538 136.87L331.413 136.189C331.734 136.072 332.064 135.978 332.399 135.909L334.528 135.468L336.676 135.13L338.893 134.618L340.336 134.103C340.782 133.944 341.212 133.74 341.618 133.495L342.149 133.174C342.451 132.992 342.74 132.787 343.012 132.561L343.966 131.768C344.467 131.353 344.908 130.87 345.277 130.333L345.695 129.726L346.062 129.012Z" fill="white"/>
<ellipse cx="359.945" cy="120.715" rx="7.77971" ry="10.7063" transform="rotate(91 359.945 120.715)" fill="white"/>
<ellipse cx="352.453" cy="145.056" rx="7.77971" ry="10.7063" transform="rotate(126 352.453 145.056)" fill="white"/>
<ellipse cx="328.939" cy="152.733" rx="7.01547" ry="9.25231" transform="rotate(138 328.939 152.733)" fill="white"/>
<ellipse cx="351.65" cy="99.0513" rx="7.01548" ry="9.25231" transform="rotate(82 351.65 99.0513)" fill="white"/>
<path d="M274.277 72.2652C274.352 71.437 274.281 70.602 274.067 69.7985L273.645 68.2169L273.416 67.5749C272.957 66.2903 272.137 65.1654 271.054 64.3355L267.12 61.3192L262.273 57.4043L258.173 53.3037C257.924 53.055 257.657 52.8252 257.374 52.6161L254.45 50.4552C253.828 49.9954 253.135 49.6407 252.399 49.405L249.904 48.6066C249.206 48.3832 248.478 48.2695 247.745 48.2695L246.439 48.2695C245.448 48.2695 244.468 48.4775 243.562 48.8801L242.782 49.2267C241.988 49.5798 241.265 50.0762 240.65 50.691L239.798 51.5427C238.89 52.4505 238.246 53.5881 237.935 54.8337L237.67 55.892C237.421 56.8883 237.392 57.9268 237.584 58.9356L238.038 61.3192L238.97 64.4884L239.716 67.0983L240.273 69.4672C240.398 69.999 240.462 70.5434 240.462 71.0897L240.462 72.3182L240.462 73.4057C240.462 74.1671 240.339 74.9235 240.098 75.6459L239.716 76.7924L238.716 79.22C238.513 79.7128 238.367 80.2269 238.279 80.7526L238.134 81.6203C238.07 82.0052 238.038 82.3947 238.038 82.7849L238.038 85.1989C238.038 85.5596 238.066 85.9197 238.12 86.2761L238.257 87.1633C238.359 87.8272 238.555 88.4732 238.839 89.0819L239.261 89.9864C239.563 90.6322 239.96 91.2287 240.439 91.756L240.623 91.9586C241.255 92.6534 242.018 93.2157 242.869 93.6128L243.649 93.9769C244.133 94.2024 244.64 94.3726 245.161 94.4843L246.253 94.7182C246.74 94.8227 247.238 94.8754 247.737 94.8754L248.846 94.8754C249.345 94.8754 249.842 94.8227 250.33 94.7182L251.099 94.5534C251.833 94.3963 252.536 94.1236 253.184 93.7457L253.786 93.3944C254.223 93.1397 254.631 92.8389 255.004 92.4974L256.68 90.9605L258.545 89.0963L260.036 87.6049L261.9 85.7407L263.383 84.4066C263.637 84.1778 263.907 83.9676 264.192 83.7779L266.002 82.5715L267.866 81.4529L269.73 80.148L270.875 79.1304C271.229 78.8153 271.551 78.4655 271.836 78.0861L272.208 77.5898C272.42 77.3071 272.61 77.009 272.778 76.6979L273.366 75.6056C273.675 75.0324 273.903 74.4194 274.044 73.7838L274.204 73.0639L274.277 72.2652Z" fill="white"/>
<ellipse cx="284.043" cy="59.3693" rx="7.77971" ry="10.7063" transform="rotate(69 284.043 59.3693)" fill="white"/>
<ellipse cx="286.214" cy="84.7437" rx="7.77971" ry="10.7063" transform="rotate(104 286.214 84.7437)" fill="white"/>
<ellipse cx="267.292" cy="100.671" rx="7.01548" ry="9.25231" transform="rotate(116 267.292 100.671)" fill="white"/>
<ellipse cx="268.237" cy="42.3892" rx="7.01548" ry="9.25231" transform="rotate(60 268.237 42.3892)" fill="white"/>
<path d="M485.175 134.036C485.555 133.296 485.802 132.495 485.904 131.67L486.106 130.046L486.134 129.364C486.189 128.002 485.851 126.651 485.158 125.476L482.64 121.206L479.612 115.76L477.347 110.422C477.209 110.099 477.048 109.785 476.864 109.486L474.963 106.387C474.558 105.728 474.048 105.139 473.454 104.645L471.439 102.97C470.876 102.501 470.243 102.123 469.564 101.848L468.353 101.359C467.434 100.988 466.448 100.814 465.457 100.848L464.604 100.877C463.735 100.907 462.879 101.096 462.079 101.436L460.97 101.906C459.788 102.408 458.765 103.221 458.009 104.26L457.368 105.142C456.764 105.972 456.347 106.924 456.147 107.932L455.675 110.312L455.353 113.599L455.066 116.298L454.696 118.704C454.612 119.244 454.467 119.772 454.262 120.279L453.802 121.418L453.395 122.426C453.11 123.132 452.712 123.787 452.219 124.367L451.435 125.287L449.599 127.163C449.226 127.544 448.897 127.966 448.619 128.42L448.16 129.171C447.956 129.503 447.78 129.852 447.634 130.214L446.73 132.452C446.595 132.787 446.486 133.131 446.403 133.482L446.197 134.356C446.043 135.01 445.983 135.682 446.018 136.353L446.071 137.35C446.108 138.061 446.253 138.763 446.5 139.431L446.595 139.688C446.92 140.569 447.417 141.377 448.057 142.063L448.645 142.693C449.008 143.083 449.414 143.431 449.856 143.73L450.78 144.356C451.194 144.635 451.635 144.871 452.098 145.058L453.126 145.473C453.588 145.66 454.07 145.797 454.561 145.883L455.336 146.019C456.075 146.148 456.829 146.158 457.572 146.051L458.262 145.951C458.762 145.878 459.253 145.752 459.726 145.575L461.857 144.778L464.283 143.748L466.225 142.924L468.652 141.894L470.526 141.212C470.847 141.095 471.177 141.002 471.512 140.932L473.642 140.492L475.789 140.153L478.006 139.641L479.449 139.127C479.896 138.967 480.325 138.764 480.731 138.518L481.262 138.198C481.565 138.015 481.853 137.81 482.125 137.584L483.079 136.792C483.58 136.376 484.021 135.893 484.391 135.357L484.809 134.749L485.175 134.036Z" fill="white"/>
<ellipse cx="499.062" cy="125.74" rx="7.77971" ry="10.7063" transform="rotate(91 499.062 125.74)" fill="white"/>
<ellipse cx="491.566" cy="150.079" rx="7.77971" ry="10.7063" transform="rotate(126 491.566 150.079)" fill="white"/>
<ellipse cx="468.056" cy="157.758" rx="7.01547" ry="9.25231" transform="rotate(138 468.056 157.758)" fill="white"/>
<ellipse cx="490.767" cy="104.075" rx="7.01548" ry="9.25231" transform="rotate(82 490.767 104.075)" fill="white"/>
<path d="M413.394 77.2925C413.469 76.4644 413.398 75.6294 413.184 74.8259L412.762 73.2442L412.533 72.6022C412.074 71.3176 411.254 70.1928 410.172 69.3629L406.237 66.3465L401.39 62.4316L397.29 58.3311C397.041 58.0823 396.774 57.8525 396.491 57.6434L393.568 55.4825C392.946 55.0228 392.253 54.668 391.516 54.4323L389.021 53.6339C388.323 53.4106 387.595 53.2969 386.862 53.2969L385.556 53.2969C384.565 53.2969 383.585 53.5049 382.679 53.9074L381.899 54.254C381.105 54.6072 380.382 55.1036 379.767 55.7184L378.916 56.57C378.008 57.4779 377.364 58.6154 377.052 59.8611L376.788 60.9193C376.539 61.9156 376.509 62.9542 376.701 63.963L377.155 66.3465L378.087 69.5157L378.833 72.1257L379.39 74.4945C379.516 75.0263 379.579 75.5708 379.579 76.1171L379.579 77.3455L379.579 78.433C379.579 79.1944 379.456 79.9509 379.215 80.6732L378.833 81.8197L377.833 84.2473C377.63 84.7401 377.484 85.2543 377.396 85.78L377.252 86.6477C377.187 87.0326 377.155 87.4221 377.155 87.8123L377.155 90.2263C377.155 90.5869 377.183 90.947 377.238 91.3035L377.374 92.1906C377.476 92.8545 377.672 93.5005 377.956 94.1092L378.378 95.0138C378.68 95.6595 379.077 96.256 379.556 96.7833L379.74 96.9859C380.372 97.6807 381.135 98.243 381.986 98.6401L382.767 99.0043C383.25 99.2297 383.757 99.3999 384.278 99.5116L385.37 99.7455C385.858 99.8501 386.355 99.9028 386.854 99.9028L387.963 99.9028C388.462 99.9028 388.959 99.8501 389.447 99.7455L390.216 99.5808C390.95 99.4236 391.654 99.151 392.301 98.773L392.904 98.4217C393.34 98.167 393.748 97.8663 394.121 97.5247L395.798 95.9879L397.662 94.1237L399.153 92.6323L401.017 90.768L402.5 89.434C402.754 89.2051 403.025 88.995 403.309 88.8052L405.119 87.5988L406.983 86.4803L408.847 85.1753L409.992 84.1577C410.346 83.8427 410.668 83.4928 410.953 83.1134L411.325 82.6171C411.537 82.3345 411.728 82.0363 411.895 81.7252L412.483 80.633C412.792 80.0598 413.02 79.4467 413.161 78.8112L413.321 78.0912L413.394 77.2925Z" fill="white"/>
<ellipse cx="423.16" cy="64.3966" rx="7.77971" ry="10.7063" transform="rotate(69 423.16 64.3966)" fill="white"/>
<ellipse cx="425.331" cy="89.771" rx="7.77971" ry="10.7063" transform="rotate(104 425.331 89.771)" fill="white"/>
<ellipse cx="406.409" cy="105.699" rx="7.01548" ry="9.25231" transform="rotate(116 406.409 105.699)" fill="white"/>
<ellipse cx="407.354" cy="47.4166" rx="7.01548" ry="9.25231" transform="rotate(60 407.354 47.4166)" fill="white"/>
<path d="M628.062 130.012C628.442 129.273 628.689 128.472 628.791 127.647L628.992 126.022L629.02 125.341C629.076 123.978 628.737 122.628 628.045 121.453L625.527 117.182L622.499 111.737L620.233 106.399C620.096 106.075 619.934 105.762 619.75 105.462L617.849 102.363C617.445 101.704 616.935 101.116 616.34 100.621L614.326 98.9462C613.763 98.4777 613.13 98.0994 612.451 97.8249L611.24 97.3358C610.321 96.9645 609.334 96.7902 608.344 96.8241L607.491 96.8533C606.622 96.8831 605.766 97.0726 604.965 97.4123L603.857 97.8829C602.675 98.3846 601.651 99.1981 600.896 100.236L600.254 101.118C599.65 101.949 599.234 102.901 599.034 103.908L598.562 106.288L598.239 109.576L597.953 112.275L597.582 114.68C597.499 115.22 597.354 115.749 597.149 116.255L596.689 117.394L596.282 118.402C595.996 119.108 595.599 119.764 595.105 120.343L594.321 121.263L592.485 123.14C592.113 123.52 591.784 123.942 591.506 124.397L591.047 125.147C590.843 125.48 590.667 125.829 590.521 126.191L589.617 128.429C589.482 128.763 589.372 129.108 589.29 129.459L589.084 130.332C588.93 130.986 588.87 131.659 588.905 132.329L588.957 133.326C588.995 134.038 589.14 134.74 589.386 135.408L589.481 135.665C589.807 136.546 590.304 137.353 590.944 138.04L591.531 138.67C591.895 139.06 592.301 139.408 592.743 139.707L593.667 140.332C594.08 140.612 594.522 140.847 594.984 141.034L596.013 141.45C596.475 141.637 596.956 141.774 597.448 141.86L598.222 141.995C598.961 142.124 599.716 142.135 600.458 142.027L601.148 141.927C601.649 141.855 602.14 141.729 602.613 141.552L604.743 140.755L607.17 139.725L609.112 138.9L611.538 137.87L613.413 137.189C613.734 137.072 614.064 136.978 614.399 136.909L616.528 136.468L618.676 136.13L620.893 135.618L622.336 135.103C622.782 134.944 623.212 134.74 623.618 134.495L624.149 134.174C624.451 133.992 624.74 133.787 625.012 133.561L625.966 132.768C626.467 132.353 626.908 131.87 627.277 131.333L627.695 130.726L628.062 130.012Z" fill="white"/>
<ellipse cx="641.945" cy="121.715" rx="7.77971" ry="10.7063" transform="rotate(91 641.945 121.715)" fill="white"/>
<ellipse cx="634.453" cy="146.056" rx="7.77971" ry="10.7063" transform="rotate(126 634.453 146.056)" fill="white"/>
<ellipse cx="610.939" cy="153.733" rx="7.01547" ry="9.25231" transform="rotate(138 610.939 153.733)" fill="white"/>
<ellipse cx="633.65" cy="100.051" rx="7.01548" ry="9.25231" transform="rotate(82 633.65 100.051)" fill="white"/>
<path d="M556.277 73.2652C556.352 72.437 556.281 71.602 556.067 70.7985L555.645 69.2169L555.416 68.5749C554.957 67.2903 554.137 66.1654 553.054 65.3355L549.12 62.3192L544.273 58.4043L540.173 54.3037C539.924 54.055 539.657 53.8252 539.374 53.6161L536.45 51.4552C535.828 50.9954 535.135 50.6407 534.399 50.405L531.904 49.6066C531.206 49.3832 530.478 49.2695 529.745 49.2695L528.439 49.2695C527.448 49.2695 526.468 49.4775 525.562 49.8801L524.782 50.2267C523.988 50.5798 523.265 51.0762 522.65 51.691L521.798 52.5427C520.89 53.4505 520.246 54.5881 519.935 55.8337L519.67 56.892C519.421 57.8883 519.392 58.9268 519.584 59.9356L520.038 62.3192L520.97 65.4884L521.716 68.0983L522.273 70.4672C522.398 70.999 522.462 71.5434 522.462 72.0897L522.462 73.3182L522.462 74.4057C522.462 75.1671 522.339 75.9235 522.098 76.6459L521.716 77.7924L520.716 80.22C520.513 80.7128 520.367 81.2269 520.279 81.7526L520.134 82.6203C520.07 83.0052 520.038 83.3947 520.038 83.7849L520.038 86.1989C520.038 86.5596 520.066 86.9197 520.12 87.2761L520.257 88.1633C520.359 88.8272 520.555 89.4732 520.839 90.0819L521.261 90.9864C521.563 91.6322 521.96 92.2287 522.439 92.756L522.623 92.9586C523.255 93.6534 524.018 94.2157 524.869 94.6128L525.649 94.9769C526.133 95.2024 526.64 95.3726 527.161 95.4843L528.253 95.7182C528.74 95.8227 529.238 95.8754 529.737 95.8754L530.846 95.8754C531.345 95.8754 531.842 95.8227 532.33 95.7182L533.099 95.5534C533.833 95.3963 534.536 95.1236 535.184 94.7457L535.786 94.3944C536.223 94.1397 536.631 93.8389 537.004 93.4974L538.68 91.9605L540.545 90.0963L542.036 88.6049L543.9 86.7407L545.383 85.4066C545.637 85.1778 545.907 84.9676 546.192 84.7779L548.002 83.5715L549.866 82.4529L551.73 81.148L552.875 80.1304C553.229 79.8153 553.551 79.4655 553.836 79.0861L554.208 78.5898C554.42 78.3071 554.61 78.009 554.778 77.6979L555.366 76.6056C555.675 76.0324 555.903 75.4194 556.044 74.7838L556.204 74.0639L556.277 73.2652Z" fill="white"/>
<ellipse cx="566.043" cy="60.3693" rx="7.77971" ry="10.7063" transform="rotate(69 566.043 60.3693)" fill="white"/>
<ellipse cx="568.214" cy="85.7437" rx="7.77971" ry="10.7063" transform="rotate(104 568.214 85.7437)" fill="white"/>
<ellipse cx="549.292" cy="101.671" rx="7.01548" ry="9.25231" transform="rotate(116 549.292 101.671)" fill="white"/>
<ellipse cx="550.237" cy="43.3892" rx="7.01548" ry="9.25231" transform="rotate(60 550.237 43.3892)" fill="white"/>
<path d="M765.175 134.036C765.555 133.296 765.802 132.495 765.904 131.67L766.106 130.046L766.134 129.364C766.189 128.002 765.851 126.651 765.158 125.476L762.64 121.206L759.612 115.76L757.347 110.422C757.209 110.099 757.048 109.785 756.864 109.486L754.963 106.387C754.558 105.728 754.048 105.139 753.454 104.645L751.439 102.97C750.876 102.501 750.243 102.123 749.564 101.848L748.353 101.359C747.434 100.988 746.448 100.814 745.457 100.848L744.604 100.877C743.735 100.907 742.879 101.096 742.079 101.436L740.97 101.906C739.788 102.408 738.765 103.221 738.009 104.26L737.368 105.142C736.764 105.972 736.347 106.924 736.147 107.932L735.675 110.312L735.353 113.599L735.066 116.298L734.696 118.704C734.612 119.244 734.467 119.772 734.262 120.279L733.802 121.418L733.395 122.426C733.11 123.132 732.712 123.787 732.219 124.367L731.435 125.287L729.599 127.163C729.226 127.544 728.897 127.966 728.619 128.42L728.16 129.171C727.956 129.503 727.78 129.852 727.634 130.214L726.73 132.452C726.595 132.787 726.486 133.131 726.403 133.482L726.197 134.356C726.043 135.01 725.983 135.682 726.018 136.353L726.071 137.35C726.108 138.061 726.253 138.763 726.5 139.431L726.595 139.688C726.92 140.569 727.417 141.377 728.057 142.063L728.645 142.693C729.008 143.083 729.414 143.431 729.856 143.73L730.78 144.356C731.194 144.635 731.635 144.871 732.098 145.058L733.126 145.473C733.588 145.66 734.07 145.797 734.561 145.883L735.336 146.019C736.075 146.148 736.829 146.158 737.572 146.051L738.262 145.951C738.762 145.878 739.253 145.752 739.726 145.575L741.857 144.778L744.283 143.748L746.225 142.924L748.652 141.894L750.526 141.212C750.847 141.095 751.177 141.002 751.512 140.932L753.642 140.492L755.789 140.153L758.006 139.641L759.449 139.127C759.896 138.967 760.325 138.764 760.731 138.518L761.262 138.198C761.565 138.015 761.853 137.81 762.125 137.584L763.079 136.792C763.58 136.376 764.021 135.893 764.391 135.357L764.809 134.749L765.175 134.036Z" fill="white"/>
<ellipse cx="779.062" cy="125.74" rx="7.77971" ry="10.7063" transform="rotate(91 779.062 125.74)" fill="white"/>
<ellipse cx="771.566" cy="150.079" rx="7.77971" ry="10.7063" transform="rotate(126 771.566 150.079)" fill="white"/>
<ellipse cx="748.056" cy="157.758" rx="7.01547" ry="9.25231" transform="rotate(138 748.056 157.758)" fill="white"/>
<ellipse cx="770.767" cy="104.075" rx="7.01548" ry="9.25231" transform="rotate(82 770.767 104.075)" fill="white"/>
<path d="M693.394 77.2925C693.469 76.4644 693.398 75.6294 693.184 74.8259L692.762 73.2442L692.533 72.6022C692.074 71.3176 691.254 70.1928 690.172 69.3629L686.237 66.3465L681.39 62.4316L677.29 58.3311C677.041 58.0823 676.774 57.8525 676.491 57.6434L673.568 55.4825C672.946 55.0228 672.253 54.668 671.516 54.4323L669.021 53.6339C668.323 53.4106 667.595 53.2969 666.862 53.2969L665.556 53.2969C664.565 53.2969 663.585 53.5049 662.679 53.9074L661.899 54.254C661.105 54.6072 660.382 55.1036 659.767 55.7184L658.916 56.57C658.008 57.4779 657.364 58.6154 657.052 59.8611L656.788 60.9193C656.539 61.9156 656.509 62.9542 656.701 63.963L657.155 66.3465L658.087 69.5157L658.833 72.1257L659.39 74.4945C659.516 75.0263 659.579 75.5708 659.579 76.1171L659.579 77.3455L659.579 78.433C659.579 79.1944 659.456 79.9509 659.215 80.6732L658.833 81.8197L657.833 84.2473C657.63 84.7401 657.484 85.2543 657.396 85.78L657.252 86.6477C657.187 87.0326 657.155 87.4221 657.155 87.8123L657.155 90.2263C657.155 90.5869 657.183 90.947 657.238 91.3035L657.374 92.1906C657.476 92.8545 657.672 93.5005 657.956 94.1092L658.378 95.0138C658.68 95.6595 659.077 96.256 659.556 96.7833L659.74 96.9859C660.372 97.6807 661.135 98.243 661.986 98.6401L662.767 99.0043C663.25 99.2297 663.757 99.3999 664.278 99.5116L665.37 99.7455C665.858 99.8501 666.355 99.9028 666.854 99.9028L667.963 99.9028C668.462 99.9028 668.959 99.8501 669.447 99.7455L670.216 99.5808C670.95 99.4236 671.654 99.151 672.301 98.773L672.904 98.4217C673.34 98.167 673.748 97.8663 674.121 97.5247L675.798 95.9879L677.662 94.1237L679.153 92.6323L681.017 90.768L682.5 89.434C682.754 89.2051 683.025 88.995 683.309 88.8052L685.119 87.5988L686.983 86.4803L688.847 85.1753L689.992 84.1577C690.346 83.8427 690.668 83.4928 690.953 83.1134L691.325 82.6171C691.537 82.3345 691.728 82.0363 691.895 81.7252L692.483 80.633C692.792 80.0598 693.02 79.4467 693.161 78.8112L693.321 78.0912L693.394 77.2925Z" fill="white"/>
<ellipse cx="703.16" cy="64.3966" rx="7.77971" ry="10.7063" transform="rotate(69 703.16 64.3966)" fill="white"/>
<ellipse cx="705.331" cy="89.771" rx="7.77971" ry="10.7063" transform="rotate(104 705.331 89.771)" fill="white"/>
<ellipse cx="686.409" cy="105.699" rx="7.01548" ry="9.25231" transform="rotate(116 686.409 105.699)" fill="white"/>
<ellipse cx="687.354" cy="47.4166" rx="7.01548" ry="9.25231" transform="rotate(60 687.354 47.4166)" fill="white"/>
<path d="M908.062 130.012C908.442 129.273 908.689 128.472 908.791 127.647L908.992 126.022L909.02 125.341C909.076 123.978 908.737 122.628 908.045 121.453L905.527 117.182L902.499 111.737L900.233 106.399C900.096 106.075 899.934 105.762 899.75 105.462L897.849 102.363C897.445 101.704 896.935 101.116 896.34 100.621L894.326 98.9462C893.763 98.4777 893.13 98.0994 892.451 97.8249L891.24 97.3358C890.321 96.9645 889.334 96.7902 888.344 96.8241L887.491 96.8533C886.622 96.8831 885.766 97.0726 884.965 97.4123L883.857 97.8829C882.675 98.3846 881.651 99.1981 880.896 100.236L880.254 101.118C879.65 101.949 879.234 102.901 879.034 103.908L878.562 106.288L878.239 109.576L877.953 112.275L877.582 114.68C877.499 115.22 877.354 115.749 877.149 116.255L876.689 117.394L876.282 118.402C875.996 119.108 875.599 119.764 875.105 120.343L874.321 121.263L872.485 123.14C872.113 123.52 871.784 123.942 871.506 124.397L871.047 125.147C870.843 125.48 870.667 125.829 870.521 126.191L869.617 128.429C869.482 128.763 869.372 129.108 869.29 129.459L869.084 130.332C868.93 130.986 868.87 131.659 868.905 132.329L868.957 133.326C868.995 134.038 869.14 134.74 869.386 135.408L869.481 135.665C869.807 136.546 870.304 137.353 870.944 138.04L871.531 138.67C871.895 139.06 872.301 139.408 872.743 139.707L873.667 140.332C874.08 140.612 874.522 140.847 874.984 141.034L876.013 141.45C876.475 141.637 876.956 141.774 877.448 141.86L878.222 141.995C878.961 142.124 879.716 142.135 880.458 142.027L881.148 141.927C881.649 141.855 882.14 141.729 882.613 141.552L884.743 140.755L887.17 139.725L889.112 138.9L891.538 137.87L893.413 137.189C893.734 137.072 894.064 136.978 894.399 136.909L896.528 136.468L898.676 136.13L900.893 135.618L902.336 135.103C902.782 134.944 903.212 134.74 903.618 134.495L904.149 134.174C904.451 133.992 904.74 133.787 905.012 133.561L905.966 132.768C906.467 132.353 906.908 131.87 907.277 131.333L907.695 130.726L908.062 130.012Z" fill="white"/>
<ellipse cx="921.945" cy="121.715" rx="7.77971" ry="10.7063" transform="rotate(91 921.945 121.715)" fill="white"/>
<ellipse cx="914.453" cy="146.056" rx="7.77971" ry="10.7063" transform="rotate(126 914.453 146.056)" fill="white"/>
<ellipse cx="890.939" cy="153.733" rx="7.01547" ry="9.25231" transform="rotate(138 890.939 153.733)" fill="white"/>
<ellipse cx="913.65" cy="100.051" rx="7.01548" ry="9.25231" transform="rotate(82 913.65 100.051)" fill="white"/>
<path d="M836.277 73.2652C836.352 72.437 836.281 71.602 836.067 70.7985L835.645 69.2169L835.416 68.5749C834.957 67.2903 834.137 66.1654 833.054 65.3355L829.12 62.3192L824.273 58.4043L820.173 54.3037C819.924 54.055 819.657 53.8252 819.374 53.6161L816.45 51.4552C815.828 50.9954 815.135 50.6407 814.399 50.405L811.904 49.6066C811.206 49.3832 810.478 49.2695 809.745 49.2695L808.439 49.2695C807.448 49.2695 806.468 49.4775 805.562 49.8801L804.782 50.2267C803.988 50.5798 803.265 51.0762 802.65 51.691L801.798 52.5427C800.89 53.4505 800.246 54.5881 799.935 55.8337L799.67 56.892C799.421 57.8883 799.392 58.9268 799.584 59.9356L800.038 62.3192L800.97 65.4884L801.716 68.0983L802.273 70.4672C802.398 70.999 802.462 71.5434 802.462 72.0897L802.462 73.3182L802.462 74.4057C802.462 75.1671 802.339 75.9235 802.098 76.6459L801.716 77.7924L800.716 80.22C800.513 80.7128 800.367 81.2269 800.279 81.7526L800.134 82.6203C800.07 83.0052 800.038 83.3947 800.038 83.7849L800.038 86.1989C800.038 86.5596 800.066 86.9197 800.12 87.2761L800.257 88.1633C800.359 88.8272 800.555 89.4732 800.839 90.0819L801.261 90.9864C801.563 91.6322 801.96 92.2287 802.439 92.756L802.623 92.9586C803.255 93.6534 804.018 94.2157 804.869 94.6128L805.649 94.9769C806.133 95.2024 806.64 95.3726 807.161 95.4843L808.253 95.7182C808.74 95.8227 809.238 95.8754 809.737 95.8754L810.846 95.8754C811.345 95.8754 811.842 95.8227 812.33 95.7182L813.099 95.5534C813.833 95.3963 814.536 95.1236 815.184 94.7457L815.786 94.3944C816.223 94.1397 816.631 93.8389 817.004 93.4974L818.68 91.9605L820.545 90.0963L822.036 88.6049L823.9 86.7407L825.383 85.4066C825.637 85.1778 825.907 84.9676 826.192 84.7779L828.002 83.5715L829.866 82.4529L831.73 81.148L832.875 80.1304C833.229 79.8153 833.551 79.4655 833.836 79.0861L834.208 78.5898C834.42 78.3071 834.61 78.009 834.778 77.6979L835.366 76.6056C835.675 76.0324 835.903 75.4194 836.044 74.7838L836.204 74.0639L836.277 73.2652Z" fill="white"/>
<ellipse cx="846.043" cy="60.3693" rx="7.77971" ry="10.7063" transform="rotate(69 846.043 60.3693)" fill="white"/>
<ellipse cx="848.214" cy="85.7437" rx="7.77971" ry="10.7063" transform="rotate(104 848.214 85.7437)" fill="white"/>
<ellipse cx="829.292" cy="101.671" rx="7.01548" ry="9.25231" transform="rotate(116 829.292 101.671)" fill="white"/>
<ellipse cx="830.237" cy="43.3892" rx="7.01548" ry="9.25231" transform="rotate(60 830.237 43.3892)" fill="white"/>
<path d="M1043.18 134.036C1043.56 133.296 1043.8 132.495 1043.9 131.67L1044.11 130.046L1044.13 129.364C1044.19 128.002 1043.85 126.651 1043.16 125.476L1040.64 121.206L1037.61 115.76L1035.35 110.422C1035.21 110.099 1035.05 109.785 1034.86 109.486L1032.96 106.387C1032.56 105.728 1032.05 105.139 1031.45 104.645L1029.44 102.97C1028.88 102.501 1028.24 102.123 1027.56 101.848L1026.35 101.359C1025.43 100.988 1024.45 100.814 1023.46 100.848L1022.6 100.877C1021.74 100.907 1020.88 101.096 1020.08 101.436L1018.97 101.906C1017.79 102.408 1016.76 103.221 1016.01 104.26L1015.37 105.142C1014.76 105.972 1014.35 106.924 1014.15 107.932L1013.68 110.312L1013.35 113.599L1013.07 116.298L1012.7 118.704C1012.61 119.244 1012.47 119.772 1012.26 120.279L1011.8 121.418L1011.39 122.426C1011.11 123.132 1010.71 123.787 1010.22 124.367L1009.43 125.287L1007.6 127.163C1007.23 127.544 1006.9 127.966 1006.62 128.42L1006.16 129.171C1005.96 129.503 1005.78 129.852 1005.63 130.214L1004.73 132.452C1004.59 132.787 1004.49 133.131 1004.4 133.482L1004.2 134.356C1004.04 135.01 1003.98 135.682 1004.02 136.353L1004.07 137.35C1004.11 138.061 1004.25 138.763 1004.5 139.431L1004.59 139.688C1004.92 140.569 1005.42 141.377 1006.06 142.063L1006.64 142.693C1007.01 143.083 1007.41 143.431 1007.86 143.73L1008.78 144.356C1009.19 144.635 1009.64 144.871 1010.1 145.058L1011.13 145.473C1011.59 145.66 1012.07 145.797 1012.56 145.883L1013.34 146.019C1014.07 146.148 1014.83 146.158 1015.57 146.051L1016.26 145.951C1016.76 145.878 1017.25 145.752 1017.73 145.575L1019.86 144.778L1022.28 143.748L1024.22 142.924L1026.65 141.894L1028.53 141.212C1028.85 141.095 1029.18 141.002 1029.51 140.932L1031.64 140.492L1033.79 140.153L1036.01 139.641L1037.45 139.127C1037.9 138.967 1038.33 138.764 1038.73 138.518L1039.26 138.198C1039.56 138.015 1039.85 137.81 1040.12 137.584L1041.08 136.792C1041.58 136.376 1042.02 135.893 1042.39 135.357L1042.81 134.749L1043.18 134.036Z" fill="white"/>
<ellipse cx="1057.06" cy="125.74" rx="7.77971" ry="10.7063" transform="rotate(91 1057.06 125.74)" fill="white"/>
<ellipse cx="1049.57" cy="150.079" rx="7.77971" ry="10.7063" transform="rotate(126 1049.57 150.079)" fill="white"/>
<ellipse cx="1026.06" cy="157.758" rx="7.01547" ry="9.25231" transform="rotate(138 1026.06 157.758)" fill="white"/>
<ellipse cx="1048.77" cy="104.075" rx="7.01548" ry="9.25231" transform="rotate(82 1048.77 104.075)" fill="white"/>
<path d="M971.394 77.2925C971.469 76.4644 971.398 75.6294 971.184 74.8259L970.762 73.2442L970.533 72.6022C970.074 71.3176 969.254 70.1928 968.172 69.3629L964.237 66.3465L959.39 62.4316L955.29 58.3311C955.041 58.0823 954.774 57.8525 954.491 57.6434L951.568 55.4825C950.946 55.0228 950.253 54.668 949.516 54.4323L947.021 53.6339C946.323 53.4106 945.595 53.2969 944.862 53.2969L943.556 53.2969C942.565 53.2969 941.585 53.5049 940.679 53.9074L939.899 54.254C939.105 54.6072 938.382 55.1036 937.767 55.7184L936.916 56.57C936.008 57.4779 935.364 58.6154 935.052 59.8611L934.788 60.9193C934.539 61.9156 934.509 62.9542 934.701 63.963L935.155 66.3465L936.087 69.5157L936.833 72.1257L937.39 74.4945C937.516 75.0263 937.579 75.5708 937.579 76.1171L937.579 77.3455L937.579 78.433C937.579 79.1944 937.456 79.9509 937.215 80.6732L936.833 81.8197L935.833 84.2473C935.63 84.7401 935.484 85.2543 935.396 85.78L935.252 86.6477C935.187 87.0326 935.155 87.4221 935.155 87.8123L935.155 90.2263C935.155 90.5869 935.183 90.947 935.238 91.3035L935.374 92.1906C935.476 92.8545 935.672 93.5005 935.956 94.1092L936.378 95.0138C936.68 95.6595 937.077 96.256 937.556 96.7833L937.74 96.9859C938.372 97.6807 939.135 98.243 939.986 98.6401L940.767 99.0043C941.25 99.2297 941.757 99.3999 942.278 99.5116L943.37 99.7455C943.858 99.8501 944.355 99.9028 944.854 99.9028L945.963 99.9028C946.462 99.9028 946.959 99.8501 947.447 99.7455L948.216 99.5808C948.95 99.4236 949.654 99.151 950.301 98.773L950.904 98.4217C951.34 98.167 951.748 97.8663 952.121 97.5247L953.798 95.9879L955.662 94.1237L957.153 92.6323L959.017 90.768L960.5 89.434C960.754 89.2051 961.025 88.995 961.309 88.8052L963.119 87.5988L964.983 86.4803L966.847 85.1753L967.992 84.1577C968.346 83.8427 968.668 83.4928 968.953 83.1134L969.325 82.6171C969.537 82.3345 969.728 82.0363 969.895 81.7252L970.483 80.633C970.792 80.0598 971.02 79.4467 971.161 78.8112L971.321 78.0912L971.394 77.2925Z" fill="white"/>
<ellipse cx="981.16" cy="64.3966" rx="7.77971" ry="10.7063" transform="rotate(69 981.16 64.3966)" fill="white"/>
<ellipse cx="983.331" cy="89.771" rx="7.77971" ry="10.7063" transform="rotate(104 983.331 89.771)" fill="white"/>
<ellipse cx="964.409" cy="105.699" rx="7.01548" ry="9.25231" transform="rotate(116 964.409 105.699)" fill="white"/>
<ellipse cx="965.354" cy="47.4166" rx="7.01548" ry="9.25231" transform="rotate(60 965.354 47.4166)" fill="white"/>
<path d="M1114.28 73.2652C1114.35 72.437 1114.28 71.602 1114.07 70.7985L1113.64 69.2169L1113.42 68.5749C1112.96 67.2903 1112.14 66.1654 1111.05 65.3355L1107.12 62.3192L1102.27 58.4043L1098.17 54.3037C1097.92 54.055 1097.66 53.8252 1097.37 53.6161L1094.45 51.4552C1093.83 50.9954 1093.14 50.6407 1092.4 50.405L1089.9 49.6066C1089.21 49.3832 1088.48 49.2695 1087.74 49.2695L1086.44 49.2695C1085.45 49.2695 1084.47 49.4775 1083.56 49.8801L1082.78 50.2267C1081.99 50.5798 1081.26 51.0762 1080.65 51.691L1079.8 52.5427C1078.89 53.4505 1078.25 54.5881 1077.93 55.8337L1077.67 56.892C1077.42 57.8883 1077.39 58.9268 1077.58 59.9356L1078.04 62.3192L1078.97 65.4884L1079.72 68.0983L1080.27 70.4672C1080.4 70.999 1080.46 71.5434 1080.46 72.0897L1080.46 73.3182L1080.46 74.4057C1080.46 75.1671 1080.34 75.9235 1080.1 76.6459L1079.72 77.7924L1078.72 80.22C1078.51 80.7128 1078.37 81.2269 1078.28 81.7526L1078.13 82.6203C1078.07 83.0052 1078.04 83.3947 1078.04 83.7849L1078.04 86.1989C1078.04 86.5596 1078.07 86.9197 1078.12 87.2761L1078.26 88.1633C1078.36 88.8272 1078.56 89.4732 1078.84 90.0819L1079.26 90.9864C1079.56 91.6322 1079.96 92.2287 1080.44 92.756L1080.62 92.9586C1081.25 93.6534 1082.02 94.2157 1082.87 94.6128L1083.65 94.9769C1084.13 95.2024 1084.64 95.3726 1085.16 95.4843L1086.25 95.7182C1086.74 95.8227 1087.24 95.8754 1087.74 95.8754L1088.85 95.8754C1089.34 95.8754 1089.84 95.8227 1090.33 95.7182L1091.1 95.5534C1091.83 95.3963 1092.54 95.1236 1093.18 94.7457L1093.79 94.3944C1094.22 94.1397 1094.63 93.8389 1095 93.4974L1096.68 91.9605L1098.54 90.0963L1100.04 88.6049L1101.9 86.7407L1103.38 85.4066C1103.64 85.1778 1103.91 84.9676 1104.19 84.7779L1106 83.5715L1107.87 82.4529L1109.73 81.148L1110.87 80.1304C1111.23 79.8153 1111.55 79.4655 1111.84 79.0861L1112.21 78.5898C1112.42 78.3071 1112.61 78.009 1112.78 77.6979L1113.37 76.6056C1113.67 76.0324 1113.9 75.4194 1114.04 74.7838L1114.2 74.0639L1114.28 73.2652Z" fill="white"/>
<ellipse cx="1124.04" cy="60.3693" rx="7.77971" ry="10.7063" transform="rotate(69 1124.04 60.3693)" fill="white"/>
<ellipse cx="1126.21" cy="85.7437" rx="7.77971" ry="10.7063" transform="rotate(104 1126.21 85.7437)" fill="white"/>
<ellipse cx="1107.29" cy="101.671" rx="7.01548" ry="9.25231" transform="rotate(116 1107.29 101.671)" fill="white"/>
<ellipse cx="1108.24" cy="43.3892" rx="7.01548" ry="9.25231" transform="rotate(60 1108.24 43.3892)" fill="white"/>
<path d="M1186.05 133.766C1186.43 133.027 1186.67 132.226 1186.78 131.401L1186.98 129.776L1187 129.095C1187.06 127.732 1186.72 126.382 1186.03 125.207L1183.51 120.936L1180.48 115.491L1178.22 110.153C1178.08 109.829 1177.92 109.516 1177.73 109.216L1175.83 106.117C1175.43 105.458 1174.92 104.869 1174.32 104.375L1172.31 102.7C1171.75 102.232 1171.11 101.853 1170.43 101.579L1169.22 101.09C1168.31 100.718 1167.32 100.544 1166.33 100.578L1165.48 100.607C1164.61 100.637 1163.75 100.827 1162.95 101.166L1161.84 101.637C1160.66 102.139 1159.64 102.952 1158.88 103.99L1158.24 104.872C1157.63 105.703 1157.22 106.655 1157.02 107.662L1156.55 110.042L1156.22 113.33L1155.94 116.029L1155.57 118.434C1155.48 118.974 1155.34 119.502 1155.13 120.009L1154.67 121.148L1154.27 122.156C1153.98 122.862 1153.58 123.518 1153.09 124.097L1152.31 125.017L1150.47 126.893C1150.1 127.274 1149.77 127.696 1149.49 128.151L1149.03 128.901C1148.83 129.234 1148.65 129.583 1148.51 129.945L1147.6 132.183C1147.47 132.517 1147.36 132.862 1147.27 133.213L1147.07 134.086C1146.91 134.74 1146.85 135.412 1146.89 136.083L1146.94 137.08C1146.98 137.792 1147.12 138.494 1147.37 139.162L1147.47 139.419C1147.79 140.3 1148.29 141.107 1148.93 141.794L1149.52 142.424C1149.88 142.814 1150.29 143.162 1150.73 143.46L1151.65 144.086C1152.06 144.366 1152.51 144.601 1152.97 144.788L1154 145.204C1154.46 145.39 1154.94 145.528 1155.43 145.614L1156.21 145.749C1156.95 145.878 1157.7 145.889 1158.44 145.781L1159.13 145.681C1159.63 145.609 1160.12 145.483 1160.6 145.305L1162.73 144.509L1165.15 143.478L1167.1 142.654L1169.52 141.624L1171.4 140.943C1171.72 140.826 1172.05 140.732 1172.38 140.663L1174.51 140.222L1176.66 139.883L1178.88 139.372L1180.32 138.857C1180.77 138.698 1181.2 138.494 1181.6 138.249L1182.13 137.928C1182.44 137.746 1182.72 137.54 1183 137.315L1183.95 136.522C1184.45 136.107 1184.89 135.624 1185.26 135.087L1185.68 134.48L1186.05 133.766Z" fill="white"/>
<ellipse cx="1199.93" cy="125.471" rx="7.77971" ry="10.7063" transform="rotate(91 1199.93 125.471)" fill="white"/>
<ellipse cx="1192.44" cy="149.81" rx="7.77971" ry="10.7063" transform="rotate(126 1192.44 149.81)" fill="white"/>
<ellipse cx="1168.93" cy="157.488" rx="7.01547" ry="9.25231" transform="rotate(138 1168.93 157.488)" fill="white"/>
<ellipse cx="1191.64" cy="103.805" rx="7.01548" ry="9.25231" transform="rotate(82 1191.64 103.805)" fill="white"/>
<path d="M1323.18 135.036C1323.56 134.296 1323.8 133.495 1323.9 132.67L1324.11 131.046L1324.13 130.364C1324.19 129.002 1323.85 127.651 1323.16 126.476L1320.64 122.206L1317.61 116.76L1315.35 111.422C1315.21 111.099 1315.05 110.785 1314.86 110.486L1312.96 107.387C1312.56 106.728 1312.05 106.139 1311.45 105.645L1309.44 103.97C1308.88 103.501 1308.24 103.123 1307.56 102.848L1306.35 102.359C1305.43 101.988 1304.45 101.814 1303.46 101.848L1302.6 101.877C1301.74 101.907 1300.88 102.096 1300.08 102.436L1298.97 102.906C1297.79 103.408 1296.76 104.221 1296.01 105.26L1295.37 106.142C1294.76 106.972 1294.35 107.924 1294.15 108.932L1293.68 111.312L1293.35 114.599L1293.07 117.298L1292.7 119.704C1292.61 120.244 1292.47 120.772 1292.26 121.279L1291.8 122.418L1291.39 123.426C1291.11 124.132 1290.71 124.787 1290.22 125.367L1289.43 126.287L1287.6 128.163C1287.23 128.544 1286.9 128.966 1286.62 129.42L1286.16 130.171C1285.96 130.503 1285.78 130.852 1285.63 131.214L1284.73 133.452C1284.59 133.787 1284.49 134.131 1284.4 134.482L1284.2 135.356C1284.04 136.01 1283.98 136.682 1284.02 137.353L1284.07 138.35C1284.11 139.061 1284.25 139.763 1284.5 140.431L1284.59 140.688C1284.92 141.569 1285.42 142.377 1286.06 143.063L1286.64 143.693C1287.01 144.083 1287.41 144.431 1287.86 144.73L1288.78 145.356C1289.19 145.635 1289.64 145.871 1290.1 146.058L1291.13 146.473C1291.59 146.66 1292.07 146.797 1292.56 146.883L1293.34 147.019C1294.07 147.148 1294.83 147.158 1295.57 147.051L1296.26 146.951C1296.76 146.878 1297.25 146.752 1297.73 146.575L1299.86 145.778L1302.28 144.748L1304.22 143.924L1306.65 142.894L1308.53 142.212C1308.85 142.095 1309.18 142.002 1309.51 141.932L1311.64 141.492L1313.79 141.153L1316.01 140.641L1317.45 140.127C1317.9 139.967 1318.33 139.764 1318.73 139.518L1319.26 139.198C1319.56 139.015 1319.85 138.81 1320.12 138.584L1321.08 137.792C1321.58 137.376 1322.02 136.893 1322.39 136.357L1322.81 135.749L1323.18 135.036Z" fill="white"/>
<ellipse cx="1337.06" cy="126.74" rx="7.77971" ry="10.7063" transform="rotate(91 1337.06 126.74)" fill="white"/>
<ellipse cx="1329.57" cy="151.079" rx="7.77971" ry="10.7063" transform="rotate(126 1329.57 151.079)" fill="white"/>
<ellipse cx="1306.06" cy="158.758" rx="7.01547" ry="9.25231" transform="rotate(138 1306.06 158.758)" fill="white"/>
<ellipse cx="1328.77" cy="105.075" rx="7.01548" ry="9.25231" transform="rotate(82 1328.77 105.075)" fill="white"/>
<path d="M1251.39 78.2925C1251.47 77.4644 1251.4 76.6294 1251.18 75.8259L1250.76 74.2442L1250.53 73.6022C1250.07 72.3176 1249.25 71.1928 1248.17 70.3629L1244.24 67.3465L1239.39 63.4316L1235.29 59.3311C1235.04 59.0823 1234.77 58.8525 1234.49 58.6434L1231.57 56.4825C1230.95 56.0228 1230.25 55.668 1229.52 55.4323L1227.02 54.6339C1226.32 54.4106 1225.59 54.2969 1224.86 54.2969L1223.56 54.2969C1222.57 54.2969 1221.58 54.5049 1220.68 54.9074L1219.9 55.254C1219.1 55.6072 1218.38 56.1036 1217.77 56.7184L1216.92 57.57C1216.01 58.4779 1215.36 59.6154 1215.05 60.8611L1214.79 61.9193C1214.54 62.9156 1214.51 63.9542 1214.7 64.963L1215.16 67.3465L1216.09 70.5157L1216.83 73.1257L1217.39 75.4945C1217.52 76.0263 1217.58 76.5708 1217.58 77.1171L1217.58 78.3455L1217.58 79.433C1217.58 80.1944 1217.46 80.9509 1217.22 81.6732L1216.83 82.8197L1215.83 85.2473C1215.63 85.7401 1215.48 86.2543 1215.4 86.78L1215.25 87.6477C1215.19 88.0326 1215.16 88.4221 1215.16 88.8123L1215.16 91.2263C1215.16 91.5869 1215.18 91.947 1215.24 92.3035L1215.37 93.1906C1215.48 93.8545 1215.67 94.5005 1215.96 95.1092L1216.38 96.0138C1216.68 96.6595 1217.08 97.256 1217.56 97.7833L1217.74 97.9859C1218.37 98.6807 1219.14 99.243 1219.99 99.6401L1220.77 100.004C1221.25 100.23 1221.76 100.4 1222.28 100.512L1223.37 100.746C1223.86 100.85 1224.36 100.903 1224.85 100.903L1225.96 100.903C1226.46 100.903 1226.96 100.85 1227.45 100.746L1228.22 100.581C1228.95 100.424 1229.65 100.151 1230.3 99.773L1230.9 99.4217C1231.34 99.167 1231.75 98.8663 1232.12 98.5247L1233.8 96.9879L1235.66 95.1237L1237.15 93.6323L1239.02 91.768L1240.5 90.434C1240.75 90.2051 1241.02 89.995 1241.31 89.8052L1243.12 88.5988L1244.98 87.4803L1246.85 86.1753L1247.99 85.1577C1248.35 84.8427 1248.67 84.4928 1248.95 84.1134L1249.33 83.6171C1249.54 83.3345 1249.73 83.0363 1249.9 82.7252L1250.48 81.633C1250.79 81.0598 1251.02 80.4467 1251.16 79.8112L1251.32 79.0912L1251.39 78.2925Z" fill="white"/>
<ellipse cx="1261.16" cy="65.3966" rx="7.77971" ry="10.7063" transform="rotate(69 1261.16 65.3966)" fill="white"/>
<ellipse cx="1263.33" cy="90.771" rx="7.77971" ry="10.7063" transform="rotate(104 1263.33 90.771)" fill="white"/>
<ellipse cx="1244.41" cy="106.699" rx="7.01548" ry="9.25231" transform="rotate(116 1244.41 106.699)" fill="white"/>
<ellipse cx="1245.35" cy="48.4166" rx="7.01548" ry="9.25231" transform="rotate(60 1245.35 48.4166)" fill="white"/>
<path d="M1466.06 131.012C1466.44 130.273 1466.69 129.472 1466.79 128.647L1466.99 127.022L1467.02 126.341C1467.08 124.978 1466.74 123.628 1466.04 122.453L1463.53 118.182L1460.5 112.737L1458.23 107.399C1458.1 107.075 1457.93 106.762 1457.75 106.462L1455.85 103.363C1455.44 102.704 1454.94 102.116 1454.34 101.621L1452.33 99.9462C1451.76 99.4777 1451.13 99.0994 1450.45 98.8249L1449.24 98.3358C1448.32 97.9645 1447.33 97.7902 1446.34 97.8241L1445.49 97.8533C1444.62 97.8831 1443.77 98.0726 1442.97 98.4123L1441.86 98.8829C1440.67 99.3846 1439.65 100.198 1438.9 101.236L1438.25 102.118C1437.65 102.949 1437.23 103.901 1437.03 104.908L1436.56 107.288L1436.24 110.576L1435.95 113.275L1435.58 115.68C1435.5 116.22 1435.35 116.749 1435.15 117.255L1434.69 118.394L1434.28 119.402C1434 120.108 1433.6 120.764 1433.11 121.343L1432.32 122.263L1430.49 124.14C1430.11 124.52 1429.78 124.942 1429.51 125.397L1429.05 126.147C1428.84 126.48 1428.67 126.829 1428.52 127.191L1427.62 129.429C1427.48 129.763 1427.37 130.108 1427.29 130.459L1427.08 131.332C1426.93 131.986 1426.87 132.659 1426.9 133.329L1426.96 134.326C1426.99 135.038 1427.14 135.74 1427.39 136.408L1427.48 136.665C1427.81 137.546 1428.3 138.353 1428.94 139.04L1429.53 139.67C1429.89 140.06 1430.3 140.408 1430.74 140.707L1431.67 141.332C1432.08 141.612 1432.52 141.847 1432.98 142.034L1434.01 142.45C1434.48 142.637 1434.96 142.774 1435.45 142.86L1436.22 142.995C1436.96 143.124 1437.72 143.135 1438.46 143.027L1439.15 142.927C1439.65 142.855 1440.14 142.729 1440.61 142.552L1442.74 141.755L1445.17 140.725L1447.11 139.9L1449.54 138.87L1451.41 138.189C1451.73 138.072 1452.06 137.978 1452.4 137.909L1454.53 137.468L1456.68 137.13L1458.89 136.618L1460.34 136.103C1460.78 135.944 1461.21 135.74 1461.62 135.495L1462.15 135.174C1462.45 134.992 1462.74 134.787 1463.01 134.561L1463.97 133.768C1464.47 133.353 1464.91 132.87 1465.28 132.333L1465.7 131.726L1466.06 131.012Z" fill="white"/>
<ellipse cx="1479.94" cy="122.715" rx="7.77971" ry="10.7063" transform="rotate(91 1479.94 122.715)" fill="white"/>
<ellipse cx="1472.45" cy="147.056" rx="7.77971" ry="10.7063" transform="rotate(126 1472.45 147.056)" fill="white"/>
<ellipse cx="1448.94" cy="154.733" rx="7.01547" ry="9.25231" transform="rotate(138 1448.94 154.733)" fill="white"/>
<ellipse cx="1471.65" cy="101.051" rx="7.01548" ry="9.25231" transform="rotate(82 1471.65 101.051)" fill="white"/>
<path d="M1394.28 74.2652C1394.35 73.437 1394.28 72.602 1394.07 71.7985L1393.64 70.2169L1393.42 69.5749C1392.96 68.2903 1392.14 67.1654 1391.05 66.3355L1387.12 63.3192L1382.27 59.4043L1378.17 55.3037C1377.92 55.055 1377.66 54.8252 1377.37 54.6161L1374.45 52.4552C1373.83 51.9954 1373.14 51.6407 1372.4 51.405L1369.9 50.6066C1369.21 50.3832 1368.48 50.2695 1367.74 50.2695L1366.44 50.2695C1365.45 50.2695 1364.47 50.4775 1363.56 50.8801L1362.78 51.2267C1361.99 51.5798 1361.26 52.0762 1360.65 52.691L1359.8 53.5427C1358.89 54.4505 1358.25 55.5881 1357.93 56.8337L1357.67 57.892C1357.42 58.8883 1357.39 59.9268 1357.58 60.9356L1358.04 63.3192L1358.97 66.4884L1359.72 69.0983L1360.27 71.4672C1360.4 71.999 1360.46 72.5434 1360.46 73.0897L1360.46 74.3182L1360.46 75.4057C1360.46 76.1671 1360.34 76.9235 1360.1 77.6459L1359.72 78.7924L1358.72 81.22C1358.51 81.7128 1358.37 82.2269 1358.28 82.7526L1358.13 83.6203C1358.07 84.0052 1358.04 84.3947 1358.04 84.7849L1358.04 87.1989C1358.04 87.5596 1358.07 87.9197 1358.12 88.2761L1358.26 89.1633C1358.36 89.8272 1358.56 90.4732 1358.84 91.0819L1359.26 91.9864C1359.56 92.6322 1359.96 93.2287 1360.44 93.756L1360.62 93.9586C1361.25 94.6534 1362.02 95.2157 1362.87 95.6128L1363.65 95.9769C1364.13 96.2024 1364.64 96.3726 1365.16 96.4843L1366.25 96.7182C1366.74 96.8227 1367.24 96.8754 1367.74 96.8754L1368.85 96.8754C1369.34 96.8754 1369.84 96.8227 1370.33 96.7182L1371.1 96.5534C1371.83 96.3963 1372.54 96.1236 1373.18 95.7457L1373.79 95.3944C1374.22 95.1397 1374.63 94.8389 1375 94.4974L1376.68 92.9605L1378.54 91.0963L1380.04 89.6049L1381.9 87.7407L1383.38 86.4066C1383.64 86.1778 1383.91 85.9676 1384.19 85.7779L1386 84.5715L1387.87 83.4529L1389.73 82.148L1390.87 81.1304C1391.23 80.8153 1391.55 80.4655 1391.84 80.0861L1392.21 79.5898C1392.42 79.3071 1392.61 79.009 1392.78 78.6979L1393.37 77.6056C1393.67 77.0324 1393.9 76.4194 1394.04 75.7838L1394.2 75.0639L1394.28 74.2652Z" fill="white"/>
<ellipse cx="1404.04" cy="61.3693" rx="7.77971" ry="10.7063" transform="rotate(69 1404.04 61.3693)" fill="white"/>
<ellipse cx="1406.21" cy="86.7437" rx="7.77971" ry="10.7063" transform="rotate(104 1406.21 86.7437)" fill="white"/>
<ellipse cx="1387.29" cy="102.671" rx="7.01548" ry="9.25231" transform="rotate(116 1387.29 102.671)" fill="white"/>
<ellipse cx="1388.24" cy="44.3892" rx="7.01548" ry="9.25231" transform="rotate(60 1388.24 44.3892)" fill="white"/>
<path d="M1466.05 132.518C1466.43 131.779 1466.67 130.978 1466.78 130.152L1466.98 128.528L1467 127.847C1467.06 126.484 1466.72 125.134 1466.03 123.959L1463.51 119.688L1460.48 114.243L1458.22 108.905C1458.08 108.581 1457.92 108.268 1457.73 107.968L1455.83 104.869C1455.43 104.21 1454.92 103.621 1454.32 103.127L1452.31 101.452C1451.75 100.984 1451.11 100.605 1450.43 100.331L1449.22 99.8416C1448.31 99.4703 1447.32 99.296 1446.33 99.33L1445.48 99.3592C1444.61 99.389 1443.75 99.5785 1442.95 99.9182L1441.84 100.389C1440.66 100.89 1439.64 101.704 1438.88 102.742L1438.24 103.624C1437.63 104.455 1437.22 105.407 1437.02 106.414L1436.55 108.794L1436.22 112.082L1435.94 114.781L1435.57 117.186C1435.48 117.726 1435.34 118.254 1435.13 118.761L1434.67 119.9L1434.27 120.908C1433.98 121.614 1433.58 122.27 1433.09 122.849L1432.31 123.769L1430.47 125.645C1430.1 126.026 1429.77 126.448 1429.49 126.903L1429.03 127.653C1428.83 127.986 1428.65 128.335 1428.51 128.697L1427.6 130.935C1427.47 131.269 1427.36 131.613 1427.27 131.965L1427.07 132.838C1426.91 133.492 1426.85 134.164 1426.89 134.835L1426.94 135.832C1426.98 136.544 1427.12 137.245 1427.37 137.914L1427.47 138.171C1427.79 139.052 1428.29 139.859 1428.93 140.546L1429.52 141.176C1429.88 141.566 1430.29 141.914 1430.73 142.212L1431.65 142.838C1432.06 143.118 1432.51 143.353 1432.97 143.54L1434 143.955C1434.46 144.142 1434.94 144.28 1435.43 144.366L1436.21 144.501C1436.95 144.63 1437.7 144.641 1438.44 144.533L1439.13 144.433C1439.63 144.36 1440.12 144.235 1440.6 144.057L1442.73 143.261L1445.15 142.23L1447.1 141.406L1449.52 140.376L1451.4 139.695C1451.72 139.578 1452.05 139.484 1452.38 139.415L1454.51 138.974L1456.66 138.635L1458.88 138.124L1460.32 137.609C1460.77 137.45 1461.2 137.246 1461.6 137.001L1462.13 136.68C1462.44 136.497 1462.72 136.292 1463 136.067L1463.95 135.274C1464.45 134.858 1464.89 134.376 1465.26 133.839L1465.68 133.232L1466.05 132.518Z" fill="white"/>
<ellipse cx="1479.93" cy="124.223" rx="7.77971" ry="10.7063" transform="rotate(91 1479.93 124.223)" fill="white"/>
<ellipse cx="1472.44" cy="148.561" rx="7.77971" ry="10.7063" transform="rotate(126 1472.44 148.561)" fill="white"/>
<ellipse cx="1448.93" cy="156.24" rx="7.01547" ry="9.25231" transform="rotate(138 1448.93 156.24)" fill="white"/>
<ellipse cx="1471.64" cy="102.557" rx="7.01548" ry="9.25231" transform="rotate(82 1471.64 102.557)" fill="white"/>
<path d="M1603.18 131.036C1603.56 130.296 1603.8 129.495 1603.9 128.67L1604.11 127.046L1604.13 126.364C1604.19 125.002 1603.85 123.651 1603.16 122.476L1600.64 118.206L1597.61 112.76L1595.35 107.422C1595.21 107.099 1595.05 106.785 1594.86 106.486L1592.96 103.387C1592.56 102.728 1592.05 102.139 1591.45 101.645L1589.44 99.9696C1588.88 99.5011 1588.24 99.1229 1587.56 98.8484L1586.35 98.3592C1585.43 97.9879 1584.45 97.8136 1583.46 97.8475L1582.6 97.8768C1581.74 97.9065 1580.88 98.096 1580.08 98.4358L1578.97 98.9064C1577.79 99.408 1576.76 100.221 1576.01 101.26L1575.37 102.142C1574.76 102.972 1574.35 103.924 1574.15 104.932L1573.68 107.312L1573.35 110.599L1573.07 113.298L1572.7 115.704C1572.61 116.244 1572.47 116.772 1572.26 117.279L1571.8 118.418L1571.39 119.426C1571.11 120.132 1570.71 120.787 1570.22 121.367L1569.43 122.287L1567.6 124.163C1567.23 124.544 1566.9 124.966 1566.62 125.42L1566.16 126.171C1565.96 126.503 1565.78 126.852 1565.63 127.214L1564.73 129.452C1564.59 129.787 1564.49 130.131 1564.4 130.482L1564.2 131.356C1564.04 132.01 1563.98 132.682 1564.02 133.353L1564.07 134.35C1564.11 135.061 1564.25 135.763 1564.5 136.431L1564.59 136.688C1564.92 137.569 1565.42 138.377 1566.06 139.063L1566.64 139.693C1567.01 140.083 1567.41 140.431 1567.86 140.73L1568.78 141.356C1569.19 141.635 1569.64 141.871 1570.1 142.058L1571.13 142.473C1571.59 142.66 1572.07 142.797 1572.56 142.883L1573.34 143.019C1574.07 143.148 1574.83 143.158 1575.57 143.051L1576.26 142.951C1576.76 142.878 1577.25 142.752 1577.73 142.575L1579.86 141.778L1582.28 140.748L1584.22 139.924L1586.65 138.894L1588.53 138.212C1588.85 138.095 1589.18 138.002 1589.51 137.932L1591.64 137.492L1593.79 137.153L1596.01 136.641L1597.45 136.127C1597.9 135.967 1598.33 135.764 1598.73 135.518L1599.26 135.198C1599.56 135.015 1599.85 134.81 1600.12 134.584L1601.08 133.792C1601.58 133.376 1602.02 132.893 1602.39 132.357L1602.81 131.749L1603.18 131.036Z" fill="white"/>
<ellipse cx="1617.06" cy="122.74" rx="7.77971" ry="10.7063" transform="rotate(91 1617.06 122.74)" fill="white"/>
<ellipse cx="1609.57" cy="147.079" rx="7.77971" ry="10.7063" transform="rotate(126 1609.57 147.079)" fill="white"/>
<ellipse cx="1586.06" cy="154.758" rx="7.01547" ry="9.25231" transform="rotate(138 1586.06 154.758)" fill="white"/>
<ellipse cx="1608.77" cy="101.075" rx="7.01548" ry="9.25231" transform="rotate(82 1608.77 101.075)" fill="white"/>
<path d="M1531.39 74.2925C1531.47 73.4644 1531.4 72.6294 1531.18 71.8259L1530.76 70.2442L1530.53 69.6022C1530.07 68.3176 1529.25 67.1928 1528.17 66.3629L1524.24 63.3465L1519.39 59.4316L1515.29 55.3311C1515.04 55.0823 1514.77 54.8525 1514.49 54.6434L1511.57 52.4825C1510.95 52.0228 1510.25 51.668 1509.52 51.4323L1507.02 50.6339C1506.32 50.4106 1505.59 50.2969 1504.86 50.2969L1503.56 50.2969C1502.57 50.2969 1501.58 50.5049 1500.68 50.9074L1499.9 51.254C1499.1 51.6072 1498.38 52.1036 1497.77 52.7184L1496.92 53.57C1496.01 54.4779 1495.36 55.6154 1495.05 56.8611L1494.79 57.9193C1494.54 58.9156 1494.51 59.9542 1494.7 60.963L1495.16 63.3465L1496.09 66.5157L1496.83 69.1257L1497.39 71.4945C1497.52 72.0263 1497.58 72.5708 1497.58 73.1171L1497.58 74.3455L1497.58 75.433C1497.58 76.1944 1497.46 76.9509 1497.22 77.6732L1496.83 78.8197L1495.83 81.2473C1495.63 81.7401 1495.48 82.2543 1495.4 82.78L1495.25 83.6477C1495.19 84.0326 1495.16 84.4221 1495.16 84.8123L1495.16 87.2263C1495.16 87.5869 1495.18 87.947 1495.24 88.3035L1495.37 89.1906C1495.48 89.8545 1495.67 90.5005 1495.96 91.1092L1496.38 92.0138C1496.68 92.6595 1497.08 93.256 1497.56 93.7833L1497.74 93.9859C1498.37 94.6807 1499.14 95.243 1499.99 95.6401L1500.77 96.0043C1501.25 96.2297 1501.76 96.3999 1502.28 96.5116L1503.37 96.7455C1503.86 96.8501 1504.36 96.9028 1504.85 96.9028L1505.96 96.9028C1506.46 96.9028 1506.96 96.8501 1507.45 96.7455L1508.22 96.5808C1508.95 96.4236 1509.65 96.151 1510.3 95.773L1510.9 95.4217C1511.34 95.167 1511.75 94.8663 1512.12 94.5247L1513.8 92.9879L1515.66 91.1237L1517.15 89.6323L1519.02 87.768L1520.5 86.434C1520.75 86.2051 1521.02 85.995 1521.31 85.8052L1523.12 84.5988L1524.98 83.4803L1526.85 82.1753L1527.99 81.1577C1528.35 80.8427 1528.67 80.4928 1528.95 80.1134L1529.33 79.6171C1529.54 79.3345 1529.73 79.0363 1529.9 78.7252L1530.48 77.633C1530.79 77.0598 1531.02 76.4467 1531.16 75.8112L1531.32 75.0912L1531.39 74.2925Z" fill="white"/>
<ellipse cx="1541.16" cy="61.3966" rx="7.77971" ry="10.7063" transform="rotate(69 1541.16 61.3966)" fill="white"/>
<ellipse cx="1543.33" cy="86.771" rx="7.77971" ry="10.7063" transform="rotate(104 1543.33 86.771)" fill="white"/>
<ellipse cx="1524.41" cy="102.699" rx="7.01548" ry="9.25231" transform="rotate(116 1524.41 102.699)" fill="white"/>
<ellipse cx="1525.35" cy="44.4166" rx="7.01548" ry="9.25231" transform="rotate(60 1525.35 44.4166)" fill="white"/>
<path d="M1746.06 127.012C1746.44 126.273 1746.69 125.472 1746.79 124.647L1746.99 123.022L1747.02 122.341C1747.08 120.978 1746.74 119.628 1746.04 118.453L1743.53 114.182L1740.5 108.737L1738.23 103.399C1738.1 103.075 1737.93 102.762 1737.75 102.462L1735.85 99.3634C1735.44 98.7041 1734.94 98.1156 1734.34 97.6211L1732.33 95.9462C1731.76 95.4777 1731.13 95.0994 1730.45 94.8249L1729.24 94.3358C1728.32 93.9645 1727.33 93.7902 1726.34 93.8241L1725.49 93.8533C1724.62 93.8831 1723.77 94.0726 1722.97 94.4123L1721.86 94.8829C1720.67 95.3846 1719.65 96.1981 1718.9 97.2363L1718.25 98.1184C1717.65 98.9488 1717.23 99.9007 1717.03 100.908L1716.56 103.288L1716.24 106.576L1715.95 109.275L1715.58 111.68C1715.5 112.22 1715.35 112.749 1715.15 113.255L1714.69 114.394L1714.28 115.402C1714 116.108 1713.6 116.764 1713.11 117.343L1712.32 118.263L1710.49 120.14C1710.11 120.52 1709.78 120.942 1709.51 121.397L1709.05 122.147C1708.84 122.48 1708.67 122.829 1708.52 123.191L1707.62 125.429C1707.48 125.763 1707.37 126.108 1707.29 126.459L1707.08 127.332C1706.93 127.986 1706.87 128.659 1706.9 129.329L1706.96 130.326C1706.99 131.038 1707.14 131.74 1707.39 132.408L1707.48 132.665C1707.81 133.546 1708.3 134.353 1708.94 135.04L1709.53 135.67C1709.89 136.06 1710.3 136.408 1710.74 136.707L1711.67 137.332C1712.08 137.612 1712.52 137.847 1712.98 138.034L1714.01 138.45C1714.48 138.637 1714.96 138.774 1715.45 138.86L1716.22 138.995C1716.96 139.124 1717.72 139.135 1718.46 139.027L1719.15 138.927C1719.65 138.855 1720.14 138.729 1720.61 138.552L1722.74 137.755L1725.17 136.725L1727.11 135.9L1729.54 134.87L1731.41 134.189C1731.73 134.072 1732.06 133.978 1732.4 133.909L1734.53 133.468L1736.68 133.13L1738.89 132.618L1740.34 132.103C1740.78 131.944 1741.21 131.74 1741.62 131.495L1742.15 131.174C1742.45 130.992 1742.74 130.787 1743.01 130.561L1743.97 129.768C1744.47 129.353 1744.91 128.87 1745.28 128.333L1745.7 127.726L1746.06 127.012Z" fill="white"/>
<ellipse cx="1759.94" cy="118.715" rx="7.77971" ry="10.7063" transform="rotate(91 1759.94 118.715)" fill="white"/>
<ellipse cx="1752.45" cy="143.056" rx="7.77971" ry="10.7063" transform="rotate(126 1752.45 143.056)" fill="white"/>
<ellipse cx="1728.94" cy="150.733" rx="7.01547" ry="9.25231" transform="rotate(138 1728.94 150.733)" fill="white"/>
<ellipse cx="1751.65" cy="97.0513" rx="7.01548" ry="9.25231" transform="rotate(82 1751.65 97.0513)" fill="white"/>
<path d="M1674.28 70.2652C1674.35 69.437 1674.28 68.602 1674.07 67.7985L1673.64 66.2169L1673.42 65.5749C1672.96 64.2903 1672.14 63.1654 1671.05 62.3355L1667.12 59.3192L1662.27 55.4043L1658.17 51.3037C1657.92 51.055 1657.66 50.8252 1657.37 50.6161L1654.45 48.4552C1653.83 47.9954 1653.14 47.6407 1652.4 47.405L1649.9 46.6066C1649.21 46.3832 1648.48 46.2695 1647.74 46.2695L1646.44 46.2695C1645.45 46.2695 1644.47 46.4775 1643.56 46.8801L1642.78 47.2267C1641.99 47.5798 1641.26 48.0762 1640.65 48.691L1639.8 49.5427C1638.89 50.4505 1638.25 51.5881 1637.93 52.8337L1637.67 53.892C1637.42 54.8883 1637.39 55.9268 1637.58 56.9356L1638.04 59.3192L1638.97 62.4884L1639.72 65.0983L1640.27 67.4672C1640.4 67.999 1640.46 68.5434 1640.46 69.0897L1640.46 70.3182L1640.46 71.4057C1640.46 72.1671 1640.34 72.9235 1640.1 73.6459L1639.72 74.7924L1638.72 77.22C1638.51 77.7128 1638.37 78.2269 1638.28 78.7526L1638.13 79.6203C1638.07 80.0052 1638.04 80.3947 1638.04 80.7849L1638.04 83.1989C1638.04 83.5596 1638.07 83.9197 1638.12 84.2761L1638.26 85.1633C1638.36 85.8272 1638.56 86.4732 1638.84 87.0819L1639.26 87.9864C1639.56 88.6322 1639.96 89.2287 1640.44 89.756L1640.62 89.9586C1641.25 90.6534 1642.02 91.2157 1642.87 91.6128L1643.65 91.9769C1644.13 92.2024 1644.64 92.3726 1645.16 92.4843L1646.25 92.7182C1646.74 92.8227 1647.24 92.8754 1647.74 92.8754L1648.85 92.8754C1649.34 92.8754 1649.84 92.8227 1650.33 92.7182L1651.1 92.5534C1651.83 92.3963 1652.54 92.1236 1653.18 91.7457L1653.79 91.3944C1654.22 91.1397 1654.63 90.8389 1655 90.4974L1656.68 88.9605L1658.54 87.0963L1660.04 85.6049L1661.9 83.7407L1663.38 82.4066C1663.64 82.1778 1663.91 81.9676 1664.19 81.7779L1666 80.5715L1667.87 79.4529L1669.73 78.148L1670.87 77.1304C1671.23 76.8153 1671.55 76.4655 1671.84 76.0861L1672.21 75.5898C1672.42 75.3071 1672.61 75.009 1672.78 74.6979L1673.37 73.6056C1673.67 73.0324 1673.9 72.4194 1674.04 71.7838L1674.2 71.0639L1674.28 70.2652Z" fill="white"/>
<ellipse cx="1684.04" cy="57.3693" rx="7.77971" ry="10.7063" transform="rotate(69 1684.04 57.3693)" fill="white"/>
<ellipse cx="1686.21" cy="82.7437" rx="7.77971" ry="10.7063" transform="rotate(104 1686.21 82.7437)" fill="white"/>
<ellipse cx="1667.29" cy="98.6714" rx="7.01548" ry="9.25231" transform="rotate(116 1667.29 98.6714)" fill="white"/>
<ellipse cx="1668.24" cy="40.3892" rx="7.01548" ry="9.25231" transform="rotate(60 1668.24 40.3892)" fill="white"/>
</svg>
