<svg width="771" height="387" viewBox="0 0 771 387" fill="none" xmlns="http://www.w3.org/2000/svg">
<path d="M397.309 53.818C397.309 47.5112 399.142 42.5244 402.809 38.8576C406.476 35.1908 411.462 33.3574 417.769 33.3574H490.371C491.398 34.9708 492.278 37.0975 493.012 39.7376C493.892 42.3777 494.332 45.1644 494.332 48.0979C494.332 53.6714 493.085 57.6315 490.591 59.9782C488.245 62.325 485.091 63.4983 481.131 63.4983H434.71V83.959H484.211C485.238 85.5724 486.118 87.6991 486.851 90.3392C487.731 92.8326 488.171 95.546 488.171 98.4794C488.171 104.053 486.998 108.013 484.651 110.36C482.305 112.707 479.151 113.88 475.191 113.88H434.71V136.981H491.251C492.278 138.594 493.158 140.721 493.892 143.361C494.772 146.001 495.212 148.788 495.212 151.721C495.212 157.295 493.965 161.328 491.471 163.821C489.125 166.168 485.971 167.342 482.011 167.342H417.769C411.462 167.342 406.476 165.508 402.809 161.841C399.142 158.175 397.309 153.188 397.309 146.881V53.818Z" fill="#FF50C7"/>
<path d="M337.735 162.281C335.682 164.041 332.455 165.581 328.055 166.901C323.802 168.221 319.108 168.881 313.975 168.881C307.814 168.881 302.534 168.001 298.134 166.241C293.734 164.335 290.727 161.768 289.114 158.541C287.5 155.168 285.52 150.841 283.174 145.561C280.827 140.134 278.333 134.12 275.693 127.52C273.2 120.92 270.56 113.953 267.773 106.62C265.133 99.1393 262.566 91.5857 260.073 83.9588C257.579 76.3319 255.233 68.8517 253.033 61.5182C250.833 54.1846 248.926 47.2911 247.312 40.8375C249.366 38.7841 252.299 36.9507 256.113 35.3374C260.073 33.5773 264.253 32.6973 268.653 32.6973C274.08 32.6973 278.48 33.8706 281.854 36.2174C285.374 38.4174 287.94 42.5976 289.554 48.7578C293.514 63.1315 297.474 76.9186 301.434 90.119C305.541 103.173 309.794 116.813 314.195 131.04H315.515C319.475 117.253 323.508 102.219 327.615 85.9389C331.868 69.6584 335.902 53.4512 339.715 37.3174C342.355 35.9974 345.142 34.8973 348.076 34.0173C351.156 33.1373 354.602 32.6973 358.416 32.6973C363.843 32.6973 368.463 33.944 372.276 36.4374C376.09 38.7841 377.997 42.7442 377.997 48.3177C377.997 51.5445 377.19 56.238 375.576 62.3982C374.11 68.5584 372.13 75.5253 369.636 83.2988C367.29 90.9257 364.576 98.9193 361.496 107.28C358.563 115.64 355.556 123.56 352.476 131.04C349.542 138.374 346.756 144.901 344.115 150.621C341.475 156.194 339.349 160.081 337.735 162.281Z" fill="#FF50C7"/>
<path d="M99.8008 99.7999C99.8008 88.3595 101.561 78.2392 105.081 69.439C108.748 60.6387 113.661 53.3051 119.821 47.4383C126.128 41.4248 133.462 36.878 141.822 33.7979C150.329 30.7178 159.496 29.1777 169.323 29.1777C179.15 29.1777 188.243 30.7178 196.604 33.7979C205.111 36.878 212.518 41.4248 218.824 47.4383C225.131 53.3051 230.045 60.6387 233.565 69.439C237.232 78.2392 239.065 88.3595 239.065 99.7999C239.065 111.24 237.305 121.434 233.785 130.381C230.265 139.181 225.351 146.588 219.044 152.602C212.884 158.468 205.551 162.942 197.044 166.022C188.537 169.102 179.297 170.642 169.323 170.642C159.349 170.642 150.109 169.102 141.602 166.022C133.095 162.795 125.762 158.175 119.601 152.161C113.441 146.148 108.601 138.741 105.081 129.941C101.561 121.141 99.8008 111.094 99.8008 99.7999ZM139.402 99.7999C139.402 113.147 142.115 123.121 147.542 129.721C152.969 136.321 160.229 139.621 169.323 139.621C178.563 139.621 185.897 136.321 191.324 129.721C196.75 123.121 199.464 113.147 199.464 99.7999C199.464 86.5995 196.75 76.6992 191.324 70.099C186.043 63.4988 178.783 60.1987 169.543 60.1987C160.449 60.1987 153.116 63.4988 147.542 70.099C142.115 76.5525 139.402 86.4528 139.402 99.7999Z" fill="#FF50C7"/>
<path d="M20.7263 167.342C14.4194 167.342 9.43257 165.509 5.76579 161.842C2.09901 158.175 0.265625 153.189 0.265625 146.882V33.1383C1.87901 32.8449 4.44575 32.4783 7.96586 32.0382C11.486 31.4516 14.8594 31.1582 18.0862 31.1582C21.4596 31.1582 24.393 31.4516 26.8864 32.0382C29.5265 32.4783 31.7266 33.3583 33.4866 34.6783C35.2467 35.9984 36.5667 37.8317 37.4468 40.1785C38.3268 42.5252 38.7668 45.6053 38.7668 49.4188V136.321H89.1484C90.1751 137.935 91.1284 140.135 92.0084 142.922C92.8885 145.562 93.3285 148.348 93.3285 151.282C93.3285 157.149 92.0818 161.329 89.5884 163.822C87.095 166.169 83.7949 167.342 79.6881 167.342H20.7263Z" fill="#FF50C7"/>
<path d="M709.995 315.152L692.411 335.768C678.666 350.725 661.89 362.852 642.083 372.15C622.275 381.447 598.425 386.096 570.532 386.096C542.64 386.096 518.183 381.043 497.163 370.937C476.546 360.831 460.377 346.683 448.654 328.492C437.335 309.897 431.676 288.27 431.676 263.611C431.676 242.995 435.718 225.007 443.803 209.645C452.292 193.88 463.611 180.742 477.759 170.232C491.908 159.722 507.673 152.243 525.055 147.797L546.278 183.572C535.363 185.997 524.853 190.646 514.747 197.518C505.045 203.986 496.961 212.879 490.493 224.198C484.025 235.113 480.791 248.452 480.791 264.218C480.791 288.472 488.674 308.078 504.439 323.035C520.609 337.587 542.842 344.864 571.139 344.864C586.5 344.864 602.265 341.63 618.435 335.162C635.009 328.694 650.168 317.577 663.912 301.812L677.252 282.409C684.528 269.069 690.187 252.293 694.23 232.081C698.676 211.869 700.9 188.827 700.9 162.956C704.538 161.339 708.176 160.126 711.814 159.318C715.857 158.105 719.697 157.498 723.335 157.498C731.42 157.498 737.483 159.924 741.526 164.775C745.568 169.221 747.589 175.891 747.589 184.785C747.589 207.422 744.153 230.666 737.281 254.516C730.813 278.366 721.718 298.578 709.995 315.152ZM743.951 385.49C735.866 385.49 727.782 380.841 719.697 371.544L534.151 177.508L518.992 160.53C506.46 147.595 497.163 135.063 491.099 122.936C485.035 110.404 482.004 97.0646 482.004 82.9162C482.004 66.3423 485.642 51.9918 492.918 39.8646C500.599 27.3331 511.513 17.6314 525.662 10.7593C540.214 3.88722 557.799 0.451172 578.415 0.451172C599.84 0.451172 616.009 3.48298 626.924 9.5466C638.242 15.6102 643.902 23.2908 643.902 32.5883C643.902 37.4392 642.487 41.8858 639.657 45.9282C637.232 49.5664 634.402 52.396 631.168 54.4172C624.7 50.7791 617.02 47.7473 608.127 45.3218C599.638 42.8964 590.744 41.6837 581.447 41.6837C566.086 41.6837 553.958 45.5239 545.065 53.2045C536.172 60.4808 531.725 70.5868 531.725 83.5225C531.725 96.054 534.959 107.171 541.427 116.872C547.895 126.574 557.192 137.691 569.32 150.222L770.631 359.416C769.418 367.501 766.589 373.767 762.142 378.214C757.695 383.064 751.632 385.49 743.951 385.49Z" fill="#FFC9E4"/>
<path d="M407.005 299.468C400.552 297.268 394.685 295.068 389.405 292.868C384.125 290.521 379.578 287.735 375.764 284.508C371.951 281.281 368.944 277.468 366.744 273.068C364.691 268.521 363.664 263.021 363.664 256.567C363.664 244.1 368.431 234.126 377.965 226.646C387.645 219.166 401.139 215.426 418.446 215.426C424.753 215.426 430.619 215.866 436.046 216.746C441.473 217.626 446.093 219.019 449.907 220.926C453.867 222.686 456.947 225.033 459.147 227.966C461.347 230.753 462.447 234.053 462.447 237.866C462.447 241.68 461.567 244.98 459.807 247.767C458.047 250.407 455.92 252.68 453.427 254.587C450.2 252.534 445.873 250.774 440.446 249.307C435.02 247.693 429.079 246.887 422.626 246.887C416.026 246.887 411.186 247.84 408.105 249.747C405.025 251.507 403.485 253.78 403.485 256.567C403.485 258.767 404.439 260.601 406.345 262.067C408.252 263.387 411.112 264.634 414.926 265.807L426.586 269.547C440.373 273.948 450.933 279.594 458.267 286.488C465.747 293.235 469.487 302.475 469.487 314.209C469.487 326.676 464.574 336.796 454.747 344.57C444.92 352.197 430.473 356.01 411.406 356.01C404.659 356.01 398.352 355.423 392.485 354.25C386.765 353.223 381.705 351.683 377.305 349.63C373.051 347.43 369.678 344.79 367.184 341.71C364.837 338.483 363.664 334.816 363.664 330.709C363.664 326.456 364.911 322.862 367.404 319.929C369.898 316.849 372.611 314.502 375.544 312.889C379.651 316.116 384.638 318.902 390.505 321.249C396.518 323.596 403.045 324.769 410.086 324.769C417.272 324.769 422.333 323.669 425.266 321.469C428.199 319.269 429.666 316.702 429.666 313.769C429.666 310.835 428.493 308.635 426.146 307.169C423.799 305.555 420.499 304.015 416.246 302.548L407.005 299.468Z" fill="#FF50C7"/>
<path d="M242.473 249.967C241.446 248.353 240.493 246.153 239.613 243.367C238.733 240.58 238.293 237.646 238.293 234.566C238.293 228.846 239.54 224.739 242.033 222.246C244.673 219.753 248.047 218.506 252.153 218.506H348.076C349.103 220.119 350.056 222.319 350.936 225.106C351.816 227.893 352.256 230.826 352.256 233.906C352.256 239.627 350.936 243.733 348.296 246.227C345.803 248.72 342.503 249.967 338.396 249.967H313.975V351.61C312.362 352.05 309.795 352.49 306.275 352.93C302.902 353.37 299.528 353.59 296.155 353.59C292.781 353.59 289.775 353.297 287.134 352.71C284.641 352.27 282.514 351.39 280.754 350.07C278.994 348.75 277.674 346.916 276.794 344.57C275.914 342.223 275.474 339.143 275.474 335.329V249.967H242.473Z" fill="#FF50C7"/>
<path d="M128.102 239.627C128.102 233.32 129.935 228.333 133.602 224.666C137.269 220.999 142.255 219.166 148.562 219.166H221.164C222.191 220.779 223.071 222.906 223.804 225.546C224.685 228.186 225.125 230.973 225.125 233.906C225.125 239.48 223.878 243.44 221.384 245.787C219.038 248.134 215.884 249.307 211.924 249.307H165.503V269.768H215.004C216.031 271.381 216.911 273.508 217.644 276.148C218.524 278.641 218.964 281.355 218.964 284.288C218.964 289.862 217.791 293.822 215.444 296.168C213.097 298.515 209.944 299.688 205.984 299.688H165.503V322.789H222.044C223.071 324.403 223.951 326.529 224.685 329.169C225.565 331.809 226.005 334.596 226.005 337.53C226.005 343.103 224.758 347.137 222.264 349.63C219.918 351.977 216.764 353.15 212.804 353.15H148.562C142.255 353.15 137.269 351.317 133.602 347.65C129.935 343.983 128.102 338.996 128.102 332.689V239.627Z" fill="#FF50C7"/>
<path d="M50.2072 280.988C56.3673 280.988 61.0608 279.594 64.2876 276.808C67.661 273.874 69.3477 269.474 69.3477 263.607C69.3477 258.034 67.5877 253.78 64.0676 250.847C60.6942 247.767 55.7073 246.227 49.1071 246.227C46.7604 246.227 44.7803 246.3 43.1669 246.447C41.7002 246.447 40.1602 246.593 38.5468 246.887V280.988H50.2072ZM38.7668 351.61C37.1534 352.05 34.5867 352.49 31.0666 352.93C27.6931 353.37 24.3197 353.59 20.9463 353.59C17.5728 353.59 14.5661 353.297 11.926 352.71C9.43257 352.27 7.30584 351.39 5.54579 350.07C3.78573 348.75 2.46569 346.916 1.58566 344.57C0.705638 342.223 0.265625 339.143 0.265625 335.329V231.706C0.265625 228.626 1.07232 226.279 2.6857 224.666C4.44575 222.906 6.79249 221.513 9.72591 220.486C14.7127 218.726 20.3596 217.479 26.6664 216.746C33.12 215.866 39.5735 215.426 46.027 215.426C66.2676 215.426 81.7415 219.753 92.4485 228.406C103.155 237.06 108.509 248.793 108.509 263.607C108.509 270.794 107.336 277.321 104.989 283.188C102.789 288.908 99.4153 293.895 94.8685 298.148C90.4684 302.255 84.8216 305.482 77.928 307.829C71.1811 310.029 63.3342 311.129 54.3873 311.129H38.7668V351.61Z" fill="#FF50C7"/>
</svg>
