<svg width="1877" height="121" viewBox="0 0 1877 121" fill="none" xmlns="http://www.w3.org/2000/svg">
<path d="M0.799896 50.9892H16.2785V116.49L9.10546 118C6.71447 118 4.701 117.245 3.06505 115.735C1.55495 114.099 0.799896 112.085 0.799896 109.694V50.9892ZM9.10546 118V104.787H70.4534C71.0826 105.29 71.586 106.108 71.9635 107.241C72.341 108.373 72.5298 109.632 72.5298 111.016C72.5298 113.155 71.9635 114.854 70.8309 116.112C69.6984 117.371 68.1882 118 66.3006 118H9.10546ZM16.2785 62.3149H0.799896V3.60969C1.42911 3.35801 2.37292 3.10632 3.63134 2.85464C5.0156 2.47711 6.46278 2.28835 7.97289 2.28835C10.7414 2.28835 12.8178 2.85464 14.2021 3.98722C15.5863 4.99395 16.2785 6.75574 16.2785 9.27258V62.3149ZM192.527 60.6161C192.527 73.7036 190.136 84.7148 185.354 93.6496C180.572 102.459 174.028 109.128 165.723 113.658C157.543 118.189 148.231 120.454 137.786 120.454C127.467 120.454 118.154 118.189 109.849 113.658C101.543 109.128 94.9995 102.459 90.2175 93.6496C85.4355 84.7148 83.0445 73.7036 83.0445 60.6161C83.0445 47.5285 85.4984 36.5803 90.4062 27.7713C95.3141 18.8366 101.858 12.104 110.038 7.57371C118.343 3.0434 127.593 0.778243 137.786 0.778243C148.105 0.778243 157.354 3.0434 165.534 7.57371C173.839 12.104 180.383 18.8366 185.165 27.7713C190.073 36.5803 192.527 47.5285 192.527 60.6161ZM176.86 60.6161C176.86 45.6409 173.273 34.1264 166.1 26.0725C159.053 17.8927 149.615 13.8029 137.786 13.8029C126.082 13.8029 116.644 17.8927 109.471 26.0725C102.424 34.1264 98.9006 45.6409 98.9006 60.6161C98.9006 75.5913 102.424 87.1687 109.471 95.3485C116.518 103.402 125.957 107.429 137.786 107.429C149.741 107.429 159.242 103.402 166.289 95.3485C173.336 87.1687 176.86 75.5913 176.86 60.6161ZM266.283 116.49C265.654 116.993 264.458 117.497 262.697 118C260.935 118.629 258.984 118.944 256.845 118.944C254.454 118.944 252.315 118.629 250.427 118C248.539 117.245 247.281 116.175 246.652 114.791C244.638 110.89 242.247 105.667 239.479 99.1237C236.836 92.5799 233.942 85.2811 230.796 77.2272C227.775 69.0475 224.755 60.7419 221.735 52.3105C218.715 43.7533 215.883 35.5106 213.241 27.5826C210.724 19.5287 208.522 12.4186 206.634 6.25237C207.389 5.24564 208.522 4.30182 210.032 3.42092C211.542 2.54003 213.241 2.09959 215.128 2.09959C217.519 2.09959 219.281 2.66588 220.414 3.79845C221.546 4.93103 222.49 6.6299 223.245 8.89505C228.782 25.2545 234.13 41.1735 239.29 56.6521C244.575 72.1306 250.301 87.735 256.467 103.465H257.222C260.872 93.9013 264.647 83.5822 268.548 72.5081C272.575 61.3082 276.413 49.7937 280.063 37.9645C283.838 26.1354 287.173 14.6209 290.067 3.42092C290.948 2.91756 291.892 2.60296 292.899 2.47711C294.031 2.22543 295.227 2.09959 296.485 2.09959C298.75 2.09959 300.575 2.66588 301.959 3.79845C303.344 4.93103 304.036 6.6299 304.036 8.89505C304.036 10.7827 303.344 14.3063 301.959 19.4658C300.575 24.6253 298.687 30.7286 296.296 37.7758C294.031 44.8229 291.514 52.2476 288.746 60.0498C285.977 67.852 283.146 75.5284 280.252 83.0789C277.357 90.5035 274.715 97.1732 272.324 103.088C269.933 108.876 267.919 113.344 266.283 116.49ZM327.633 48.9128H342.922V116.49C342.419 116.616 341.475 116.93 340.091 117.434C338.707 117.811 337.322 118 335.938 118C333.421 118 331.408 117.245 329.898 115.735C328.388 114.099 327.633 112.085 327.633 109.694V48.9128ZM342.922 71.1868L327.633 70.998V11.5377C327.633 9.02089 328.388 7.00742 329.898 5.49732C331.408 3.98722 333.421 3.23216 335.938 3.23216C337.322 3.23216 338.707 3.42093 340.091 3.79845C341.475 4.17598 342.419 4.49058 342.922 4.74227V71.1868ZM335.938 65.5239V52.688H392.756C393.133 53.1914 393.511 54.0094 393.888 55.142C394.266 56.2745 394.455 57.47 394.455 58.7285C394.455 60.7419 393.951 62.3779 392.944 63.6363C391.938 64.8947 390.491 65.5239 388.603 65.5239H335.938ZM335.938 118V105.164H399.551C399.929 105.667 400.306 106.485 400.684 107.618C401.061 108.625 401.25 109.82 401.25 111.205C401.25 113.218 400.747 114.854 399.74 116.112C398.733 117.371 397.286 118 395.398 118H335.938ZM335.938 16.2568V3.23216H398.607C398.985 3.73553 399.362 4.5535 399.74 5.68608C400.117 6.81866 400.306 8.01416 400.306 9.27258C400.306 11.2861 399.803 12.9849 398.796 14.3692C397.789 15.6276 396.342 16.2568 394.455 16.2568H335.938ZM563.391 64.2026H581.701C591.769 64.2026 599.571 62.1262 605.108 57.9734C610.645 53.6948 613.414 47.2768 613.414 38.7196C613.414 30.1623 610.708 23.9332 605.297 20.0321C600.011 16.0051 592.398 13.9917 582.457 13.9917C579.059 13.9917 575.661 14.1804 572.263 14.5579C568.991 14.8096 566.034 15.1871 563.391 15.6905V64.2026ZM582.645 77.0385H548.102V11.5377C548.102 9.52426 548.605 8.01416 549.612 7.00743C550.744 5.87485 552.317 4.99395 554.331 4.36474C557.98 3.23217 562.385 2.4142 567.544 1.91083C572.83 1.40746 577.926 1.15577 582.834 1.15577C598.816 1.15577 610.456 4.55351 617.755 11.349C625.18 18.0186 628.892 27.0792 628.892 38.5308C628.892 46.333 627.193 53.1285 623.796 58.9172C620.524 64.7059 615.49 69.1733 608.695 72.3194C601.899 75.4654 593.216 77.0385 582.645 77.0385ZM548.102 69.6767H563.58V117.622C562.825 117.874 561.818 118.126 560.56 118.378C559.302 118.755 557.917 118.944 556.407 118.944C553.639 118.944 551.562 118.378 550.178 117.245C548.794 116.112 548.102 114.351 548.102 111.96V69.6767ZM655.202 48.9128H670.492V116.49C669.989 116.616 669.045 116.93 667.661 117.434C666.277 117.811 664.892 118 663.508 118C660.991 118 658.978 117.245 657.468 115.735C655.958 114.099 655.202 112.085 655.202 109.694V48.9128ZM670.492 71.1868L655.202 70.998V11.5377C655.202 9.02089 655.958 7.00742 657.468 5.49732C658.978 3.98722 660.991 3.23216 663.508 3.23216C664.892 3.23216 666.277 3.42093 667.661 3.79845C669.045 4.17598 669.989 4.49058 670.492 4.74227V71.1868ZM663.508 65.5239V52.688H720.326C720.703 53.1914 721.081 54.0094 721.458 55.142C721.836 56.2745 722.025 57.47 722.025 58.7285C722.025 60.7419 721.521 62.3779 720.514 63.6363C719.508 64.8947 718.061 65.5239 716.173 65.5239H663.508ZM663.508 118V105.164H727.121C727.499 105.667 727.876 106.485 728.254 107.618C728.631 108.625 728.82 109.82 728.82 111.205C728.82 113.218 728.317 114.854 727.31 116.112C726.303 117.371 724.856 118 722.968 118H663.508ZM663.508 16.2568V3.23216H726.177C726.555 3.73553 726.932 4.5535 727.31 5.68608C727.687 6.81866 727.876 8.01416 727.876 9.27258C727.876 11.2861 727.373 12.9849 726.366 14.3692C725.359 15.6276 723.912 16.2568 722.025 16.2568H663.508ZM787.95 16.2568L787.006 3.23216H830.988C831.365 3.73553 831.743 4.5535 832.12 5.68608C832.498 6.81866 832.687 8.01416 832.687 9.27258C832.687 11.2861 832.183 12.9849 831.177 14.3692C830.17 15.6276 828.723 16.2568 826.835 16.2568H787.95ZM788.328 3.23216L789.271 16.2568H745.101C744.723 15.6276 744.346 14.7467 743.968 13.6141C743.591 12.4815 743.402 11.286 743.402 10.0276C743.402 7.88831 743.905 6.25237 744.912 5.11979C745.919 3.86137 747.366 3.23216 749.254 3.23216H788.328ZM780.399 11.1602H795.689V117.622C795.06 117.874 794.053 118.126 792.669 118.378C791.411 118.755 790.089 118.944 788.705 118.944C785.937 118.944 783.86 118.378 782.476 117.245C781.092 116.112 780.399 114.351 780.399 111.96V11.1602ZM884.526 107.618C892.957 107.618 899.312 105.73 903.591 101.955C907.995 98.0541 910.197 93.0833 910.197 87.0429C910.197 81.8834 908.499 77.6047 905.101 74.207C901.829 70.8093 896.607 68.1037 889.434 66.0902L873.011 61.1824C867.726 59.5464 863.133 57.47 859.232 54.9532C855.33 52.3105 852.31 49.1015 850.171 45.3263C848.157 41.4252 847.151 36.8949 847.151 31.7354C847.151 22.0455 850.674 14.495 857.721 9.08382C864.769 3.54677 874.144 0.778243 885.847 0.778243C892.643 0.778243 898.683 1.5333 903.968 3.0434C909.38 4.42766 913.595 6.25237 916.615 8.51752C919.761 10.7827 921.334 13.1737 921.334 15.6905C921.334 17.3265 920.894 18.8366 920.013 20.2208C919.132 21.4792 918 22.486 916.615 23.241C913.469 20.7242 909.191 18.522 903.78 16.6343C898.494 14.7467 892.705 13.8029 886.413 13.8029C879.115 13.8029 873.326 15.4388 869.047 18.7107C864.769 21.8568 862.629 26.1983 862.629 31.7354C862.629 36.1398 864.139 39.7263 867.16 42.4948C870.306 45.2634 875.339 47.6544 882.261 49.6678L893.775 53.0656C903.717 55.8341 911.519 59.861 917.182 65.1464C922.97 70.4318 925.865 77.7306 925.865 87.0429C925.865 96.9844 922.215 105.038 914.917 111.205C907.744 117.371 897.613 120.454 884.526 120.454C876.849 120.454 870.117 119.636 864.328 118C858.665 116.238 854.198 114.099 850.926 111.582C847.78 108.939 846.207 106.36 846.207 103.843C846.207 101.703 846.836 99.9417 848.094 98.5574C849.479 97.0473 851.052 95.9777 852.814 95.3485C855.708 98.117 859.798 100.885 865.083 103.654C870.369 106.297 876.849 107.618 884.526 107.618ZM951.619 50.9892H967.098V116.49L959.925 118C957.534 118 955.52 117.245 953.884 115.735C952.374 114.099 951.619 112.085 951.619 109.694V50.9892ZM959.925 118V104.787H1021.27C1021.9 105.29 1022.41 106.108 1022.78 107.241C1023.16 108.373 1023.35 109.632 1023.35 111.016C1023.35 113.155 1022.78 114.854 1021.65 116.112C1020.52 117.371 1019.01 118 1017.12 118H959.925ZM967.098 62.3149H951.619V3.60969C952.248 3.35801 953.192 3.10632 954.451 2.85464C955.835 2.47711 957.282 2.28835 958.792 2.28835C961.561 2.28835 963.637 2.85464 965.021 3.98722C966.406 4.99395 967.098 6.75574 967.098 9.27258V62.3149ZM1143.35 60.6161C1143.35 73.7036 1140.96 84.7148 1136.17 93.6496C1131.39 102.459 1124.85 109.128 1116.54 113.658C1108.36 118.189 1099.05 120.454 1088.6 120.454C1078.29 120.454 1068.97 118.189 1060.67 113.658C1052.36 109.128 1045.82 102.459 1041.04 93.6496C1036.25 84.7148 1033.86 73.7036 1033.86 60.6161C1033.86 47.5285 1036.32 36.5803 1041.23 27.7713C1046.13 18.8366 1052.68 12.104 1060.86 7.57371C1069.16 3.0434 1078.41 0.778243 1088.6 0.778243C1098.92 0.778243 1108.17 3.0434 1116.35 7.57371C1124.66 12.104 1131.2 18.8366 1135.98 27.7713C1140.89 36.5803 1143.35 47.5285 1143.35 60.6161ZM1127.68 60.6161C1127.68 45.6409 1124.09 34.1264 1116.92 26.0725C1109.87 17.8927 1100.43 13.8029 1088.6 13.8029C1076.9 13.8029 1067.46 17.8927 1060.29 26.0725C1053.24 34.1264 1049.72 45.6409 1049.72 60.6161C1049.72 75.5913 1053.24 87.1687 1060.29 95.3485C1067.34 103.402 1076.78 107.429 1088.6 107.429C1100.56 107.429 1110.06 103.402 1117.11 95.3485C1124.16 87.1687 1127.68 75.5913 1127.68 60.6161ZM1217.1 116.49C1216.47 116.993 1215.28 117.497 1213.52 118C1211.75 118.629 1209.8 118.944 1207.66 118.944C1205.27 118.944 1203.13 118.629 1201.25 118C1199.36 117.245 1198.1 116.175 1197.47 114.791C1195.46 110.89 1193.07 105.667 1190.3 99.1237C1187.66 92.5799 1184.76 85.2811 1181.61 77.2272C1178.59 69.0475 1175.57 60.7419 1172.55 52.3105C1169.53 43.7533 1166.7 35.5106 1164.06 27.5826C1161.54 19.5287 1159.34 12.4186 1157.45 6.25237C1158.21 5.24564 1159.34 4.30182 1160.85 3.42092C1162.36 2.54003 1164.06 2.09959 1165.95 2.09959C1168.34 2.09959 1170.1 2.66588 1171.23 3.79845C1172.37 4.93103 1173.31 6.6299 1174.06 8.89505C1179.6 25.2545 1184.95 41.1735 1190.11 56.6521C1195.39 72.1306 1201.12 87.735 1207.29 103.465H1208.04C1211.69 93.9013 1215.47 83.5822 1219.37 72.5081C1223.39 61.3082 1227.23 49.7937 1230.88 37.9645C1234.66 26.1354 1237.99 14.6209 1240.89 3.42092C1241.77 2.91756 1242.71 2.60296 1243.72 2.47711C1244.85 2.22543 1246.05 2.09959 1247.3 2.09959C1249.57 2.09959 1251.39 2.66588 1252.78 3.79845C1254.16 4.93103 1254.85 6.6299 1254.85 8.89505C1254.85 10.7827 1254.16 14.3063 1252.78 19.4658C1251.39 24.6253 1249.51 30.7286 1247.12 37.7758C1244.85 44.8229 1242.33 52.2476 1239.57 60.0498C1236.8 67.852 1233.97 75.5284 1231.07 83.0789C1228.18 90.5035 1225.53 97.1732 1223.14 103.088C1220.75 108.876 1218.74 113.344 1217.1 116.49ZM1278.45 48.9128H1293.74V116.49C1293.24 116.616 1292.29 116.93 1290.91 117.434C1289.53 117.811 1288.14 118 1286.76 118C1284.24 118 1282.23 117.245 1280.72 115.735C1279.21 114.099 1278.45 112.085 1278.45 109.694V48.9128ZM1293.74 71.1868L1278.45 70.998V11.5377C1278.45 9.02089 1279.21 7.00742 1280.72 5.49732C1282.23 3.98722 1284.24 3.23216 1286.76 3.23216C1288.14 3.23216 1289.53 3.42093 1290.91 3.79845C1292.29 4.17598 1293.24 4.49058 1293.74 4.74227V71.1868ZM1286.76 65.5239V52.688H1343.57C1343.95 53.1914 1344.33 54.0094 1344.71 55.142C1345.09 56.2745 1345.27 57.47 1345.27 58.7285C1345.27 60.7419 1344.77 62.3779 1343.76 63.6363C1342.76 64.8947 1341.31 65.5239 1339.42 65.5239H1286.76ZM1286.76 118V105.164H1350.37C1350.75 105.667 1351.13 106.485 1351.5 107.618C1351.88 108.625 1352.07 109.82 1352.07 111.205C1352.07 113.218 1351.57 114.854 1350.56 116.112C1349.55 117.371 1348.11 118 1346.22 118H1286.76ZM1286.76 16.2568V3.23216H1349.43C1349.8 3.73553 1350.18 4.5535 1350.56 5.68608C1350.94 6.81866 1351.13 8.01416 1351.13 9.27258C1351.13 11.2861 1350.62 12.9849 1349.62 14.3692C1348.61 15.6276 1347.16 16.2568 1345.27 16.2568H1286.76ZM1514.21 64.2026H1532.52C1542.59 64.2026 1550.39 62.1262 1555.93 57.9734C1561.46 53.6948 1564.23 47.2768 1564.23 38.7196C1564.23 30.1623 1561.53 23.9332 1556.12 20.0321C1550.83 16.0051 1543.22 13.9917 1533.28 13.9917C1529.88 13.9917 1526.48 14.1804 1523.08 14.5579C1519.81 14.8096 1516.85 15.1871 1514.21 15.6905V64.2026ZM1533.46 77.0385H1498.92V11.5377C1498.92 9.52426 1499.42 8.01416 1500.43 7.00743C1501.56 5.87485 1503.14 4.99395 1505.15 4.36474C1508.8 3.23217 1513.2 2.4142 1518.36 1.91083C1523.65 1.40746 1528.75 1.15577 1533.65 1.15577C1549.64 1.15577 1561.28 4.55351 1568.57 11.349C1576 18.0186 1579.71 27.0792 1579.71 38.5308C1579.71 46.333 1578.01 53.1285 1574.61 58.9172C1571.34 64.7059 1566.31 69.1733 1559.51 72.3194C1552.72 75.4654 1544.04 77.0385 1533.46 77.0385ZM1498.92 69.6767H1514.4V117.622C1513.64 117.874 1512.64 118.126 1511.38 118.378C1510.12 118.755 1508.74 118.944 1507.23 118.944C1504.46 118.944 1502.38 118.378 1501 117.245C1499.61 116.112 1498.92 114.351 1498.92 111.96V69.6767ZM1606.02 48.9128H1621.31V116.49C1620.81 116.616 1619.86 116.93 1618.48 117.434C1617.1 117.811 1615.71 118 1614.33 118C1611.81 118 1609.8 117.245 1608.29 115.735C1606.78 114.099 1606.02 112.085 1606.02 109.694V48.9128ZM1621.31 71.1868L1606.02 70.998V11.5377C1606.02 9.02089 1606.78 7.00742 1608.29 5.49732C1609.8 3.98722 1611.81 3.23216 1614.33 3.23216C1615.71 3.23216 1617.1 3.42093 1618.48 3.79845C1619.86 4.17598 1620.81 4.49058 1621.31 4.74227V71.1868ZM1614.33 65.5239V52.688H1671.14C1671.52 53.1914 1671.9 54.0094 1672.28 55.142C1672.65 56.2745 1672.84 57.47 1672.84 58.7285C1672.84 60.7419 1672.34 62.3779 1671.33 63.6363C1670.33 64.8947 1668.88 65.5239 1666.99 65.5239H1614.33ZM1614.33 118V105.164H1677.94C1678.32 105.667 1678.7 106.485 1679.07 107.618C1679.45 108.625 1679.64 109.82 1679.64 111.205C1679.64 113.218 1679.14 114.854 1678.13 116.112C1677.12 117.371 1675.68 118 1673.79 118H1614.33ZM1614.33 16.2568V3.23216H1677C1677.37 3.73553 1677.75 4.5535 1678.13 5.68608C1678.51 6.81866 1678.7 8.01416 1678.7 9.27258C1678.7 11.2861 1678.19 12.9849 1677.19 14.3692C1676.18 15.6276 1674.73 16.2568 1672.84 16.2568H1614.33ZM1738.77 16.2568L1737.83 3.23216H1781.81C1782.18 3.73553 1782.56 4.5535 1782.94 5.68608C1783.32 6.81866 1783.51 8.01416 1783.51 9.27258C1783.51 11.2861 1783 12.9849 1782 14.3692C1780.99 15.6276 1779.54 16.2568 1777.65 16.2568H1738.77ZM1739.15 3.23216L1740.09 16.2568H1695.92C1695.54 15.6276 1695.16 14.7467 1694.79 13.6141C1694.41 12.4815 1694.22 11.286 1694.22 10.0276C1694.22 7.88831 1694.72 6.25237 1695.73 5.11979C1696.74 3.86137 1698.19 3.23216 1700.07 3.23216H1739.15ZM1731.22 11.1602H1746.51V117.622C1745.88 117.874 1744.87 118.126 1743.49 118.378C1742.23 118.755 1740.91 118.944 1739.52 118.944C1736.76 118.944 1734.68 118.378 1733.3 117.245C1731.91 116.112 1731.22 114.351 1731.22 111.96V11.1602ZM1835.35 107.618C1843.78 107.618 1850.13 105.73 1854.41 101.955C1858.81 98.0541 1861.02 93.0833 1861.02 87.0429C1861.02 81.8834 1859.32 77.6047 1855.92 74.207C1852.65 70.8093 1847.43 68.1037 1840.25 66.0902L1823.83 61.1824C1818.55 59.5464 1813.95 57.47 1810.05 54.9532C1806.15 52.3105 1803.13 49.1015 1800.99 45.3263C1798.98 41.4252 1797.97 36.8949 1797.97 31.7354C1797.97 22.0455 1801.49 14.495 1808.54 9.08382C1815.59 3.54677 1824.96 0.778243 1836.67 0.778243C1843.46 0.778243 1849.5 1.5333 1854.79 3.0434C1860.2 4.42766 1864.41 6.25237 1867.43 8.51752C1870.58 10.7827 1872.15 13.1737 1872.15 15.6905C1872.15 17.3265 1871.71 18.8366 1870.83 20.2208C1869.95 21.4792 1868.82 22.486 1867.43 23.241C1864.29 20.7242 1860.01 18.522 1854.6 16.6343C1849.31 14.7467 1843.52 13.8029 1837.23 13.8029C1829.93 13.8029 1824.15 15.4388 1819.87 18.7107C1815.59 21.8568 1813.45 26.1983 1813.45 31.7354C1813.45 36.1398 1814.96 39.7263 1817.98 42.4948C1821.12 45.2634 1826.16 47.6544 1833.08 49.6678L1844.59 53.0656C1854.54 55.8341 1862.34 59.861 1868 65.1464C1873.79 70.4318 1876.68 77.7306 1876.68 87.0429C1876.68 96.9844 1873.03 105.038 1865.74 111.205C1858.56 117.371 1848.43 120.454 1835.35 120.454C1827.67 120.454 1820.94 119.636 1815.15 118C1809.48 116.238 1805.02 114.099 1801.75 111.582C1798.6 108.939 1797.03 106.36 1797.03 103.843C1797.03 101.703 1797.66 99.9417 1798.91 98.5574C1800.3 97.0473 1801.87 95.9777 1803.63 95.3485C1806.53 98.117 1810.62 100.885 1815.9 103.654C1821.19 106.297 1827.67 107.618 1835.35 107.618Z" fill="#FF50C7"/>
<path d="M507.193 98.7462L501.719 105.164C497.44 109.82 492.218 113.596 486.052 116.49C479.885 119.384 472.461 120.831 463.778 120.831C455.095 120.831 447.481 119.258 440.937 116.112C434.519 112.966 429.486 108.562 425.836 102.899C422.313 97.1102 420.551 90.3777 420.551 82.7013C420.551 76.2834 421.809 70.6834 424.326 65.9014C426.969 60.9936 430.493 56.9037 434.897 53.6319C439.301 50.36 444.209 48.0319 449.621 46.6476L456.227 57.7846C452.829 58.5397 449.558 59.9869 446.412 62.1262C443.391 64.1397 440.874 66.9082 438.861 70.4318C436.848 73.8295 435.841 77.9823 435.841 82.8901C435.841 90.4406 438.295 96.544 443.203 101.2C448.236 105.73 455.158 107.996 463.966 107.996C468.748 107.996 473.656 106.989 478.69 104.975C483.85 102.962 488.569 99.5012 492.847 94.5934L497 88.553C499.265 84.4002 501.027 79.1778 502.285 72.8857C503.67 66.5936 504.362 59.4206 504.362 51.3667C505.494 50.8633 506.627 50.4858 507.759 50.2341C509.018 49.8566 510.213 49.6678 511.346 49.6678C513.863 49.6678 515.75 50.4229 517.009 51.933C518.267 53.3173 518.896 55.3936 518.896 58.1622C518.896 65.2093 517.827 72.4452 515.688 79.8699C513.674 87.2946 510.843 93.5867 507.193 98.7462ZM517.764 120.643C515.247 120.643 512.73 119.195 510.213 116.301L452.452 55.897L447.733 50.6116C443.832 46.5847 440.937 42.6836 439.05 38.9083C437.162 35.0073 436.218 30.8545 436.218 26.45C436.218 21.2905 437.351 16.8231 439.616 13.0478C442.007 9.14674 445.405 6.12653 449.809 3.98722C454.34 1.8479 459.814 0.778243 466.232 0.778243C472.901 0.778243 477.935 1.72206 481.333 3.60969C484.856 5.49732 486.618 7.88832 486.618 10.7827C486.618 12.2928 486.178 13.677 485.297 14.9355C484.542 16.068 483.661 16.9489 482.654 17.5781C480.641 16.4456 478.25 15.5018 475.481 14.7467C472.838 13.9916 470.07 13.6141 467.175 13.6141C462.393 13.6141 458.618 14.8096 455.85 17.2006C453.081 19.4658 451.697 22.6118 451.697 26.6388C451.697 30.5399 452.704 34.0005 454.717 37.0207C456.731 40.0409 459.625 43.5016 463.4 47.4027L526.069 112.526C525.692 115.043 524.811 116.993 523.427 118.378C522.043 119.888 520.155 120.643 517.764 120.643ZM1458.01 98.7462L1452.54 105.164C1448.26 109.82 1443.04 113.596 1436.87 116.49C1430.7 119.384 1423.28 120.831 1414.6 120.831C1405.91 120.831 1398.3 119.258 1391.76 116.112C1385.34 112.966 1380.31 108.562 1376.66 102.899C1373.13 97.1102 1371.37 90.3777 1371.37 82.7013C1371.37 76.2834 1372.63 70.6834 1375.15 65.9014C1377.79 60.9936 1381.31 56.9037 1385.72 53.6319C1390.12 50.36 1395.03 48.0319 1400.44 46.6476L1407.05 57.7846C1403.65 58.5397 1400.38 59.9869 1397.23 62.1262C1394.21 64.1397 1391.69 66.9082 1389.68 70.4318C1387.67 73.8295 1386.66 77.9823 1386.66 82.8901C1386.66 90.4406 1389.11 96.544 1394.02 101.2C1399.06 105.73 1405.98 107.996 1414.79 107.996C1419.57 107.996 1424.48 106.989 1429.51 104.975C1434.67 102.962 1439.39 99.5012 1443.67 94.5934L1447.82 88.553C1450.08 84.4002 1451.85 79.1778 1453.1 72.8857C1454.49 66.5936 1455.18 59.4206 1455.18 51.3667C1456.31 50.8633 1457.45 50.4858 1458.58 50.2341C1459.84 49.8566 1461.03 49.6678 1462.17 49.6678C1464.68 49.6678 1466.57 50.4229 1467.83 51.933C1469.09 53.3173 1469.72 55.3936 1469.72 58.1622C1469.72 65.2093 1468.65 72.4452 1466.51 79.8699C1464.49 87.2946 1461.66 93.5867 1458.01 98.7462ZM1468.58 120.643C1466.07 120.643 1463.55 119.195 1461.03 116.301L1403.27 55.897L1398.55 50.6116C1394.65 46.5847 1391.76 42.6836 1389.87 38.9083C1387.98 35.0073 1387.04 30.8545 1387.04 26.45C1387.04 21.2905 1388.17 16.8231 1390.44 13.0478C1392.83 9.14674 1396.22 6.12653 1400.63 3.98722C1405.16 1.8479 1410.63 0.778243 1417.05 0.778243C1423.72 0.778243 1428.75 1.72206 1432.15 3.60969C1435.68 5.49732 1437.44 7.88832 1437.44 10.7827C1437.44 12.2928 1437 13.677 1436.12 14.9355C1435.36 16.068 1434.48 16.9489 1433.47 17.5781C1431.46 16.4456 1429.07 15.5018 1426.3 14.7467C1423.66 13.9916 1420.89 13.6141 1417.99 13.6141C1413.21 13.6141 1409.44 14.8096 1406.67 17.2006C1403.9 19.4658 1402.52 22.6118 1402.52 26.6388C1402.52 30.5399 1403.52 34.0005 1405.54 37.0207C1407.55 40.0409 1410.44 43.5016 1414.22 47.4027L1476.89 112.526C1476.51 115.043 1475.63 116.993 1474.25 118.378C1472.86 119.888 1470.97 120.643 1468.58 120.643Z" fill="#001AFF"/>
</svg>
