<svg width="1280" height="638" viewBox="0 0 1280 638" fill="none" xmlns="http://www.w3.org/2000/svg">
<g clip-path="url(#clip0_903_3)">
<rect width="1280" height="3817" transform="translate(0 -1859)" fill="white"/>
<rect x="-5743.17" y="-7" width="12674.3" height="1668" fill="#001AFF"/>
<path d="M-102.033 -36.9918L539.368 -208.855L695.456 127.518C716.759 173.426 711.141 227.322 680.83 267.851C644.721 316.132 580.655 335.024 523.843 314.842C506.112 308.543 489.678 298.554 475.983 285.649C474.291 299.105 468.581 311.738 459.597 321.898L451.054 331.561C437.284 347.135 418.366 357.229 397.762 359.995C389.587 361.093 381.321 361.343 373.095 360.742L372.12 360.671C358.079 359.645 344.452 355.456 332.26 348.417L328.049 345.985C348.681 401.346 322.317 463.165 268.082 486.596L265.827 487.57C256.81 491.466 247.326 494.175 237.611 495.63L230.499 496.695C204.019 500.661 176.966 495.934 153.399 483.223L147.848 480.229C135.02 473.311 123.93 463.573 115.41 451.748C104.103 466.753 88.1025 477.545 69.9544 482.408L65.5459 483.59L63.8031 483.989C23.6647 493.18 -15.8753 466.497 -22.3704 425.835L-102.033 -36.9918Z" fill="#FFC9ED"/>
<path d="M1384.92 -18.9918L743.515 -190.855L587.427 145.518C566.124 191.426 571.741 245.322 602.053 285.851C638.162 334.132 702.228 353.024 759.04 332.842C776.771 326.543 793.205 316.554 806.9 303.649C808.592 317.105 814.302 329.738 823.285 339.898L831.829 349.561C845.599 365.135 864.517 375.229 885.121 377.995C893.296 379.093 901.562 379.343 909.788 378.742L910.763 378.671C924.804 377.645 938.431 373.456 950.623 366.417L954.834 363.985C934.201 419.346 960.565 481.165 1014.8 504.596L1017.06 505.57C1026.07 509.466 1035.56 512.175 1045.27 513.63L1052.38 514.695C1078.86 518.661 1105.92 513.934 1129.48 501.223L1135.04 498.229C1147.86 491.311 1158.95 481.573 1167.47 469.748C1178.78 484.753 1194.78 495.545 1212.93 500.408L1217.34 501.59L1219.08 501.989C1259.22 511.18 1298.76 484.497 1305.25 443.835L1384.92 -18.9918Z" fill="#FFC9ED"/>
<path d="M-68.0633 -82.0088L664.628 -237.747L782.295 12.3429C809.671 70.5283 795.927 139.763 748.4 183.078C711.401 216.798 659.751 229.304 611.425 216.243L582.645 208.465C565.782 203.908 550.018 195.977 536.308 185.152C532.857 196.647 525.946 206.799 516.517 214.226L502.404 225.342C485.595 238.581 465.433 246.879 444.176 249.308L440.476 249.731C431.406 250.767 422.269 251.087 413.149 250.689C396.948 249.98 381.037 246.139 366.297 239.378L364.895 238.735C381.01 284.759 356.23 335.05 309.917 350.315L274.781 361.895C267.221 364.387 259.437 366.142 251.539 367.136L228.939 369.978C205.296 372.952 181.286 369.601 159.361 360.265L146.499 354.789C134.717 349.773 124.342 341.949 116.279 332C101.805 345.104 84.1219 354.145 65.0239 358.205L57.1531 359.878L33.8329 364.173C0.204947 370.367 -31.3363 345.943 -33.7554 311.835L-68.0633 -82.0088Z" fill="#FFDDF4"/>
<path d="M1352.93 -94.0088L620.239 -249.747L502.572 0.342851C475.196 58.5283 488.941 127.763 536.467 171.078C573.466 204.798 625.116 217.304 673.442 204.243L702.222 196.465C719.085 191.908 734.849 183.977 748.559 173.152C752.011 184.647 758.921 194.799 768.35 202.226L782.463 213.342C799.272 226.581 819.434 234.879 840.692 237.308L844.392 237.731C853.461 238.767 862.598 239.087 871.718 238.689C887.919 237.98 903.83 234.139 918.57 227.378L919.972 226.735C903.858 272.759 928.637 323.05 974.95 338.315L1010.09 349.895C1017.65 352.387 1025.43 354.142 1033.33 355.136L1055.93 357.978C1079.57 360.952 1103.58 357.601 1125.51 348.265L1138.37 342.789C1150.15 337.773 1160.53 329.949 1168.59 320C1183.06 333.104 1200.75 342.145 1219.84 346.205L1227.71 347.878L1251.03 352.173C1284.66 358.367 1316.2 333.943 1318.62 299.835L1352.93 -94.0088Z" fill="#FFDDF4"/>
<path d="M-12.4708 -336.918L604.569 -369.256L685.416 8.50136C694.854 52.6006 680.727 98.4381 648.101 129.573L644.702 132.817C602.601 172.995 538.22 178.476 489.933 145.995C475.784 136.477 463.751 124.142 454.587 109.762L453.258 107.678C449.167 120.674 441.323 132.17 430.713 140.718L421.224 148.364C406.215 160.457 387.107 166.27 367.905 164.585C360.253 163.914 352.701 162.391 345.387 160.045L344.1 159.632C331.715 155.659 320.432 148.842 311.155 139.726L307.027 135.67L308.105 143.35C315.876 198.728 279.552 250.705 224.877 262.443C215.042 264.554 204.957 265.264 194.923 264.55L192.724 264.394C165.903 262.486 140.537 251.48 120.821 233.197L117.956 230.54C107.206 220.571 98.7678 208.369 93.2358 194.791C80.1439 207.192 63.0613 214.522 45.0529 215.466L41.7691 215.638C2.40277 216.124 -29.2974 183.454 -27.6266 144.121L-27.4262 139.403L-12.4708 -336.918Z" fill="white"/>
<path d="M1284.46 -380.873L667.423 -413.211L586.576 -35.4537C577.138 8.64548 591.265 54.483 623.891 85.6181L627.29 88.8624C669.391 129.04 733.772 134.521 782.059 102.039C796.208 92.5217 808.241 80.1871 817.406 65.8069L818.734 63.7227C822.825 76.7191 830.669 88.215 841.279 96.7633L850.768 104.409C865.777 116.502 884.886 122.315 904.087 120.63C911.739 119.959 919.292 118.436 926.606 116.09L927.892 115.677C940.277 111.704 951.56 104.887 960.837 95.7708L964.965 91.7146L963.887 99.3947C956.116 154.773 992.44 206.75 1047.11 218.488C1056.95 220.599 1067.03 221.309 1077.07 220.595L1079.27 220.439C1106.09 218.531 1131.45 207.525 1151.17 189.242L1154.04 186.585C1164.79 176.616 1173.22 164.414 1178.76 150.836C1191.85 163.237 1208.93 170.567 1226.94 171.511L1230.22 171.683C1269.59 172.169 1301.29 139.499 1299.62 100.166L1299.42 95.4484L1284.46 -380.873Z" fill="white"/>
<rect x="-31" y="637.814" width="96" height="921" fill="#001AFF"/>
<rect x="585" y="632.814" width="53" height="358" fill="#001AFF"/>
</g>
<defs>
<clipPath id="clip0_903_3">
<rect width="1280" height="3817" fill="white" transform="translate(0 -1859)"/>
</clipPath>
</defs>
</svg>
