<svg width="409" height="409" viewBox="0 0 409 409" fill="none" xmlns="http://www.w3.org/2000/svg">
<path d="M150.311 131.054C150.43 129.381 150.781 127.734 151.354 126.158L151.733 125.117C152.268 123.648 153.078 122.294 154.121 121.128V121.128C156.294 118.698 159.343 117.23 162.599 117.048L171.558 116.547L282.086 123.365L288.684 124.476C295.397 125.607 300.857 130.507 302.705 137.059V137.059C303.258 139.017 303.467 141.055 303.323 143.084L302.114 160.135L299.792 179.726C299.459 182.535 297.898 185.051 295.53 186.596V186.596C293.014 188.238 289.872 188.6 287.049 187.572L281.408 185.519C280.351 185.134 279.264 184.832 278.16 184.617L274.106 183.827C272.121 183.44 270.081 183.43 268.092 183.798L267.157 183.971C263.927 184.567 261.022 186.314 258.98 188.887V188.887C258.072 190.031 257.354 191.314 256.855 192.687L255.669 195.945C254.767 198.424 254.518 201.093 254.947 203.695L255.078 204.491C255.465 206.841 256.512 209.033 258.097 210.811V210.811C259.481 212.365 261.23 213.551 263.185 214.263L265.042 214.939C266.442 215.448 267.893 215.803 269.37 215.997L270.272 216.115C273.786 216.576 277.356 216.382 280.799 215.543L285.294 214.448L289.132 213.006C291.575 212.087 294.331 212.906 295.876 215.009V215.009C296.732 216.174 297.124 217.615 296.977 219.053L292.119 266.5C291.81 269.512 290.08 272.194 287.464 273.716V273.716C286.105 274.507 284.572 274.946 283.001 274.996L275.794 275.222C273.913 275.282 272.03 275.201 270.161 274.981L242.477 271.721C240.246 271.458 237.989 271.905 236.025 272.997V272.997C232.907 274.731 230.859 277.906 230.564 281.462L230.426 283.126C230.254 285.192 230.55 287.27 231.29 289.207L234.743 298.244C236.011 301.561 236.04 305.223 234.826 308.56V308.56C233.79 311.406 231.904 313.864 229.424 315.601L228.457 316.278C225.548 318.315 222.115 319.472 218.567 319.612L217.431 319.656C214.529 319.77 211.631 319.318 208.902 318.324L208.072 318.022C204.785 316.826 201.868 314.793 199.608 312.124L198.616 310.953C196.803 308.811 195.636 306.199 195.25 303.419V303.419C194.84 300.461 195.334 297.447 196.668 294.774L201.883 284.324L204.674 276.655C204.917 275.987 205.051 275.284 205.07 274.573V274.573C205.148 271.728 203.396 269.151 200.721 268.178L195.614 266.319C193.921 265.703 192.127 265.416 190.327 265.472L178.141 265.856L153.734 265.068C150.434 264.962 147.36 263.37 145.368 260.736V260.736C143.763 258.614 142.988 255.979 143.187 253.326L144.027 242.138L147.74 210.41C148.043 207.819 147.182 205.227 145.389 203.333V203.333C144.449 202.34 143.291 201.58 142.006 201.112L141.342 200.87C138.823 199.954 136.068 199.922 133.529 200.779L129.292 202.21C127.271 202.893 125.17 203.309 123.041 203.448L118.111 203.771C115.202 203.962 112.296 203.353 109.708 202.01V202.01C106.14 200.158 103.402 197.028 102.04 193.246L101.88 192.802C100.968 190.27 100.664 187.559 100.992 184.888L101.395 181.613C101.79 178.397 102.926 175.316 104.715 172.614L105.692 171.137C107.545 168.336 110.253 166.209 113.413 165.071V165.071C116.845 163.835 120.602 163.841 124.03 165.089L131.057 167.646C132.375 168.126 133.752 168.423 135.15 168.53L138.68 168.799C142.528 169.092 146.193 167.115 148.063 163.739V163.739C148.872 162.277 149.297 160.633 149.297 158.962L149.302 145.298L150.311 131.054Z" fill="#FF50C7"/>
<path d="M222.546 175.34L221.628 176.359C221.486 176.518 221.244 176.539 221.077 176.407C220.415 175.886 219.797 175.311 219.23 174.688L218.602 173.998L216.643 172.086L214.863 170.63L214.339 170.279C213.408 169.654 212.393 169.165 211.324 168.827L211.091 168.754C210.641 168.611 210.174 168.505 209.707 168.436C209.145 168.354 208.568 168.327 208 168.356C207.336 168.391 206.677 168.503 206.038 168.689L205.707 168.785C204.843 169.037 204.01 169.389 203.227 169.833L202.601 170.189L202.274 170.424C201.103 171.266 200.038 172.248 199.103 173.348C198.389 174.188 197.754 175.093 197.207 176.051L196.753 176.847L196.719 176.918C196.001 178.454 195.452 180.065 195.085 181.72L195.011 182.051L194.571 185.482L194.582 187.025C194.591 188.266 194.699 189.504 194.905 190.727L195.269 192.882L196.01 195.374C196.393 196.659 196.886 197.909 197.485 199.11L198.317 200.778L199.328 202.561C199.905 203.578 200.557 204.549 201.28 205.467L202.186 206.617L204.486 209.131L208.689 212.871L214.03 216.82L217.014 218.647C219.477 220.156 222.602 220.055 224.963 218.392L233.922 212.081L236.597 209.927L238.671 208.114L240.867 205.675L243.186 202.61L244.894 199.732L245.862 197.512L246.25 196.56C246.723 195.402 247.101 194.208 247.381 192.99L247.717 191.528L248.02 188.979C248.176 187.666 248.22 186.343 248.151 185.023L248.076 183.592C248.033 182.78 247.93 181.971 247.768 181.174C247.514 179.933 247.118 178.725 246.587 177.575L245.989 176.281L244.639 174.182L243.698 173.083C243.226 172.532 242.708 172.022 242.15 171.558C241.309 170.86 240.382 170.272 239.392 169.808L238.501 169.392C237.566 169.034 236.57 168.814 235.571 168.749C234.817 168.7 234.059 168.737 233.312 168.86L233.113 168.893C232.155 169.05 231.221 169.326 230.331 169.714L229.247 170.186L226.995 171.544L224.758 173.21L222.546 175.34Z" fill="#FFC9E4"/>
</svg>
