<svg width="204" height="204" viewBox="0 0 204 204" fill="none" xmlns="http://www.w3.org/2000/svg">
<path d="M130.422 33.1116C131.645 32.4899 132.948 32.0417 134.295 31.78L135.185 31.607C136.441 31.3629 137.732 31.3606 138.989 31.6005V31.6005C141.609 32.1004 143.924 33.6208 145.423 35.8271L149.55 41.8999L191.347 122.293L193.348 127.389C195.384 132.574 194.248 138.468 190.432 142.525V142.525C189.292 143.738 187.95 144.743 186.466 145.497L173.998 151.835L159.279 158.463C157.169 159.413 154.747 159.378 152.665 158.369V158.369C150.453 157.296 148.875 155.245 148.406 152.832L147.469 148.01C147.293 147.106 147.047 146.217 146.733 145.352L145.578 142.176C145.013 140.621 144.16 139.186 143.065 137.946L142.549 137.363C140.77 135.348 138.321 134.047 135.655 133.699V133.699C134.47 133.545 133.268 133.582 132.094 133.81L129.309 134.352C127.191 134.763 125.214 135.714 123.57 137.111L123.067 137.538C121.582 138.8 120.486 140.458 119.906 142.319V142.319C119.4 143.945 119.305 145.671 119.63 147.343L119.938 148.93C120.171 150.126 120.533 151.293 121.02 152.411L121.317 153.094C122.475 155.753 124.115 158.174 126.155 160.236L128.817 162.927L131.446 165.011C133.119 166.337 133.707 168.615 132.883 170.585V170.585C132.427 171.676 131.581 172.559 130.511 173.061L95.1857 189.649C92.9437 190.702 90.3334 190.619 88.1629 189.425V189.425C87.0363 188.806 86.0816 187.915 85.3851 186.835L82.1889 181.875C81.3546 180.581 80.6178 179.226 79.9844 177.822L70.6042 157.033C69.8481 155.357 68.5838 153.962 66.9904 153.045V153.045C64.46 151.59 61.3703 151.491 58.7521 152.782L57.5265 153.387C56.0052 154.137 54.6721 155.22 53.6258 156.555L48.7429 162.786C46.9508 165.072 44.3943 166.636 41.5423 167.191V167.191C39.1102 167.664 36.5915 167.377 34.3279 166.369L33.4453 165.977C30.7909 164.795 28.5325 162.875 26.9395 160.445L26.4295 159.667C25.1263 157.68 24.2227 155.457 23.7692 153.124L23.6313 152.414C23.0853 149.605 23.2818 146.702 24.2014 143.993L24.6049 142.803C25.3427 140.629 26.6831 138.71 28.4699 137.268V137.268C30.3721 135.733 32.694 134.81 35.1307 134.619L44.658 133.872L51.2128 132.598C51.7838 132.487 52.3332 132.285 52.8397 131.999V131.999C54.8684 130.854 55.9369 128.54 55.4925 126.253L54.6439 121.888C54.3628 120.442 53.8082 119.062 53.01 117.824L47.6056 109.438L37.8723 91.9886C36.5563 89.6294 36.3772 86.8017 37.3851 84.2953V84.2953C38.1973 82.2754 39.7184 80.6211 41.6632 79.6426L49.8637 75.5167L73.6815 64.7502C75.6264 63.871 77.0814 62.1747 77.6541 60.1186V60.1186C77.9542 59.0412 77.9994 57.9087 77.786 56.8109L77.6755 56.2427C77.2571 54.0903 76.1187 52.1444 74.4474 50.725L71.6577 48.3558C70.3275 47.2261 69.1502 45.928 68.1555 44.494L65.8509 41.1719C64.4913 39.212 63.694 36.9173 63.5456 34.5367V34.5367C63.3408 31.2537 64.3817 28.0142 66.4604 25.4649L66.7043 25.1658C68.096 23.4591 69.8692 22.1034 71.8811 21.2079L74.3472 20.1102C76.7696 19.0319 79.4094 18.5308 82.0584 18.6462L83.5061 18.7093C86.2513 18.829 88.8845 19.8316 91.0141 21.5681V21.5681C93.3275 23.4545 94.9063 26.0922 95.4759 29.0224L96.6433 35.0282C96.8622 36.1544 97.2341 37.2454 97.7485 38.2709L99.0475 40.8602C100.463 43.6824 103.395 45.4204 106.55 45.3087V45.3087C107.917 45.2603 109.249 44.8656 110.421 44.1617L120.006 38.406L130.422 33.1116Z" fill="white"/>
<path d="M95.2114 107.897L96.3047 108.149C96.4748 108.188 96.5852 108.353 96.5574 108.525C96.4474 109.205 96.281 109.875 96.0599 110.528L95.8149 111.251L95.2243 113.412L94.8887 115.263L94.8449 115.777C94.767 116.691 94.8199 117.612 95.0019 118.511L95.0415 118.707C95.1182 119.085 95.227 119.462 95.3635 119.823C95.5278 120.258 95.7369 120.682 95.9834 121.076C96.272 121.538 96.6131 121.965 96.9998 122.349L97.2002 122.547C97.7233 123.066 98.3051 123.522 98.9337 123.907L99.4367 124.214L99.7343 124.354C100.802 124.858 101.927 125.231 103.085 125.463C103.97 125.641 104.869 125.737 105.771 125.748L106.521 125.758L106.586 125.753C107.97 125.658 109.34 125.412 110.67 125.018L110.936 124.94L113.566 123.893L114.666 123.273C115.551 122.775 116.394 122.207 117.187 121.574L118.585 120.459L120.074 118.94C120.843 118.156 121.541 117.307 122.163 116.403L123.027 115.145L123.902 113.714C124.401 112.898 124.837 112.046 125.207 111.164L125.671 110.06L126.557 107.417L127.567 102.926L128.274 97.5365L128.398 94.6765C128.5 92.3151 127.189 90.1189 125.062 89.0888L116.992 85.1814L114.389 84.1211L112.269 83.356L109.652 82.752L106.539 82.3089L103.802 82.2281L101.829 82.4158L100.994 82.5154C99.9778 82.6365 98.9735 82.8395 97.9903 83.1224L96.8105 83.4619L94.8661 84.2561C93.8651 84.665 92.9008 85.1586 91.9838 85.7316L90.9894 86.353C90.4247 86.7059 89.8871 87.1003 89.381 87.533C88.5933 88.2065 87.8862 88.9691 87.2741 89.8056L86.585 90.7472L85.6187 92.5452L85.2053 93.6547C84.9981 94.2111 84.8384 94.784 84.7281 95.3674C84.5618 96.2464 84.5087 97.1431 84.57 98.0356L84.6251 98.8383C84.7396 99.6492 84.9774 100.449 85.3272 101.19C85.5916 101.749 85.919 102.277 86.3029 102.763L86.4055 102.892C86.8981 103.515 87.4662 104.074 88.0967 104.557L88.8647 105.145L90.7298 106.219L92.8096 107.159L95.2114 107.897Z" fill="#FF50C7"/>
</svg>
