<svg width="301" height="301" viewBox="0 0 301 301" fill="none" xmlns="http://www.w3.org/2000/svg">
<path d="M238.822 160.697C239.947 161.905 240.897 163.264 241.647 164.735L242.142 165.707C242.841 167.079 243.272 168.572 243.412 170.106V170.106C243.702 173.303 242.711 176.485 240.656 178.951L235 185.739L155.866 260.757L150.635 264.762C145.312 268.837 138.118 269.479 132.158 266.41V266.41C130.377 265.493 128.769 264.274 127.404 262.808L115.937 250.487L103.388 235.658C101.589 233.533 100.825 230.719 101.302 227.976V227.976C101.809 225.062 103.659 222.556 106.295 221.213L111.562 218.53C112.549 218.026 113.496 217.447 114.393 216.796L117.683 214.407C119.295 213.237 120.672 211.775 121.743 210.096L122.247 209.307C123.986 206.58 124.68 203.315 124.198 200.116V200.116C123.984 198.694 123.541 197.316 122.888 196.034L121.338 192.992C120.159 190.678 118.404 188.706 116.242 187.268L115.581 186.828C113.628 185.528 111.347 184.81 109.002 184.757V184.757C106.953 184.71 104.925 185.173 103.099 186.103L101.366 186.987C100.059 187.653 98.8289 188.459 97.6977 189.393L97.0063 189.963C94.3145 192.185 92.0573 194.885 90.3489 197.928L88.119 201.9L86.5806 205.633C85.6012 208.009 83.161 209.444 80.6084 209.145V209.145C79.1951 208.979 77.8938 208.294 76.9573 207.222L46.051 171.86C44.0894 169.616 43.3198 166.569 43.9804 163.662V163.662C44.3234 162.153 45.0366 160.753 46.0558 159.589L50.7325 154.247C51.9532 152.852 53.2758 151.551 54.6896 150.352L75.6275 132.605C77.3151 131.175 78.5095 129.249 79.0415 127.102V127.102C79.8863 123.692 78.9756 120.085 76.6132 117.485L75.5073 116.267C74.1347 114.757 72.4399 113.574 70.5484 112.806L61.7211 109.224C58.4813 107.91 55.824 105.471 54.2367 102.356V102.356C52.8831 99.6991 52.3794 96.6904 52.7939 93.7377L52.9556 92.5864C53.4417 89.1239 54.9138 85.8745 57.1961 83.2258L57.9268 82.3778C59.794 80.2109 62.0653 78.4283 64.614 77.1298L65.3891 76.7348C68.4574 75.1714 71.8806 74.4358 75.3204 74.6007L76.83 74.6731C79.5897 74.8054 82.255 75.7192 84.5154 77.308V77.308C86.9217 78.9994 88.7602 81.379 89.7893 84.1344L93.8131 94.908L97.4613 102.068C97.7791 102.692 98.1954 103.26 98.6941 103.751V103.751C100.691 105.718 103.723 106.187 106.221 104.914L110.989 102.484C112.569 101.679 113.981 100.58 115.149 99.2463L123.056 90.2129L140.013 73.1652C142.306 70.8603 145.518 69.7152 148.751 70.0496V70.0496C151.357 70.3192 153.776 71.5301 155.553 73.4552L163.046 81.573L183.401 105.554C185.063 107.512 187.508 108.633 190.077 108.613V108.613C191.422 108.603 192.747 108.28 193.947 107.669L194.567 107.352C196.918 106.154 198.792 104.192 199.879 101.788L201.695 97.7749C202.56 95.8614 203.671 94.0689 205 92.4426L208.079 88.6746C209.895 86.4517 212.285 84.7683 214.99 83.8068V83.8068C218.72 82.481 222.812 82.6105 226.451 84.1696L226.878 84.3525C229.314 85.3963 231.47 86.9979 233.174 89.0281L235.261 91.5168C237.312 93.9614 238.768 96.8488 239.513 99.9516L239.92 101.647C240.692 104.862 240.406 108.241 239.103 111.281V111.281C237.689 114.583 235.161 117.284 231.96 118.915L225.4 122.257C224.17 122.884 223.031 123.676 222.015 124.612L219.451 126.973C216.656 129.547 215.618 133.514 216.794 137.128V137.128C217.303 138.692 218.201 140.102 219.404 141.225L229.242 150.404L238.822 160.697Z" fill="#FF50C7"/>
<path d="M140.628 144.77L140.699 146.118C140.71 146.328 140.556 146.511 140.348 146.535C139.524 146.634 138.694 146.664 137.865 146.624L136.947 146.581L134.253 146.614L131.999 146.84L131.39 146.96C130.307 147.173 129.26 147.54 128.28 148.048L128.067 148.159C127.654 148.373 127.255 148.624 126.882 148.902C126.433 149.236 126.012 149.619 125.638 150.035C125.199 150.522 124.818 151.058 124.503 151.633L124.34 151.93C123.913 152.708 123.579 153.532 123.343 154.387L123.154 155.07L123.09 155.461C122.861 156.864 122.804 158.289 122.918 159.705C123.006 160.787 123.194 161.859 123.48 162.907L123.718 163.778L123.744 163.851C124.313 165.421 125.053 166.924 125.95 168.332L126.129 168.614L128.212 171.309L129.294 172.376C130.163 173.234 131.101 174.021 132.096 174.729L133.85 175.976L136.101 177.194C137.262 177.823 138.476 178.35 139.728 178.769L141.469 179.352L143.415 179.889C144.524 180.195 145.655 180.417 146.798 180.553L148.229 180.723L151.581 180.871L157.111 180.55L163.58 179.58L166.929 178.775C169.695 178.11 171.801 175.865 172.287 173.062L174.13 162.431L174.493 159.068L174.675 156.361L174.506 153.134L173.986 149.386L173.171 146.193L172.3 143.973L171.907 143.04C171.43 141.905 170.862 140.81 170.209 139.767L169.425 138.515L167.861 136.529C167.056 135.506 166.165 134.555 165.198 133.684L164.149 132.74C163.554 132.204 162.919 131.712 162.251 131.271C161.21 130.583 160.094 130.018 158.923 129.587L157.605 129.102L155.205 128.581L153.784 128.471C153.072 128.416 152.356 128.421 151.644 128.487C150.573 128.586 149.518 128.822 148.506 129.189L147.595 129.519C146.695 129.92 145.848 130.461 145.108 131.111C144.548 131.603 144.046 132.156 143.612 132.762L143.496 132.923C142.939 133.7 142.481 134.542 142.131 135.432L141.706 136.515L141.082 139.029L140.685 141.747L140.628 144.77Z" fill="#FFC9E4"/>
</svg>
