<svg width="520" height="579" viewBox="0 0 520 579" fill="none" xmlns="http://www.w3.org/2000/svg">
<g clip-path="url(#clip0_963_167)">
<path d="M546.402 180.28L546.402 194.722C546.402 195.515 545.741 196.167 544.936 196.167L536.3 196.167L510.714 196.167L359.234 196.167L329.686 196.164C328.905 196.163 328.28 195.547 328.28 194.777L328.28 174.488L328.789 148.043L330.546 122.466C330.81 118.626 332.837 115.079 336.05 112.836V112.836C339.295 110.571 343.387 109.888 347.14 110.985L354.736 113.206C356.601 113.751 358.402 114.482 360.111 115.388L363.885 117.387C366.714 118.886 369.888 119.67 373.127 119.67V119.67C378.989 119.67 384.603 117.109 388.458 112.676L389.817 111.113V111.113C396.021 103.062 396.251 92.069 390.384 84.0187L390.112 83.6457C389.339 82.5851 388.476 81.5928 387.53 80.6792L385.512 78.7286C383.451 76.7369 380.924 75.273 378.145 74.4603V74.4603C374.592 73.4216 370.779 73.491 367.221 74.6592L360.437 76.8866L359.358 77.268C351.552 80.0274 342.984 76.8482 339.114 69.756V69.756V69.756C335.682 63.6748 333.882 56.805 333.882 49.7845L333.882 2.81631V2.81631C333.882 -0.7537 336.769 -3.73149 340.389 -3.89481L360.437 -4.7993L405.984 -4.7993C407.371 -4.7993 408.752 -5.03908 410.064 -5.50776V-5.50776C414.737 -7.17651 417.933 -11.5042 418.088 -16.3733L418.159 -18.612C418.232 -20.8953 417.773 -23.1539 416.818 -25.214L411.088 -37.5703C409.152 -41.7467 408.866 -46.5141 410.285 -50.9545V-50.9545C411.499 -54.7516 413.893 -58.0971 417.124 -60.5118L418.574 -61.5954C422.335 -64.4062 426.809 -66.1169 431.471 -66.5265L433.405 -66.6964C437.314 -67.0398 441.238 -66.6555 444.972 -65.5637L446.429 -65.1377C450.902 -63.83 454.943 -61.4208 458.176 -58.1343L459.853 -56.43C462.393 -53.8485 464.121 -50.5927 464.836 -47.0423V-47.0423C465.622 -43.1389 465.145 -39.0656 463.473 -35.392L457.143 -21.4815L453.654 -10.5683C453.512 -10.1256 453.44 -9.66549 453.44 -9.20407V-9.20407C453.44 -6.75676 455.425 -4.79929 457.907 -4.7993L474.82 -4.7993L498.681 -4.7993L533.726 -4.79929L544.996 -4.79928C545.777 -4.79928 546.402 -4.183 546.402 -3.41249L546.402 30.5376L546.402 76.3503C546.402 77.1449 546.127 77.9213 545.623 78.5513V78.5513C544.066 80.4964 544.943 83.3367 547.314 84.0301L549.753 84.743C550.868 85.069 552.068 85.0195 553.167 84.6021L562.415 81.0899C565.157 80.0487 568.015 79.3552 570.92 79.0264L577.673 78.2622C581.633 77.814 585.621 78.4044 589.233 79.9734V79.9734C594.292 82.171 598.307 86.1543 600.506 91.1557L600.608 91.3862C602.075 94.7236 602.701 98.3762 602.433 102.037L602.139 106.056C601.825 110.345 600.47 114.517 598.189 118.22L597.158 119.895C594.72 123.854 591.049 126.943 586.708 128.688V128.688C582.188 130.506 577.205 130.76 572.584 129.409L560.893 125.991C560.128 125.768 559.336 125.645 558.535 125.627L553.781 125.519C549.045 125.412 545.803 130.331 547.862 134.498V134.498C548.37 135.526 548.573 136.679 548.449 137.828L546.402 156.749L546.402 180.28Z" fill="white"/>
<path d="M537.389 565.422C537.289 570.62 536.428 575.792 534.834 580.779V580.779C534.832 580.785 534.831 580.791 534.831 580.798L534.831 588.958C534.831 589.751 534.17 590.403 533.365 590.403L509.245 590.403L357.766 590.403L328.217 590.4C327.436 590.4 326.811 589.783 326.811 589.013L326.811 568.724L327.32 542.279L329.077 516.702C329.341 512.862 331.369 509.315 334.581 507.072V507.072C337.826 504.807 341.918 504.124 345.671 505.221L353.882 507.622C355.34 508.048 356.831 508.364 358.343 508.568L364.109 509.346C366.769 509.705 369.483 509.579 372.118 508.976L373.7 508.614C377.939 507.643 381.706 505.188 384.294 501.71V501.71C385.478 500.119 386.388 498.35 386.987 496.476L388.313 492.328C389.398 488.935 389.555 485.337 388.768 481.903L388.59 481.123C387.866 477.965 386.245 475.092 383.913 472.839V472.839C381.937 470.93 379.515 469.527 376.851 468.748L374.15 467.958C372.201 467.388 370.192 467.024 368.156 466.872L366.937 466.781C362.071 466.417 357.16 466.924 352.441 468.277L346.457 469.993L341.285 472.154C337.993 473.529 334.221 472.666 331.954 470.019V470.019C330.678 468.529 330.011 466.617 330.079 464.647L332.413 397.053V397.053C332.413 393.483 335.301 390.505 338.92 390.341L358.969 389.437L401.219 392.061C404.143 392.242 407.071 391.525 409.602 390.008V390.008C413.809 387.485 416.455 383.036 416.608 378.225L416.671 376.244C416.757 373.553 416.216 370.891 415.09 368.463L409.62 356.666C407.683 352.49 407.397 347.722 408.817 343.282V343.282C410.03 339.485 412.424 336.139 415.655 333.724L417.105 332.641C420.866 329.83 425.34 328.119 430.002 327.71L431.936 327.54C435.845 327.197 439.769 327.581 443.503 328.673L444.96 329.099C449.433 330.406 453.474 332.815 456.708 336.102L458.384 337.806C460.924 340.388 462.652 343.644 463.367 347.194V347.194C464.153 351.097 463.677 355.171 462.005 358.844L455.674 372.755L452.42 382.932C452.123 383.862 451.984 384.83 452.01 385.798V385.798C452.107 389.506 454.579 392.696 458.166 393.745L465.615 395.923C467.936 396.602 470.373 396.85 472.804 396.654L489.513 395.312L521.352 394.7C527.13 394.588 532.818 395.881 537.914 398.463V398.463C537.927 398.47 537.936 398.484 537.936 398.499L537.936 424.033L535.143 465.613C534.904 469.169 536.286 472.611 538.912 474.999V474.999C540.234 476.202 541.821 477.09 543.553 477.596L544.565 477.892C548.091 478.923 551.888 478.766 555.364 477.446L560.947 475.326C563.688 474.285 566.546 473.591 569.452 473.263L576.204 472.498C580.164 472.05 584.153 472.641 587.764 474.21V474.21C592.823 476.407 596.839 480.391 599.038 485.392L599.139 485.623C600.606 488.96 601.232 492.613 600.964 496.273L600.67 500.293C600.356 504.581 599.001 508.753 596.721 512.456L595.689 514.131C593.251 518.09 589.581 521.179 585.24 522.924V522.924C580.719 524.742 575.736 524.997 571.115 523.646L560.947 520.673C559.172 520.154 557.33 519.869 555.469 519.827L550.157 519.707C545.092 519.592 540.365 522.411 538.071 526.916V526.916C537.045 528.929 536.569 531.163 536.69 533.392L537.662 551.223L537.389 565.422Z" fill="#FFC9E4"/>
<path d="M349.57 178.251L349.57 192.692C349.57 193.486 348.909 194.138 348.104 194.138L339.468 194.138L313.882 194.138L162.402 194.138L132.854 194.134C132.073 194.134 131.448 193.518 131.448 192.747L131.448 172.458L131.957 146.013L133.714 120.437C133.978 116.596 136.005 113.049 139.218 110.806V110.806C142.463 108.541 146.555 107.858 150.308 108.955L157.904 111.176C159.769 111.722 161.57 112.453 163.279 113.358L167.053 115.358C169.882 116.857 173.056 117.641 176.295 117.641V117.641C182.157 117.641 187.77 115.08 191.626 110.647L192.985 109.084V109.084C199.189 101.033 199.419 90.0397 193.552 81.9894L193.28 81.6163C192.507 80.5558 191.644 79.5635 190.698 78.6499L188.68 76.6993C186.619 74.7075 184.092 73.2437 181.313 72.431V72.431C177.76 71.3923 173.947 71.4617 170.389 72.6299L163.605 74.8573L162.526 75.2387C154.72 77.9981 146.152 74.8189 142.282 67.7266V67.7266V67.7266C138.85 61.6455 137.05 54.7757 137.05 47.7552L137.05 0.787006V0.787006C137.05 -2.783 139.937 -5.7608 143.557 -5.92411L163.605 -6.8286L209.152 -6.82861C210.539 -6.82861 211.92 -7.06839 213.232 -7.53707V-7.53707C217.905 -9.20582 221.101 -13.5335 221.256 -18.4026L221.327 -20.6413C221.4 -22.9247 220.941 -25.1832 219.986 -27.2433L214.256 -39.5996C212.32 -43.776 212.034 -48.5434 213.453 -52.9838V-52.9838C214.667 -56.7809 217.061 -60.1265 220.292 -62.5411L221.742 -63.6247C225.503 -66.4355 229.977 -68.1462 234.639 -68.5558L236.573 -68.7257C240.482 -69.0691 244.406 -68.6848 248.14 -67.593L249.597 -67.167C254.07 -65.8593 258.111 -63.4501 261.344 -60.1636L263.021 -58.4593C265.561 -55.8778 267.289 -52.622 268.004 -49.0716V-49.0716C268.79 -45.1682 268.313 -41.0949 266.641 -37.4213L260.311 -23.5108L256.822 -12.5977C256.68 -12.1549 256.608 -11.6948 256.608 -11.2334V-11.2334C256.608 -8.78607 258.593 -6.8286 261.075 -6.8286L277.988 -6.8286L301.849 -6.82861L336.894 -6.8286L348.164 -6.82859C348.945 -6.82859 349.57 -6.2123 349.57 -5.4418L349.57 28.5083L349.57 59.2024C349.57 59.8049 349.629 60.4047 349.747 60.9935V60.9935C350.841 66.4638 356.568 69.6536 361.962 67.7974L368.013 65.7151C369.631 65.1587 371.326 64.8744 373.028 64.8744L383.422 64.8744C389.764 64.8744 395.771 67.4503 400.032 71.9963V71.9963C403.878 76.1007 406.009 81.5015 406.009 87.1478L406.009 94.4362L405.307 104.027C404.993 108.315 403.638 112.487 401.357 116.191L400.326 117.866C397.888 121.825 394.217 124.913 389.876 126.659V126.659C385.356 128.477 380.373 128.731 375.752 127.38L364.484 124.086C363.44 123.78 362.353 123.625 361.258 123.625V123.625C354.842 123.625 349.57 128.824 349.57 135.151L349.57 137.231L349.57 154.72L349.57 178.251Z" fill="#FF50C7"/>
<path d="M313.043 183.241L328.249 183.241C329.031 183.241 329.656 183.857 329.656 184.628L329.656 192.902L329.656 217.37L329.656 362.231L329.652 390.387C329.652 391.18 328.991 391.832 328.186 391.832L306.986 391.833L279.333 391.346L252.094 389.634C248.366 389.4 244.953 387.594 242.726 384.676V384.676C240.237 381.415 239.512 377.142 240.776 373.188L242.883 366.596C243.467 364.77 244.248 363.009 245.214 361.342L247.164 357.977C248.801 355.151 249.664 351.964 249.664 348.738V348.738C249.664 343.268 247.189 338.133 242.914 334.732L240.716 332.984L240.43 332.783C232.084 326.901 220.802 326.831 212.136 332.607V332.607C210.932 333.409 209.799 334.312 208.75 335.305L206.808 337.142C204.758 339.082 203.235 341.498 202.384 344.159V344.159C201.304 347.538 201.36 351.15 202.544 354.449L204.925 361.08L205.272 361.977C208.134 369.383 204.751 377.838 197.469 381.472V381.472V381.472C191.103 384.758 184.052 386.475 176.928 386.475L130.32 386.475C128.644 386.475 127.157 387.597 126.71 389.199V389.199C125.57 393.28 119.507 392.592 119.507 388.381L119.507 361.08L119.507 317.737C119.507 316.271 119.235 314.822 118.704 313.463V313.463C116.979 309.046 112.75 306.104 107.922 305.963L105.111 305.882C102.69 305.811 100.27 306.268 98.0263 307.219L85.4727 312.543C80.9388 314.466 75.8971 314.771 71.2273 313.406V313.406C67.2557 312.244 63.7511 309.932 61.1632 306.765L60.2988 305.708C57.242 301.967 55.3687 297.411 54.9055 292.589L54.799 291.481C54.429 287.629 54.8511 283.727 56.0401 280.008L56.2981 279.201C57.7369 274.7 60.3698 270.64 63.9206 267.445L65.1997 266.294C68.1068 263.678 71.6898 261.914 75.5326 261.207V261.207C79.4973 260.477 83.568 260.903 87.2427 262.432L102.063 268.6L113.543 271.957C113.961 272.079 114.395 272.141 114.833 272.141V272.141C117.399 272.141 119.507 270.062 119.507 267.532L119.507 251.695L119.507 228.877L119.507 195.363L119.507 184.687C119.507 183.893 120.168 183.241 120.973 183.241L156.458 183.241L204.557 183.241C205.279 183.241 205.998 183.118 206.682 182.877L206.843 182.82C209.657 181.829 211.37 178.989 210.89 176.111V176.111L207.681 163.979L206.369 153.38C205.898 149.574 206.533 145.693 208.199 142.184V142.184C210.461 137.422 214.473 133.661 219.407 131.677L220.359 131.295C223.674 129.962 227.24 129.391 230.782 129.629L235.592 129.951C239.977 130.244 244.219 131.504 248.007 133.637L250.301 134.93C254.186 137.118 257.24 140.481 259.023 144.535V144.535C260.968 148.958 261.283 153.941 259.916 158.636L256.711 169.64C256.425 170.621 256.28 171.634 256.28 172.65L256.28 174.325C256.28 179.279 260.298 183.241 265.322 183.241V183.241L288.437 183.241L313.043 183.241Z" fill="#FFC9E4"/>
<path d="M523.295 192.401L538.501 192.401C539.283 192.401 539.908 193.017 539.908 193.787L539.908 202.061L539.908 226.529L539.908 371.39L539.904 399.547C539.904 400.34 539.243 400.992 538.438 400.992L517.238 400.992L489.584 400.505L462.345 398.794C458.618 398.559 455.205 396.753 452.978 393.835V393.835C450.489 390.575 449.764 386.302 451.028 382.348L453.135 375.755C453.719 373.93 454.5 372.169 455.466 370.502L457.416 367.137C459.053 364.31 459.916 361.124 459.916 357.898V357.898C459.916 352.427 457.441 347.292 453.166 343.892L450.968 342.143L450.682 341.942C442.336 336.061 431.054 335.991 422.388 341.766V341.766C421.184 342.569 420.051 343.471 419.002 344.464L416.909 346.445C414.958 348.291 413.508 350.59 412.699 353.122V353.122C411.583 356.612 411.744 360.353 413.153 363.686L415.923 370.24L416.6 372.273C418.919 379.233 415.943 386.943 409.466 390.756V390.756C408.8 391.148 408.108 391.492 407.393 391.786L405.691 392.485C400.633 394.564 395.226 395.635 389.786 395.635L338.295 395.635C337.914 395.635 337.533 395.668 337.157 395.735V395.735C333.274 396.425 329.759 393.539 329.759 389.663L329.759 370.24L329.759 326.897C329.759 325.43 329.487 323.982 328.956 322.622V322.622C327.231 318.205 323.002 315.264 318.174 315.123L315.363 315.041C312.941 314.971 310.522 315.427 308.278 316.379L295.725 321.703C291.191 323.625 286.149 323.931 281.479 322.565V322.565C277.508 321.404 274.003 319.092 271.415 315.925L270.551 314.867C267.494 311.127 265.621 306.57 265.157 301.749L265.051 300.64C264.681 296.788 265.103 292.887 266.292 289.167L266.55 288.361C267.989 283.86 270.622 279.799 274.173 276.604L275.452 275.453C278.359 272.838 281.942 271.074 285.785 270.366V270.366C289.749 269.636 293.82 270.062 297.495 271.592L312.314 277.76L323.795 281.117C324.213 281.239 324.647 281.301 325.085 281.301V281.301C327.651 281.301 329.759 279.222 329.759 276.692L329.759 260.855L329.759 238.037L329.759 204.523L329.759 193.846C329.759 193.053 330.42 192.401 331.225 192.401L366.71 192.401L415.9 192.401V192.401C419.234 192.401 421.974 189.699 421.974 186.411L421.974 184.788C421.974 183.872 421.803 182.967 421.469 182.119L419.549 177.243C418.475 174.517 417.75 171.664 417.389 168.748L416.798 163.967C416.211 159.229 417.001 154.396 419.076 150.028L419.319 149.517C421.06 145.853 423.724 142.677 427.054 140.3V140.3C431.66 137.01 437.276 135.434 442.882 135.857L446.902 136.161C451.785 136.529 456.457 138.159 460.45 140.887L462.375 142.201C466.776 145.207 469.856 149.737 471.02 154.918V154.918C471.847 158.598 471.671 162.448 470.51 166.08L466.618 178.254C466.323 179.175 466.173 180.133 466.173 181.093V181.093C466.173 186.187 470.305 190.261 475.471 190.261L477.065 190.261L498.689 192.401L523.295 192.401Z" fill="#FF50C7"/>
<path d="M136.181 165.469C136.181 176.107 137.202 186.701 139.229 197.108V197.108C139.253 197.232 139.155 197.348 139.027 197.348L129.174 197.348L103.588 197.348L-47.8918 197.348L-77.4399 197.345C-78.2212 197.345 -78.846 196.728 -78.8461 195.958L-78.8463 175.669L-78.3373 149.224L-76.5799 123.647C-76.316 119.807 -74.2888 116.26 -71.0759 114.017V114.017C-67.8314 111.752 -63.7392 111.069 -59.9864 112.166L-49.585 115.207L-36.2868 117.28C-35.0571 117.471 -33.812 117.568 -32.5631 117.568L-30.9223 117.568C-26.912 117.568 -22.9788 116.312 -19.6895 113.981V113.981C-18.1116 112.864 -16.7076 111.514 -15.5319 109.989V109.989C-10.3935 103.32 -10.1876 94.1941 -15.047 87.526L-17.0139 84.827C-17.7868 83.7665 -18.6505 82.7741 -19.5958 81.8606L-21.6143 79.9099C-23.6753 77.9182 -26.202 76.4543 -28.9815 75.6417V75.6417C-32.5342 74.603 -36.3473 74.6724 -39.905 75.8405L-46.6887 78.0679L-47.7679 78.4494C-55.5741 81.2087 -64.1418 78.0296 -68.0125 70.9373V70.9373V70.9373C-71.4446 64.8562 -73.2442 57.9863 -73.2442 50.9658L-73.2442 4.89856C-73.2442 4.30034 -73.3209 3.70608 -73.4724 3.1299V3.1299C-74.7537 -1.74316 -70.576 -6.43988 -65.4942 -5.83953L-46.6888 -3.61799L-1.14173 -3.61796C0.244813 -3.61796 1.62566 -3.85774 2.93808 -4.32642V-4.32642C7.61102 -5.99516 10.8069 -10.3228 10.962 -15.1919L11.0333 -17.4307C11.1061 -19.714 10.6472 -21.9725 9.69186 -24.0327L3.96224 -36.389C2.02566 -40.5653 1.73962 -45.3327 3.15921 -49.7731V-49.7731C4.37315 -53.5702 6.76708 -56.9158 9.99798 -59.3305L11.4478 -60.414C15.2089 -63.2249 19.6831 -64.9356 24.3451 -65.3451L26.2787 -65.515C30.1874 -65.8584 34.1115 -65.4742 37.8459 -64.3823L39.3029 -63.9563C43.7756 -62.6486 47.8167 -60.2394 51.0502 -56.9529L52.727 -55.2487C55.2669 -52.6671 56.995 -49.4113 57.7097 -45.861V-45.861C58.4955 -41.9575 58.0192 -37.8842 56.3473 -34.2106L50.0166 -20.3001L46.5276 -9.38697C46.3861 -8.94427 46.314 -8.48412 46.314 -8.0227V-8.0227C46.314 -5.57539 48.2991 -3.61792 50.7808 -3.61793L67.6943 -3.61794L91.5548 -3.61793L126.6 -3.61793L140.106 -3.61793C140.888 -3.61793 141.513 -3.00164 141.513 -2.23113L141.513 33.1456L141.513 57.5721C141.513 58.3996 141.588 59.2239 141.737 60.0352V60.0352C143.141 67.6828 150.673 72.5654 158.426 70.8535L161.274 70.2248L164.303 69.2303C171.873 66.7453 180.073 67.3194 187.087 70.8254V70.8254C194.933 74.7478 200.526 81.9517 202.342 90.4765L202.865 92.9315C204.437 100.307 203.08 108.054 199.073 114.591L198.934 114.817C197.186 117.669 194.949 120.207 192.327 122.315V122.315C188.362 125.5 183.633 127.609 178.623 128.426L178.433 128.457C173.109 129.325 167.676 128.736 162.728 126.756L152.461 122.647C149.301 121.382 145.708 121.564 142.636 123.144V123.144C138.68 125.178 136.181 129.218 136.181 133.581L136.181 137.966L136.181 158.644L136.181 165.469Z" fill="#FFC9E4"/>
<path d="M108.711 186.45L123.917 186.45C124.699 186.45 125.324 187.066 125.324 187.837L125.324 196.111L125.324 220.579L125.324 365.44L125.32 393.596C125.32 394.389 124.659 395.041 123.854 395.041L102.654 395.042L75.0006 394.555L47.7615 392.843C44.0338 392.609 40.6214 390.803 38.394 387.885V387.885C35.9051 384.624 35.1797 380.351 36.4438 376.397L38.5515 369.805C39.135 367.979 39.9164 366.218 40.8821 364.551L42.8319 361.186C44.4694 358.36 45.3316 355.173 45.3316 351.947V351.947C45.3316 346.477 42.857 341.342 38.582 337.941L36.3839 336.193L36.0984 335.992C27.7519 330.11 16.4697 330.04 7.80386 335.816V335.816C6.59999 336.618 5.46706 337.521 4.41789 338.514L2.47619 340.351C0.425847 342.291 -1.0972 344.707 -1.94781 347.367V347.367C-3.0283 350.747 -2.97205 354.359 -1.78754 357.658L0.593129 364.289L0.939652 365.186C3.80246 372.592 0.418599 381.047 -6.86329 384.681V384.681V384.681C-13.285 387.995 -20.1775 390.297 -27.2847 391.5L-72.9461 399.229C-74.5014 399.493 -75.8105 400.557 -76.3741 402.016V402.016C-78.1106 406.513 -84.8251 405.423 -84.8251 400.645L-84.8251 364.289L-84.8251 320.946C-84.8251 319.48 -85.0972 318.031 -85.6279 316.672V316.672C-87.3528 312.255 -91.5821 309.313 -96.4103 309.172L-99.2206 309.09C-101.643 309.02 -104.062 309.477 -106.306 310.428L-118.859 315.752C-123.393 317.675 -128.435 317.98 -133.105 316.615V316.615C-137.076 315.453 -140.581 313.141 -143.169 309.974L-144.033 308.917C-147.09 305.176 -148.963 300.62 -149.427 295.798L-149.533 294.69C-149.903 290.838 -149.481 286.936 -148.292 283.217L-148.034 282.41C-146.595 277.909 -143.962 273.849 -140.411 270.654L-139.132 269.503C-136.225 266.887 -132.642 265.123 -128.799 264.416V264.416C-124.835 263.686 -120.764 264.112 -117.089 265.641L-102.27 271.809L-90.7887 275.166C-90.3712 275.288 -89.9368 275.35 -89.4988 275.35V275.35C-86.9334 275.35 -84.8251 273.271 -84.8251 270.741L-84.8251 254.904L-84.8251 232.086L-84.8251 198.572L-84.8251 187.896C-84.8251 187.102 -84.1638 186.45 -83.3593 186.45L-47.8736 186.45L1.31607 186.45L4.06838 186.45C6.06654 186.45 7.88068 185.227 8.62056 183.382V183.382C9.07859 182.239 9.07446 180.975 8.60905 179.855L4.83639 170.77C3.84887 168.392 3.18791 165.889 2.87075 163.326L2.03702 156.589C1.56603 152.783 2.20064 148.902 3.86738 145.393V145.393C6.12931 140.631 10.1414 136.87 15.0753 134.886L16.0268 134.504C19.3423 133.171 22.9084 132.6 26.4498 132.838L31.2604 133.16C35.645 133.453 39.8869 134.713 43.6748 136.846L45.4864 137.867C49.6853 140.232 52.986 143.867 54.9121 148.247L55.2166 148.94C56.8341 152.619 57.2867 156.714 56.5161 160.697L53.9293 174.069C52.8934 179.424 56.974 184.311 62.4814 184.311V184.311L84.105 186.45L108.711 186.45Z" fill="white"/>
<path d="M329.363 571.268L329.363 579.141L329.363 586.965C329.363 587.759 328.702 588.411 327.897 588.411L301.37 588.411L206.559 588.411L148.202 588.395L126.296 588.393C112.794 588.392 105.891 572.724 114.967 562.68V562.68C117.526 559.847 118.976 556.217 119.048 552.461L119.445 531.841L121.203 506.264C121.467 502.424 123.494 498.877 126.707 496.634V496.634C129.951 494.369 134.044 493.686 137.796 494.783L146.007 497.184C147.465 497.61 148.957 497.926 150.468 498.13L156.234 498.908C158.894 499.267 161.608 499.141 164.243 498.538L165.825 498.176C170.064 497.205 173.831 494.75 176.42 491.272V491.272C177.603 489.681 178.513 487.912 179.113 486.038L180.439 481.89C181.523 478.497 181.68 474.899 180.894 471.465L180.715 470.685C179.992 467.527 178.37 464.654 176.038 462.401V462.401C174.063 460.492 171.641 459.089 168.976 458.31L166.275 457.52C164.326 456.95 162.317 456.586 160.282 456.434L159.063 456.343C154.197 455.979 149.286 456.486 144.566 457.839L138.583 459.555L133.362 461.736C130.099 463.099 126.359 462.244 124.113 459.62V459.62C122.818 458.108 122.156 456.158 122.26 454.158L125.491 392.032C125.702 387.97 127.927 384.229 131.44 382.031V382.031C133.19 380.936 135.177 380.278 137.226 380.113L148.177 379.233C150.119 379.077 152.067 379.059 154.006 379.18L191.03 381.479C194.694 381.706 197.838 378.791 197.838 375.165V375.165C197.838 374.329 198.01 373.498 198.343 372.722L199.862 369.182C201.786 364.703 202.355 359.794 201.5 355.057L199.75 345.355C199.084 341.667 199.339 337.857 200.492 334.25V334.25C201.998 329.539 204.969 325.388 208.977 322.392L209.231 322.203C212.992 319.392 217.466 317.681 222.128 317.272L224.061 317.102C227.97 316.758 231.894 317.143 235.629 318.235L237.086 318.661C241.558 319.968 245.599 322.377 248.833 325.664L250.51 327.368C253.05 329.95 254.778 333.206 255.492 336.756V336.756C256.278 340.659 255.802 344.733 254.13 348.406L247.799 362.317L244.546 372.494C244.248 373.423 244.11 374.392 244.135 375.36V375.36C244.232 379.068 246.704 382.258 250.292 383.307L257.74 385.485C260.061 386.164 262.498 386.412 264.929 386.216L281.639 384.874L330.509 387.744C333.359 387.912 335.555 390.213 335.555 393.032V393.032L335.555 413.711L333.046 461.376V461.376C333.046 464.361 335.007 466.962 337.892 467.806L339.244 468.201C341.114 468.748 343.129 468.664 344.973 467.964L353.072 464.888C355.814 463.847 358.672 463.153 361.577 462.825L368.33 462.06C372.29 461.612 376.278 462.203 379.89 463.772V463.772C384.948 465.969 388.964 469.953 391.163 474.954L391.264 475.185C392.732 478.522 393.358 482.175 393.09 485.835L392.795 489.855C392.481 494.143 391.127 498.315 388.846 502.018L387.815 503.693C385.376 507.652 381.706 510.741 377.365 512.486V512.486C372.844 514.304 367.861 514.559 363.24 513.208L352.684 510.121C351.167 509.678 349.592 509.435 348.002 509.399L342.588 509.276C337.514 509.161 332.935 512.454 331.464 517.277V517.277C331.21 518.11 331.056 518.968 331.006 519.832L329.787 540.785L329.363 571.268Z" fill="white"/>
<path d="M463.474 64.0087L461.752 64.4063C461.484 64.4682 461.214 64.3117 461.134 64.0486C460.82 63.0092 460.593 61.9455 460.455 60.8685L460.303 59.6752L459.647 56.2082L458.843 53.3543L458.55 52.5962C458.029 51.2482 457.319 49.9814 456.44 48.834L456.249 48.584C455.879 48.1008 455.465 47.6428 455.022 47.2254C454.489 46.7228 453.9 46.2674 453.279 45.8791C452.551 45.4244 451.773 45.0553 450.961 44.7794L450.54 44.6364C449.441 44.2631 448.302 44.019 447.146 43.9091L446.222 43.8211L445.703 43.8278C443.843 43.8517 441.993 44.1014 440.193 44.5715C438.817 44.9307 437.478 45.4168 436.192 46.0235L435.123 46.5282L435.035 46.5787C433.141 47.6694 431.371 48.9645 429.759 50.4407L429.437 50.7356L426.435 54.0338L425.305 55.6712C424.397 56.9877 423.596 58.3749 422.91 59.8194L421.7 62.3636L420.641 65.5432C420.094 67.1835 419.691 68.8681 419.435 70.5781L419.08 72.9552L418.83 75.5857C418.687 77.0856 418.658 78.5941 418.742 80.0983L418.848 81.9822L419.42 86.3371L421.091 93.3943L423.812 101.514L425.612 105.649C427.098 109.063 430.471 111.268 434.195 111.257L448.321 111.217L452.739 110.92L456.27 110.539L460.392 109.588L465.106 108.065L469.038 106.289L471.702 104.661L472.816 103.943C474.171 103.07 475.453 102.089 476.649 101.009L478.086 99.7135L480.29 97.2461C481.425 95.9757 482.45 94.6107 483.353 93.166L484.332 91.5993C484.888 90.7097 485.376 89.7799 485.794 88.8177C486.445 87.3198 486.919 85.7516 487.208 84.1445L487.534 82.3352L487.66 79.1218L487.479 77.2652C487.388 76.3342 487.219 75.4126 486.972 74.5103C486.6 73.1508 486.056 71.8444 485.353 70.623L484.721 69.5243C483.999 68.4552 483.109 67.4863 482.103 66.6794C481.342 66.0696 480.514 65.5485 479.635 65.1262L479.4 65.0134C478.272 64.4716 477.081 64.072 475.855 63.8238L474.361 63.5214L470.979 63.2892L467.385 63.3952L463.474 64.0087Z" fill="#FFC9E4"/>
<path d="M60.9574 53.5957L59.3183 54.2579C59.0634 54.3609 58.7722 54.2486 58.6525 54.0011C58.1797 53.0237 57.789 52.0086 57.4845 50.9664L57.147 49.8117L55.9571 46.49L54.7169 43.7969L54.3089 43.094C53.5835 41.8441 52.6836 40.704 51.6362 39.7082L51.408 39.4912C50.967 39.0719 50.4862 38.6843 49.9836 38.3413C49.3783 37.9283 48.7257 37.5706 48.0512 37.2842C47.2614 36.949 46.4354 36.7062 45.5897 36.5607L45.1516 36.4854C44.0076 36.2886 42.8446 36.2257 41.6861 36.2979L40.7592 36.3556L40.2483 36.4433C38.4147 36.7578 36.6261 37.294 34.9218 38.0398C33.6195 38.6098 32.3729 39.2994 31.198 40.0998L30.2209 40.7655L30.142 40.8292C28.4413 42.2028 26.8963 43.7587 25.5347 45.469L25.2627 45.8107L22.814 49.5379L21.9543 51.3318C21.2632 52.7741 20.6889 54.2696 20.2368 55.8037L19.4406 58.5057L18.8916 61.8119C18.6083 63.5175 18.4734 65.2445 18.4885 66.9735L18.5094 69.3769L18.6737 72.0141C18.7674 73.5179 18.9745 75.0123 19.2934 76.4848L19.6927 78.329L20.9381 82.5409L23.6929 89.2498L27.6505 96.8434L30.0749 100.646C32.0767 103.786 35.7537 105.436 39.43 104.843L53.3756 102.593L57.6932 101.609L61.1206 100.681L65.0432 99.0958L69.4612 96.8545L73.0669 94.4851L75.443 92.4604L76.4311 91.5769C77.6327 90.5027 78.7454 89.3331 79.7585 88.0796L80.9743 86.5752L82.766 83.7932C83.6884 82.361 84.4868 80.8525 85.1524 79.2844L85.8743 77.5838C86.2842 76.6182 86.6215 75.6234 86.8837 74.6077C87.2917 73.0265 87.515 71.4034 87.5491 69.7708L87.5876 67.9328L87.2099 64.7392L86.7407 62.9338C86.5054 62.0285 86.1937 61.1447 85.8089 60.2921C85.2291 59.0075 84.4874 57.8023 83.6018 56.7059L82.8053 55.7197C81.9248 54.7767 80.8948 53.9588 79.7742 53.3194C78.9273 52.8361 78.028 52.451 77.0938 52.1714L76.8442 52.0967C75.6456 51.738 74.407 51.5296 73.1571 51.4763L71.6344 51.4113L68.2572 51.7111L64.7242 52.378L60.9574 53.5957Z" fill="white"/>
<path d="M127.126 561.508L127.126 569.381L127.126 589.327C127.126 590.121 126.465 590.773 125.66 590.773L100.51 590.773L2.83058 590.774L-56.0788 590.778L-82.9046 590.777C-102.973 590.776 -110 564.884 -92.7937 554.342V554.342C-86.8872 550.723 -83.2215 544.4 -83.0907 537.606L-82.7919 522.081L-81.0344 496.504C-80.7706 492.664 -78.7433 489.117 -75.5305 486.874V486.874C-72.286 484.609 -68.1938 483.926 -64.441 485.023L-56.2302 487.424C-54.7718 487.85 -53.2806 488.166 -51.7693 488.37L-46.0028 489.148C-43.3429 489.507 -40.6288 489.381 -37.9944 488.778L-36.4123 488.416C-32.1731 487.445 -28.4062 484.99 -25.8177 481.512V481.512C-24.6341 479.921 -23.724 478.152 -23.1248 476.278L-21.7986 472.13C-20.7138 468.737 -20.5568 465.139 -21.3436 461.705L-21.5222 460.925C-22.2458 457.767 -23.8674 454.894 -26.1988 452.641V452.641C-28.1744 450.732 -30.5965 449.329 -33.2609 448.55L-35.9623 447.76C-37.9113 447.19 -39.9201 446.826 -41.9554 446.674L-43.1746 446.583C-48.0407 446.219 -52.9517 446.726 -57.6714 448.079L-63.6546 449.795L-68.7288 451.915C-72.0794 453.315 -75.9187 452.436 -78.2253 449.742V449.742C-79.4618 448.298 -80.1385 446.463 -80.1385 444.554L-80.1385 404.751C-80.1385 402.361 -79.4132 400.011 -78.0558 398.004V398.004C-75.7475 394.589 -71.8642 392.527 -67.743 392.527L-50.5338 392.527L-18.3814 388.552C-9.97697 387.513 -3.00799 381.438 -0.91227 373.324V373.324C0.0566977 369.573 -0.0925591 365.647 -1.34196 362.023L-1.63997 361.158L-2.24211 359.281C-3.64073 354.921 -3.53007 350.197 -1.9273 345.843V345.843C-0.307302 341.443 2.74483 337.672 6.74531 335.127L7.39972 334.71C10.2863 332.874 13.531 331.672 16.908 331.188L19.1877 330.861C24.0709 330.16 29.0847 331.003 33.4184 333.213V333.213C36.3309 334.699 38.9153 336.81 40.9183 339.363L42.2721 341.09C45.1846 344.803 46.4305 349.55 45.7276 354.255V354.255C45.4676 355.995 44.9462 357.693 44.1805 359.292L43.9965 359.676C42.5917 362.609 41.9033 365.814 41.9876 369.029L42.0017 369.568C42.0405 371.049 42.2269 372.521 42.5578 373.96V373.96C45.025 384.691 54.9955 391.969 66.1927 391.205L78.1434 390.388L126.81 390.388C130.426 390.388 133.318 393.24 133.318 396.806V396.806L133.318 403.951L130.809 451.616L130.809 454.482C130.809 455.766 131.636 456.891 132.868 457.282V457.282C133.166 457.377 133.478 457.425 133.793 457.425L144.498 457.425C146.93 457.425 149.359 457.123 151.727 456.525L158.342 454.855C166.067 452.906 174.112 455.846 178.551 462.241V462.241C180.681 465.309 181.819 468.954 181.819 472.708L181.819 479.109L181.82 482.82C181.82 486.25 180.86 489.634 179.045 492.598V492.598C177.419 495.251 175.161 497.481 172.473 499.088L172.101 499.31C167.326 502.163 161.628 503.026 156.288 501.705L150.15 500.185C148.828 499.858 147.47 499.677 146.101 499.646L140.35 499.516C135.276 499.401 130.698 502.694 129.227 507.517V507.517C128.972 508.35 128.819 509.208 128.768 510.072L127.55 531.025L127.126 561.508Z" fill="#FF50C7"/>
<path d="M213.711 248.058L213.434 249.804C213.391 250.076 213.145 250.267 212.871 250.243C211.79 250.144 210.719 249.957 209.669 249.681L208.505 249.375L205.045 248.685L202.098 248.361L201.285 248.348C199.84 248.326 198.399 248.511 197.006 248.895L196.703 248.979C196.116 249.141 195.536 249.354 194.983 249.608C194.318 249.914 193.675 250.289 193.082 250.72C192.388 251.224 191.754 251.807 191.194 252.457L190.904 252.794C190.146 253.673 189.493 254.638 188.958 255.668L188.531 256.492L188.342 256.975C187.668 258.709 187.206 260.518 186.968 262.363C186.786 263.773 186.735 265.197 186.816 266.616L186.883 267.796L186.897 267.897C187.198 270.062 187.736 272.188 188.501 274.236L188.654 274.645L190.587 278.664L191.682 280.324C192.563 281.66 193.549 282.922 194.631 284.1L196.537 286.174L199.088 288.347C200.404 289.469 201.815 290.474 203.305 291.351L205.376 292.571L207.721 293.789C209.058 294.483 210.446 295.075 211.872 295.56L213.659 296.168L217.91 297.269L225.08 298.363L233.627 298.882L238.136 298.762C241.858 298.664 245.166 296.362 246.551 292.905L251.805 279.792L253.185 275.585L254.155 272.169L254.817 267.99L255.171 263.049L254.997 258.738L254.485 255.658L254.237 254.356C253.935 252.773 253.505 251.217 252.953 249.703L252.289 247.886L250.828 244.917C250.075 243.389 249.193 241.928 248.192 240.55L247.106 239.055C246.489 238.206 245.81 237.405 245.075 236.657C243.93 235.493 242.653 234.465 241.271 233.595L239.716 232.616L236.784 231.295L234.995 230.767C234.097 230.502 233.179 230.315 232.25 230.205C230.851 230.041 229.436 230.056 228.04 230.25L226.784 230.425C225.522 230.694 224.291 231.155 223.166 231.787C222.315 232.264 221.522 232.836 220.801 233.493L220.608 233.669C219.684 234.511 218.867 235.465 218.178 236.509L217.338 237.781L215.855 240.83L214.607 244.202L213.711 248.058Z" fill="#FF50C7"/>
</g>
<defs>
<clipPath id="clip0_963_167">
<rect width="520" height="579" fill="white"/>
</clipPath>
</defs>
</svg>
