<svg width="1560" height="579" viewBox="0 0 1560 579" fill="none" xmlns="http://www.w3.org/2000/svg">
<g clip-path="url(#clip0_959_166)">
<path d="M546.402 180.28L546.402 194.722C546.402 195.515 545.741 196.167 544.936 196.167L536.3 196.167L510.714 196.167L359.234 196.167L329.686 196.164C328.905 196.163 328.28 195.547 328.28 194.777L328.28 174.488L328.789 148.043L330.546 122.466C330.81 118.626 332.837 115.079 336.05 112.836V112.836C339.295 110.571 343.387 109.888 347.14 110.985L354.736 113.206C356.601 113.751 358.402 114.482 360.111 115.388L363.885 117.387C366.714 118.886 369.888 119.67 373.127 119.67V119.67C378.989 119.67 384.603 117.109 388.458 112.676L389.817 111.113V111.113C396.021 103.062 396.251 92.069 390.384 84.0187L390.112 83.6457C389.339 82.5851 388.476 81.5928 387.53 80.6792L385.512 78.7286C383.451 76.7369 380.924 75.273 378.145 74.4603V74.4603C374.592 73.4216 370.779 73.491 367.221 74.6592L360.437 76.8866L359.358 77.268C351.552 80.0274 342.984 76.8482 339.114 69.756V69.756V69.756C335.682 63.6748 333.882 56.805 333.882 49.7845L333.882 2.81631V2.81631C333.882 -0.7537 336.769 -3.73149 340.389 -3.89481L360.437 -4.7993L405.984 -4.7993C407.371 -4.7993 408.752 -5.03908 410.064 -5.50776V-5.50776C414.737 -7.17651 417.933 -11.5042 418.088 -16.3733L418.159 -18.612C418.232 -20.8953 417.773 -23.1539 416.818 -25.214L411.088 -37.5703C409.152 -41.7467 408.866 -46.5141 410.285 -50.9545V-50.9545C411.499 -54.7516 413.893 -58.0971 417.124 -60.5118L418.574 -61.5954C422.335 -64.4062 426.809 -66.1169 431.471 -66.5265L433.405 -66.6964C437.314 -67.0398 441.238 -66.6555 444.972 -65.5637L446.429 -65.1377C450.902 -63.83 454.943 -61.4208 458.176 -58.1343L459.853 -56.43C462.393 -53.8485 464.121 -50.5927 464.836 -47.0423V-47.0423C465.622 -43.1389 465.145 -39.0656 463.473 -35.392L457.143 -21.4815L453.654 -10.5683C453.512 -10.1256 453.44 -9.66549 453.44 -9.20407V-9.20407C453.44 -6.75676 455.425 -4.79929 457.907 -4.7993L474.82 -4.7993L498.681 -4.7993L533.726 -4.79929L544.996 -4.79928C545.777 -4.79928 546.402 -4.183 546.402 -3.41249L546.402 30.5376L546.402 76.3503C546.402 77.1449 546.127 77.9213 545.623 78.5513V78.5513C544.066 80.4964 544.943 83.3367 547.314 84.0301L549.753 84.743C550.868 85.069 552.068 85.0195 553.167 84.6021L562.415 81.0899C565.157 80.0487 568.015 79.3552 570.92 79.0264L577.673 78.2622C581.633 77.814 585.621 78.4044 589.233 79.9734V79.9734C594.292 82.171 598.307 86.1543 600.506 91.1557L600.608 91.3862C602.075 94.7236 602.701 98.3762 602.433 102.037L602.139 106.056C601.825 110.345 600.47 114.517 598.189 118.22L597.158 119.895C594.72 123.854 591.049 126.943 586.708 128.688V128.688C582.188 130.506 577.205 130.76 572.584 129.409L560.893 125.991C560.128 125.768 559.336 125.645 558.535 125.627L553.781 125.519C549.045 125.412 545.803 130.331 547.862 134.498V134.498C548.37 135.526 548.573 136.679 548.449 137.828L546.402 156.749L546.402 180.28Z" fill="white"/>
<path d="M537.389 565.422C537.289 570.62 536.428 575.792 534.834 580.779V580.779C534.832 580.785 534.831 580.791 534.831 580.798L534.831 588.958C534.831 589.751 534.17 590.403 533.365 590.403L509.245 590.403L357.766 590.403L328.217 590.4C327.436 590.4 326.811 589.783 326.811 589.013L326.811 568.724L327.32 542.279L329.077 516.702C329.341 512.862 331.369 509.315 334.581 507.072V507.072C337.826 504.807 341.918 504.124 345.671 505.221L353.882 507.622C355.34 508.048 356.831 508.364 358.343 508.568L364.109 509.346C366.769 509.705 369.483 509.579 372.118 508.976L373.7 508.614C377.939 507.643 381.706 505.188 384.294 501.71V501.71C385.478 500.119 386.388 498.35 386.987 496.476L388.313 492.328C389.398 488.935 389.555 485.337 388.768 481.903L388.59 481.123C387.866 477.965 386.245 475.092 383.913 472.839V472.839C381.937 470.93 379.515 469.527 376.851 468.748L374.15 467.958C372.201 467.388 370.192 467.024 368.156 466.872L366.937 466.781C362.071 466.417 357.16 466.924 352.441 468.277L346.457 469.993L341.285 472.154C337.993 473.529 334.221 472.666 331.954 470.019V470.019C330.678 468.529 330.011 466.617 330.079 464.647L332.413 397.053V397.053C332.413 393.483 335.301 390.505 338.92 390.341L358.969 389.437L401.219 392.061C404.143 392.242 407.071 391.525 409.602 390.008V390.008C413.809 387.485 416.455 383.036 416.608 378.225L416.671 376.244C416.757 373.553 416.216 370.891 415.09 368.463L409.62 356.666C407.683 352.49 407.397 347.722 408.817 343.282V343.282C410.03 339.485 412.424 336.139 415.655 333.724L417.105 332.641C420.866 329.83 425.34 328.119 430.002 327.71L431.936 327.54C435.845 327.197 439.769 327.581 443.503 328.673L444.96 329.099C449.433 330.406 453.474 332.815 456.708 336.102L458.384 337.806C460.924 340.388 462.652 343.644 463.367 347.194V347.194C464.153 351.097 463.677 355.171 462.005 358.844L455.674 372.755L452.42 382.932C452.123 383.862 451.984 384.83 452.01 385.798V385.798C452.107 389.506 454.579 392.696 458.166 393.745L465.615 395.923C467.936 396.602 470.373 396.85 472.804 396.654L489.513 395.312L521.352 394.7C527.13 394.588 532.818 395.881 537.914 398.463V398.463C537.927 398.47 537.936 398.484 537.936 398.499L537.936 424.033L535.143 465.613C534.904 469.169 536.286 472.611 538.912 474.999V474.999C540.234 476.202 541.821 477.09 543.553 477.596L544.565 477.892C548.091 478.923 551.888 478.766 555.364 477.446L560.947 475.326C563.688 474.285 566.546 473.591 569.452 473.263L576.204 472.498C580.164 472.05 584.153 472.641 587.764 474.21V474.21C592.823 476.407 596.839 480.391 599.038 485.392L599.139 485.623C600.606 488.96 601.232 492.613 600.964 496.273L600.67 500.293C600.356 504.581 599.001 508.753 596.721 512.456L595.689 514.131C593.251 518.09 589.581 521.179 585.24 522.924V522.924C580.719 524.742 575.736 524.997 571.115 523.646L560.947 520.673C559.172 520.154 557.33 519.869 555.469 519.827L550.157 519.707C545.092 519.592 540.365 522.411 538.071 526.916V526.916C537.045 528.929 536.569 531.163 536.69 533.392L537.662 551.223L537.389 565.422Z" fill="#FFC9E4"/>
<path d="M349.57 178.251L349.57 192.692C349.57 193.486 348.909 194.138 348.104 194.138L339.468 194.138L313.882 194.138L162.402 194.138L132.854 194.134C132.073 194.134 131.448 193.518 131.448 192.747L131.448 172.458L131.957 146.013L133.714 120.437C133.978 116.596 136.005 113.049 139.218 110.806V110.806C142.463 108.541 146.555 107.858 150.308 108.955L157.904 111.176C159.769 111.722 161.57 112.453 163.279 113.358L167.053 115.358C169.882 116.857 173.056 117.641 176.295 117.641V117.641C182.157 117.641 187.77 115.08 191.626 110.647L192.985 109.084V109.084C199.189 101.033 199.419 90.0397 193.552 81.9894L193.28 81.6163C192.507 80.5558 191.644 79.5635 190.698 78.6499L188.68 76.6993C186.619 74.7075 184.092 73.2437 181.313 72.431V72.431C177.76 71.3923 173.947 71.4617 170.389 72.6299L163.605 74.8573L162.526 75.2387C154.72 77.9981 146.152 74.8189 142.282 67.7266V67.7266V67.7266C138.85 61.6455 137.05 54.7757 137.05 47.7552L137.05 0.787006V0.787006C137.05 -2.783 139.937 -5.7608 143.557 -5.92411L163.605 -6.8286L209.152 -6.82861C210.539 -6.82861 211.92 -7.06839 213.232 -7.53707V-7.53707C217.905 -9.20582 221.101 -13.5335 221.256 -18.4026L221.327 -20.6413C221.4 -22.9247 220.941 -25.1832 219.986 -27.2433L214.256 -39.5996C212.32 -43.776 212.034 -48.5434 213.453 -52.9838V-52.9838C214.667 -56.7809 217.061 -60.1265 220.292 -62.5411L221.742 -63.6247C225.503 -66.4355 229.977 -68.1462 234.639 -68.5558L236.573 -68.7257C240.482 -69.0691 244.406 -68.6848 248.14 -67.593L249.597 -67.167C254.07 -65.8593 258.111 -63.4501 261.344 -60.1636L263.021 -58.4593C265.561 -55.8778 267.289 -52.622 268.004 -49.0716V-49.0716C268.79 -45.1682 268.313 -41.0949 266.641 -37.4213L260.311 -23.5108L256.822 -12.5977C256.68 -12.1549 256.608 -11.6948 256.608 -11.2334V-11.2334C256.608 -8.78607 258.593 -6.8286 261.075 -6.8286L277.988 -6.8286L301.849 -6.82861L336.894 -6.8286L348.164 -6.82859C348.945 -6.82859 349.57 -6.2123 349.57 -5.4418L349.57 28.5083L349.57 59.2024C349.57 59.8049 349.629 60.4047 349.747 60.9935V60.9935C350.841 66.4638 356.568 69.6536 361.962 67.7974L368.013 65.7151C369.631 65.1587 371.326 64.8744 373.028 64.8744L383.422 64.8744C389.764 64.8744 395.771 67.4503 400.032 71.9963V71.9963C403.878 76.1007 406.009 81.5015 406.009 87.1478L406.009 94.4362L405.307 104.027C404.993 108.315 403.638 112.487 401.357 116.191L400.326 117.866C397.888 121.825 394.217 124.913 389.876 126.659V126.659C385.356 128.477 380.373 128.731 375.752 127.38L364.484 124.086C363.44 123.78 362.353 123.625 361.258 123.625V123.625C354.842 123.625 349.57 128.824 349.57 135.151L349.57 137.231L349.57 154.72L349.57 178.251Z" fill="#FF50C7"/>
<path d="M313.043 183.241L328.249 183.241C329.031 183.241 329.656 183.857 329.656 184.628L329.656 192.902L329.656 217.37L329.656 362.231L329.652 390.387C329.652 391.18 328.991 391.832 328.186 391.832L306.986 391.833L279.333 391.346L252.094 389.634C248.366 389.4 244.953 387.594 242.726 384.676V384.676C240.237 381.415 239.512 377.142 240.776 373.188L242.883 366.596C243.467 364.77 244.248 363.009 245.214 361.342L247.164 357.977C248.801 355.151 249.664 351.964 249.664 348.738V348.738C249.664 343.268 247.189 338.133 242.914 334.732L240.716 332.984L240.43 332.783C232.084 326.901 220.802 326.831 212.136 332.607V332.607C210.932 333.409 209.799 334.312 208.75 335.305L206.808 337.142C204.758 339.082 203.235 341.498 202.384 344.159V344.159C201.304 347.538 201.36 351.15 202.544 354.449L204.925 361.08L205.272 361.977C208.134 369.383 204.751 377.838 197.469 381.472V381.472V381.472C191.103 384.758 184.052 386.475 176.928 386.475L130.32 386.475C128.644 386.475 127.157 387.597 126.71 389.199V389.199C125.57 393.28 119.507 392.592 119.507 388.381L119.507 361.08L119.507 317.737C119.507 316.271 119.235 314.822 118.704 313.463V313.463C116.979 309.046 112.75 306.104 107.922 305.963L105.111 305.882C102.69 305.811 100.27 306.268 98.0263 307.219L85.4727 312.543C80.9388 314.466 75.8971 314.771 71.2273 313.406V313.406C67.2557 312.244 63.7511 309.932 61.1632 306.765L60.2988 305.708C57.242 301.967 55.3687 297.411 54.9055 292.589L54.799 291.481C54.429 287.629 54.8511 283.727 56.0401 280.008L56.2981 279.201C57.7369 274.7 60.3698 270.64 63.9206 267.445L65.1997 266.294C68.1068 263.678 71.6898 261.914 75.5326 261.207V261.207C79.4973 260.477 83.568 260.903 87.2427 262.432L102.063 268.6L113.543 271.957C113.961 272.079 114.395 272.141 114.833 272.141V272.141C117.399 272.141 119.507 270.062 119.507 267.532L119.507 251.695L119.507 228.877L119.507 195.363L119.507 184.687C119.507 183.893 120.168 183.241 120.973 183.241L156.458 183.241L204.557 183.241C205.279 183.241 205.998 183.118 206.682 182.877L206.843 182.82C209.657 181.829 211.37 178.989 210.89 176.111V176.111L207.681 163.979L206.369 153.38C205.898 149.574 206.533 145.693 208.199 142.184V142.184C210.461 137.422 214.473 133.661 219.407 131.677L220.359 131.295C223.674 129.962 227.24 129.391 230.782 129.629L235.592 129.951C239.977 130.244 244.219 131.504 248.007 133.637L250.301 134.93C254.186 137.118 257.24 140.481 259.023 144.535V144.535C260.968 148.958 261.283 153.941 259.916 158.636L256.711 169.64C256.425 170.621 256.28 171.634 256.28 172.65L256.28 174.325C256.28 179.279 260.298 183.241 265.322 183.241V183.241L288.437 183.241L313.043 183.241Z" fill="#FFC9E4"/>
<path d="M523.295 192.401L538.501 192.401C539.283 192.401 539.908 193.017 539.908 193.787L539.908 202.061L539.908 226.529L539.908 371.39L539.904 399.547C539.904 400.34 539.243 400.992 538.438 400.992L517.238 400.992L489.584 400.505L462.345 398.794C458.618 398.559 455.205 396.753 452.978 393.835V393.835C450.489 390.575 449.764 386.302 451.028 382.348L453.135 375.755C453.719 373.93 454.5 372.169 455.466 370.502L457.416 367.137C459.053 364.31 459.916 361.124 459.916 357.898V357.898C459.916 352.427 457.441 347.292 453.166 343.892L450.968 342.143L450.682 341.942C442.336 336.061 431.054 335.991 422.388 341.766V341.766C421.184 342.569 420.051 343.471 419.002 344.464L416.909 346.445C414.958 348.291 413.508 350.59 412.699 353.122V353.122C411.583 356.612 411.744 360.353 413.153 363.686L415.923 370.24L416.6 372.273C418.919 379.233 415.943 386.943 409.466 390.756V390.756C408.8 391.148 408.108 391.492 407.393 391.786L405.691 392.485C400.633 394.564 395.226 395.635 389.786 395.635L338.295 395.635C337.914 395.635 337.533 395.668 337.157 395.735V395.735C333.274 396.425 329.759 393.539 329.759 389.663L329.759 370.24L329.759 326.897C329.759 325.43 329.487 323.982 328.956 322.622V322.622C327.231 318.205 323.002 315.264 318.174 315.123L315.363 315.041C312.941 314.971 310.522 315.427 308.278 316.379L295.725 321.703C291.191 323.625 286.149 323.931 281.479 322.565V322.565C277.508 321.404 274.003 319.092 271.415 315.925L270.551 314.867C267.494 311.127 265.621 306.57 265.157 301.749L265.051 300.64C264.681 296.788 265.103 292.887 266.292 289.167L266.55 288.361C267.989 283.86 270.622 279.799 274.173 276.604L275.452 275.453C278.359 272.838 281.942 271.074 285.785 270.366V270.366C289.749 269.636 293.82 270.062 297.495 271.592L312.314 277.76L323.795 281.117C324.213 281.239 324.647 281.301 325.085 281.301V281.301C327.651 281.301 329.759 279.222 329.759 276.692L329.759 260.855L329.759 238.037L329.759 204.523L329.759 193.846C329.759 193.053 330.42 192.401 331.225 192.401L366.71 192.401L415.9 192.401V192.401C419.234 192.401 421.974 189.699 421.974 186.411L421.974 184.788C421.974 183.872 421.803 182.967 421.469 182.119L419.549 177.243C418.475 174.517 417.75 171.664 417.389 168.748L416.798 163.967C416.211 159.229 417.001 154.396 419.076 150.028L419.319 149.517C421.06 145.853 423.724 142.677 427.054 140.3V140.3C431.66 137.01 437.276 135.434 442.882 135.857L446.902 136.161C451.785 136.529 456.457 138.159 460.45 140.887L462.375 142.201C466.776 145.207 469.856 149.737 471.02 154.918V154.918C471.847 158.598 471.671 162.448 470.51 166.08L466.618 178.254C466.323 179.175 466.173 180.133 466.173 181.093V181.093C466.173 186.187 470.305 190.261 475.471 190.261L477.065 190.261L498.689 192.401L523.295 192.401Z" fill="#FF50C7"/>
<path d="M136.181 165.469C136.181 176.107 137.202 186.701 139.229 197.108V197.108C139.253 197.232 139.155 197.348 139.027 197.348L129.174 197.348L103.588 197.348L-47.8918 197.348L-77.4399 197.345C-78.2212 197.345 -78.846 196.728 -78.8461 195.958L-78.8463 175.669L-78.3373 149.224L-76.5799 123.647C-76.316 119.807 -74.2888 116.26 -71.0759 114.017V114.017C-67.8314 111.752 -63.7392 111.069 -59.9864 112.166L-49.585 115.207L-36.2868 117.28C-35.0571 117.471 -33.812 117.568 -32.5631 117.568L-30.9223 117.568C-26.912 117.568 -22.9788 116.312 -19.6895 113.981V113.981C-18.1116 112.864 -16.7076 111.514 -15.5319 109.989V109.989C-10.3935 103.32 -10.1876 94.1941 -15.047 87.526L-17.0139 84.827C-17.7868 83.7665 -18.6505 82.7741 -19.5958 81.8606L-21.6143 79.9099C-23.6753 77.9182 -26.202 76.4543 -28.9815 75.6417V75.6417C-32.5342 74.603 -36.3473 74.6724 -39.905 75.8405L-46.6887 78.0679L-47.7679 78.4494C-55.5741 81.2087 -64.1418 78.0296 -68.0125 70.9373V70.9373V70.9373C-71.4446 64.8562 -73.2442 57.9863 -73.2442 50.9658L-73.2442 4.89856C-73.2442 4.30034 -73.3209 3.70608 -73.4724 3.1299V3.1299C-74.7537 -1.74316 -70.576 -6.43988 -65.4942 -5.83953L-46.6888 -3.61799L-1.14173 -3.61796C0.244813 -3.61796 1.62566 -3.85774 2.93808 -4.32642V-4.32642C7.61102 -5.99516 10.8069 -10.3228 10.962 -15.1919L11.0333 -17.4307C11.1061 -19.714 10.6472 -21.9725 9.69186 -24.0327L3.96224 -36.389C2.02566 -40.5653 1.73962 -45.3327 3.15921 -49.7731V-49.7731C4.37315 -53.5702 6.76708 -56.9158 9.99798 -59.3305L11.4478 -60.414C15.2089 -63.2249 19.6831 -64.9356 24.3451 -65.3451L26.2787 -65.515C30.1874 -65.8584 34.1115 -65.4742 37.8459 -64.3823L39.3029 -63.9563C43.7756 -62.6486 47.8167 -60.2394 51.0502 -56.9529L52.727 -55.2487C55.2669 -52.6671 56.995 -49.4113 57.7097 -45.861V-45.861C58.4955 -41.9575 58.0192 -37.8842 56.3473 -34.2106L50.0166 -20.3001L46.5276 -9.38697C46.3861 -8.94427 46.314 -8.48412 46.314 -8.0227V-8.0227C46.314 -5.57539 48.2991 -3.61792 50.7808 -3.61793L67.6943 -3.61794L91.5548 -3.61793L126.6 -3.61793L140.106 -3.61793C140.888 -3.61793 141.513 -3.00164 141.513 -2.23113L141.513 33.1456L141.513 57.5721C141.513 58.3996 141.588 59.2239 141.737 60.0352V60.0352C143.141 67.6828 150.673 72.5654 158.426 70.8535L161.274 70.2248L164.303 69.2303C171.873 66.7453 180.073 67.3194 187.087 70.8254V70.8254C194.933 74.7478 200.526 81.9517 202.342 90.4765L202.865 92.9315C204.437 100.307 203.08 108.054 199.073 114.591L198.934 114.817C197.186 117.669 194.949 120.207 192.327 122.315V122.315C188.362 125.5 183.633 127.609 178.623 128.426L178.433 128.457C173.109 129.325 167.676 128.736 162.728 126.756L152.461 122.647C149.301 121.382 145.708 121.564 142.636 123.144V123.144C138.68 125.178 136.181 129.218 136.181 133.581L136.181 137.966L136.181 158.644L136.181 165.469Z" fill="#FFC9E4"/>
<path d="M108.711 186.45L123.917 186.45C124.699 186.45 125.324 187.066 125.324 187.837L125.324 196.111L125.324 220.579L125.324 365.44L125.32 393.596C125.32 394.389 124.659 395.041 123.854 395.041L102.654 395.042L75.0006 394.555L47.7615 392.843C44.0338 392.609 40.6214 390.803 38.394 387.885V387.885C35.9051 384.624 35.1797 380.351 36.4438 376.397L38.5515 369.805C39.135 367.979 39.9164 366.218 40.8821 364.551L42.8319 361.186C44.4694 358.36 45.3316 355.173 45.3316 351.947V351.947C45.3316 346.477 42.857 341.342 38.582 337.941L36.3839 336.193L36.0984 335.992C27.7519 330.11 16.4697 330.04 7.80386 335.816V335.816C6.59999 336.618 5.46706 337.521 4.41789 338.514L2.47619 340.351C0.425847 342.291 -1.0972 344.707 -1.94781 347.367V347.367C-3.0283 350.747 -2.97205 354.359 -1.78754 357.658L0.593129 364.289L0.939652 365.186C3.80246 372.592 0.418599 381.047 -6.86329 384.681V384.681V384.681C-13.285 387.995 -20.1775 390.297 -27.2847 391.5L-72.9461 399.229C-74.5014 399.493 -75.8105 400.557 -76.3741 402.016V402.016C-78.1106 406.513 -84.8251 405.423 -84.8251 400.645L-84.8251 364.289L-84.8251 320.946C-84.8251 319.48 -85.0972 318.031 -85.6279 316.672V316.672C-87.3528 312.255 -91.5821 309.313 -96.4103 309.172L-99.2206 309.09C-101.643 309.02 -104.062 309.477 -106.306 310.428L-118.859 315.752C-123.393 317.675 -128.435 317.98 -133.105 316.615V316.615C-137.076 315.453 -140.581 313.141 -143.169 309.974L-144.033 308.917C-147.09 305.176 -148.963 300.62 -149.427 295.798L-149.533 294.69C-149.903 290.838 -149.481 286.936 -148.292 283.217L-148.034 282.41C-146.595 277.909 -143.962 273.849 -140.411 270.654L-139.132 269.503C-136.225 266.887 -132.642 265.123 -128.799 264.416V264.416C-124.835 263.686 -120.764 264.112 -117.089 265.641L-102.27 271.809L-90.7887 275.166C-90.3712 275.288 -89.9368 275.35 -89.4988 275.35V275.35C-86.9334 275.35 -84.8251 273.271 -84.8251 270.741L-84.8251 254.904L-84.8251 232.086L-84.8251 198.572L-84.8251 187.896C-84.8251 187.102 -84.1638 186.45 -83.3593 186.45L-47.8736 186.45L1.31607 186.45L4.06838 186.45C6.06654 186.45 7.88068 185.227 8.62056 183.382V183.382C9.07859 182.239 9.07446 180.975 8.60905 179.855L4.83639 170.77C3.84887 168.392 3.18791 165.889 2.87075 163.326L2.03702 156.589C1.56603 152.783 2.20064 148.902 3.86738 145.393V145.393C6.12931 140.631 10.1414 136.87 15.0753 134.886L16.0268 134.504C19.3423 133.171 22.9084 132.6 26.4498 132.838L31.2604 133.16C35.645 133.453 39.8869 134.713 43.6748 136.846L45.4864 137.867C49.6853 140.232 52.986 143.867 54.9121 148.247L55.2166 148.94C56.8341 152.619 57.2867 156.714 56.5161 160.697L53.9293 174.069C52.8934 179.424 56.974 184.311 62.4814 184.311V184.311L84.105 186.45L108.711 186.45Z" fill="white"/>
<path d="M329.363 571.268L329.363 579.141L329.363 586.965C329.363 587.759 328.702 588.411 327.897 588.411L301.37 588.411L206.559 588.411L148.202 588.395L126.296 588.393C112.794 588.392 105.891 572.724 114.967 562.68V562.68C117.526 559.847 118.976 556.217 119.048 552.461L119.445 531.841L121.203 506.264C121.467 502.424 123.494 498.877 126.707 496.634V496.634C129.951 494.369 134.044 493.686 137.796 494.783L146.007 497.184C147.465 497.61 148.957 497.926 150.468 498.13L156.234 498.908C158.894 499.267 161.608 499.141 164.243 498.538L165.825 498.176C170.064 497.205 173.831 494.75 176.42 491.272V491.272C177.603 489.681 178.513 487.912 179.113 486.038L180.439 481.89C181.523 478.497 181.68 474.899 180.894 471.465L180.715 470.685C179.992 467.527 178.37 464.654 176.038 462.401V462.401C174.063 460.492 171.641 459.089 168.976 458.31L166.275 457.52C164.326 456.95 162.317 456.586 160.282 456.434L159.063 456.343C154.197 455.979 149.286 456.486 144.566 457.839L138.583 459.555L133.362 461.736C130.099 463.099 126.359 462.244 124.113 459.62V459.62C122.818 458.108 122.156 456.158 122.26 454.158L125.491 392.032C125.702 387.97 127.927 384.229 131.44 382.031V382.031C133.19 380.936 135.177 380.278 137.226 380.113L148.177 379.233C150.119 379.077 152.067 379.059 154.006 379.18L191.03 381.479C194.694 381.706 197.838 378.791 197.838 375.165V375.165C197.838 374.329 198.01 373.498 198.343 372.722L199.862 369.182C201.786 364.703 202.355 359.794 201.5 355.057L199.75 345.355C199.084 341.667 199.339 337.857 200.492 334.25V334.25C201.998 329.539 204.969 325.388 208.977 322.392L209.231 322.203C212.992 319.392 217.466 317.681 222.128 317.272L224.061 317.102C227.97 316.758 231.894 317.143 235.629 318.235L237.086 318.661C241.558 319.968 245.599 322.377 248.833 325.664L250.51 327.368C253.05 329.95 254.778 333.206 255.492 336.756V336.756C256.278 340.659 255.802 344.733 254.13 348.406L247.799 362.317L244.546 372.494C244.248 373.423 244.11 374.392 244.135 375.36V375.36C244.232 379.068 246.704 382.258 250.292 383.307L257.74 385.485C260.061 386.164 262.498 386.412 264.929 386.216L281.639 384.874L330.509 387.744C333.359 387.912 335.555 390.213 335.555 393.032V393.032L335.555 413.711L333.046 461.376V461.376C333.046 464.361 335.007 466.962 337.892 467.806L339.244 468.201C341.114 468.748 343.129 468.664 344.973 467.964L353.072 464.888C355.814 463.847 358.672 463.153 361.577 462.825L368.33 462.06C372.29 461.612 376.278 462.203 379.89 463.772V463.772C384.948 465.969 388.964 469.953 391.163 474.954L391.264 475.185C392.732 478.522 393.358 482.175 393.09 485.835L392.795 489.855C392.481 494.143 391.127 498.315 388.846 502.018L387.815 503.693C385.376 507.652 381.706 510.741 377.365 512.486V512.486C372.844 514.304 367.861 514.559 363.24 513.208L352.684 510.121C351.167 509.678 349.592 509.435 348.002 509.399L342.588 509.276C337.514 509.161 332.935 512.454 331.464 517.277V517.277C331.21 518.11 331.056 518.968 331.006 519.832L329.787 540.785L329.363 571.268Z" fill="white"/>
<path d="M32.9249 249.371L31.861 250.783C31.6955 251.002 31.3882 251.056 31.1581 250.905C30.2494 250.311 29.3917 249.642 28.5939 248.906L27.7099 248.09L24.9791 245.855L22.529 244.186L21.8173 243.793C20.5517 243.096 19.1932 242.582 17.7826 242.268L17.4752 242.199C16.8812 242.067 16.2695 241.982 15.6619 241.947C14.9304 241.905 14.1868 241.934 13.4612 242.036C12.6114 242.156 11.7784 242.373 10.9786 242.684L10.5643 242.845C9.48234 243.265 8.45305 243.811 7.49718 244.469L6.73243 244.996L6.33958 245.334C4.92993 246.548 3.67294 247.929 2.59624 249.446C1.77348 250.605 1.06009 251.839 0.465252 253.13L-0.02946 254.204L-0.0642492 254.299C-0.814552 256.352 -1.33752 258.482 -1.62378 260.649L-1.68097 261.082L-1.86031 265.538L-1.67319 267.518C-1.52275 269.111 -1.24487 270.688 -0.842205 272.236L-0.133007 274.962L1.09913 278.079C1.73479 279.687 2.50865 281.237 3.41201 282.711L4.66779 284.76L6.16692 286.936C7.02169 288.177 7.96897 289.351 9.00066 290.449L10.2927 291.824L13.5296 294.793L19.3462 299.125L26.6496 303.596L30.6864 305.607C34.0195 307.267 38.0207 306.787 40.8665 304.385L51.6616 295.275L54.8557 292.208L57.3154 289.646L59.8615 286.268L62.4941 282.071L64.3644 278.183L65.3583 275.224L65.7503 273.958C66.2269 272.418 66.5784 270.842 66.8012 269.246L67.0685 267.33L67.1715 264.023C67.2244 262.32 67.1319 260.616 66.8948 258.929L66.6377 257.099C66.4917 256.061 66.2685 255.034 65.9701 254.029C65.5054 252.463 64.8609 250.957 64.0493 249.54L63.1356 247.945L61.1671 245.402L59.835 244.096C59.1671 243.441 58.4447 242.844 57.6757 242.311C56.5171 241.509 55.2607 240.858 53.9369 240.374L52.7462 239.939C51.5057 239.584 50.2017 239.414 48.9118 239.443C47.9369 239.465 46.9677 239.598 46.023 239.839L45.7705 239.904C44.5584 240.213 43.3894 240.673 42.2905 241.271L40.9518 241.999L38.2114 243.996L35.5265 246.387L32.9249 249.371Z" fill="#FFC9E4"/>
<path d="M451.196 258.611L449.557 259.274C449.302 259.377 449.011 259.264 448.891 259.017C448.418 258.039 448.027 257.024 447.723 255.982L447.385 254.827L446.195 251.506L444.955 248.813L444.547 248.11C443.822 246.86 442.922 245.72 441.875 244.724L441.646 244.507C441.205 244.088 440.725 243.7 440.222 243.357C439.617 242.944 438.964 242.586 438.29 242.3C437.5 241.965 436.674 241.722 435.828 241.576L435.39 241.501C434.246 241.304 433.083 241.241 431.924 241.313L430.998 241.371L430.487 241.459C428.653 241.773 426.864 242.31 425.16 243.055C423.858 243.625 422.611 244.315 421.436 245.115L420.459 245.781L420.38 245.845C418.68 247.218 417.135 248.774 415.773 250.485L415.501 250.826L413.052 254.553L412.193 256.347C411.501 257.79 410.927 259.285 410.475 260.819L409.679 263.521L409.13 266.828C408.847 268.533 408.712 270.26 408.727 271.989L408.748 274.393L408.912 277.03C409.006 278.533 409.213 280.028 409.532 281.5L409.931 283.345L411.176 287.557L413.931 294.265L417.889 301.859L420.313 305.662C422.315 308.802 425.992 310.451 429.668 309.858L443.614 307.609L447.931 306.625L451.359 305.696L455.282 304.111L459.699 301.87L463.305 299.501L465.681 297.476L466.669 296.593C467.871 295.518 468.984 294.349 469.997 293.095L471.213 291.591L473.004 288.809C473.927 287.377 474.725 285.868 475.391 284.3L476.113 282.599C476.522 281.634 476.86 280.639 477.122 279.623C477.53 278.042 477.753 276.419 477.787 274.786L477.826 272.948L477.448 269.755L476.979 267.949C476.744 267.044 476.432 266.16 476.047 265.308C475.467 264.023 474.726 262.818 473.84 261.722L473.044 260.735C472.163 259.792 471.133 258.974 470.013 258.335C469.166 257.852 468.266 257.467 467.332 257.187L467.082 257.112C465.884 256.754 464.645 256.545 463.395 256.492L461.873 256.427L458.495 256.727L454.962 257.394L451.196 258.611Z" fill="white"/>
<path d="M127.126 561.508L127.126 569.381L127.126 589.327C127.126 590.121 126.465 590.773 125.66 590.773L100.51 590.773L2.83058 590.774L-56.0788 590.778L-82.9046 590.777C-102.973 590.776 -110 564.884 -92.7937 554.342V554.342C-86.8872 550.723 -83.2215 544.4 -83.0907 537.606L-82.7919 522.081L-81.0344 496.504C-80.7706 492.664 -78.7433 489.117 -75.5305 486.874V486.874C-72.286 484.609 -68.1938 483.926 -64.441 485.023L-56.2302 487.424C-54.7718 487.85 -53.2806 488.166 -51.7693 488.37L-46.0028 489.148C-43.3429 489.507 -40.6288 489.381 -37.9944 488.778L-36.4123 488.416C-32.1731 487.445 -28.4062 484.99 -25.8177 481.512V481.512C-24.6341 479.921 -23.724 478.152 -23.1248 476.278L-21.7986 472.13C-20.7138 468.737 -20.5568 465.139 -21.3436 461.705L-21.5222 460.925C-22.2458 457.767 -23.8674 454.894 -26.1988 452.641V452.641C-28.1744 450.732 -30.5965 449.329 -33.2609 448.55L-35.9623 447.76C-37.9113 447.19 -39.9201 446.826 -41.9554 446.674L-43.1746 446.583C-48.0407 446.219 -52.9517 446.726 -57.6714 448.079L-63.6546 449.795L-68.7288 451.915C-72.0794 453.315 -75.9187 452.436 -78.2253 449.742V449.742C-79.4618 448.298 -80.1385 446.463 -80.1385 444.554L-80.1385 404.751C-80.1385 402.361 -79.4132 400.011 -78.0558 398.004V398.004C-75.7475 394.589 -71.8642 392.527 -67.743 392.527L-50.5338 392.527L-18.3814 388.552C-9.97697 387.513 -3.00799 381.438 -0.91227 373.324V373.324C0.0566977 369.573 -0.0925591 365.647 -1.34196 362.023L-1.63997 361.158L-2.24211 359.281C-3.64073 354.921 -3.53007 350.197 -1.9273 345.843V345.843C-0.307302 341.443 2.74483 337.672 6.74531 335.127L7.39972 334.71C10.2863 332.874 13.531 331.672 16.908 331.188L19.1877 330.861C24.0709 330.16 29.0847 331.003 33.4184 333.213V333.213C36.3309 334.699 38.9153 336.81 40.9183 339.363L42.2721 341.09C45.1846 344.803 46.4305 349.55 45.7276 354.255V354.255C45.4676 355.995 44.9462 357.693 44.1805 359.292L43.9965 359.676C42.5917 362.609 41.9033 365.814 41.9876 369.029L42.0017 369.568C42.0405 371.049 42.2269 372.521 42.5578 373.96V373.96C45.025 384.691 54.9955 391.969 66.1927 391.205L78.1434 390.388L126.81 390.388C130.426 390.388 133.318 393.24 133.318 396.806V396.806L133.318 403.951L130.809 451.616L130.809 454.482C130.809 455.766 131.636 456.891 132.868 457.282V457.282C133.166 457.377 133.478 457.425 133.793 457.425L144.498 457.425C146.93 457.425 149.359 457.123 151.727 456.525L158.342 454.855C166.067 452.906 174.112 455.846 178.551 462.241V462.241C180.681 465.309 181.819 468.954 181.819 472.708L181.819 479.109L181.82 482.82C181.82 486.25 180.86 489.634 179.045 492.598V492.598C177.419 495.251 175.161 497.481 172.473 499.088L172.101 499.31C167.326 502.163 161.628 503.026 156.288 501.705L150.15 500.185C148.828 499.858 147.47 499.677 146.101 499.646L140.35 499.516C135.276 499.401 130.698 502.694 129.227 507.517V507.517C128.972 508.35 128.819 509.208 128.768 510.072L127.55 531.025L127.126 561.508Z" fill="#FF50C7"/>
<path d="M226.711 457.058L226.434 458.804C226.391 459.076 226.145 459.267 225.871 459.243C224.79 459.144 223.719 458.957 222.669 458.681L221.505 458.375L218.045 457.685L215.098 457.361L214.285 457.348C212.84 457.326 211.399 457.511 210.006 457.895L209.703 457.979C209.116 458.141 208.536 458.354 207.983 458.608C207.318 458.914 206.675 459.289 206.082 459.72C205.388 460.224 204.754 460.807 204.194 461.457L203.904 461.794C203.146 462.673 202.493 463.638 201.958 464.668L201.531 465.492L201.342 465.975C200.668 467.709 200.206 469.518 199.968 471.363C199.786 472.773 199.735 474.197 199.816 475.616L199.883 476.796L199.897 476.897C200.198 479.062 200.736 481.188 201.501 483.236L201.654 483.645L203.587 487.664L204.682 489.324C205.563 490.66 206.549 491.922 207.631 493.1L209.537 495.174L212.088 497.347C213.404 498.469 214.815 499.474 216.305 500.351L218.376 501.571L220.721 502.789C222.058 503.483 223.446 504.075 224.872 504.56L226.659 505.168L230.91 506.269L238.08 507.363L246.627 507.882L251.136 507.762C254.858 507.664 258.166 505.362 259.551 501.905L264.805 488.792L266.185 484.585L267.155 481.169L267.817 476.99L268.171 472.049L267.997 467.738L267.485 464.658L267.237 463.356C266.935 461.773 266.505 460.217 265.953 458.703L265.289 456.886L263.828 453.917C263.075 452.389 262.193 450.928 261.192 449.55L260.106 448.055C259.489 447.206 258.81 446.405 258.075 445.657C256.93 444.493 255.653 443.465 254.271 442.595L252.716 441.616L249.784 440.295L247.995 439.767C247.097 439.502 246.179 439.315 245.25 439.205C243.851 439.041 242.436 439.056 241.04 439.25L239.784 439.425C238.522 439.694 237.291 440.155 236.166 440.787C235.315 441.264 234.522 441.836 233.801 442.493L233.608 442.669C232.684 443.511 231.867 444.465 231.178 445.509L230.338 446.781L228.855 449.83L227.607 453.202L226.711 457.058Z" fill="#FF50C7"/>
</g>
<g clip-path="url(#clip1_959_166)">
<path d="M1066.4 180.28L1066.4 194.722C1066.4 195.515 1065.74 196.167 1064.94 196.167L1056.3 196.167L1030.71 196.167L879.234 196.167L849.686 196.164C848.905 196.163 848.28 195.547 848.28 194.777L848.28 174.488L848.789 148.043L850.546 122.466C850.81 118.626 852.837 115.079 856.05 112.836V112.836C859.295 110.571 863.387 109.888 867.14 110.985L874.736 113.206C876.601 113.751 878.402 114.482 880.111 115.388L883.885 117.387C886.714 118.886 889.888 119.67 893.127 119.67V119.67C898.989 119.67 904.603 117.109 908.458 112.676L909.817 111.113V111.113C916.021 103.062 916.251 92.069 910.384 84.0187L910.112 83.6457C909.339 82.5851 908.476 81.5928 907.53 80.6792L905.512 78.7286C903.451 76.7369 900.924 75.273 898.145 74.4603V74.4603C894.592 73.4216 890.779 73.491 887.221 74.6592L880.437 76.8866L879.358 77.268C871.552 80.0274 862.984 76.8482 859.114 69.756V69.756V69.756C855.682 63.6748 853.882 56.805 853.882 49.7845L853.882 2.81631V2.81631C853.882 -0.7537 856.769 -3.73149 860.389 -3.89481L880.437 -4.7993L925.984 -4.7993C927.371 -4.7993 928.752 -5.03908 930.064 -5.50776V-5.50776C934.737 -7.17651 937.933 -11.5042 938.088 -16.3733L938.159 -18.612C938.232 -20.8953 937.773 -23.1539 936.818 -25.214L931.088 -37.5703C929.152 -41.7467 928.866 -46.5141 930.285 -50.9545V-50.9545C931.499 -54.7516 933.893 -58.0971 937.124 -60.5118L938.574 -61.5954C942.335 -64.4062 946.809 -66.1169 951.471 -66.5265L953.405 -66.6964C957.314 -67.0398 961.238 -66.6555 964.972 -65.5637L966.429 -65.1377C970.902 -63.83 974.943 -61.4208 978.176 -58.1343L979.853 -56.43C982.393 -53.8485 984.121 -50.5927 984.836 -47.0423V-47.0423C985.622 -43.1389 985.145 -39.0656 983.473 -35.392L977.143 -21.4815L973.654 -10.5683C973.512 -10.1256 973.44 -9.66549 973.44 -9.20407V-9.20407C973.44 -6.75676 975.425 -4.79929 977.907 -4.7993L994.82 -4.7993L1018.68 -4.7993L1053.73 -4.79929L1065 -4.79928C1065.78 -4.79928 1066.4 -4.183 1066.4 -3.41249L1066.4 30.5376L1066.4 76.3503C1066.4 77.1449 1066.13 77.9213 1065.62 78.5513V78.5513C1064.07 80.4964 1064.94 83.3367 1067.31 84.0301L1069.75 84.743C1070.87 85.069 1072.07 85.0195 1073.17 84.6021L1082.42 81.0899C1085.16 80.0487 1088.02 79.3552 1090.92 79.0264L1097.67 78.2622C1101.63 77.814 1105.62 78.4044 1109.23 79.9734V79.9734C1114.29 82.171 1118.31 86.1543 1120.51 91.1557L1120.61 91.3862C1122.08 94.7236 1122.7 98.3762 1122.43 102.037L1122.14 106.056C1121.82 110.345 1120.47 114.517 1118.19 118.22L1117.16 119.895C1114.72 123.854 1111.05 126.943 1106.71 128.688V128.688C1102.19 130.506 1097.2 130.76 1092.58 129.409L1080.89 125.991C1080.13 125.768 1079.34 125.645 1078.53 125.627L1073.78 125.519C1069.05 125.412 1065.8 130.331 1067.86 134.498V134.498C1068.37 135.526 1068.57 136.679 1068.45 137.828L1066.4 156.749L1066.4 180.28Z" fill="white"/>
<path d="M1057.39 565.422C1057.29 570.62 1056.43 575.792 1054.83 580.779V580.779C1054.83 580.785 1054.83 580.791 1054.83 580.798L1054.83 588.958C1054.83 589.751 1054.17 590.403 1053.37 590.403L1029.25 590.403L877.766 590.403L848.217 590.4C847.436 590.4 846.811 589.783 846.811 589.013L846.811 568.724L847.32 542.279L849.077 516.702C849.341 512.862 851.369 509.315 854.581 507.072V507.072C857.826 504.807 861.918 504.124 865.671 505.221L873.882 507.622C875.34 508.048 876.831 508.364 878.343 508.568L884.109 509.346C886.769 509.705 889.483 509.579 892.118 508.976L893.7 508.614C897.939 507.643 901.706 505.188 904.294 501.71V501.71C905.478 500.119 906.388 498.35 906.987 496.476L908.313 492.328C909.398 488.935 909.555 485.337 908.768 481.903L908.59 481.123C907.866 477.965 906.245 475.092 903.913 472.839V472.839C901.937 470.93 899.515 469.527 896.851 468.748L894.15 467.958C892.201 467.388 890.192 467.024 888.156 466.872L886.937 466.781C882.071 466.417 877.16 466.924 872.441 468.277L866.457 469.993L861.285 472.154C857.993 473.529 854.221 472.666 851.954 470.019V470.019C850.678 468.529 850.011 466.617 850.079 464.647L852.413 397.053V397.053C852.413 393.483 855.301 390.505 858.92 390.341L878.969 389.437L921.219 392.061C924.143 392.242 927.071 391.525 929.602 390.008V390.008C933.809 387.485 936.455 383.036 936.608 378.225L936.671 376.244C936.757 373.553 936.216 370.891 935.09 368.463L929.62 356.666C927.683 352.49 927.397 347.722 928.817 343.282V343.282C930.03 339.485 932.424 336.139 935.655 333.724L937.105 332.641C940.866 329.83 945.34 328.119 950.002 327.71L951.936 327.54C955.845 327.197 959.769 327.581 963.503 328.673L964.96 329.099C969.433 330.406 973.474 332.815 976.708 336.102L978.384 337.806C980.924 340.388 982.652 343.644 983.367 347.194V347.194C984.153 351.097 983.677 355.171 982.005 358.844L975.674 372.755L972.42 382.932C972.123 383.862 971.984 384.83 972.01 385.798V385.798C972.107 389.506 974.579 392.696 978.166 393.745L985.615 395.923C987.936 396.602 990.373 396.85 992.804 396.654L1009.51 395.312L1041.35 394.7C1047.13 394.588 1052.82 395.881 1057.91 398.463V398.463C1057.93 398.47 1057.94 398.484 1057.94 398.499L1057.94 424.033L1055.14 465.613C1054.9 469.169 1056.29 472.611 1058.91 474.999V474.999C1060.23 476.202 1061.82 477.09 1063.55 477.596L1064.57 477.892C1068.09 478.923 1071.89 478.766 1075.36 477.446L1080.95 475.326C1083.69 474.285 1086.55 473.591 1089.45 473.263L1096.2 472.498C1100.16 472.05 1104.15 472.641 1107.76 474.21V474.21C1112.82 476.407 1116.84 480.391 1119.04 485.392L1119.14 485.623C1120.61 488.96 1121.23 492.613 1120.96 496.273L1120.67 500.293C1120.36 504.581 1119 508.753 1116.72 512.456L1115.69 514.131C1113.25 518.09 1109.58 521.179 1105.24 522.924V522.924C1100.72 524.742 1095.74 524.997 1091.12 523.646L1080.95 520.673C1079.17 520.154 1077.33 519.869 1075.47 519.827L1070.16 519.707C1065.09 519.592 1060.37 522.411 1058.07 526.916V526.916C1057.04 528.929 1056.57 531.163 1056.69 533.392L1057.66 551.223L1057.39 565.422Z" fill="#FFC9E4"/>
<path d="M869.57 178.251L869.57 192.692C869.57 193.486 868.909 194.138 868.104 194.138L859.468 194.138L833.882 194.138L682.402 194.138L652.854 194.134C652.073 194.134 651.448 193.518 651.448 192.747L651.448 172.458L651.957 146.013L653.714 120.437C653.978 116.596 656.005 113.049 659.218 110.806V110.806C662.463 108.541 666.555 107.858 670.308 108.955L677.904 111.176C679.769 111.722 681.57 112.453 683.279 113.358L687.053 115.358C689.882 116.857 693.056 117.641 696.295 117.641V117.641C702.157 117.641 707.77 115.08 711.626 110.647L712.985 109.084V109.084C719.189 101.033 719.419 90.0397 713.552 81.9894L713.28 81.6163C712.507 80.5558 711.644 79.5635 710.698 78.6499L708.68 76.6993C706.619 74.7075 704.092 73.2437 701.313 72.431V72.431C697.76 71.3923 693.947 71.4617 690.389 72.6299L683.605 74.8573L682.526 75.2387C674.72 77.9981 666.152 74.8189 662.282 67.7266V67.7266V67.7266C658.85 61.6455 657.05 54.7757 657.05 47.7552L657.05 0.787006V0.787006C657.05 -2.783 659.937 -5.7608 663.557 -5.92411L683.605 -6.8286L729.152 -6.82861C730.539 -6.82861 731.92 -7.06839 733.232 -7.53707V-7.53707C737.905 -9.20582 741.101 -13.5335 741.256 -18.4026L741.327 -20.6413C741.4 -22.9247 740.941 -25.1832 739.986 -27.2433L734.256 -39.5996C732.32 -43.776 732.034 -48.5434 733.453 -52.9838V-52.9838C734.667 -56.7809 737.061 -60.1265 740.292 -62.5411L741.742 -63.6247C745.503 -66.4355 749.977 -68.1462 754.639 -68.5558L756.573 -68.7257C760.482 -69.0691 764.406 -68.6848 768.14 -67.593L769.597 -67.167C774.07 -65.8593 778.111 -63.4501 781.344 -60.1636L783.021 -58.4593C785.561 -55.8778 787.289 -52.622 788.004 -49.0716V-49.0716C788.79 -45.1682 788.313 -41.0949 786.641 -37.4213L780.311 -23.5108L776.822 -12.5977C776.68 -12.1549 776.608 -11.6948 776.608 -11.2334V-11.2334C776.608 -8.78607 778.593 -6.8286 781.075 -6.8286L797.988 -6.8286L821.849 -6.82861L856.894 -6.8286L868.164 -6.82859C868.945 -6.82859 869.57 -6.2123 869.57 -5.4418L869.57 28.5083L869.57 59.2024C869.57 59.8049 869.629 60.4047 869.747 60.9935V60.9935C870.841 66.4638 876.568 69.6536 881.962 67.7974L888.013 65.7151C889.631 65.1587 891.326 64.8744 893.028 64.8744L903.422 64.8744C909.764 64.8744 915.771 67.4503 920.032 71.9963V71.9963C923.878 76.1007 926.009 81.5015 926.009 87.1478L926.009 94.4362L925.307 104.027C924.993 108.315 923.638 112.487 921.357 116.191L920.326 117.866C917.888 121.825 914.217 124.913 909.876 126.659V126.659C905.356 128.477 900.373 128.731 895.752 127.38L884.484 124.086C883.44 123.78 882.353 123.625 881.258 123.625V123.625C874.842 123.625 869.57 128.824 869.57 135.151L869.57 137.231L869.57 154.72L869.57 178.251Z" fill="#FF50C7"/>
<path d="M833.043 183.241L848.249 183.241C849.031 183.241 849.656 183.857 849.656 184.628L849.656 192.902L849.656 217.37L849.656 362.231L849.652 390.387C849.652 391.18 848.991 391.832 848.186 391.832L826.986 391.833L799.333 391.346L772.094 389.634C768.366 389.4 764.953 387.594 762.726 384.676V384.676C760.237 381.415 759.512 377.142 760.776 373.188L762.883 366.596C763.467 364.77 764.248 363.009 765.214 361.342L767.164 357.977C768.801 355.151 769.664 351.964 769.664 348.738V348.738C769.664 343.268 767.189 338.133 762.914 334.732L760.716 332.984L760.43 332.783C752.084 326.901 740.802 326.831 732.136 332.607V332.607C730.932 333.409 729.799 334.312 728.75 335.305L726.808 337.142C724.758 339.082 723.235 341.498 722.384 344.159V344.159C721.304 347.538 721.36 351.15 722.544 354.449L724.925 361.08L725.272 361.977C728.134 369.383 724.751 377.838 717.469 381.472V381.472V381.472C711.103 384.758 704.052 386.475 696.928 386.475L650.32 386.475C648.644 386.475 647.157 387.597 646.71 389.199V389.199C645.57 393.28 639.507 392.592 639.507 388.381L639.507 361.08L639.507 317.737C639.507 316.271 639.235 314.822 638.704 313.463V313.463C636.979 309.046 632.75 306.104 627.922 305.963L625.111 305.882C622.69 305.811 620.27 306.268 618.026 307.219L605.473 312.543C600.939 314.466 595.897 314.771 591.227 313.406V313.406C587.256 312.244 583.751 309.932 581.163 306.765L580.299 305.708C577.242 301.967 575.369 297.411 574.906 292.589L574.799 291.481C574.429 287.629 574.851 283.727 576.04 280.008L576.298 279.201C577.737 274.7 580.37 270.64 583.921 267.445L585.2 266.294C588.107 263.678 591.69 261.914 595.533 261.207V261.207C599.497 260.477 603.568 260.903 607.243 262.432L622.063 268.6L633.543 271.957C633.961 272.079 634.395 272.141 634.833 272.141V272.141C637.399 272.141 639.507 270.062 639.507 267.532L639.507 251.695L639.507 228.877L639.507 195.363L639.507 184.687C639.507 183.893 640.168 183.241 640.973 183.241L676.458 183.241L724.557 183.241C725.279 183.241 725.998 183.118 726.682 182.877L726.843 182.82C729.657 181.829 731.37 178.989 730.89 176.111V176.111L727.681 163.979L726.369 153.38C725.898 149.574 726.533 145.693 728.199 142.184V142.184C730.461 137.422 734.473 133.661 739.407 131.677L740.359 131.295C743.674 129.962 747.24 129.391 750.782 129.629L755.592 129.951C759.977 130.244 764.219 131.504 768.007 133.637L770.301 134.93C774.186 137.118 777.24 140.481 779.023 144.535V144.535C780.968 148.958 781.283 153.941 779.916 158.636L776.711 169.64C776.425 170.621 776.28 171.634 776.28 172.65L776.28 174.325C776.28 179.279 780.298 183.241 785.322 183.241V183.241L808.437 183.241L833.043 183.241Z" fill="#FFC9E4"/>
<path d="M1043.3 192.401L1058.5 192.401C1059.28 192.401 1059.91 193.017 1059.91 193.787L1059.91 202.061L1059.91 226.529L1059.91 371.39L1059.9 399.547C1059.9 400.34 1059.24 400.992 1058.44 400.992L1037.24 400.992L1009.58 400.505L982.345 398.794C978.618 398.559 975.205 396.753 972.978 393.835V393.835C970.489 390.575 969.764 386.302 971.028 382.348L973.135 375.755C973.719 373.93 974.5 372.169 975.466 370.502L977.416 367.137C979.053 364.31 979.916 361.124 979.916 357.898V357.898C979.916 352.427 977.441 347.292 973.166 343.892L970.968 342.143L970.682 341.942C962.336 336.061 951.054 335.991 942.388 341.766V341.766C941.184 342.569 940.051 343.471 939.002 344.464L936.909 346.445C934.958 348.291 933.508 350.59 932.699 353.122V353.122C931.583 356.612 931.744 360.353 933.153 363.686L935.923 370.24L936.6 372.273C938.919 379.233 935.943 386.943 929.466 390.756V390.756C928.8 391.148 928.108 391.492 927.393 391.786L925.691 392.485C920.633 394.564 915.226 395.635 909.786 395.635L858.295 395.635C857.914 395.635 857.533 395.668 857.157 395.735V395.735C853.274 396.425 849.759 393.539 849.759 389.663L849.759 370.24L849.759 326.897C849.759 325.43 849.487 323.982 848.956 322.622V322.622C847.231 318.205 843.002 315.264 838.174 315.123L835.363 315.041C832.941 314.971 830.522 315.427 828.278 316.379L815.725 321.703C811.191 323.625 806.149 323.931 801.479 322.565V322.565C797.508 321.404 794.003 319.092 791.415 315.925L790.551 314.867C787.494 311.127 785.621 306.57 785.157 301.749L785.051 300.64C784.681 296.788 785.103 292.887 786.292 289.167L786.55 288.361C787.989 283.86 790.622 279.799 794.173 276.604L795.452 275.453C798.359 272.838 801.942 271.074 805.785 270.366V270.366C809.749 269.636 813.82 270.062 817.495 271.592L832.314 277.76L843.795 281.117C844.213 281.239 844.647 281.301 845.085 281.301V281.301C847.651 281.301 849.759 279.222 849.759 276.692L849.759 260.855L849.759 238.037L849.759 204.523L849.759 193.846C849.759 193.053 850.42 192.401 851.225 192.401L886.71 192.401L935.9 192.401V192.401C939.234 192.401 941.974 189.699 941.974 186.411L941.974 184.788C941.974 183.872 941.803 182.967 941.469 182.119L939.549 177.243C938.475 174.517 937.75 171.664 937.389 168.748L936.798 163.967C936.211 159.229 937.001 154.396 939.076 150.028L939.319 149.517C941.06 145.853 943.724 142.677 947.054 140.3V140.3C951.66 137.01 957.276 135.434 962.882 135.857L966.902 136.161C971.785 136.529 976.457 138.159 980.45 140.887L982.375 142.201C986.776 145.207 989.856 149.737 991.02 154.918V154.918C991.847 158.598 991.671 162.448 990.51 166.08L986.618 178.254C986.323 179.175 986.173 180.133 986.173 181.093V181.093C986.173 186.187 990.305 190.261 995.471 190.261L997.065 190.261L1018.69 192.401L1043.3 192.401Z" fill="#FF50C7"/>
<path d="M656.181 165.469C656.181 176.107 657.202 186.701 659.229 197.108V197.108C659.253 197.232 659.155 197.348 659.027 197.348L649.174 197.348L623.588 197.348L472.108 197.348L442.56 197.345C441.779 197.345 441.154 196.728 441.154 195.958L441.154 175.669L441.663 149.224L443.42 123.647C443.684 119.807 445.711 116.26 448.924 114.017V114.017C452.169 111.752 456.261 111.069 460.014 112.166L470.415 115.207L483.713 117.28C484.943 117.471 486.188 117.568 487.437 117.568L489.078 117.568C493.088 117.568 497.021 116.312 500.311 113.981V113.981C501.888 112.864 503.292 111.514 504.468 109.989V109.989C509.606 103.32 509.812 94.1941 504.953 87.526L502.986 84.827C502.213 83.7665 501.35 82.7741 500.404 81.8606L498.386 79.9099C496.325 77.9182 493.798 76.4543 491.018 75.6417V75.6417C487.466 74.603 483.653 74.6724 480.095 75.8405L473.311 78.0679L472.232 78.4494C464.426 81.2087 455.858 78.0296 451.988 70.9373V70.9373V70.9373C448.555 64.8562 446.756 57.9863 446.756 50.9658L446.756 4.89856C446.756 4.30034 446.679 3.70608 446.528 3.1299V3.1299C445.246 -1.74316 449.424 -6.43988 454.506 -5.83953L473.311 -3.61799L518.858 -3.61796C520.245 -3.61796 521.626 -3.85774 522.938 -4.32642V-4.32642C527.611 -5.99516 530.807 -10.3228 530.962 -15.1919L531.033 -17.4307C531.106 -19.714 530.647 -21.9725 529.692 -24.0327L523.962 -36.389C522.026 -40.5653 521.74 -45.3327 523.159 -49.7731V-49.7731C524.373 -53.5702 526.767 -56.9158 529.998 -59.3305L531.448 -60.414C535.209 -63.2249 539.683 -64.9356 544.345 -65.3451L546.279 -65.515C550.187 -65.8584 554.111 -65.4742 557.846 -64.3823L559.303 -63.9563C563.776 -62.6486 567.817 -60.2394 571.05 -56.9529L572.727 -55.2487C575.267 -52.6671 576.995 -49.4113 577.71 -45.861V-45.861C578.496 -41.9575 578.019 -37.8842 576.347 -34.2106L570.017 -20.3001L566.528 -9.38697C566.386 -8.94427 566.314 -8.48412 566.314 -8.0227V-8.0227C566.314 -5.57539 568.299 -3.61792 570.781 -3.61793L587.694 -3.61794L611.555 -3.61793L646.6 -3.61793L660.106 -3.61793C660.888 -3.61793 661.513 -3.00164 661.513 -2.23113L661.513 33.1456L661.513 57.5721C661.513 58.3996 661.588 59.2239 661.737 60.0352V60.0352C663.141 67.6828 670.673 72.5654 678.426 70.8535L681.274 70.2248L684.303 69.2303C691.873 66.7453 700.073 67.3194 707.087 70.8254V70.8254C714.933 74.7478 720.526 81.9517 722.342 90.4765L722.865 92.9315C724.437 100.307 723.08 108.054 719.073 114.591L718.934 114.817C717.186 117.669 714.949 120.207 712.327 122.315V122.315C708.362 125.5 703.633 127.609 698.623 128.426L698.433 128.457C693.109 129.325 687.676 128.736 682.728 126.756L672.461 122.647C669.301 121.382 665.708 121.564 662.636 123.144V123.144C658.68 125.178 656.181 129.218 656.181 133.581L656.181 137.966L656.181 158.644L656.181 165.469Z" fill="#FFC9E4"/>
<path d="M628.711 186.45L643.917 186.45C644.699 186.45 645.324 187.066 645.324 187.837L645.324 196.111L645.324 220.579L645.324 365.44L645.32 393.596C645.32 394.389 644.659 395.041 643.854 395.041L622.654 395.042L595.001 394.555L567.762 392.843C564.034 392.609 560.621 390.803 558.394 387.885V387.885C555.905 384.624 555.18 380.351 556.444 376.397L558.551 369.805C559.135 367.979 559.916 366.218 560.882 364.551L562.832 361.186C564.469 358.36 565.332 355.173 565.332 351.947V351.947C565.332 346.477 562.857 341.342 558.582 337.941L556.384 336.193L556.098 335.992C547.752 330.11 536.47 330.04 527.804 335.816V335.816C526.6 336.618 525.467 337.521 524.418 338.514L522.476 340.351C520.426 342.291 518.903 344.707 518.052 347.367V347.367C516.972 350.747 517.028 354.359 518.212 357.658L520.593 364.289L520.94 365.186C523.802 372.592 520.419 381.047 513.137 384.681V384.681V384.681C506.715 387.995 499.823 390.297 492.715 391.5L447.054 399.229C445.499 399.493 444.189 400.557 443.626 402.016V402.016C441.889 406.513 435.175 405.423 435.175 400.645L435.175 364.289L435.175 320.946C435.175 319.48 434.903 318.031 434.372 316.672V316.672C432.647 312.255 428.418 309.313 423.59 309.172L420.779 309.09C418.357 309.02 415.938 309.477 413.694 310.428L401.141 315.752C396.607 317.675 391.565 317.98 386.895 316.615V316.615C382.924 315.453 379.419 313.141 376.831 309.974L375.967 308.917C372.91 305.176 371.037 300.62 370.573 295.798L370.467 294.69C370.097 290.838 370.519 286.936 371.708 283.217L371.966 282.41C373.405 277.909 376.038 273.849 379.589 270.654L380.868 269.503C383.775 266.887 387.358 265.123 391.201 264.416V264.416C395.165 263.686 399.236 264.112 402.911 265.641L417.73 271.809L429.211 275.166C429.629 275.288 430.063 275.35 430.501 275.35V275.35C433.067 275.35 435.175 273.271 435.175 270.741L435.175 254.904L435.175 232.086L435.175 198.572L435.175 187.896C435.175 187.102 435.836 186.45 436.641 186.45L472.126 186.45L521.316 186.45L524.068 186.45C526.067 186.45 527.881 185.227 528.621 183.382V183.382C529.079 182.239 529.074 180.975 528.609 179.855L524.836 170.77C523.849 168.392 523.188 165.889 522.871 163.326L522.037 156.589C521.566 152.783 522.201 148.902 523.867 145.393V145.393C526.129 140.631 530.141 136.87 535.075 134.886L536.027 134.504C539.342 133.171 542.908 132.6 546.45 132.838L551.26 133.16C555.645 133.453 559.887 134.713 563.675 136.846L565.486 137.867C569.685 140.232 572.986 143.867 574.912 148.247L575.217 148.94C576.834 152.619 577.287 156.714 576.516 160.697L573.929 174.069C572.893 179.424 576.974 184.311 582.481 184.311V184.311L604.105 186.45L628.711 186.45Z" fill="white"/>
<path d="M849.363 571.268L849.363 579.141L849.363 586.965C849.363 587.759 848.702 588.411 847.897 588.411L821.37 588.411L726.559 588.411L668.202 588.395L646.296 588.393C632.794 588.392 625.891 572.724 634.967 562.68V562.68C637.526 559.847 638.976 556.217 639.048 552.461L639.445 531.841L641.203 506.264C641.467 502.424 643.494 498.877 646.707 496.634V496.634C649.951 494.369 654.044 493.686 657.796 494.783L666.007 497.184C667.465 497.61 668.957 497.926 670.468 498.13L676.234 498.908C678.894 499.267 681.608 499.141 684.243 498.538L685.825 498.176C690.064 497.205 693.831 494.75 696.42 491.272V491.272C697.603 489.681 698.513 487.912 699.113 486.038L700.439 481.89C701.523 478.497 701.68 474.899 700.894 471.465L700.715 470.685C699.992 467.527 698.37 464.654 696.038 462.401V462.401C694.063 460.492 691.641 459.089 688.976 458.31L686.275 457.52C684.326 456.95 682.317 456.586 680.282 456.434L679.063 456.343C674.197 455.979 669.286 456.486 664.566 457.839L658.583 459.555L653.362 461.736C650.099 463.099 646.359 462.244 644.113 459.62V459.62C642.818 458.108 642.156 456.158 642.26 454.158L645.491 392.032C645.702 387.97 647.927 384.229 651.44 382.031V382.031C653.19 380.936 655.177 380.278 657.226 380.113L668.177 379.233C670.119 379.077 672.067 379.059 674.006 379.18L711.03 381.479C714.694 381.706 717.838 378.791 717.838 375.165V375.165C717.838 374.329 718.01 373.498 718.343 372.722L719.862 369.182C721.786 364.703 722.355 359.794 721.5 355.057L719.75 345.355C719.084 341.667 719.339 337.857 720.492 334.25V334.25C721.998 329.539 724.969 325.388 728.977 322.392L729.231 322.203C732.992 319.392 737.466 317.681 742.128 317.272L744.061 317.102C747.97 316.758 751.894 317.143 755.629 318.235L757.086 318.661C761.558 319.968 765.599 322.377 768.833 325.664L770.51 327.368C773.05 329.95 774.778 333.206 775.492 336.756V336.756C776.278 340.659 775.802 344.733 774.13 348.406L767.799 362.317L764.546 372.494C764.248 373.423 764.11 374.392 764.135 375.36V375.36C764.232 379.068 766.704 382.258 770.292 383.307L777.74 385.485C780.061 386.164 782.498 386.412 784.929 386.216L801.639 384.874L850.509 387.744C853.359 387.912 855.555 390.213 855.555 393.032V393.032L855.555 413.711L853.046 461.376V461.376C853.046 464.361 855.007 466.962 857.892 467.806L859.244 468.201C861.114 468.748 863.129 468.664 864.973 467.964L873.072 464.888C875.814 463.847 878.672 463.153 881.577 462.825L888.33 462.06C892.29 461.612 896.278 462.203 899.89 463.772V463.772C904.948 465.969 908.964 469.953 911.163 474.954L911.264 475.185C912.732 478.522 913.358 482.175 913.09 485.835L912.795 489.855C912.481 494.143 911.127 498.315 908.846 502.018L907.815 503.693C905.376 507.652 901.706 510.741 897.365 512.486V512.486C892.844 514.304 887.861 514.559 883.24 513.208L872.684 510.121C871.167 509.678 869.592 509.435 868.002 509.399L862.588 509.276C857.514 509.161 852.935 512.454 851.464 517.277V517.277C851.21 518.11 851.056 518.968 851.006 519.832L849.787 540.785L849.363 571.268Z" fill="white"/>
<path d="M767.925 59.3708L766.861 60.7826C766.696 61.0022 766.388 61.0559 766.158 60.9054C765.249 60.3111 764.392 59.6422 763.594 58.9058L762.71 58.0897L759.979 55.8553L757.529 54.1857L756.817 53.7933C755.552 53.0955 754.193 52.5818 752.783 52.2676L752.475 52.1992C751.881 52.0669 751.269 51.9823 750.662 51.9471C749.93 51.9048 749.187 51.9343 748.461 52.0363C747.611 52.1557 746.778 52.373 745.979 52.6839L745.564 52.845C744.482 53.2655 743.453 53.8105 742.497 54.4691L741.732 54.996L741.34 55.3343C739.93 56.5483 738.673 57.929 737.596 59.4461C736.773 60.6054 736.06 61.8386 735.465 63.1298L734.971 64.2036L734.936 64.2988C734.185 66.3522 733.662 68.4816 733.376 70.6489L733.319 71.0819L733.14 75.5379L733.327 77.5183C733.477 79.1106 733.755 80.6882 734.158 82.2361L734.867 84.9622L736.099 88.079C736.735 89.6869 737.509 91.2367 738.412 92.7109L739.668 94.7603L741.167 96.9362C742.022 98.1769 742.969 99.3512 744.001 100.449L745.293 101.824L748.53 104.793L754.346 109.125L761.65 113.596L765.686 115.607C769.019 117.267 773.021 116.787 775.866 114.385L786.662 105.275L789.856 102.208L792.315 99.6464L794.861 96.2676L797.494 92.0711L799.364 88.183L800.358 85.2238L800.75 83.9575C801.227 82.4179 801.578 80.8422 801.801 79.246L802.069 77.3303L802.171 74.0229C802.224 72.3201 802.132 70.6159 801.895 68.9289L801.638 67.0995C801.492 66.0607 801.269 65.0342 800.97 64.0286C800.505 62.4631 799.861 60.9568 799.049 59.5398L798.136 57.9445L796.167 55.4016L794.835 54.0957C794.167 53.4409 793.445 52.8439 792.676 52.3113C791.517 51.5088 790.261 50.8577 788.937 50.374L787.746 49.9389C786.506 49.5841 785.202 49.4135 783.912 49.4426C782.937 49.4645 781.968 49.5976 781.023 49.8391L780.771 49.9036C779.558 50.2135 778.389 50.6727 777.291 51.2708L775.952 51.9993L773.211 53.9957L770.527 56.387L767.925 59.3708Z" fill="#FFC9E4"/>
<path d="M975.957 474.596L974.318 475.258C974.063 475.361 973.772 475.249 973.653 475.001C973.18 474.024 972.789 473.009 972.484 471.966L972.147 470.812L970.957 467.49L969.717 464.797L969.309 464.094C968.584 462.844 967.684 461.704 966.636 460.708L966.408 460.491C965.967 460.072 965.486 459.684 964.984 459.341C964.378 458.928 963.726 458.571 963.051 458.284C962.261 457.949 961.435 457.706 960.59 457.561L960.152 457.485C959.008 457.289 957.845 457.226 956.686 457.298L955.759 457.356L955.248 457.443C953.415 457.758 951.626 458.294 949.922 459.04C948.619 459.61 947.373 460.299 946.198 461.1L945.221 461.765L945.142 461.829C943.441 463.203 941.896 464.759 940.535 466.469L940.263 466.811L937.814 470.538L936.954 472.332C936.263 473.774 935.689 475.27 935.237 476.804L934.441 479.506L933.892 482.812C933.608 484.518 933.473 486.245 933.488 487.973L933.509 490.377L933.674 493.014C933.767 494.518 933.975 496.012 934.293 497.485L934.693 499.329L935.938 503.541L938.693 510.25L942.651 517.843L945.075 521.646C947.077 524.786 950.754 526.436 954.43 525.843L968.376 523.593L972.693 522.609L976.121 521.681L980.043 520.096L984.461 517.855L988.067 515.485L990.443 513.46L991.431 512.577C992.633 511.503 993.745 510.333 994.759 509.08L995.974 507.575L997.766 504.793C998.688 503.361 999.487 501.853 1000.15 500.284L1000.87 498.584C1001.28 497.618 1001.62 496.623 1001.88 495.608C1002.29 494.027 1002.51 492.403 1002.55 490.771L1002.59 488.933L1002.21 485.739L1001.74 483.934C1001.51 483.028 1001.19 482.145 1000.81 481.292C1000.23 480.008 999.487 478.802 998.602 477.706L997.805 476.72C996.925 475.777 995.895 474.959 994.774 474.319C993.927 473.836 993.028 473.451 992.094 473.171L991.844 473.097C990.646 472.738 989.407 472.53 988.157 472.476L986.634 472.411L983.257 472.711L979.724 473.378L975.957 474.596Z" fill="white"/>
<path d="M647.126 561.508L647.126 569.381L647.126 589.327C647.126 590.121 646.465 590.773 645.66 590.773L620.51 590.773L522.831 590.774L463.921 590.778L437.095 590.777C417.027 590.776 410 564.884 427.206 554.342V554.342C433.113 550.723 436.778 544.4 436.909 537.606L437.208 522.081L438.966 496.504C439.229 492.664 441.257 489.117 444.469 486.874V486.874C447.714 484.609 451.806 483.926 455.559 485.023L463.77 487.424C465.228 487.85 466.719 488.166 468.231 488.37L473.997 489.148C476.657 489.507 479.371 489.381 482.006 488.778L483.588 488.416C487.827 487.445 491.594 484.99 494.182 481.512V481.512C495.366 479.921 496.276 478.152 496.875 476.278L498.201 472.13C499.286 468.737 499.443 465.139 498.656 461.705L498.478 460.925C497.754 457.767 496.133 454.894 493.801 452.641V452.641C491.826 450.732 489.403 449.329 486.739 448.55L484.038 447.76C482.089 447.19 480.08 446.826 478.045 446.674L476.825 446.583C471.959 446.219 467.048 446.726 462.329 448.079L456.345 449.795L451.271 451.915C447.921 453.315 444.081 452.436 441.775 449.742V449.742C440.538 448.298 439.861 446.463 439.861 444.554L439.861 404.751C439.861 402.361 440.587 400.011 441.944 398.004V398.004C444.253 394.589 448.136 392.527 452.257 392.527L469.466 392.527L501.619 388.552C510.023 387.513 516.992 381.438 519.088 373.324V373.324C520.057 369.573 519.907 365.647 518.658 362.023L518.36 361.158L517.758 359.281C516.359 354.921 516.47 350.197 518.073 345.843V345.843C519.693 341.443 522.745 337.672 526.745 335.127L527.4 334.71C530.286 332.874 533.531 331.672 536.908 331.188L539.188 330.861C544.071 330.16 549.085 331.003 553.418 333.213V333.213C556.331 334.699 558.915 336.81 560.918 339.363L562.272 341.09C565.185 344.803 566.43 349.55 565.728 354.255V354.255C565.468 355.995 564.946 357.693 564.18 359.292L563.997 359.676C562.592 362.609 561.903 365.814 561.988 369.029L562.002 369.568C562.04 371.049 562.227 372.521 562.558 373.96V373.96C565.025 384.691 574.995 391.969 586.193 391.205L598.143 390.388L646.81 390.388C650.426 390.388 653.318 393.24 653.318 396.806V396.806L653.318 403.951L650.809 451.616L650.809 454.482C650.809 455.766 651.636 456.891 652.868 457.282V457.282C653.166 457.377 653.478 457.425 653.793 457.425L664.498 457.425C666.93 457.425 669.359 457.123 671.727 456.525L678.342 454.855C686.067 452.906 694.112 455.846 698.551 462.241V462.241C700.681 465.309 701.819 468.954 701.819 472.708L701.819 479.109L701.82 482.82C701.82 486.25 700.86 489.634 699.045 492.598V492.598C697.419 495.251 695.161 497.481 692.473 499.088L692.101 499.31C687.326 502.163 681.628 503.026 676.288 501.705L670.15 500.185C668.828 499.858 667.47 499.677 666.101 499.646L660.35 499.516C655.276 499.401 650.698 502.694 649.227 507.517V507.517C648.972 508.35 648.819 509.208 648.768 510.072L647.55 531.025L647.126 561.508Z" fill="#FF50C7"/>
<path d="M734.711 246.058L734.434 247.804C734.391 248.076 734.145 248.267 733.871 248.243C732.79 248.144 731.719 247.957 730.669 247.681L729.505 247.375L726.045 246.685L723.098 246.361L722.285 246.348C720.84 246.326 719.399 246.511 718.006 246.895L717.703 246.979C717.116 247.141 716.536 247.354 715.983 247.608C715.318 247.914 714.675 248.289 714.082 248.72C713.388 249.224 712.754 249.807 712.194 250.457L711.904 250.794C711.146 251.673 710.493 252.638 709.958 253.668L709.531 254.492L709.342 254.975C708.668 256.709 708.206 258.518 707.968 260.363C707.786 261.773 707.735 263.197 707.816 264.616L707.883 265.796L707.897 265.897C708.198 268.062 708.736 270.188 709.501 272.236L709.654 272.645L711.587 276.664L712.682 278.324C713.563 279.66 714.549 280.922 715.631 282.1L717.537 284.174L720.088 286.347C721.404 287.469 722.815 288.474 724.305 289.351L726.376 290.571L728.721 291.789C730.058 292.483 731.446 293.075 732.872 293.56L734.659 294.168L738.91 295.269L746.08 296.363L754.627 296.882L759.136 296.762C762.858 296.664 766.166 294.362 767.551 290.905L772.805 277.792L774.185 273.585L775.155 270.169L775.817 265.99L776.171 261.049L775.997 256.738L775.485 253.658L775.237 252.356C774.935 250.773 774.505 249.217 773.953 247.703L773.289 245.886L771.828 242.917C771.075 241.389 770.193 239.928 769.192 238.55L768.106 237.055C767.489 236.206 766.81 235.405 766.075 234.657C764.93 233.493 763.653 232.465 762.271 231.595L760.716 230.616L757.784 229.295L755.995 228.767C755.097 228.502 754.179 228.315 753.25 228.205C751.851 228.041 750.436 228.056 749.04 228.25L747.784 228.425C746.522 228.694 745.291 229.155 744.166 229.787C743.315 230.264 742.522 230.836 741.801 231.493L741.608 231.669C740.684 232.511 739.867 233.465 739.178 234.509L738.338 235.781L736.855 238.83L735.607 242.202L734.711 246.058Z" fill="#FF50C7"/>
</g>
<g clip-path="url(#clip2_959_166)">
<path d="M1586.4 180.28L1586.4 194.722C1586.4 195.515 1585.74 196.167 1584.94 196.167L1576.3 196.167L1550.71 196.167L1399.23 196.167L1369.69 196.164C1368.9 196.163 1368.28 195.547 1368.28 194.777L1368.28 174.488L1368.79 148.043L1370.55 122.466C1370.81 118.626 1372.84 115.079 1376.05 112.836V112.836C1379.29 110.571 1383.39 109.888 1387.14 110.985L1394.74 113.206C1396.6 113.751 1398.4 114.482 1400.11 115.388L1403.88 117.387C1406.71 118.886 1409.89 119.67 1413.13 119.67V119.67C1418.99 119.67 1424.6 117.109 1428.46 112.676L1429.82 111.113V111.113C1436.02 103.062 1436.25 92.069 1430.38 84.0187L1430.11 83.6457C1429.34 82.5851 1428.48 81.5928 1427.53 80.6792L1425.51 78.7286C1423.45 76.7369 1420.92 75.273 1418.14 74.4603V74.4603C1414.59 73.4216 1410.78 73.491 1407.22 74.6592L1400.44 76.8866L1399.36 77.268C1391.55 80.0274 1382.98 76.8482 1379.11 69.756V69.756V69.756C1375.68 63.6748 1373.88 56.805 1373.88 49.7845L1373.88 2.81631V2.81631C1373.88 -0.7537 1376.77 -3.73149 1380.39 -3.89481L1400.44 -4.7993L1445.98 -4.7993C1447.37 -4.7993 1448.75 -5.03908 1450.06 -5.50776V-5.50776C1454.74 -7.17651 1457.93 -11.5042 1458.09 -16.3733L1458.16 -18.612C1458.23 -20.8953 1457.77 -23.1539 1456.82 -25.214L1451.09 -37.5703C1449.15 -41.7467 1448.87 -46.5141 1450.29 -50.9545V-50.9545C1451.5 -54.7516 1453.89 -58.0971 1457.12 -60.5118L1458.57 -61.5954C1462.33 -64.4062 1466.81 -66.1169 1471.47 -66.5265L1473.4 -66.6964C1477.31 -67.0398 1481.24 -66.6555 1484.97 -65.5637L1486.43 -65.1377C1490.9 -63.83 1494.94 -61.4208 1498.18 -58.1343L1499.85 -56.43C1502.39 -53.8485 1504.12 -50.5927 1504.84 -47.0423V-47.0423C1505.62 -43.1389 1505.15 -39.0656 1503.47 -35.392L1497.14 -21.4815L1493.65 -10.5683C1493.51 -10.1256 1493.44 -9.66549 1493.44 -9.20407V-9.20407C1493.44 -6.75676 1495.43 -4.79929 1497.91 -4.7993L1514.82 -4.7993L1538.68 -4.7993L1573.73 -4.79929L1585 -4.79928C1585.78 -4.79928 1586.4 -4.183 1586.4 -3.41249L1586.4 30.5376L1586.4 76.3503C1586.4 77.1449 1586.13 77.9213 1585.62 78.5513V78.5513C1584.07 80.4964 1584.94 83.3367 1587.31 84.0301L1589.75 84.743C1590.87 85.069 1592.07 85.0195 1593.17 84.6021L1602.42 81.0899C1605.16 80.0487 1608.02 79.3552 1610.92 79.0264L1617.67 78.2622C1621.63 77.814 1625.62 78.4044 1629.23 79.9734V79.9734C1634.29 82.171 1638.31 86.1543 1640.51 91.1557L1640.61 91.3862C1642.08 94.7236 1642.7 98.3762 1642.43 102.037L1642.14 106.056C1641.82 110.345 1640.47 114.517 1638.19 118.22L1637.16 119.895C1634.72 123.854 1631.05 126.943 1626.71 128.688V128.688C1622.19 130.506 1617.2 130.76 1612.58 129.409L1600.89 125.991C1600.13 125.768 1599.34 125.645 1598.53 125.627L1593.78 125.519C1589.05 125.412 1585.8 130.331 1587.86 134.498V134.498C1588.37 135.526 1588.57 136.679 1588.45 137.828L1586.4 156.749L1586.4 180.28Z" fill="white"/>
<path d="M1577.39 565.422C1577.29 570.62 1576.43 575.792 1574.83 580.779V580.779C1574.83 580.785 1574.83 580.791 1574.83 580.798L1574.83 588.958C1574.83 589.751 1574.17 590.403 1573.37 590.403L1549.25 590.403L1397.77 590.403L1368.22 590.4C1367.44 590.4 1366.81 589.783 1366.81 589.013L1366.81 568.724L1367.32 542.279L1369.08 516.702C1369.34 512.862 1371.37 509.315 1374.58 507.072V507.072C1377.83 504.807 1381.92 504.124 1385.67 505.221L1393.88 507.622C1395.34 508.048 1396.83 508.364 1398.34 508.568L1404.11 509.346C1406.77 509.705 1409.48 509.579 1412.12 508.976L1413.7 508.614C1417.94 507.643 1421.71 505.188 1424.29 501.71V501.71C1425.48 500.119 1426.39 498.35 1426.99 496.476L1428.31 492.328C1429.4 488.935 1429.56 485.337 1428.77 481.903L1428.59 481.123C1427.87 477.965 1426.24 475.092 1423.91 472.839V472.839C1421.94 470.93 1419.52 469.527 1416.85 468.748L1414.15 467.958C1412.2 467.388 1410.19 467.024 1408.16 466.872L1406.94 466.781C1402.07 466.417 1397.16 466.924 1392.44 468.277L1386.46 469.993L1381.28 472.154C1377.99 473.529 1374.22 472.666 1371.95 470.019V470.019C1370.68 468.529 1370.01 466.617 1370.08 464.647L1372.41 397.053V397.053C1372.41 393.483 1375.3 390.505 1378.92 390.341L1398.97 389.437L1441.22 392.061C1444.14 392.242 1447.07 391.525 1449.6 390.008V390.008C1453.81 387.485 1456.45 383.036 1456.61 378.225L1456.67 376.244C1456.76 373.553 1456.22 370.891 1455.09 368.463L1449.62 356.666C1447.68 352.49 1447.4 347.722 1448.82 343.282V343.282C1450.03 339.485 1452.42 336.139 1455.66 333.724L1457.11 332.641C1460.87 329.83 1465.34 328.119 1470 327.71L1471.94 327.54C1475.84 327.197 1479.77 327.581 1483.5 328.673L1484.96 329.099C1489.43 330.406 1493.47 332.815 1496.71 336.102L1498.38 337.806C1500.92 340.388 1502.65 343.644 1503.37 347.194V347.194C1504.15 351.097 1503.68 355.171 1502 358.844L1495.67 372.755L1492.42 382.932C1492.12 383.862 1491.98 384.83 1492.01 385.798V385.798C1492.11 389.506 1494.58 392.696 1498.17 393.745L1505.61 395.923C1507.94 396.602 1510.37 396.85 1512.8 396.654L1529.51 395.312L1561.35 394.7C1567.13 394.588 1572.82 395.881 1577.91 398.463V398.463C1577.93 398.47 1577.94 398.484 1577.94 398.499L1577.94 424.033L1575.14 465.613C1574.9 469.169 1576.29 472.611 1578.91 474.999V474.999C1580.23 476.202 1581.82 477.09 1583.55 477.596L1584.57 477.892C1588.09 478.923 1591.89 478.766 1595.36 477.446L1600.95 475.326C1603.69 474.285 1606.55 473.591 1609.45 473.263L1616.2 472.498C1620.16 472.05 1624.15 472.641 1627.76 474.21V474.21C1632.82 476.407 1636.84 480.391 1639.04 485.392L1639.14 485.623C1640.61 488.96 1641.23 492.613 1640.96 496.273L1640.67 500.293C1640.36 504.581 1639 508.753 1636.72 512.456L1635.69 514.131C1633.25 518.09 1629.58 521.179 1625.24 522.924V522.924C1620.72 524.742 1615.74 524.997 1611.12 523.646L1600.95 520.673C1599.17 520.154 1597.33 519.869 1595.47 519.827L1590.16 519.707C1585.09 519.592 1580.37 522.411 1578.07 526.916V526.916C1577.04 528.929 1576.57 531.163 1576.69 533.392L1577.66 551.223L1577.39 565.422Z" fill="#FFC9E4"/>
<path d="M1389.57 178.251L1389.57 192.692C1389.57 193.486 1388.91 194.138 1388.1 194.138L1379.47 194.138L1353.88 194.138L1202.4 194.138L1172.85 194.134C1172.07 194.134 1171.45 193.518 1171.45 192.747L1171.45 172.458L1171.96 146.013L1173.71 120.437C1173.98 116.596 1176.01 113.049 1179.22 110.806V110.806C1182.46 108.541 1186.55 107.858 1190.31 108.955L1197.9 111.176C1199.77 111.722 1201.57 112.453 1203.28 113.358L1207.05 115.358C1209.88 116.857 1213.06 117.641 1216.3 117.641V117.641C1222.16 117.641 1227.77 115.08 1231.63 110.647L1232.99 109.084V109.084C1239.19 101.033 1239.42 90.0397 1233.55 81.9894L1233.28 81.6163C1232.51 80.5558 1231.64 79.5635 1230.7 78.6499L1228.68 76.6993C1226.62 74.7075 1224.09 73.2437 1221.31 72.431V72.431C1217.76 71.3923 1213.95 71.4617 1210.39 72.6299L1203.61 74.8573L1202.53 75.2387C1194.72 77.9981 1186.15 74.8189 1182.28 67.7266V67.7266V67.7266C1178.85 61.6455 1177.05 54.7757 1177.05 47.7552L1177.05 0.787006V0.787006C1177.05 -2.783 1179.94 -5.7608 1183.56 -5.92411L1203.61 -6.8286L1249.15 -6.82861C1250.54 -6.82861 1251.92 -7.06839 1253.23 -7.53707V-7.53707C1257.91 -9.20582 1261.1 -13.5335 1261.26 -18.4026L1261.33 -20.6413C1261.4 -22.9247 1260.94 -25.1832 1259.99 -27.2433L1254.26 -39.5996C1252.32 -43.776 1252.03 -48.5434 1253.45 -52.9838V-52.9838C1254.67 -56.7809 1257.06 -60.1265 1260.29 -62.5411L1261.74 -63.6247C1265.5 -66.4355 1269.98 -68.1462 1274.64 -68.5558L1276.57 -68.7257C1280.48 -69.0691 1284.41 -68.6848 1288.14 -67.593L1289.6 -67.167C1294.07 -65.8593 1298.11 -63.4501 1301.34 -60.1636L1303.02 -58.4593C1305.56 -55.8778 1307.29 -52.622 1308 -49.0716V-49.0716C1308.79 -45.1682 1308.31 -41.0949 1306.64 -37.4213L1300.31 -23.5108L1296.82 -12.5977C1296.68 -12.1549 1296.61 -11.6948 1296.61 -11.2334V-11.2334C1296.61 -8.78607 1298.59 -6.8286 1301.07 -6.8286L1317.99 -6.8286L1341.85 -6.82861L1376.89 -6.8286L1388.16 -6.82859C1388.94 -6.82859 1389.57 -6.2123 1389.57 -5.4418L1389.57 28.5083L1389.57 59.2024C1389.57 59.8049 1389.63 60.4047 1389.75 60.9935V60.9935C1390.84 66.4638 1396.57 69.6536 1401.96 67.7974L1408.01 65.7151C1409.63 65.1587 1411.33 64.8744 1413.03 64.8744L1423.42 64.8744C1429.76 64.8744 1435.77 67.4503 1440.03 71.9963V71.9963C1443.88 76.1007 1446.01 81.5015 1446.01 87.1478L1446.01 94.4362L1445.31 104.027C1444.99 108.315 1443.64 112.487 1441.36 116.191L1440.33 117.866C1437.89 121.825 1434.22 124.913 1429.88 126.659V126.659C1425.36 128.477 1420.37 128.731 1415.75 127.38L1404.48 124.086C1403.44 123.78 1402.35 123.625 1401.26 123.625V123.625C1394.84 123.625 1389.57 128.824 1389.57 135.151L1389.57 137.231L1389.57 154.72L1389.57 178.251Z" fill="#FF50C7"/>
<path d="M1353.04 183.241L1368.25 183.241C1369.03 183.241 1369.66 183.857 1369.66 184.628L1369.66 192.902L1369.66 217.37L1369.66 362.231L1369.65 390.387C1369.65 391.18 1368.99 391.832 1368.19 391.832L1346.99 391.833L1319.33 391.346L1292.09 389.634C1288.37 389.4 1284.95 387.594 1282.73 384.676V384.676C1280.24 381.415 1279.51 377.142 1280.78 373.188L1282.88 366.596C1283.47 364.77 1284.25 363.009 1285.21 361.342L1287.16 357.977C1288.8 355.151 1289.66 351.964 1289.66 348.738V348.738C1289.66 343.268 1287.19 338.133 1282.91 334.732L1280.72 332.984L1280.43 332.783C1272.08 326.901 1260.8 326.831 1252.14 332.607V332.607C1250.93 333.409 1249.8 334.312 1248.75 335.305L1246.81 337.142C1244.76 339.082 1243.23 341.498 1242.38 344.159V344.159C1241.3 347.538 1241.36 351.15 1242.54 354.449L1244.93 361.08L1245.27 361.977C1248.13 369.383 1244.75 377.838 1237.47 381.472V381.472V381.472C1231.1 384.758 1224.05 386.475 1216.93 386.475L1170.32 386.475C1168.64 386.475 1167.16 387.597 1166.71 389.199V389.199C1165.57 393.28 1159.51 392.592 1159.51 388.381L1159.51 361.08L1159.51 317.737C1159.51 316.271 1159.23 314.822 1158.7 313.463V313.463C1156.98 309.046 1152.75 306.104 1147.92 305.963L1145.11 305.882C1142.69 305.811 1140.27 306.268 1138.03 307.219L1125.47 312.543C1120.94 314.466 1115.9 314.771 1111.23 313.406V313.406C1107.26 312.244 1103.75 309.932 1101.16 306.765L1100.3 305.708C1097.24 301.967 1095.37 297.411 1094.91 292.589L1094.8 291.481C1094.43 287.629 1094.85 283.727 1096.04 280.008L1096.3 279.201C1097.74 274.7 1100.37 270.64 1103.92 267.445L1105.2 266.294C1108.11 263.678 1111.69 261.914 1115.53 261.207V261.207C1119.5 260.477 1123.57 260.903 1127.24 262.432L1142.06 268.6L1153.54 271.957C1153.96 272.079 1154.4 272.141 1154.83 272.141V272.141C1157.4 272.141 1159.51 270.062 1159.51 267.532L1159.51 251.695L1159.51 228.877L1159.51 195.363L1159.51 184.687C1159.51 183.893 1160.17 183.241 1160.97 183.241L1196.46 183.241L1244.56 183.241C1245.28 183.241 1246 183.118 1246.68 182.877L1246.84 182.82C1249.66 181.829 1251.37 178.989 1250.89 176.111V176.111L1247.68 163.979L1246.37 153.38C1245.9 149.574 1246.53 145.693 1248.2 142.184V142.184C1250.46 137.422 1254.47 133.661 1259.41 131.677L1260.36 131.295C1263.67 129.962 1267.24 129.391 1270.78 129.629L1275.59 129.951C1279.98 130.244 1284.22 131.504 1288.01 133.637L1290.3 134.93C1294.19 137.118 1297.24 140.481 1299.02 144.535V144.535C1300.97 148.958 1301.28 153.941 1299.92 158.636L1296.71 169.64C1296.43 170.621 1296.28 171.634 1296.28 172.65L1296.28 174.325C1296.28 179.279 1300.3 183.241 1305.32 183.241V183.241L1328.44 183.241L1353.04 183.241Z" fill="#FFC9E4"/>
<path d="M1563.3 192.401L1578.5 192.401C1579.28 192.401 1579.91 193.017 1579.91 193.787L1579.91 202.061L1579.91 226.529L1579.91 371.39L1579.9 399.547C1579.9 400.34 1579.24 400.992 1578.44 400.992L1557.24 400.992L1529.58 400.505L1502.35 398.794C1498.62 398.559 1495.21 396.753 1492.98 393.835V393.835C1490.49 390.575 1489.76 386.302 1491.03 382.348L1493.14 375.755C1493.72 373.93 1494.5 372.169 1495.47 370.502L1497.42 367.137C1499.05 364.31 1499.92 361.124 1499.92 357.898V357.898C1499.92 352.427 1497.44 347.292 1493.17 343.892L1490.97 342.143L1490.68 341.942C1482.34 336.061 1471.05 335.991 1462.39 341.766V341.766C1461.18 342.569 1460.05 343.471 1459 344.464L1456.91 346.445C1454.96 348.291 1453.51 350.59 1452.7 353.122V353.122C1451.58 356.612 1451.74 360.353 1453.15 363.686L1455.92 370.24L1456.6 372.273C1458.92 379.233 1455.94 386.943 1449.47 390.756V390.756C1448.8 391.148 1448.11 391.492 1447.39 391.786L1445.69 392.485C1440.63 394.564 1435.23 395.635 1429.79 395.635L1378.3 395.635C1377.91 395.635 1377.53 395.668 1377.16 395.735V395.735C1373.27 396.425 1369.76 393.539 1369.76 389.663L1369.76 370.24L1369.76 326.897C1369.76 325.43 1369.49 323.982 1368.96 322.622V322.622C1367.23 318.205 1363 315.264 1358.17 315.123L1355.36 315.041C1352.94 314.971 1350.52 315.427 1348.28 316.379L1335.72 321.703C1331.19 323.625 1326.15 323.931 1321.48 322.565V322.565C1317.51 321.404 1314 319.092 1311.42 315.925L1310.55 314.867C1307.49 311.127 1305.62 306.57 1305.16 301.749L1305.05 300.64C1304.68 296.788 1305.1 292.887 1306.29 289.167L1306.55 288.361C1307.99 283.86 1310.62 279.799 1314.17 276.604L1315.45 275.453C1318.36 272.838 1321.94 271.074 1325.78 270.366V270.366C1329.75 269.636 1333.82 270.062 1337.49 271.592L1352.31 277.76L1363.8 281.117C1364.21 281.239 1364.65 281.301 1365.09 281.301V281.301C1367.65 281.301 1369.76 279.222 1369.76 276.692L1369.76 260.855L1369.76 238.037L1369.76 204.523L1369.76 193.846C1369.76 193.053 1370.42 192.401 1371.22 192.401L1406.71 192.401L1455.9 192.401V192.401C1459.23 192.401 1461.97 189.699 1461.97 186.411L1461.97 184.788C1461.97 183.872 1461.8 182.967 1461.47 182.119L1459.55 177.243C1458.48 174.517 1457.75 171.664 1457.39 168.748L1456.8 163.967C1456.21 159.229 1457 154.396 1459.08 150.028L1459.32 149.517C1461.06 145.853 1463.72 142.677 1467.05 140.3V140.3C1471.66 137.01 1477.28 135.434 1482.88 135.857L1486.9 136.161C1491.78 136.529 1496.46 138.159 1500.45 140.887L1502.38 142.201C1506.78 145.207 1509.86 149.737 1511.02 154.918V154.918C1511.85 158.598 1511.67 162.448 1510.51 166.08L1506.62 178.254C1506.32 179.175 1506.17 180.133 1506.17 181.093V181.093C1506.17 186.187 1510.3 190.261 1515.47 190.261L1517.07 190.261L1538.69 192.401L1563.3 192.401Z" fill="#FF50C7"/>
<path d="M1176.18 165.469C1176.18 176.107 1177.2 186.701 1179.23 197.108V197.108C1179.25 197.232 1179.16 197.348 1179.03 197.348L1169.17 197.348L1143.59 197.348L992.108 197.348L962.56 197.345C961.779 197.345 961.154 196.728 961.154 195.958L961.154 175.669L961.663 149.224L963.42 123.647C963.684 119.807 965.711 116.26 968.924 114.017V114.017C972.169 111.752 976.261 111.069 980.014 112.166L990.415 115.207L1003.71 117.28C1004.94 117.471 1006.19 117.568 1007.44 117.568L1009.08 117.568C1013.09 117.568 1017.02 116.312 1020.31 113.981V113.981C1021.89 112.864 1023.29 111.514 1024.47 109.989V109.989C1029.61 103.32 1029.81 94.1941 1024.95 87.526L1022.99 84.827C1022.21 83.7665 1021.35 82.7741 1020.4 81.8606L1018.39 79.9099C1016.32 77.9182 1013.8 76.4543 1011.02 75.6417V75.6417C1007.47 74.603 1003.65 74.6724 1000.1 75.8405L993.311 78.0679L992.232 78.4494C984.426 81.2087 975.858 78.0296 971.988 70.9373V70.9373V70.9373C968.555 64.8562 966.756 57.9863 966.756 50.9658L966.756 4.89856C966.756 4.30034 966.679 3.70608 966.528 3.1299V3.1299C965.246 -1.74316 969.424 -6.43988 974.506 -5.83953L993.311 -3.61799L1038.86 -3.61796C1040.24 -3.61796 1041.63 -3.85774 1042.94 -4.32642V-4.32642C1047.61 -5.99516 1050.81 -10.3228 1050.96 -15.1919L1051.03 -17.4307C1051.11 -19.714 1050.65 -21.9725 1049.69 -24.0327L1043.96 -36.389C1042.03 -40.5653 1041.74 -45.3327 1043.16 -49.7731V-49.7731C1044.37 -53.5702 1046.77 -56.9158 1050 -59.3305L1051.45 -60.414C1055.21 -63.2249 1059.68 -64.9356 1064.35 -65.3451L1066.28 -65.515C1070.19 -65.8584 1074.11 -65.4742 1077.85 -64.3823L1079.3 -63.9563C1083.78 -62.6486 1087.82 -60.2394 1091.05 -56.9529L1092.73 -55.2487C1095.27 -52.6671 1096.99 -49.4113 1097.71 -45.861V-45.861C1098.5 -41.9575 1098.02 -37.8842 1096.35 -34.2106L1090.02 -20.3001L1086.53 -9.38697C1086.39 -8.94427 1086.31 -8.48412 1086.31 -8.0227V-8.0227C1086.31 -5.57539 1088.3 -3.61792 1090.78 -3.61793L1107.69 -3.61794L1131.55 -3.61793L1166.6 -3.61793L1180.11 -3.61793C1180.89 -3.61793 1181.51 -3.00164 1181.51 -2.23113L1181.51 33.1456L1181.51 57.5721C1181.51 58.3996 1181.59 59.2239 1181.74 60.0352V60.0352C1183.14 67.6828 1190.67 72.5654 1198.43 70.8535L1201.27 70.2248L1204.3 69.2303C1211.87 66.7453 1220.07 67.3194 1227.09 70.8254V70.8254C1234.93 74.7478 1240.53 81.9517 1242.34 90.4765L1242.87 92.9315C1244.44 100.307 1243.08 108.054 1239.07 114.591L1238.93 114.817C1237.19 117.669 1234.95 120.207 1232.33 122.315V122.315C1228.36 125.5 1223.63 127.609 1218.62 128.426L1218.43 128.457C1213.11 129.325 1207.68 128.736 1202.73 126.756L1192.46 122.647C1189.3 121.382 1185.71 121.564 1182.64 123.144V123.144C1178.68 125.178 1176.18 129.218 1176.18 133.581L1176.18 137.966L1176.18 158.644L1176.18 165.469Z" fill="#FFC9E4"/>
<path d="M1148.71 186.45L1163.92 186.45C1164.7 186.45 1165.32 187.066 1165.32 187.837L1165.32 196.111L1165.32 220.579L1165.32 365.44L1165.32 393.596C1165.32 394.389 1164.66 395.041 1163.85 395.041L1142.65 395.042L1115 394.555L1087.76 392.843C1084.03 392.609 1080.62 390.803 1078.39 387.885V387.885C1075.91 384.624 1075.18 380.351 1076.44 376.397L1078.55 369.805C1079.13 367.979 1079.92 366.218 1080.88 364.551L1082.83 361.186C1084.47 358.36 1085.33 355.173 1085.33 351.947V351.947C1085.33 346.477 1082.86 341.342 1078.58 337.941L1076.38 336.193L1076.1 335.992C1067.75 330.11 1056.47 330.04 1047.8 335.816V335.816C1046.6 336.618 1045.47 337.521 1044.42 338.514L1042.48 340.351C1040.43 342.291 1038.9 344.707 1038.05 347.367V347.367C1036.97 350.747 1037.03 354.359 1038.21 357.658L1040.59 364.289L1040.94 365.186C1043.8 372.592 1040.42 381.047 1033.14 384.681V384.681V384.681C1026.71 387.995 1019.82 390.297 1012.72 391.5L967.054 399.229C965.499 399.493 964.189 400.557 963.626 402.016V402.016C961.889 406.513 955.175 405.423 955.175 400.645L955.175 364.289L955.175 320.946C955.175 319.48 954.903 318.031 954.372 316.672V316.672C952.647 312.255 948.418 309.313 943.59 309.172L940.779 309.09C938.357 309.02 935.938 309.477 933.694 310.428L921.141 315.752C916.607 317.675 911.565 317.98 906.895 316.615V316.615C902.924 315.453 899.419 313.141 896.831 309.974L895.967 308.917C892.91 305.176 891.037 300.62 890.573 295.798L890.467 294.69C890.097 290.838 890.519 286.936 891.708 283.217L891.966 282.41C893.405 277.909 896.038 273.849 899.589 270.654L900.868 269.503C903.775 266.887 907.358 265.123 911.201 264.416V264.416C915.165 263.686 919.236 264.112 922.911 265.641L937.73 271.809L949.211 275.166C949.629 275.288 950.063 275.35 950.501 275.35V275.35C953.067 275.35 955.175 273.271 955.175 270.741L955.175 254.904L955.175 232.086L955.175 198.572L955.175 187.896C955.175 187.102 955.836 186.45 956.641 186.45L992.126 186.45L1041.32 186.45L1044.07 186.45C1046.07 186.45 1047.88 185.227 1048.62 183.382V183.382C1049.08 182.239 1049.07 180.975 1048.61 179.855L1044.84 170.77C1043.85 168.392 1043.19 165.889 1042.87 163.326L1042.04 156.589C1041.57 152.783 1042.2 148.902 1043.87 145.393V145.393C1046.13 140.631 1050.14 136.87 1055.08 134.886L1056.03 134.504C1059.34 133.171 1062.91 132.6 1066.45 132.838L1071.26 133.16C1075.64 133.453 1079.89 134.713 1083.67 136.846L1085.49 137.867C1089.69 140.232 1092.99 143.867 1094.91 148.247L1095.22 148.94C1096.83 152.619 1097.29 156.714 1096.52 160.697L1093.93 174.069C1092.89 179.424 1096.97 184.311 1102.48 184.311V184.311L1124.1 186.45L1148.71 186.45Z" fill="white"/>
<path d="M1369.36 571.268L1369.36 579.141L1369.36 586.965C1369.36 587.759 1368.7 588.411 1367.9 588.411L1341.37 588.411L1246.56 588.411L1188.2 588.395L1166.3 588.393C1152.79 588.392 1145.89 572.724 1154.97 562.68V562.68C1157.53 559.847 1158.98 556.217 1159.05 552.461L1159.45 531.841L1161.2 506.264C1161.47 502.424 1163.49 498.877 1166.71 496.634V496.634C1169.95 494.369 1174.04 493.686 1177.8 494.783L1186.01 497.184C1187.47 497.61 1188.96 497.926 1190.47 498.13L1196.23 498.908C1198.89 499.267 1201.61 499.141 1204.24 498.538L1205.82 498.176C1210.06 497.205 1213.83 494.75 1216.42 491.272V491.272C1217.6 489.681 1218.51 487.912 1219.11 486.038L1220.44 481.89C1221.52 478.497 1221.68 474.899 1220.89 471.465L1220.72 470.685C1219.99 467.527 1218.37 464.654 1216.04 462.401V462.401C1214.06 460.492 1211.64 459.089 1208.98 458.31L1206.28 457.52C1204.33 456.95 1202.32 456.586 1200.28 456.434L1199.06 456.343C1194.2 455.979 1189.29 456.486 1184.57 457.839L1178.58 459.555L1173.36 461.736C1170.1 463.099 1166.36 462.244 1164.11 459.62V459.62C1162.82 458.108 1162.16 456.158 1162.26 454.158L1165.49 392.032C1165.7 387.97 1167.93 384.229 1171.44 382.031V382.031C1173.19 380.936 1175.18 380.278 1177.23 380.113L1188.18 379.233C1190.12 379.077 1192.07 379.059 1194.01 379.18L1231.03 381.479C1234.69 381.706 1237.84 378.791 1237.84 375.165V375.165C1237.84 374.329 1238.01 373.498 1238.34 372.722L1239.86 369.182C1241.79 364.703 1242.35 359.794 1241.5 355.057L1239.75 345.355C1239.08 341.667 1239.34 337.857 1240.49 334.25V334.25C1242 329.539 1244.97 325.388 1248.98 322.392L1249.23 322.203C1252.99 319.392 1257.47 317.681 1262.13 317.272L1264.06 317.102C1267.97 316.758 1271.89 317.143 1275.63 318.235L1277.09 318.661C1281.56 319.968 1285.6 322.377 1288.83 325.664L1290.51 327.368C1293.05 329.95 1294.78 333.206 1295.49 336.756V336.756C1296.28 340.659 1295.8 344.733 1294.13 348.406L1287.8 362.317L1284.55 372.494C1284.25 373.423 1284.11 374.392 1284.14 375.36V375.36C1284.23 379.068 1286.7 382.258 1290.29 383.307L1297.74 385.485C1300.06 386.164 1302.5 386.412 1304.93 386.216L1321.64 384.874L1370.51 387.744C1373.36 387.912 1375.56 390.213 1375.56 393.032V393.032L1375.56 413.711L1373.05 461.376V461.376C1373.05 464.361 1375.01 466.962 1377.89 467.806L1379.24 468.201C1381.11 468.748 1383.13 468.664 1384.97 467.964L1393.07 464.888C1395.81 463.847 1398.67 463.153 1401.58 462.825L1408.33 462.06C1412.29 461.612 1416.28 462.203 1419.89 463.772V463.772C1424.95 465.969 1428.96 469.953 1431.16 474.954L1431.26 475.185C1432.73 478.522 1433.36 482.175 1433.09 485.835L1432.8 489.855C1432.48 494.143 1431.13 498.315 1428.85 502.018L1427.81 503.693C1425.38 507.652 1421.71 510.741 1417.37 512.486V512.486C1412.84 514.304 1407.86 514.559 1403.24 513.208L1392.68 510.121C1391.17 509.678 1389.59 509.435 1388 509.399L1382.59 509.276C1377.51 509.161 1372.93 512.454 1371.46 517.277V517.277C1371.21 518.11 1371.06 518.968 1371.01 519.832L1369.79 540.785L1369.36 571.268Z" fill="white"/>
<path d="M1311.95 64.3778L1310.23 64.7755C1309.96 64.8373 1309.69 64.6809 1309.61 64.4177C1309.3 63.3783 1309.07 62.3146 1308.93 61.2376L1308.78 60.0443L1308.12 56.5773L1307.32 53.7234L1307.03 52.9653C1306.51 51.6173 1305.8 50.3505 1304.92 49.2031L1304.73 48.9531C1304.36 48.47 1303.94 48.012 1303.5 47.5945C1302.97 47.0919 1302.38 46.6365 1301.76 46.2482C1301.03 45.7935 1300.25 45.4245 1299.44 45.1485L1299.02 45.0056C1297.92 44.6323 1296.78 44.3882 1295.62 44.2782L1294.7 44.1903L1294.18 44.1969C1292.32 44.2208 1290.47 44.4705 1288.67 44.9406C1287.29 45.2998 1285.95 45.7859 1284.67 46.3927L1283.6 46.8973L1283.51 46.9479C1281.62 48.0386 1279.85 49.3336 1278.24 50.8099L1277.91 51.1048L1274.91 54.403L1273.78 56.0404C1272.87 57.3568 1272.07 58.744 1271.39 60.1885L1270.18 62.7328L1269.12 65.9123C1268.57 67.5526 1268.17 69.2373 1267.91 70.9473L1267.56 73.3244L1267.31 75.9549C1267.16 77.4547 1267.13 78.9632 1267.22 80.4675L1267.32 82.3514L1267.9 86.7063L1269.57 93.7635L1272.29 101.883L1274.09 106.018C1275.57 109.433 1278.95 111.637 1282.67 111.626L1296.8 111.586L1301.22 111.289L1304.75 110.909L1308.87 109.957L1313.58 108.434L1317.51 106.658L1320.18 105.03L1321.29 104.312C1322.65 103.439 1323.93 102.458 1325.13 101.378L1326.56 100.083L1328.77 97.6152C1329.9 96.3449 1330.93 94.9799 1331.83 93.5352L1332.81 91.9685C1333.36 91.0789 1333.85 90.1491 1334.27 89.1869C1334.92 87.689 1335.4 86.1208 1335.68 84.5136L1336.01 82.7043L1336.14 79.491L1335.96 77.6344C1335.87 76.7034 1335.7 75.7818 1335.45 74.8794C1335.08 73.5199 1334.53 72.2136 1333.83 70.9921L1333.2 69.8935C1332.48 68.8243 1331.59 67.8554 1330.58 67.0485C1329.82 66.4387 1328.99 65.9176 1328.11 65.4954L1327.88 65.3825C1326.75 64.8408 1325.56 64.4412 1324.33 64.1929L1322.84 63.8905L1319.46 63.6583L1315.86 63.7644L1311.95 64.3778Z" fill="#FFC9E4"/>
<path d="M1488.96 465.596L1487.32 466.258C1487.06 466.361 1486.77 466.249 1486.65 466.001C1486.18 465.024 1485.79 464.009 1485.48 462.966L1485.15 461.812L1483.96 458.49L1482.72 455.797L1482.31 455.094C1481.58 453.844 1480.68 452.704 1479.64 451.708L1479.41 451.491C1478.97 451.072 1478.49 450.684 1477.98 450.341C1477.38 449.928 1476.73 449.571 1476.05 449.284C1475.26 448.949 1474.44 448.706 1473.59 448.561L1473.15 448.485C1472.01 448.289 1470.84 448.226 1469.69 448.298L1468.76 448.356L1468.25 448.443C1466.41 448.758 1464.63 449.294 1462.92 450.04C1461.62 450.61 1460.37 451.299 1459.2 452.1L1458.22 452.765L1458.14 452.829C1456.44 454.203 1454.9 455.759 1453.53 457.469L1453.26 457.811L1450.81 461.538L1449.95 463.332C1449.26 464.774 1448.69 466.27 1448.24 467.804L1447.44 470.506L1446.89 473.812C1446.61 475.518 1446.47 477.245 1446.49 478.973L1446.51 481.377L1446.67 484.014C1446.77 485.518 1446.97 487.012 1447.29 488.485L1447.69 490.329L1448.94 494.541L1451.69 501.25L1455.65 508.843L1458.07 512.646C1460.08 515.786 1463.75 517.436 1467.43 516.843L1481.38 514.593L1485.69 513.609L1489.12 512.681L1493.04 511.096L1497.46 508.855L1501.07 506.485L1503.44 504.46L1504.43 503.577C1505.63 502.503 1506.75 501.333 1507.76 500.08L1508.97 498.575L1510.77 495.793C1511.69 494.361 1512.49 492.853 1513.15 491.284L1513.87 489.584C1514.28 488.618 1514.62 487.623 1514.88 486.608C1515.29 485.027 1515.51 483.403 1515.55 481.771L1515.59 479.933L1515.21 476.739L1514.74 474.934C1514.51 474.028 1514.19 473.145 1513.81 472.292C1513.23 471.008 1512.49 469.802 1511.6 468.706L1510.81 467.72C1509.92 466.777 1508.89 465.959 1507.77 465.319C1506.93 464.836 1506.03 464.451 1505.09 464.171L1504.84 464.097C1503.65 463.738 1502.41 463.53 1501.16 463.476L1499.63 463.411L1496.26 463.711L1492.72 464.378L1488.96 465.596Z" fill="white"/>
<path d="M1167.13 561.508L1167.13 569.381L1167.13 589.327C1167.13 590.121 1166.46 590.773 1165.66 590.773L1140.51 590.773L1042.83 590.774L983.921 590.778L957.095 590.777C937.027 590.776 930 564.884 947.206 554.342V554.342C953.113 550.723 956.778 544.4 956.909 537.606L957.208 522.081L958.966 496.504C959.229 492.664 961.257 489.117 964.469 486.874V486.874C967.714 484.609 971.806 483.926 975.559 485.023L983.77 487.424C985.228 487.85 986.719 488.166 988.231 488.37L993.997 489.148C996.657 489.507 999.371 489.381 1002.01 488.778L1003.59 488.416C1007.83 487.445 1011.59 484.99 1014.18 481.512V481.512C1015.37 479.921 1016.28 478.152 1016.88 476.278L1018.2 472.13C1019.29 468.737 1019.44 465.139 1018.66 461.705L1018.48 460.925C1017.75 457.767 1016.13 454.894 1013.8 452.641V452.641C1011.83 450.732 1009.4 449.329 1006.74 448.55L1004.04 447.76C1002.09 447.19 1000.08 446.826 998.045 446.674L996.825 446.583C991.959 446.219 987.048 446.726 982.329 448.079L976.345 449.795L971.271 451.915C967.921 453.315 964.081 452.436 961.775 449.742V449.742C960.538 448.298 959.861 446.463 959.861 444.554L959.861 404.751C959.861 402.361 960.587 400.011 961.944 398.004V398.004C964.253 394.589 968.136 392.527 972.257 392.527L989.466 392.527L1021.62 388.552C1030.02 387.513 1036.99 381.438 1039.09 373.324V373.324C1040.06 369.573 1039.91 365.647 1038.66 362.023L1038.36 361.158L1037.76 359.281C1036.36 354.921 1036.47 350.197 1038.07 345.843V345.843C1039.69 341.443 1042.74 337.672 1046.75 335.127L1047.4 334.71C1050.29 332.874 1053.53 331.672 1056.91 331.188L1059.19 330.861C1064.07 330.16 1069.08 331.003 1073.42 333.213V333.213C1076.33 334.699 1078.92 336.81 1080.92 339.363L1082.27 341.09C1085.18 344.803 1086.43 349.55 1085.73 354.255V354.255C1085.47 355.995 1084.95 357.693 1084.18 359.292L1084 359.676C1082.59 362.609 1081.9 365.814 1081.99 369.029L1082 369.568C1082.04 371.049 1082.23 372.521 1082.56 373.96V373.96C1085.02 384.691 1095 391.969 1106.19 391.205L1118.14 390.388L1166.81 390.388C1170.43 390.388 1173.32 393.24 1173.32 396.806V396.806L1173.32 403.951L1170.81 451.616L1170.81 454.482C1170.81 455.766 1171.64 456.891 1172.87 457.282V457.282C1173.17 457.377 1173.48 457.425 1173.79 457.425L1184.5 457.425C1186.93 457.425 1189.36 457.123 1191.73 456.525L1198.34 454.855C1206.07 452.906 1214.11 455.846 1218.55 462.241V462.241C1220.68 465.309 1221.82 468.954 1221.82 472.708L1221.82 479.109L1221.82 482.82C1221.82 486.25 1220.86 489.634 1219.04 492.598V492.598C1217.42 495.251 1215.16 497.481 1212.47 499.088L1212.1 499.31C1207.33 502.163 1201.63 503.026 1196.29 501.705L1190.15 500.185C1188.83 499.858 1187.47 499.677 1186.1 499.646L1180.35 499.516C1175.28 499.401 1170.7 502.694 1169.23 507.517V507.517C1168.97 508.35 1168.82 509.208 1168.77 510.072L1167.55 531.025L1167.13 561.508Z" fill="#FF50C7"/>
<path d="M1097.71 63.0582L1097.43 64.8042C1097.39 65.0758 1097.15 65.2675 1096.87 65.2426C1095.79 65.1445 1094.72 64.9566 1093.67 64.6809L1092.5 64.3754L1089.04 63.6846L1086.1 63.3606L1085.29 63.3482C1083.84 63.3263 1082.4 63.5105 1081.01 63.8954L1080.7 63.9792C1080.12 64.1413 1079.54 64.3538 1078.98 64.608C1078.32 64.914 1077.67 65.2892 1077.08 65.7199C1076.39 66.2243 1075.75 66.8072 1075.19 67.4572L1074.9 67.7939C1074.15 68.6731 1073.49 69.6376 1072.96 70.6678L1072.53 71.4921L1072.34 71.9752C1071.67 73.7089 1071.21 75.5181 1070.97 77.3631C1070.79 78.773 1070.73 80.1968 1070.82 81.6161L1070.88 82.7965L1070.9 82.8969C1071.2 85.0621 1071.74 87.1878 1072.5 89.2358L1072.65 89.6449L1074.59 93.6635L1075.68 95.3243C1076.56 96.6596 1077.55 97.9221 1078.63 99.0997L1080.54 101.174L1083.09 103.347C1084.4 104.469 1085.82 105.474 1087.3 106.351L1089.38 107.571L1091.72 108.789C1093.06 109.483 1094.45 110.075 1095.87 110.56L1097.66 111.168L1101.91 112.269L1109.08 113.363L1117.63 113.882L1122.14 113.762C1125.86 113.664 1129.17 111.362 1130.55 107.905L1135.8 94.7925L1137.19 90.5849L1138.15 87.1688L1138.82 82.9902L1139.17 78.0489L1139 73.7379L1138.49 70.6584L1138.24 69.3564C1137.93 67.7732 1137.51 66.217 1136.95 64.703L1136.29 62.886L1134.83 59.9174C1134.07 58.3891 1133.19 56.9278 1132.19 55.5496L1131.11 54.055C1130.49 53.2064 1129.81 52.4048 1129.07 51.657C1127.93 50.4929 1126.65 49.4655 1125.27 48.5954L1123.72 47.6158L1120.78 46.2947L1118.99 45.7671C1118.1 45.5025 1117.18 45.3145 1116.25 45.2052C1114.85 45.0406 1113.44 45.0556 1112.04 45.25L1110.78 45.4248C1109.52 45.6939 1108.29 46.1555 1107.17 46.7867C1106.32 47.2638 1105.52 47.8362 1104.8 48.493L1104.61 48.6685C1103.68 49.5112 1102.87 50.4655 1102.18 51.5094L1101.34 52.7811L1099.86 55.8303L1098.61 59.2022L1097.71 63.0582Z" fill="#FF50C7"/>
</g>
<defs>
<clipPath id="clip0_959_166">
<rect width="520" height="579" fill="white"/>
</clipPath>
<clipPath id="clip1_959_166">
<rect width="520" height="579" fill="white" transform="translate(520)"/>
</clipPath>
<clipPath id="clip2_959_166">
<rect width="520" height="579" fill="white" transform="translate(1040)"/>
</clipPath>
</defs>
</svg>
