<svg width="2487" height="70" viewBox="0 0 2487 70" fill="none" xmlns="http://www.w3.org/2000/svg">
<path d="M820.705 29.3058L820.321 29.7631C820.261 29.8342 820.157 29.8468 820.082 29.792C819.786 29.5756 819.509 29.3349 819.253 29.0725L818.969 28.7817L818.088 27.9801L817.291 27.3738L817.058 27.2289C816.644 26.9713 816.195 26.7741 815.725 26.6432L815.622 26.6147C815.424 26.5596 815.219 26.5203 815.015 26.4977C814.769 26.4705 814.518 26.4673 814.272 26.4889C813.983 26.5141 813.698 26.5727 813.423 26.6633L813.281 26.7103C812.908 26.833 812.552 26.9986 812.218 27.2037L811.95 27.3679L811.812 27.475C811.315 27.8594 810.867 28.3028 810.477 28.7953C810.179 29.1717 809.917 29.5748 809.694 29.9997L809.508 30.353L809.494 30.3845C809.205 31.0636 808.991 31.7723 808.856 32.4981L808.829 32.643L808.69 34.1423L808.718 34.8134C808.741 35.3529 808.807 35.8898 808.915 36.4188L809.106 37.3505L809.466 38.4232C809.652 38.9766 809.886 39.5128 810.164 40.0259L810.552 40.7391L811.019 41.4992C811.285 41.9327 811.584 42.3454 811.912 42.7338L812.323 43.2203L813.362 44.2785L815.247 45.8419L817.631 47.4784L818.956 48.2278C820.051 48.8466 821.408 48.7554 822.41 47.9959L826.211 45.1147L827.342 44.137L828.217 43.3169L829.135 42.2226L830.097 40.8542L830.796 39.5762L831.184 38.596L831.338 38.176C831.526 37.6653 831.673 37.1402 831.776 36.6059L831.9 35.9647L831.993 34.8513C832.041 34.2781 832.04 33.7019 831.99 33.1289L831.935 32.5075C831.904 32.1547 831.847 31.8046 831.765 31.4603C831.636 30.9242 831.445 30.4049 831.196 29.9128L830.916 29.3588L830.297 28.4666L829.871 28.0027C829.658 27.7701 829.425 27.5561 829.175 27.3629C828.798 27.0718 828.386 26.8301 827.948 26.6436L827.555 26.4759C827.143 26.3343 826.706 26.2537 826.271 26.2407C825.941 26.2309 825.612 26.2586 825.29 26.3234L825.203 26.3407C824.789 26.4238 824.387 26.5579 824.006 26.7402L823.541 26.9622L822.582 27.5869L821.635 28.3457L820.705 29.3058Z" fill="#FF50C7"/>
<path d="M539.705 29.3058L539.321 29.7631C539.261 29.8342 539.157 29.8468 539.082 29.792C538.786 29.5756 538.509 29.3349 538.253 29.0725L537.969 28.7817L537.088 27.9801L536.291 27.3738L536.058 27.2289C535.644 26.9713 535.195 26.7741 534.725 26.6432L534.622 26.6147C534.424 26.5596 534.219 26.5203 534.015 26.4977C533.769 26.4705 533.518 26.4673 533.272 26.4889C532.983 26.5141 532.698 26.5727 532.423 26.6633L532.281 26.7103C531.908 26.833 531.552 26.9986 531.218 27.2037L530.95 27.3679L530.812 27.475C530.315 27.8594 529.867 28.3028 529.477 28.7953C529.179 29.1717 528.917 29.5748 528.694 29.9997L528.508 30.353L528.494 30.3845C528.205 31.0636 527.991 31.7723 527.856 32.4981L527.829 32.643L527.69 34.1423L527.718 34.8134C527.741 35.3529 527.807 35.8898 527.915 36.4188L528.106 37.3505L528.466 38.4232C528.652 38.9766 528.886 39.5128 529.164 40.0259L529.552 40.7391L530.019 41.4992C530.285 41.9327 530.584 42.3454 530.912 42.7338L531.323 43.2203L532.362 44.2785L534.247 45.8419L536.631 47.4784L537.956 48.2278C539.051 48.8466 540.408 48.7554 541.41 47.9959L545.211 45.1147L546.342 44.137L547.217 43.3169L548.135 42.2226L549.097 40.8542L549.796 39.5762L550.184 38.596L550.338 38.176C550.526 37.6653 550.673 37.1402 550.776 36.6059L550.9 35.9647L550.993 34.8513C551.041 34.2781 551.04 33.7019 550.99 33.1289L550.935 32.5075C550.904 32.1547 550.847 31.8046 550.765 31.4603C550.636 30.9242 550.445 30.4049 550.196 29.9128L549.916 29.3588L549.297 28.4666L548.871 28.0027C548.658 27.7701 548.425 27.5561 548.175 27.3629C547.798 27.0718 547.386 26.8301 546.948 26.6436L546.555 26.4759C546.143 26.3343 545.706 26.2537 545.271 26.2407C544.941 26.2309 544.612 26.2586 544.29 26.3234L544.203 26.3407C543.789 26.4238 543.387 26.5579 543.006 26.7402L542.541 26.9622L541.582 27.5869L540.635 28.3457L539.705 29.3058Z" fill="#FF50C7"/>
<path d="M508.241 48.2834V22.7739L514.314 22.6979V48.5112C514.314 49.4729 514.087 50.2574 513.631 50.8648C513.226 51.4215 512.568 51.9783 511.657 52.535C510.645 53.193 509.202 53.8004 507.33 54.3571C505.457 54.9645 503.306 55.2682 500.876 55.2682C497.232 55.2682 494.018 54.6355 491.234 53.3702C488.451 52.1048 486.274 50.1308 484.705 47.4483C483.136 44.7151 482.352 41.1974 482.352 36.8952C482.352 32.4918 483.111 28.9235 484.629 26.1903C486.198 23.4571 488.299 21.4579 490.931 20.1925C493.563 18.8766 496.448 18.2186 499.586 18.2186C501.56 18.2186 503.432 18.497 505.204 19.0537C506.975 19.6105 508.367 20.2938 509.38 21.1036V26.7218C508.418 25.7601 507.153 24.9503 505.583 24.2923C504.065 23.5837 502.268 23.2294 500.193 23.2294C498.118 23.2294 496.195 23.6849 494.423 24.596C492.652 25.4564 491.234 26.8989 490.171 28.9235C489.109 30.9481 488.577 33.6559 488.577 37.0471C488.577 41.653 489.691 45.0188 491.918 47.1446C494.145 49.2198 497.106 50.2574 500.8 50.2574C502.572 50.2574 504.014 50.0802 505.128 49.7259C506.292 49.321 507.33 48.8402 508.241 48.2834ZM514.314 24.2164L508.241 24.2923V5.08419C508.494 4.98296 508.873 4.88173 509.38 4.7805C509.936 4.62866 510.493 4.55273 511.05 4.55273C512.163 4.55273 512.973 4.7805 513.479 5.23603C514.036 5.64094 514.314 6.32423 514.314 7.2859V24.2164Z" fill="#FF50C7"/>
<path d="M447.156 40.6155L446.852 35.8325L469.781 32.7197C469.578 29.9359 468.617 27.6583 466.896 25.8868C465.175 24.0647 462.796 23.1536 459.759 23.1536C456.621 23.1536 454.014 24.2925 451.939 26.5701C449.915 28.7971 448.902 32.0111 448.902 36.2121V37.8824C449.257 41.9315 450.573 45.019 452.85 47.1448C455.179 49.22 458.342 50.2575 462.34 50.2575C464.466 50.2575 466.39 49.9033 468.11 49.1947C469.831 48.4861 471.198 47.7268 472.21 46.917C472.767 47.2713 473.197 47.7015 473.501 48.2077C473.855 48.6632 474.032 49.1947 474.032 49.802C474.032 50.7637 473.476 51.6747 472.362 52.5352C471.299 53.345 469.857 54.003 468.035 54.5091C466.263 55.0153 464.264 55.2684 462.037 55.2684C458.139 55.2684 454.748 54.5598 451.863 53.1426C449.029 51.7254 446.827 49.6249 445.258 46.8411C443.74 44.0067 442.98 40.5649 442.98 36.5158C442.98 33.6308 443.385 31.0748 444.195 28.8477C445.056 26.5701 446.22 24.6468 447.688 23.0777C449.206 21.5087 451.003 20.3192 453.078 19.5094C455.153 18.649 457.406 18.2188 459.835 18.2188C462.922 18.2188 465.63 18.8767 467.959 20.1927C470.337 21.5087 472.185 23.3561 473.501 25.735C474.867 28.0632 475.551 30.7458 475.551 33.7826C475.551 34.8961 475.298 35.706 474.792 36.2121C474.285 36.6676 473.577 36.946 472.666 37.0472L447.156 40.6155Z" fill="#FF50C7"/>
<path d="M412.479 28.1635C411.568 31.3522 410.581 34.5409 409.518 37.7296C408.505 40.9183 407.518 43.9045 406.557 46.6883C405.595 49.4721 404.709 51.8763 403.9 53.9008C403.495 54.1539 403.039 54.3564 402.533 54.5082C402.027 54.66 401.343 54.736 400.483 54.736C399.673 54.736 398.914 54.5841 398.205 54.2804C397.547 54.0274 397.092 53.5971 396.839 52.9898C396.333 51.9775 395.751 50.5097 395.093 48.5863C394.485 46.663 393.827 44.4613 393.119 41.9812C392.461 39.5011 391.777 36.9451 391.069 34.3131C390.36 31.6306 389.702 29.0492 389.095 26.5691C388.538 24.089 388.057 21.8873 387.652 19.964C388.007 19.6097 388.437 19.2807 388.943 18.977C389.5 18.6733 390.158 18.5215 390.917 18.5215C391.879 18.5215 392.587 18.7999 393.043 19.3566C393.549 19.8628 393.903 20.6979 394.106 21.862C394.561 23.9878 395.067 26.392 395.624 29.0746C396.231 31.7571 396.839 34.4143 397.446 37.0463C398.104 39.6782 398.686 42.0571 399.192 44.1829C399.749 46.2581 400.154 47.8018 400.407 48.8141H400.711C401.116 47.5994 401.748 45.6254 402.609 42.8922C403.469 40.1085 404.482 36.9451 405.646 33.4021C406.86 29.8591 408.075 26.2655 409.29 22.6212C409.695 22.3682 410.176 22.191 410.732 22.0898C411.289 21.9379 411.897 21.862 412.555 21.862C413.466 21.862 414.225 22.0392 414.832 22.3935C415.44 22.6972 415.844 23.178 416.047 23.836C417.262 27.3284 418.4 30.7701 419.463 34.1613C420.526 37.5018 421.463 40.4881 422.272 43.12C423.082 45.7013 423.664 47.6247 424.019 48.89H424.398C425.562 44.3854 426.828 39.5517 428.194 34.389C429.561 29.2264 430.674 24.165 431.535 19.2048C432.243 18.7492 433.104 18.5215 434.116 18.5215C434.977 18.5215 435.66 18.7239 436.166 19.1289C436.672 19.5338 436.925 20.1664 436.925 21.0269C436.925 21.5836 436.748 22.6465 436.394 24.2156C436.09 25.7846 435.66 27.632 435.103 29.7578C434.546 31.8836 433.914 34.1613 433.205 36.5908C432.547 38.9696 431.864 41.2979 431.155 43.5755C430.447 45.8025 429.763 47.8271 429.105 49.6492C428.498 51.4713 427.967 52.8885 427.511 53.9008C427.258 54.1033 426.828 54.2804 426.22 54.4323C425.664 54.6347 425.006 54.736 424.246 54.736C422.171 54.736 420.957 54.2551 420.602 53.2935C419.894 51.4713 419.084 49.219 418.173 46.5365C417.262 43.8033 416.325 40.8677 415.364 37.7296C414.402 34.5409 413.44 31.3522 412.479 28.1635Z" fill="#FF50C7"/>
<path d="M362.586 34.2373H368.66V44.7145C368.66 46.7391 369.242 48.1816 370.406 49.042C371.57 49.8518 373.164 50.2567 375.189 50.2567C376.049 50.2567 377.011 50.1049 378.074 49.8012C379.137 49.4975 380.023 49.1432 380.731 48.7383C381.035 49.042 381.313 49.4216 381.566 49.8771C381.819 50.3327 381.946 50.8641 381.946 51.4715C381.946 52.585 381.288 53.496 379.972 54.2046C378.656 54.9132 376.834 55.2675 374.506 55.2675C370.963 55.2675 368.078 54.483 365.851 52.914C363.674 51.3449 362.586 48.7383 362.586 45.0941V34.2373ZM365.699 24.9749V19.9641H381.111C381.263 20.1666 381.414 20.4956 381.566 20.9511C381.718 21.4066 381.794 21.8875 381.794 22.3936C381.794 23.2034 381.592 23.8361 381.187 24.2916C380.782 24.7472 380.225 24.9749 379.516 24.9749H365.699ZM368.66 36.515H362.586V9.03145C362.839 8.93022 363.219 8.82899 363.725 8.72776C364.282 8.57592 364.864 8.5 365.471 8.5C366.534 8.5 367.318 8.72776 367.825 9.18329C368.381 9.58821 368.66 10.2715 368.66 11.2332V36.515Z" fill="#FF50C7"/>
<path d="M325.344 40.6155L325.04 35.8325L347.968 32.7197C347.766 29.9359 346.804 27.6583 345.083 25.8868C343.362 24.0647 340.983 23.1536 337.947 23.1536C334.809 23.1536 332.202 24.2925 330.127 26.5701C328.102 28.7971 327.09 32.0111 327.09 36.2121V37.8824C327.444 41.9315 328.76 45.019 331.038 47.1448C333.366 49.22 336.529 50.2575 340.528 50.2575C342.654 50.2575 344.577 49.9033 346.298 49.1947C348.019 48.4861 349.385 47.7268 350.398 46.917C350.954 47.2713 351.385 47.7015 351.688 48.2077C352.043 48.6632 352.22 49.1947 352.22 49.802C352.22 50.7637 351.663 51.6747 350.55 52.5352C349.487 53.345 348.044 54.003 346.222 54.5091C344.451 55.0153 342.451 55.2684 340.224 55.2684C336.327 55.2684 332.936 54.5598 330.051 53.1426C327.216 51.7254 325.015 49.6249 323.446 46.8411C321.927 44.0067 321.168 40.5649 321.168 36.5158C321.168 33.6308 321.573 31.0748 322.383 28.8477C323.243 26.5701 324.407 24.6468 325.875 23.0777C327.394 21.5087 329.19 20.3192 331.266 19.5094C333.341 18.649 335.593 18.2188 338.023 18.2188C341.11 18.2188 343.818 18.8767 346.146 20.1927C348.525 21.5087 350.372 23.3561 351.688 25.735C353.055 28.0632 353.738 30.7458 353.738 33.7826C353.738 34.8961 353.485 35.706 352.979 36.2121C352.473 36.6676 351.764 36.946 350.853 37.0472L325.344 40.6155Z" fill="#FF50C7"/>
<path d="M296.652 55.2684C294.475 55.2684 292.426 54.9394 290.502 54.2814C288.629 53.674 287.263 52.9907 286.402 52.2315V46.6133C287.415 47.575 288.68 48.4354 290.199 49.1947C291.768 49.9033 293.64 50.2575 295.817 50.2575C299.36 50.2575 302.194 49.1947 304.32 47.0689C306.496 44.8924 307.584 41.4254 307.584 36.6676C307.584 33.3271 307.028 30.6952 305.914 28.7718C304.851 26.7979 303.409 25.3807 301.587 24.5202C299.815 23.6598 297.892 23.2296 295.817 23.2296C293.995 23.2296 292.451 23.4573 291.185 23.9128C289.92 24.3684 288.781 24.8745 287.769 25.4313V50.6372H281.695V25.5831C281.695 24.5708 281.872 23.761 282.227 23.1536C282.581 22.5463 283.315 21.9136 284.428 21.2556C285.795 20.4964 287.415 19.8131 289.287 19.2057C291.211 18.5477 293.387 18.2188 295.817 18.2188C299.157 18.2188 302.169 18.8767 304.851 20.1927C307.584 21.4581 309.736 23.4573 311.305 26.1905C312.924 28.873 313.734 32.3654 313.734 36.6676C313.734 40.818 313 44.2851 311.532 47.0689C310.115 49.802 308.116 51.8519 305.535 53.2185C302.953 54.5851 299.992 55.2684 296.652 55.2684ZM287.769 48.5873V67.9472C287.516 68.0485 287.136 68.1497 286.63 68.2509C286.124 68.4028 285.567 68.4787 284.96 68.4787C283.897 68.4787 283.087 68.2509 282.53 67.7954C281.974 67.3399 281.695 66.6313 281.695 65.6696V48.4354L287.769 48.5873Z" fill="#FF50C7"/>
<path d="M789.241 47.0022V21.4926L795.314 21.4167V47.2299C795.314 48.1916 795.087 48.9761 794.631 49.5835C794.226 50.1403 793.568 50.697 792.657 51.2538C791.645 51.9118 790.202 52.5191 788.33 53.0759C786.457 53.6833 784.306 53.9869 781.876 53.9869C778.232 53.9869 775.018 53.3543 772.234 52.0889C769.451 50.8235 767.274 48.8496 765.705 46.167C764.136 43.4339 763.352 39.9162 763.352 35.614C763.352 31.2105 764.111 27.6422 765.629 24.9091C767.198 22.1759 769.299 20.1766 771.931 18.9113C774.563 17.5953 777.448 16.9373 780.586 16.9373C782.56 16.9373 784.432 17.2157 786.204 17.7725C787.975 18.3292 789.367 19.0125 790.38 19.8223V25.4405C789.418 24.4788 788.153 23.669 786.583 23.011C785.065 22.3024 783.268 21.9481 781.193 21.9481C779.118 21.9481 777.195 22.4037 775.423 23.3147C773.652 24.1752 772.234 25.6177 771.171 27.6422C770.109 29.6668 769.577 32.3747 769.577 35.7658C769.577 40.3717 770.691 43.7376 772.918 45.8634C775.145 47.9385 778.106 48.9761 781.8 48.9761C783.572 48.9761 785.014 48.799 786.128 48.4447C787.292 48.0398 788.33 47.5589 789.241 47.0022ZM795.314 22.9351L789.241 23.011V3.80294C789.494 3.70171 789.873 3.60048 790.38 3.49925C790.936 3.34741 791.493 3.27148 792.05 3.27148C793.163 3.27148 793.973 3.49925 794.479 3.95478C795.036 4.35969 795.314 5.04298 795.314 6.00465V22.9351Z" fill="#FF50C7"/>
<path d="M728.156 39.3343L727.852 34.5512L750.781 31.4385C750.578 28.6547 749.617 26.3771 747.896 24.6056C746.175 22.7834 743.796 21.8724 740.759 21.8724C737.621 21.8724 735.014 23.0112 732.939 25.2888C730.915 27.5159 729.902 30.7299 729.902 34.9309V36.6011C730.257 40.6503 731.573 43.7377 733.85 45.8635C736.179 47.9387 739.342 48.9763 743.34 48.9763C745.466 48.9763 747.39 48.622 749.11 47.9134C750.831 47.2048 752.198 46.4456 753.21 45.6358C753.767 45.9901 754.197 46.4203 754.501 46.9264C754.855 47.382 755.032 47.9134 755.032 48.5208C755.032 49.4824 754.476 50.3935 753.362 51.2539C752.299 52.0638 750.857 52.7218 749.035 53.2279C747.263 53.734 745.264 53.9871 743.037 53.9871C739.139 53.9871 735.748 53.2785 732.863 51.8613C730.029 50.4441 727.827 48.3436 726.258 45.5598C724.74 42.7254 723.98 39.2837 723.98 35.2345C723.98 32.3495 724.385 29.7935 725.195 27.5665C726.056 25.2888 727.22 23.3655 728.688 21.7965C730.206 20.2274 732.003 19.038 734.078 18.2282C736.153 17.3677 738.406 16.9375 740.835 16.9375C743.922 16.9375 746.63 17.5955 748.959 18.9115C751.337 20.2274 753.185 22.0748 754.501 24.4537C755.867 26.782 756.551 29.4645 756.551 32.5014C756.551 33.6149 756.298 34.4247 755.792 34.9309C755.285 35.3864 754.577 35.6648 753.666 35.766L728.156 39.3343Z" fill="#FF50C7"/>
<path d="M693.479 26.8822C692.568 30.0709 691.581 33.2596 690.518 36.4483C689.505 39.637 688.518 42.6233 687.557 45.4071C686.595 48.1908 685.709 50.595 684.9 52.6196C684.495 52.8726 684.039 53.0751 683.533 53.2269C683.027 53.3788 682.343 53.4547 681.483 53.4547C680.673 53.4547 679.914 53.3029 679.205 52.9992C678.547 52.7461 678.092 52.3159 677.839 51.7085C677.333 50.6962 676.751 49.2284 676.093 47.3051C675.485 45.3817 674.827 43.18 674.119 40.6999C673.461 38.2198 672.777 35.6638 672.069 33.0319C671.36 30.3493 670.702 27.768 670.095 25.2879C669.538 22.8078 669.057 20.6061 668.652 18.6827C669.007 18.3284 669.437 17.9994 669.943 17.6958C670.5 17.3921 671.158 17.2402 671.917 17.2402C672.879 17.2402 673.587 17.5186 674.043 18.0754C674.549 18.5815 674.903 19.4166 675.106 20.5808C675.561 22.7066 676.067 25.1107 676.624 27.7933C677.231 30.4759 677.839 33.1331 678.446 35.765C679.104 38.397 679.686 40.7759 680.192 42.9016C680.749 44.9768 681.154 46.5206 681.407 47.5328H681.711C682.116 46.3181 682.748 44.3442 683.609 41.611C684.469 38.8272 685.482 35.6638 686.646 32.1208C687.86 28.5778 689.075 24.9842 690.29 21.34C690.695 21.0869 691.176 20.9098 691.732 20.8085C692.289 20.6567 692.897 20.5808 693.555 20.5808C694.466 20.5808 695.225 20.7579 695.832 21.1122C696.44 21.4159 696.844 21.8967 697.047 22.5547C698.262 26.0471 699.4 29.4889 700.463 32.88C701.526 36.2206 702.463 39.2068 703.272 41.8387C704.082 44.4201 704.664 46.3434 705.019 47.6088H705.398C706.562 43.1041 707.828 38.2704 709.194 33.1078C710.561 27.9451 711.674 22.8837 712.535 17.9235C713.243 17.468 714.104 17.2402 715.116 17.2402C715.977 17.2402 716.66 17.4427 717.166 17.8476C717.672 18.2525 717.925 18.8852 717.925 19.7456C717.925 20.3024 717.748 21.3653 717.394 22.9343C717.09 24.5034 716.66 26.3508 716.103 28.4766C715.546 30.6024 714.914 32.88 714.205 35.3095C713.547 37.6884 712.864 40.0166 712.155 42.2943C711.447 44.5213 710.763 46.5459 710.105 48.368C709.498 50.1901 708.967 51.6073 708.511 52.6196C708.258 52.822 707.828 52.9992 707.22 53.151C706.664 53.3535 706.006 53.4547 705.246 53.4547C703.171 53.4547 701.957 52.9739 701.602 52.0122C700.894 50.1901 700.084 47.9378 699.173 45.2552C698.262 42.522 697.325 39.5864 696.364 36.4483C695.402 33.2596 694.44 30.0709 693.479 26.8822Z" fill="#FF50C7"/>
<path d="M643.586 32.9561H649.66V43.4332C649.66 45.4578 650.242 46.9003 651.406 47.7607C652.57 48.5706 654.164 48.9755 656.189 48.9755C657.049 48.9755 658.011 48.8236 659.074 48.52C660.137 48.2163 661.023 47.862 661.731 47.4571C662.035 47.7607 662.313 48.1404 662.566 48.5959C662.819 49.0514 662.946 49.5829 662.946 50.1902C662.946 51.3037 662.288 52.2148 660.972 52.9234C659.656 53.632 657.834 53.9863 655.506 53.9863C651.963 53.9863 649.078 53.2018 646.851 51.6327C644.674 50.0637 643.586 47.4571 643.586 43.8128V32.9561ZM646.699 23.6937V18.6829H662.111C662.263 18.8853 662.414 19.2143 662.566 19.6698C662.718 20.1254 662.794 20.6062 662.794 21.1124C662.794 21.9222 662.592 22.5549 662.187 23.0104C661.782 23.4659 661.225 23.6937 660.516 23.6937H646.699ZM649.66 35.2337H643.586V7.7502C643.839 7.64897 644.219 7.54774 644.725 7.44651C645.282 7.29467 645.864 7.21875 646.471 7.21875C647.534 7.21875 648.318 7.44651 648.825 7.90204C649.381 8.30696 649.66 8.99025 649.66 9.95192V35.2337Z" fill="#FF50C7"/>
<path d="M606.344 39.3343L606.04 34.5512L628.968 31.4385C628.766 28.6547 627.804 26.3771 626.083 24.6056C624.362 22.7834 621.983 21.8724 618.947 21.8724C615.809 21.8724 613.202 23.0112 611.127 25.2888C609.102 27.5159 608.09 30.7299 608.09 34.9309V36.6011C608.444 40.6503 609.76 43.7377 612.038 45.8635C614.366 47.9387 617.529 48.9763 621.528 48.9763C623.654 48.9763 625.577 48.622 627.298 47.9134C629.019 47.2048 630.385 46.4456 631.398 45.6358C631.954 45.9901 632.385 46.4203 632.688 46.9264C633.043 47.382 633.22 47.9134 633.22 48.5208C633.22 49.4824 632.663 50.3935 631.55 51.2539C630.487 52.0638 629.044 52.7218 627.222 53.2279C625.451 53.734 623.451 53.9871 621.224 53.9871C617.327 53.9871 613.936 53.2785 611.051 51.8613C608.216 50.4441 606.015 48.3436 604.446 45.5598C602.927 42.7254 602.168 39.2837 602.168 35.2345C602.168 32.3495 602.573 29.7935 603.383 27.5665C604.243 25.2888 605.407 23.3655 606.875 21.7965C608.394 20.2274 610.19 19.038 612.266 18.2282C614.341 17.3677 616.593 16.9375 619.023 16.9375C622.11 16.9375 624.818 17.5955 627.146 18.9115C629.525 20.2274 631.372 22.0748 632.688 24.4537C634.055 26.782 634.738 29.4645 634.738 32.5014C634.738 33.6149 634.485 34.4247 633.979 34.9309C633.473 35.3864 632.764 35.6648 631.853 35.766L606.344 39.3343Z" fill="#FF50C7"/>
<path d="M577.652 53.9871C575.475 53.9871 573.426 53.6581 571.502 53.0001C569.629 52.3928 568.263 51.7095 567.402 50.9503V45.3321C568.415 46.2938 569.68 47.1542 571.199 47.9134C572.768 48.622 574.64 48.9763 576.817 48.9763C580.36 48.9763 583.194 47.9134 585.32 45.7876C587.496 43.6112 588.584 40.1441 588.584 35.3864C588.584 32.0458 588.028 29.4139 586.914 27.4906C585.851 25.5166 584.409 24.0994 582.587 23.239C580.815 22.3785 578.892 21.9483 576.817 21.9483C574.995 21.9483 573.451 22.1761 572.185 22.6316C570.92 23.0871 569.781 23.5933 568.769 24.15V49.3559H562.695V24.3019C562.695 23.2896 562.872 22.4798 563.227 21.8724C563.581 21.265 564.315 20.6323 565.428 19.9743C566.795 19.2151 568.415 18.5318 570.287 17.9245C572.211 17.2665 574.387 16.9375 576.817 16.9375C580.157 16.9375 583.169 17.5955 585.851 18.9115C588.584 20.1768 590.736 22.1761 592.305 24.9092C593.924 27.5918 594.734 31.0842 594.734 35.3864C594.734 39.5368 594 43.0038 592.532 45.7876C591.115 48.5208 589.116 50.5707 586.535 51.9372C583.953 53.3038 580.992 53.9871 577.652 53.9871ZM568.769 47.306V66.666C568.516 66.7672 568.136 66.8684 567.63 66.9697C567.124 67.1215 566.567 67.1974 565.96 67.1974C564.897 67.1974 564.087 66.9697 563.53 66.5141C562.974 66.0586 562.695 65.35 562.695 64.3883V47.1542L568.769 47.306Z" fill="#FF50C7"/>
<path d="M1070.24 46.0022V20.4926L1076.31 20.4167V46.2299C1076.31 47.1916 1076.09 47.9761 1075.63 48.5835C1075.23 49.1403 1074.57 49.697 1073.66 50.2538C1072.64 50.9118 1071.2 51.5191 1069.33 52.0759C1067.46 52.6833 1065.31 52.9869 1062.88 52.9869C1059.23 52.9869 1056.02 52.3543 1053.23 51.0889C1050.45 49.8235 1048.27 47.8496 1046.71 45.167C1045.14 42.4339 1044.35 38.9162 1044.35 34.614C1044.35 30.2105 1045.11 26.6422 1046.63 23.9091C1048.2 21.1759 1050.3 19.1766 1052.93 17.9113C1055.56 16.5953 1058.45 15.9373 1061.59 15.9373C1063.56 15.9373 1065.43 16.2157 1067.2 16.7725C1068.98 17.3292 1070.37 18.0125 1071.38 18.8223V24.4405C1070.42 23.4788 1069.15 22.669 1067.58 22.011C1066.07 21.3024 1064.27 20.9481 1062.19 20.9481C1060.12 20.9481 1058.19 21.4037 1056.42 22.3147C1054.65 23.1752 1053.23 24.6177 1052.17 26.6422C1051.11 28.6668 1050.58 31.3747 1050.58 34.7658C1050.58 39.3717 1051.69 42.7376 1053.92 44.8634C1056.14 46.9385 1059.11 47.9761 1062.8 47.9761C1064.57 47.9761 1066.01 47.799 1067.13 47.4447C1068.29 47.0398 1069.33 46.5589 1070.24 46.0022ZM1076.31 21.9351L1070.24 22.011V2.80294C1070.49 2.70171 1070.87 2.60048 1071.38 2.49925C1071.94 2.34741 1072.49 2.27148 1073.05 2.27148C1074.16 2.27148 1074.97 2.49925 1075.48 2.95478C1076.04 3.35969 1076.31 4.04298 1076.31 5.00465V21.9351Z" fill="#FF50C7"/>
<path d="M1009.16 38.3343L1008.85 33.5512L1031.78 30.4385C1031.58 27.6547 1030.62 25.3771 1028.9 23.6056C1027.17 21.7834 1024.8 20.8724 1021.76 20.8724C1018.62 20.8724 1016.01 22.0112 1013.94 24.2888C1011.91 26.5159 1010.9 29.7299 1010.9 33.9309V35.6011C1011.26 39.6503 1012.57 42.7377 1014.85 44.8635C1017.18 46.9387 1020.34 47.9763 1024.34 47.9763C1026.47 47.9763 1028.39 47.622 1030.11 46.9134C1031.83 46.2048 1033.2 45.4456 1034.21 44.6358C1034.77 44.9901 1035.2 45.4203 1035.5 45.9264C1035.86 46.382 1036.03 46.9134 1036.03 47.5208C1036.03 48.4824 1035.48 49.3935 1034.36 50.2539C1033.3 51.0638 1031.86 51.7218 1030.03 52.2279C1028.26 52.734 1026.26 52.9871 1024.04 52.9871C1020.14 52.9871 1016.75 52.2785 1013.86 50.8613C1011.03 49.4441 1008.83 47.3436 1007.26 44.5598C1005.74 41.7254 1004.98 38.2837 1004.98 34.2345C1004.98 31.3495 1005.39 28.7935 1006.2 26.5665C1007.06 24.2888 1008.22 22.3655 1009.69 20.7965C1011.21 19.2274 1013 18.038 1015.08 17.2282C1017.15 16.3677 1019.41 15.9375 1021.84 15.9375C1024.92 15.9375 1027.63 16.5955 1029.96 17.9115C1032.34 19.2274 1034.18 21.0748 1035.5 23.4537C1036.87 25.782 1037.55 28.4645 1037.55 31.5014C1037.55 32.6149 1037.3 33.4247 1036.79 33.9309C1036.29 34.3864 1035.58 34.6648 1034.67 34.766L1009.16 38.3343Z" fill="#FF50C7"/>
<path d="M974.479 25.8822C973.568 29.0709 972.581 32.2596 971.518 35.4483C970.505 38.637 969.518 41.6233 968.557 44.4071C967.595 47.1908 966.709 49.595 965.9 51.6196C965.495 51.8726 965.039 52.0751 964.533 52.2269C964.027 52.3788 963.343 52.4547 962.483 52.4547C961.673 52.4547 960.914 52.3029 960.205 51.9992C959.547 51.7461 959.092 51.3159 958.839 50.7085C958.333 49.6962 957.751 48.2284 957.093 46.3051C956.485 44.3817 955.827 42.18 955.119 39.6999C954.461 37.2198 953.777 34.6638 953.069 32.0319C952.36 29.3493 951.702 26.768 951.095 24.2879C950.538 21.8078 950.057 19.6061 949.652 17.6827C950.007 17.3284 950.437 16.9994 950.943 16.6958C951.5 16.3921 952.158 16.2402 952.917 16.2402C953.879 16.2402 954.587 16.5186 955.043 17.0754C955.549 17.5815 955.903 18.4166 956.106 19.5808C956.561 21.7066 957.067 24.1107 957.624 26.7933C958.231 29.4759 958.839 32.1331 959.446 34.765C960.104 37.397 960.686 39.7759 961.192 41.9016C961.749 43.9768 962.154 45.5206 962.407 46.5328H962.711C963.116 45.3181 963.748 43.3442 964.609 40.611C965.469 37.8272 966.482 34.6638 967.646 31.1208C968.86 27.5778 970.075 23.9842 971.29 20.34C971.695 20.0869 972.176 19.9098 972.732 19.8085C973.289 19.6567 973.897 19.5808 974.555 19.5808C975.466 19.5808 976.225 19.7579 976.832 20.1122C977.44 20.4159 977.844 20.8967 978.047 21.5547C979.262 25.0471 980.4 28.4889 981.463 31.88C982.526 35.2206 983.463 38.2068 984.272 40.8387C985.082 43.4201 985.664 45.3434 986.019 46.6088H986.398C987.562 42.1041 988.828 37.2704 990.194 32.1078C991.561 26.9451 992.674 21.8837 993.535 16.9235C994.243 16.468 995.104 16.2402 996.116 16.2402C996.977 16.2402 997.66 16.4427 998.166 16.8476C998.672 17.2525 998.925 17.8852 998.925 18.7456C998.925 19.3024 998.748 20.3653 998.394 21.9343C998.09 23.5034 997.66 25.3508 997.103 27.4766C996.546 29.6024 995.914 31.88 995.205 34.3095C994.547 36.6884 993.864 39.0166 993.155 41.2943C992.447 43.5213 991.763 45.5459 991.105 47.368C990.498 49.1901 989.967 50.6073 989.511 51.6196C989.258 51.822 988.828 51.9992 988.22 52.151C987.664 52.3535 987.006 52.4547 986.246 52.4547C984.171 52.4547 982.957 51.9739 982.602 51.0122C981.894 49.1901 981.084 46.9378 980.173 44.2552C979.262 41.522 978.325 38.5864 977.364 35.4483C976.402 32.2596 975.44 29.0709 974.479 25.8822Z" fill="#FF50C7"/>
<path d="M924.586 31.9561H930.66V42.4332C930.66 44.4578 931.242 45.9003 932.406 46.7607C933.57 47.5706 935.164 47.9755 937.189 47.9755C938.049 47.9755 939.011 47.8236 940.074 47.52C941.137 47.2163 942.023 46.862 942.731 46.4571C943.035 46.7607 943.313 47.1404 943.566 47.5959C943.819 48.0514 943.946 48.5829 943.946 49.1902C943.946 50.3037 943.288 51.2148 941.972 51.9234C940.656 52.632 938.834 52.9863 936.506 52.9863C932.963 52.9863 930.078 52.2018 927.851 50.6327C925.674 49.0637 924.586 46.4571 924.586 42.8128V31.9561ZM927.699 22.6937V17.6829H943.111C943.263 17.8853 943.414 18.2143 943.566 18.6698C943.718 19.1254 943.794 19.6062 943.794 20.1124C943.794 20.9222 943.592 21.5549 943.187 22.0104C942.782 22.4659 942.225 22.6937 941.516 22.6937H927.699ZM930.66 34.2337H924.586V6.7502C924.839 6.64897 925.219 6.54774 925.725 6.44651C926.282 6.29467 926.864 6.21875 927.471 6.21875C928.534 6.21875 929.318 6.44651 929.825 6.90204C930.381 7.30696 930.66 7.99025 930.66 8.95192V34.2337Z" fill="#FF50C7"/>
<path d="M887.344 38.3343L887.04 33.5512L909.968 30.4385C909.766 27.6547 908.804 25.3771 907.083 23.6056C905.362 21.7834 902.983 20.8724 899.947 20.8724C896.809 20.8724 894.202 22.0112 892.127 24.2888C890.102 26.5159 889.09 29.7299 889.09 33.9309V35.6011C889.444 39.6503 890.76 42.7377 893.038 44.8635C895.366 46.9387 898.529 47.9763 902.528 47.9763C904.654 47.9763 906.577 47.622 908.298 46.9134C910.019 46.2048 911.385 45.4456 912.398 44.6358C912.954 44.9901 913.385 45.4203 913.688 45.9264C914.043 46.382 914.22 46.9134 914.22 47.5208C914.22 48.4824 913.663 49.3935 912.55 50.2539C911.487 51.0638 910.044 51.7218 908.222 52.2279C906.451 52.734 904.451 52.9871 902.224 52.9871C898.327 52.9871 894.936 52.2785 892.051 50.8613C889.216 49.4441 887.015 47.3436 885.446 44.5598C883.927 41.7254 883.168 38.2837 883.168 34.2345C883.168 31.3495 883.573 28.7935 884.383 26.5665C885.243 24.2888 886.407 22.3655 887.875 20.7965C889.394 19.2274 891.19 18.038 893.266 17.2282C895.341 16.3677 897.593 15.9375 900.023 15.9375C903.11 15.9375 905.818 16.5955 908.146 17.9115C910.525 19.2274 912.372 21.0748 913.688 23.4537C915.055 25.782 915.738 28.4645 915.738 31.5014C915.738 32.6149 915.485 33.4247 914.979 33.9309C914.473 34.3864 913.764 34.6648 912.853 34.766L887.344 38.3343Z" fill="#FF50C7"/>
<path d="M858.652 52.9871C856.475 52.9871 854.426 52.6581 852.502 52.0001C850.629 51.3928 849.263 50.7095 848.402 49.9503V44.3321C849.415 45.2938 850.68 46.1542 852.199 46.9134C853.768 47.622 855.64 47.9763 857.817 47.9763C861.36 47.9763 864.194 46.9134 866.32 44.7876C868.496 42.6112 869.584 39.1441 869.584 34.3864C869.584 31.0458 869.028 28.4139 867.914 26.4906C866.851 24.5166 865.409 23.0994 863.587 22.239C861.815 21.3785 859.892 20.9483 857.817 20.9483C855.995 20.9483 854.451 21.1761 853.185 21.6316C851.92 22.0871 850.781 22.5933 849.769 23.15V48.3559H843.695V23.3019C843.695 22.2896 843.872 21.4798 844.227 20.8724C844.581 20.265 845.315 19.6323 846.428 18.9743C847.795 18.2151 849.415 17.5318 851.287 16.9245C853.211 16.2665 855.387 15.9375 857.817 15.9375C861.157 15.9375 864.169 16.5955 866.851 17.9115C869.584 19.1768 871.736 21.1761 873.305 23.9092C874.924 26.5918 875.734 30.0842 875.734 34.3864C875.734 38.5368 875 42.0038 873.532 44.7876C872.115 47.5208 870.116 49.5707 867.535 50.9372C864.953 52.3038 861.992 52.9871 858.652 52.9871ZM849.769 46.306V65.666C849.516 65.7672 849.136 65.8684 848.63 65.9697C848.124 66.1215 847.567 66.1974 846.96 66.1974C845.897 66.1974 845.087 65.9697 844.53 65.5141C843.974 65.0586 843.695 64.35 843.695 63.3883V46.1542L849.769 46.306Z" fill="#FF50C7"/>
<path d="M1351.24 47.0022V21.4926L1357.31 21.4167V47.2299C1357.31 48.1916 1357.09 48.9761 1356.63 49.5835C1356.23 50.1403 1355.57 50.697 1354.66 51.2538C1353.64 51.9118 1352.2 52.5191 1350.33 53.0759C1348.46 53.6833 1346.31 53.9869 1343.88 53.9869C1340.23 53.9869 1337.02 53.3543 1334.23 52.0889C1331.45 50.8235 1329.27 48.8496 1327.71 46.167C1326.14 43.4339 1325.35 39.9162 1325.35 35.614C1325.35 31.2105 1326.11 27.6422 1327.63 24.9091C1329.2 22.1759 1331.3 20.1766 1333.93 18.9113C1336.56 17.5953 1339.45 16.9373 1342.59 16.9373C1344.56 16.9373 1346.43 17.2157 1348.2 17.7725C1349.98 18.3292 1351.37 19.0125 1352.38 19.8223V25.4405C1351.42 24.4788 1350.15 23.669 1348.58 23.011C1347.07 22.3024 1345.27 21.9481 1343.19 21.9481C1341.12 21.9481 1339.19 22.4037 1337.42 23.3147C1335.65 24.1752 1334.23 25.6177 1333.17 27.6422C1332.11 29.6668 1331.58 32.3747 1331.58 35.7658C1331.58 40.3717 1332.69 43.7376 1334.92 45.8634C1337.14 47.9385 1340.11 48.9761 1343.8 48.9761C1345.57 48.9761 1347.01 48.799 1348.13 48.4447C1349.29 48.0398 1350.33 47.5589 1351.24 47.0022ZM1357.31 22.9351L1351.24 23.011V3.80294C1351.49 3.70171 1351.87 3.60048 1352.38 3.49925C1352.94 3.34741 1353.49 3.27148 1354.05 3.27148C1355.16 3.27148 1355.97 3.49925 1356.48 3.95478C1357.04 4.35969 1357.31 5.04298 1357.31 6.00465V22.9351Z" fill="#FF50C7"/>
<path d="M1290.16 39.3343L1289.85 34.5512L1312.78 31.4385C1312.58 28.6547 1311.62 26.3771 1309.9 24.6056C1308.17 22.7834 1305.8 21.8724 1302.76 21.8724C1299.62 21.8724 1297.01 23.0112 1294.94 25.2888C1292.91 27.5159 1291.9 30.7299 1291.9 34.9309V36.6011C1292.26 40.6503 1293.57 43.7377 1295.85 45.8635C1298.18 47.9387 1301.34 48.9763 1305.34 48.9763C1307.47 48.9763 1309.39 48.622 1311.11 47.9134C1312.83 47.2048 1314.2 46.4456 1315.21 45.6358C1315.77 45.9901 1316.2 46.4203 1316.5 46.9264C1316.86 47.382 1317.03 47.9134 1317.03 48.5208C1317.03 49.4824 1316.48 50.3935 1315.36 51.2539C1314.3 52.0638 1312.86 52.7218 1311.03 53.2279C1309.26 53.734 1307.26 53.9871 1305.04 53.9871C1301.14 53.9871 1297.75 53.2785 1294.86 51.8613C1292.03 50.4441 1289.83 48.3436 1288.26 45.5598C1286.74 42.7254 1285.98 39.2837 1285.98 35.2345C1285.98 32.3495 1286.39 29.7935 1287.2 27.5665C1288.06 25.2888 1289.22 23.3655 1290.69 21.7965C1292.21 20.2274 1294 19.038 1296.08 18.2282C1298.15 17.3677 1300.41 16.9375 1302.84 16.9375C1305.92 16.9375 1308.63 17.5955 1310.96 18.9115C1313.34 20.2274 1315.18 22.0748 1316.5 24.4537C1317.87 26.782 1318.55 29.4645 1318.55 32.5014C1318.55 33.6149 1318.3 34.4247 1317.79 34.9309C1317.29 35.3864 1316.58 35.6648 1315.67 35.766L1290.16 39.3343Z" fill="#FF50C7"/>
<path d="M1255.48 26.8822C1254.57 30.0709 1253.58 33.2596 1252.52 36.4483C1251.51 39.637 1250.52 42.6233 1249.56 45.4071C1248.6 48.1908 1247.71 50.595 1246.9 52.6196C1246.49 52.8726 1246.04 53.0751 1245.53 53.2269C1245.03 53.3788 1244.34 53.4547 1243.48 53.4547C1242.67 53.4547 1241.91 53.3029 1241.21 52.9992C1240.55 52.7461 1240.09 52.3159 1239.84 51.7085C1239.33 50.6962 1238.75 49.2284 1238.09 47.3051C1237.49 45.3817 1236.83 43.18 1236.12 40.6999C1235.46 38.2198 1234.78 35.6638 1234.07 33.0319C1233.36 30.3493 1232.7 27.768 1232.09 25.2879C1231.54 22.8078 1231.06 20.6061 1230.65 18.6827C1231.01 18.3284 1231.44 17.9994 1231.94 17.6958C1232.5 17.3921 1233.16 17.2402 1233.92 17.2402C1234.88 17.2402 1235.59 17.5186 1236.04 18.0754C1236.55 18.5815 1236.9 19.4166 1237.11 20.5808C1237.56 22.7066 1238.07 25.1107 1238.62 27.7933C1239.23 30.4759 1239.84 33.1331 1240.45 35.765C1241.1 38.397 1241.69 40.7759 1242.19 42.9016C1242.75 44.9768 1243.15 46.5206 1243.41 47.5328H1243.71C1244.12 46.3181 1244.75 44.3442 1245.61 41.611C1246.47 38.8272 1247.48 35.6638 1248.65 32.1208C1249.86 28.5778 1251.08 24.9842 1252.29 21.34C1252.69 21.0869 1253.18 20.9098 1253.73 20.8085C1254.29 20.6567 1254.9 20.5808 1255.55 20.5808C1256.47 20.5808 1257.22 20.7579 1257.83 21.1122C1258.44 21.4159 1258.84 21.8967 1259.05 22.5547C1260.26 26.0471 1261.4 29.4889 1262.46 32.88C1263.53 36.2206 1264.46 39.2068 1265.27 41.8387C1266.08 44.4201 1266.66 46.3434 1267.02 47.6088H1267.4C1268.56 43.1041 1269.83 38.2704 1271.19 33.1078C1272.56 27.9451 1273.67 22.8837 1274.53 17.9235C1275.24 17.468 1276.1 17.2402 1277.12 17.2402C1277.98 17.2402 1278.66 17.4427 1279.17 17.8476C1279.67 18.2525 1279.93 18.8852 1279.93 19.7456C1279.93 20.3024 1279.75 21.3653 1279.39 22.9343C1279.09 24.5034 1278.66 26.3508 1278.1 28.4766C1277.55 30.6024 1276.91 32.88 1276.21 35.3095C1275.55 37.6884 1274.86 40.0166 1274.16 42.2943C1273.45 44.5213 1272.76 46.5459 1272.11 48.368C1271.5 50.1901 1270.97 51.6073 1270.51 52.6196C1270.26 52.822 1269.83 52.9992 1269.22 53.151C1268.66 53.3535 1268.01 53.4547 1267.25 53.4547C1265.17 53.4547 1263.96 52.9739 1263.6 52.0122C1262.89 50.1901 1262.08 47.9378 1261.17 45.2552C1260.26 42.522 1259.33 39.5864 1258.36 36.4483C1257.4 33.2596 1256.44 30.0709 1255.48 26.8822Z" fill="#FF50C7"/>
<path d="M1205.59 32.9561H1211.66V43.4332C1211.66 45.4578 1212.24 46.9003 1213.41 47.7607C1214.57 48.5706 1216.16 48.9755 1218.19 48.9755C1219.05 48.9755 1220.01 48.8236 1221.07 48.52C1222.14 48.2163 1223.02 47.862 1223.73 47.4571C1224.03 47.7607 1224.31 48.1404 1224.57 48.5959C1224.82 49.0514 1224.95 49.5829 1224.95 50.1902C1224.95 51.3037 1224.29 52.2148 1222.97 52.9234C1221.66 53.632 1219.83 53.9863 1217.51 53.9863C1213.96 53.9863 1211.08 53.2018 1208.85 51.6327C1206.67 50.0637 1205.59 47.4571 1205.59 43.8128V32.9561ZM1208.7 23.6937V18.6829H1224.11C1224.26 18.8853 1224.41 19.2143 1224.57 19.6698C1224.72 20.1254 1224.79 20.6062 1224.79 21.1124C1224.79 21.9222 1224.59 22.5549 1224.19 23.0104C1223.78 23.4659 1223.22 23.6937 1222.52 23.6937H1208.7ZM1211.66 35.2337H1205.59V7.7502C1205.84 7.64897 1206.22 7.54774 1206.72 7.44651C1207.28 7.29467 1207.86 7.21875 1208.47 7.21875C1209.53 7.21875 1210.32 7.44651 1210.82 7.90204C1211.38 8.30696 1211.66 8.99025 1211.66 9.95192V35.2337Z" fill="#FF50C7"/>
<path d="M1168.34 39.3343L1168.04 34.5512L1190.97 31.4385C1190.77 28.6547 1189.8 26.3771 1188.08 24.6056C1186.36 22.7834 1183.98 21.8724 1180.95 21.8724C1177.81 21.8724 1175.2 23.0112 1173.13 25.2888C1171.1 27.5159 1170.09 30.7299 1170.09 34.9309V36.6011C1170.44 40.6503 1171.76 43.7377 1174.04 45.8635C1176.37 47.9387 1179.53 48.9763 1183.53 48.9763C1185.65 48.9763 1187.58 48.622 1189.3 47.9134C1191.02 47.2048 1192.39 46.4456 1193.4 45.6358C1193.95 45.9901 1194.38 46.4203 1194.69 46.9264C1195.04 47.382 1195.22 47.9134 1195.22 48.5208C1195.22 49.4824 1194.66 50.3935 1193.55 51.2539C1192.49 52.0638 1191.04 52.7218 1189.22 53.2279C1187.45 53.734 1185.45 53.9871 1183.22 53.9871C1179.33 53.9871 1175.94 53.2785 1173.05 51.8613C1170.22 50.4441 1168.01 48.3436 1166.45 45.5598C1164.93 42.7254 1164.17 39.2837 1164.17 35.2345C1164.17 32.3495 1164.57 29.7935 1165.38 27.5665C1166.24 25.2888 1167.41 23.3655 1168.88 21.7965C1170.39 20.2274 1172.19 19.038 1174.27 18.2282C1176.34 17.3677 1178.59 16.9375 1181.02 16.9375C1184.11 16.9375 1186.82 17.5955 1189.15 18.9115C1191.52 20.2274 1193.37 22.0748 1194.69 24.4537C1196.05 26.782 1196.74 29.4645 1196.74 32.5014C1196.74 33.6149 1196.49 34.4247 1195.98 34.9309C1195.47 35.3864 1194.76 35.6648 1193.85 35.766L1168.34 39.3343Z" fill="#FF50C7"/>
<path d="M1139.65 53.9871C1137.48 53.9871 1135.43 53.6581 1133.5 53.0001C1131.63 52.3928 1130.26 51.7095 1129.4 50.9503V45.3321C1130.41 46.2938 1131.68 47.1542 1133.2 47.9134C1134.77 48.622 1136.64 48.9763 1138.82 48.9763C1142.36 48.9763 1145.19 47.9134 1147.32 45.7876C1149.5 43.6112 1150.58 40.1441 1150.58 35.3864C1150.58 32.0458 1150.03 29.4139 1148.91 27.4906C1147.85 25.5166 1146.41 24.0994 1144.59 23.239C1142.82 22.3785 1140.89 21.9483 1138.82 21.9483C1136.99 21.9483 1135.45 22.1761 1134.19 22.6316C1132.92 23.0871 1131.78 23.5933 1130.77 24.15V49.3559H1124.7V24.3019C1124.7 23.2896 1124.87 22.4798 1125.23 21.8724C1125.58 21.265 1126.31 20.6323 1127.43 19.9743C1128.8 19.2151 1130.41 18.5318 1132.29 17.9245C1134.21 17.2665 1136.39 16.9375 1138.82 16.9375C1142.16 16.9375 1145.17 17.5955 1147.85 18.9115C1150.58 20.1768 1152.74 22.1761 1154.3 24.9092C1155.92 27.5918 1156.73 31.0842 1156.73 35.3864C1156.73 39.5368 1156 43.0038 1154.53 45.7876C1153.12 48.5208 1151.12 50.5707 1148.53 51.9372C1145.95 53.3038 1142.99 53.9871 1139.65 53.9871ZM1130.77 47.306V66.666C1130.52 66.7672 1130.14 66.8684 1129.63 66.9697C1129.12 67.1215 1128.57 67.1974 1127.96 67.1974C1126.9 67.1974 1126.09 66.9697 1125.53 66.5141C1124.97 66.0586 1124.7 65.35 1124.7 64.3883V47.1542L1130.77 47.306Z" fill="#FF50C7"/>
<path d="M1101.7 29.3058L1101.32 29.7631C1101.26 29.8342 1101.16 29.8468 1101.08 29.792C1100.79 29.5756 1100.51 29.3349 1100.25 29.0725L1099.97 28.7817L1099.09 27.9801L1098.29 27.3738L1098.06 27.2289C1097.64 26.9713 1097.19 26.7741 1096.72 26.6432L1096.62 26.6147C1096.42 26.5596 1096.22 26.5203 1096.02 26.4977C1095.77 26.4705 1095.52 26.4673 1095.27 26.4889C1094.98 26.5141 1094.7 26.5727 1094.42 26.6633L1094.28 26.7103C1093.91 26.833 1093.55 26.9986 1093.22 27.2037L1092.95 27.3679L1092.81 27.475C1092.32 27.8594 1091.87 28.3028 1091.48 28.7953C1091.18 29.1717 1090.92 29.5748 1090.69 29.9997L1090.51 30.353L1090.49 30.3845C1090.21 31.0636 1089.99 31.7723 1089.86 32.4981L1089.83 32.643L1089.69 34.1423L1089.72 34.8134C1089.74 35.3529 1089.81 35.8898 1089.92 36.4188L1090.11 37.3505L1090.47 38.4232C1090.65 38.9766 1090.89 39.5128 1091.16 40.0259L1091.55 40.7391L1092.02 41.4992C1092.28 41.9327 1092.58 42.3454 1092.91 42.7338L1093.32 43.2203L1094.36 44.2785L1096.25 45.8419L1098.63 47.4784L1099.96 48.2278C1101.05 48.8466 1102.41 48.7554 1103.41 47.9959L1107.21 45.1147L1108.34 44.137L1109.22 43.3169L1110.14 42.2226L1111.1 40.8542L1111.8 39.5762L1112.18 38.596L1112.34 38.176C1112.53 37.6653 1112.67 37.1402 1112.78 36.6059L1112.9 35.9647L1112.99 34.8513C1113.04 34.2781 1113.04 33.7019 1112.99 33.1289L1112.94 32.5075C1112.9 32.1547 1112.85 31.8046 1112.76 31.4603C1112.64 30.9242 1112.44 30.4049 1112.2 29.9128L1111.92 29.3588L1111.3 28.4666L1110.87 28.0027C1110.66 27.7701 1110.42 27.5561 1110.17 27.3629C1109.8 27.0718 1109.39 26.8301 1108.95 26.6436L1108.55 26.4759C1108.14 26.3343 1107.71 26.2537 1107.27 26.2407C1106.94 26.2309 1106.61 26.2586 1106.29 26.3234L1106.2 26.3407C1105.79 26.4238 1105.39 26.5579 1105.01 26.7402L1104.54 26.9622L1103.58 27.5869L1102.63 28.3457L1101.7 29.3058Z" fill="#FF50C7"/>
<path d="M257.705 29.3058L257.321 29.7631C257.261 29.8342 257.157 29.8468 257.082 29.792C256.786 29.5756 256.509 29.3349 256.253 29.0725L255.969 28.7817L255.088 27.9801L254.291 27.3738L254.058 27.2289C253.644 26.9713 253.195 26.7741 252.725 26.6432L252.622 26.6147C252.424 26.5596 252.219 26.5203 252.015 26.4977C251.769 26.4705 251.518 26.4673 251.272 26.4889C250.983 26.5141 250.698 26.5727 250.423 26.6633L250.281 26.7103C249.908 26.833 249.552 26.9986 249.218 27.2037L248.95 27.3679L248.812 27.475C248.315 27.8594 247.867 28.3028 247.477 28.7953C247.179 29.1717 246.917 29.5748 246.694 29.9997L246.508 30.353L246.494 30.3845C246.205 31.0636 245.991 31.7723 245.856 32.4981L245.829 32.643L245.69 34.1423L245.718 34.8134C245.741 35.3529 245.807 35.8898 245.915 36.4188L246.106 37.3505L246.466 38.4232C246.652 38.9766 246.886 39.5128 247.164 40.0259L247.552 40.7391L248.019 41.4992C248.285 41.9327 248.584 42.3454 248.912 42.7338L249.323 43.2203L250.362 44.2785L252.247 45.8419L254.631 47.4784L255.956 48.2278C257.051 48.8466 258.408 48.7554 259.41 47.9959L263.211 45.1147L264.342 44.137L265.217 43.3169L266.135 42.2226L267.097 40.8542L267.796 39.5762L268.184 38.596L268.338 38.176C268.526 37.6653 268.673 37.1402 268.776 36.6059L268.9 35.9647L268.993 34.8513C269.041 34.2781 269.04 33.7019 268.99 33.1289L268.935 32.5075C268.904 32.1547 268.847 31.8046 268.765 31.4603C268.636 30.9242 268.445 30.4049 268.196 29.9128L267.916 29.3588L267.297 28.4666L266.871 28.0027C266.658 27.7701 266.425 27.5561 266.175 27.3629C265.798 27.0718 265.386 26.8301 264.948 26.6436L264.555 26.4759C264.143 26.3343 263.706 26.2537 263.271 26.2407C262.941 26.2309 262.612 26.2586 262.29 26.3234L262.203 26.3407C261.789 26.4238 261.387 26.5579 261.006 26.7402L260.541 26.9622L259.582 27.5869L258.635 28.3457L257.705 29.3058Z" fill="#FF50C7"/>
<path d="M227.241 49.0022V23.4926L233.314 23.4167V49.2299C233.314 50.1916 233.087 50.9761 232.631 51.5835C232.226 52.1403 231.568 52.697 230.657 53.2538C229.645 53.9118 228.202 54.5191 226.33 55.0759C224.457 55.6833 222.306 55.9869 219.876 55.9869C216.232 55.9869 213.018 55.3543 210.234 54.0889C207.451 52.8235 205.274 50.8496 203.705 48.167C202.136 45.4339 201.352 41.9162 201.352 37.614C201.352 33.2105 202.111 29.6422 203.629 26.9091C205.198 24.1759 207.299 22.1766 209.931 20.9113C212.563 19.5953 215.448 18.9373 218.586 18.9373C220.56 18.9373 222.432 19.2157 224.204 19.7725C225.975 20.3292 227.367 21.0125 228.38 21.8223V27.4405C227.418 26.4788 226.153 25.669 224.583 25.011C223.065 24.3024 221.268 23.9481 219.193 23.9481C217.118 23.9481 215.195 24.4037 213.423 25.3147C211.652 26.1752 210.234 27.6177 209.171 29.6422C208.109 31.6668 207.577 34.3747 207.577 37.7658C207.577 42.3717 208.691 45.7376 210.918 47.8634C213.145 49.9385 216.106 50.9761 219.8 50.9761C221.572 50.9761 223.014 50.799 224.128 50.4447C225.292 50.0398 226.33 49.5589 227.241 49.0022ZM233.314 24.9351L227.241 25.011V5.80294C227.494 5.70171 227.873 5.60048 228.38 5.49925C228.936 5.34741 229.493 5.27148 230.05 5.27148C231.163 5.27148 231.973 5.49925 232.479 5.95478C233.036 6.35969 233.314 7.04298 233.314 8.00465V24.9351Z" fill="#FF50C7"/>
<path d="M166.156 41.3343L165.852 36.5512L188.781 33.4385C188.578 30.6547 187.617 28.3771 185.896 26.6056C184.175 24.7834 181.796 23.8724 178.759 23.8724C175.621 23.8724 173.014 25.0112 170.939 27.2888C168.915 29.5159 167.902 32.7299 167.902 36.9309V38.6011C168.257 42.6503 169.573 45.7377 171.85 47.8635C174.179 49.9387 177.342 50.9763 181.34 50.9763C183.466 50.9763 185.39 50.622 187.11 49.9134C188.831 49.2048 190.198 48.4456 191.21 47.6358C191.767 47.9901 192.197 48.4203 192.501 48.9264C192.855 49.382 193.032 49.9134 193.032 50.5208C193.032 51.4824 192.476 52.3935 191.362 53.2539C190.299 54.0638 188.857 54.7218 187.035 55.2279C185.263 55.734 183.264 55.9871 181.037 55.9871C177.139 55.9871 173.748 55.2785 170.863 53.8613C168.029 52.4441 165.827 50.3436 164.258 47.5598C162.74 44.7254 161.98 41.2837 161.98 37.2345C161.98 34.3495 162.385 31.7935 163.195 29.5665C164.056 27.2888 165.22 25.3655 166.688 23.7965C168.206 22.2274 170.003 21.038 172.078 20.2282C174.153 19.3677 176.406 18.9375 178.835 18.9375C181.922 18.9375 184.63 19.5955 186.959 20.9115C189.337 22.2274 191.185 24.0748 192.501 26.4537C193.867 28.782 194.551 31.4645 194.551 34.5014C194.551 35.6149 194.298 36.4247 193.792 36.9309C193.285 37.3864 192.577 37.6648 191.666 37.766L166.156 41.3343Z" fill="#FF50C7"/>
<path d="M131.479 28.8822C130.568 32.0709 129.581 35.2596 128.518 38.4483C127.505 41.637 126.518 44.6233 125.557 47.4071C124.595 50.1908 123.709 52.595 122.9 54.6196C122.495 54.8726 122.039 55.0751 121.533 55.2269C121.027 55.3788 120.343 55.4547 119.483 55.4547C118.673 55.4547 117.914 55.3029 117.205 54.9992C116.547 54.7461 116.092 54.3159 115.839 53.7085C115.333 52.6962 114.751 51.2284 114.093 49.3051C113.485 47.3817 112.827 45.18 112.119 42.6999C111.461 40.2198 110.777 37.6638 110.069 35.0319C109.36 32.3493 108.702 29.768 108.095 27.2879C107.538 24.8078 107.057 22.6061 106.652 20.6827C107.007 20.3284 107.437 19.9994 107.943 19.6958C108.5 19.3921 109.158 19.2402 109.917 19.2402C110.879 19.2402 111.587 19.5186 112.043 20.0754C112.549 20.5815 112.903 21.4166 113.106 22.5808C113.561 24.7066 114.067 27.1107 114.624 29.7933C115.231 32.4759 115.839 35.1331 116.446 37.765C117.104 40.397 117.686 42.7759 118.192 44.9016C118.749 46.9768 119.154 48.5206 119.407 49.5328H119.711C120.116 48.3181 120.748 46.3442 121.609 43.611C122.469 40.8272 123.482 37.6638 124.646 34.1208C125.86 30.5778 127.075 26.9842 128.29 23.34C128.695 23.0869 129.176 22.9098 129.732 22.8085C130.289 22.6567 130.897 22.5808 131.555 22.5808C132.466 22.5808 133.225 22.7579 133.832 23.1122C134.44 23.4159 134.844 23.8967 135.047 24.5547C136.262 28.0471 137.4 31.4889 138.463 34.88C139.526 38.2206 140.463 41.2068 141.272 43.8387C142.082 46.4201 142.664 48.3434 143.019 49.6088H143.398C144.562 45.1041 145.828 40.2704 147.194 35.1078C148.561 29.9451 149.674 24.8837 150.535 19.9235C151.243 19.468 152.104 19.2402 153.116 19.2402C153.977 19.2402 154.66 19.4427 155.166 19.8476C155.672 20.2525 155.925 20.8852 155.925 21.7456C155.925 22.3024 155.748 23.3653 155.394 24.9343C155.09 26.5034 154.66 28.3508 154.103 30.4766C153.546 32.6024 152.914 34.88 152.205 37.3095C151.547 39.6884 150.864 42.0166 150.155 44.2943C149.447 46.5213 148.763 48.5459 148.105 50.368C147.498 52.1901 146.967 53.6073 146.511 54.6196C146.258 54.822 145.828 54.9992 145.22 55.151C144.664 55.3535 144.006 55.4547 143.246 55.4547C141.171 55.4547 139.957 54.9739 139.602 54.0122C138.894 52.1901 138.084 49.9378 137.173 47.2552C136.262 44.522 135.325 41.5864 134.364 38.4483C133.402 35.2596 132.44 32.0709 131.479 28.8822Z" fill="#FF50C7"/>
<path d="M81.5859 34.9561H87.6596V45.4332C87.6596 47.4578 88.2417 48.9003 89.4058 49.7607C90.57 50.5706 92.1643 50.9755 94.1889 50.9755C95.0493 50.9755 96.011 50.8236 97.0739 50.52C98.1368 50.2163 99.0225 49.862 99.7311 49.4571C100.035 49.7607 100.313 50.1404 100.566 50.5959C100.819 51.0514 100.946 51.5829 100.946 52.1902C100.946 53.3037 100.288 54.2148 98.9719 54.9234C97.656 55.632 95.8338 55.9863 93.5056 55.9863C89.9626 55.9863 87.0776 55.2018 84.8506 53.6327C82.6741 52.0637 81.5859 49.4571 81.5859 45.8128V34.9561ZM84.6987 25.6937V20.6829H100.111C100.263 20.8853 100.414 21.2143 100.566 21.6698C100.718 22.1254 100.794 22.6062 100.794 23.1124C100.794 23.9222 100.592 24.5549 100.187 25.0104C99.7818 25.4659 99.225 25.6937 98.5164 25.6937H84.6987ZM87.6596 37.2337H81.5859V9.7502C81.839 9.64897 82.2186 9.54774 82.7248 9.44651C83.2815 9.29467 83.8636 9.21875 84.4709 9.21875C85.5338 9.21875 86.3184 9.44651 86.8245 9.90204C87.3813 10.307 87.6596 10.9902 87.6596 11.9519V37.2337Z" fill="#FF50C7"/>
<path d="M44.3436 41.3343L44.04 36.5512L66.9682 33.4385C66.7657 30.6547 65.8041 28.3771 64.0832 26.6056C62.3623 24.7834 59.9834 23.8724 56.9466 23.8724C53.8085 23.8724 51.2019 25.0112 49.1267 27.2888C47.1021 29.5159 46.0898 32.7299 46.0898 36.9309V38.6011C46.4441 42.6503 47.7601 45.7377 50.0377 47.8635C52.366 49.9387 55.5294 50.9763 59.5279 50.9763C61.6537 50.9763 63.577 50.622 65.2979 49.9134C67.0188 49.2048 68.3854 48.4456 69.3977 47.6358C69.9544 47.9901 70.3847 48.4203 70.6883 48.9264C71.0426 49.382 71.2198 49.9134 71.2198 50.5208C71.2198 51.4824 70.663 52.3935 69.5495 53.2539C68.4866 54.0638 67.0441 54.7218 65.222 55.2279C63.4505 55.734 61.4512 55.9871 59.2242 55.9871C55.3269 55.9871 51.9358 55.2785 49.0508 53.8613C46.2164 52.4441 44.0147 50.3436 42.4456 47.5598C40.9272 44.7254 40.168 41.2837 40.168 37.2345C40.168 34.3495 40.5729 31.7935 41.3827 29.5665C42.2432 27.2888 43.4073 25.3655 44.8751 23.7965C46.3935 22.2274 48.1903 21.038 50.2655 20.2282C52.3407 19.3677 54.593 18.9375 57.0225 18.9375C60.11 18.9375 62.8178 19.5955 65.1461 20.9115C67.525 22.2274 69.3724 24.0748 70.6883 26.4537C72.0549 28.782 72.7382 31.4645 72.7382 34.5014C72.7382 35.6149 72.4852 36.4247 71.979 36.9309C71.4729 37.3864 70.7643 37.6648 69.8532 37.766L44.3436 41.3343Z" fill="#FF50C7"/>
<path d="M15.6518 55.9871C13.4754 55.9871 11.4255 55.6581 9.50219 55.0001C7.62946 54.3928 6.26288 53.7095 5.40244 52.9503V47.3321C6.41472 48.2938 7.68007 49.1542 9.1985 49.9134C10.7675 50.622 12.6403 50.9763 14.8167 50.9763C18.3597 50.9763 21.1941 49.9134 23.3199 47.7876C25.4963 45.6112 26.5845 42.1441 26.5845 37.3864C26.5845 34.0458 26.0277 31.4139 24.9142 29.4906C23.8513 27.5166 22.4088 26.0994 20.5867 25.239C18.8152 24.3785 16.8919 23.9483 14.8167 23.9483C12.9946 23.9483 11.4508 24.1761 10.1855 24.6316C8.92012 25.0871 7.7813 25.5933 6.76902 26.15V51.3559H0.695312V26.3019C0.695312 25.2896 0.872462 24.4798 1.22676 23.8724C1.58106 23.265 2.31497 22.6323 3.42848 21.9743C4.79507 21.2151 6.41472 20.5318 8.28745 19.9245C10.2108 19.2665 12.3872 18.9375 14.8167 18.9375C18.1572 18.9375 21.1688 19.5955 23.8513 20.9115C26.5845 22.1768 28.7356 24.1761 30.3046 26.9092C31.9243 29.5918 32.7341 33.0842 32.7341 37.3864C32.7341 41.5368 32.0002 45.0038 30.5324 47.7876C29.1152 50.5208 27.1159 52.5707 24.5346 53.9372C21.9533 55.3038 18.9924 55.9871 15.6518 55.9871ZM6.76902 49.306V68.666C6.51595 68.7672 6.13634 68.8684 5.6302 68.9697C5.12406 69.1215 4.5673 69.1974 3.95993 69.1974C2.89703 69.1974 2.0872 68.9697 1.53045 68.5141C0.973691 68.0586 0.695312 67.35 0.695312 66.3883V49.1542L6.76902 49.306Z" fill="#FF50C7"/>
<path d="M1949.7 27.3058L1949.32 27.7631C1949.26 27.8342 1949.16 27.8468 1949.08 27.792C1948.79 27.5756 1948.51 27.3349 1948.25 27.0725L1947.97 26.7817L1947.09 25.9801L1946.29 25.3738L1946.06 25.2289C1945.64 24.9713 1945.19 24.7741 1944.72 24.6432L1944.62 24.6147C1944.42 24.5596 1944.22 24.5203 1944.02 24.4977C1943.77 24.4705 1943.52 24.4673 1943.27 24.4889C1942.98 24.5141 1942.7 24.5727 1942.42 24.6633L1942.28 24.7103C1941.91 24.833 1941.55 24.9986 1941.22 25.2037L1940.95 25.3679L1940.81 25.475C1940.32 25.8594 1939.87 26.3028 1939.48 26.7953C1939.18 27.1717 1938.92 27.5748 1938.69 27.9997L1938.51 28.353L1938.49 28.3845C1938.21 29.0636 1937.99 29.7723 1937.86 30.4981L1937.83 30.643L1937.69 32.1423L1937.72 32.8134C1937.74 33.3529 1937.81 33.8898 1937.92 34.4188L1938.11 35.3505L1938.47 36.4232C1938.65 36.9766 1938.89 37.5128 1939.16 38.0259L1939.55 38.7391L1940.02 39.4992C1940.28 39.9327 1940.58 40.3454 1940.91 40.7338L1941.32 41.2203L1942.36 42.2785L1944.25 43.8419L1946.63 45.4784L1947.96 46.2278C1949.05 46.8466 1950.41 46.7554 1951.41 45.9959L1955.21 43.1147L1956.34 42.137L1957.22 41.3169L1958.14 40.2226L1959.1 38.8542L1959.8 37.5762L1960.18 36.596L1960.34 36.176C1960.53 35.6653 1960.67 35.1402 1960.78 34.6059L1960.9 33.9647L1960.99 32.8513C1961.04 32.2781 1961.04 31.7019 1960.99 31.1289L1960.94 30.5075C1960.9 30.1547 1960.85 29.8046 1960.76 29.4603C1960.64 28.9242 1960.44 28.4049 1960.2 27.9128L1959.92 27.3588L1959.3 26.4666L1958.87 26.0027C1958.66 25.7701 1958.42 25.5561 1958.17 25.3629C1957.8 25.0718 1957.39 24.8301 1956.95 24.6436L1956.55 24.4759C1956.14 24.3343 1955.71 24.2537 1955.27 24.2407C1954.94 24.2309 1954.61 24.2586 1954.29 24.3234L1954.2 24.3407C1953.79 24.4238 1953.39 24.5579 1953.01 24.7402L1952.54 24.9622L1951.58 25.5869L1950.63 26.3457L1949.7 27.3058Z" fill="#FF50C7"/>
<path d="M1668.7 27.3058L1668.32 27.7631C1668.26 27.8342 1668.16 27.8468 1668.08 27.792C1667.79 27.5756 1667.51 27.3349 1667.25 27.0725L1666.97 26.7817L1666.09 25.9801L1665.29 25.3738L1665.06 25.2289C1664.64 24.9713 1664.19 24.7741 1663.72 24.6432L1663.62 24.6147C1663.42 24.5596 1663.22 24.5203 1663.02 24.4977C1662.77 24.4705 1662.52 24.4673 1662.27 24.4889C1661.98 24.5141 1661.7 24.5727 1661.42 24.6633L1661.28 24.7103C1660.91 24.833 1660.55 24.9986 1660.22 25.2037L1659.95 25.3679L1659.81 25.475C1659.32 25.8594 1658.87 26.3028 1658.48 26.7953C1658.18 27.1717 1657.92 27.5748 1657.69 27.9997L1657.51 28.353L1657.49 28.3845C1657.21 29.0636 1656.99 29.7723 1656.86 30.4981L1656.83 30.643L1656.69 32.1423L1656.72 32.8134C1656.74 33.3529 1656.81 33.8898 1656.92 34.4188L1657.11 35.3505L1657.47 36.4232C1657.65 36.9766 1657.89 37.5128 1658.16 38.0259L1658.55 38.7391L1659.02 39.4992C1659.28 39.9327 1659.58 40.3454 1659.91 40.7338L1660.32 41.2203L1661.36 42.2785L1663.25 43.8419L1665.63 45.4784L1666.96 46.2278C1668.05 46.8466 1669.41 46.7554 1670.41 45.9959L1674.21 43.1147L1675.34 42.137L1676.22 41.3169L1677.14 40.2226L1678.1 38.8542L1678.8 37.5762L1679.18 36.596L1679.34 36.176C1679.53 35.6653 1679.67 35.1402 1679.78 34.6059L1679.9 33.9647L1679.99 32.8513C1680.04 32.2781 1680.04 31.7019 1679.99 31.1289L1679.94 30.5075C1679.9 30.1547 1679.85 29.8046 1679.76 29.4603C1679.64 28.9242 1679.44 28.4049 1679.2 27.9128L1678.92 27.3588L1678.3 26.4666L1677.87 26.0027C1677.66 25.7701 1677.42 25.5561 1677.17 25.3629C1676.8 25.0718 1676.39 24.8301 1675.95 24.6436L1675.55 24.4759C1675.14 24.3343 1674.71 24.2537 1674.27 24.2407C1673.94 24.2309 1673.61 24.2586 1673.29 24.3234L1673.2 24.3407C1672.79 24.4238 1672.39 24.5579 1672.01 24.7402L1671.54 24.9622L1670.58 25.5869L1669.63 26.3457L1668.7 27.3058Z" fill="#FF50C7"/>
<path d="M1637.24 46.2834V20.7739L1643.31 20.6979V46.5112C1643.31 47.4729 1643.09 48.2574 1642.63 48.8648C1642.23 49.4215 1641.57 49.9783 1640.66 50.535C1639.64 51.193 1638.2 51.8004 1636.33 52.3571C1634.46 52.9645 1632.31 53.2682 1629.88 53.2682C1626.23 53.2682 1623.02 52.6355 1620.23 51.3702C1617.45 50.1048 1615.27 48.1308 1613.71 45.4483C1612.14 42.7151 1611.35 39.1974 1611.35 34.8952C1611.35 30.4918 1612.11 26.9235 1613.63 24.1903C1615.2 21.4571 1617.3 19.4579 1619.93 18.1925C1622.56 16.8766 1625.45 16.2186 1628.59 16.2186C1630.56 16.2186 1632.43 16.497 1634.2 17.0537C1635.98 17.6105 1637.37 18.2938 1638.38 19.1036V24.7218C1637.42 23.7601 1636.15 22.9503 1634.58 22.2923C1633.07 21.5837 1631.27 21.2294 1629.19 21.2294C1627.12 21.2294 1625.19 21.6849 1623.42 22.596C1621.65 23.4564 1620.23 24.8989 1619.17 26.9235C1618.11 28.9481 1617.58 31.6559 1617.58 35.0471C1617.58 39.653 1618.69 43.0188 1620.92 45.1446C1623.14 47.2198 1626.11 48.2574 1629.8 48.2574C1631.57 48.2574 1633.01 48.0802 1634.13 47.7259C1635.29 47.321 1636.33 46.8402 1637.24 46.2834ZM1643.31 22.2164L1637.24 22.2923V3.08419C1637.49 2.98296 1637.87 2.88173 1638.38 2.7805C1638.94 2.62866 1639.49 2.55273 1640.05 2.55273C1641.16 2.55273 1641.97 2.7805 1642.48 3.23603C1643.04 3.64094 1643.31 4.32423 1643.31 5.2859V22.2164Z" fill="#FF50C7"/>
<path d="M1576.16 38.6155L1575.85 33.8325L1598.78 30.7197C1598.58 27.9359 1597.62 25.6583 1595.9 23.8868C1594.17 22.0647 1591.8 21.1536 1588.76 21.1536C1585.62 21.1536 1583.01 22.2925 1580.94 24.5701C1578.91 26.7971 1577.9 30.0111 1577.9 34.2121V35.8824C1578.26 39.9315 1579.57 43.019 1581.85 45.1448C1584.18 47.22 1587.34 48.2575 1591.34 48.2575C1593.47 48.2575 1595.39 47.9033 1597.11 47.1947C1598.83 46.4861 1600.2 45.7268 1601.21 44.917C1601.77 45.2713 1602.2 45.7015 1602.5 46.2077C1602.86 46.6632 1603.03 47.1947 1603.03 47.802C1603.03 48.7637 1602.48 49.6747 1601.36 50.5352C1600.3 51.345 1598.86 52.003 1597.03 52.5091C1595.26 53.0153 1593.26 53.2684 1591.04 53.2684C1587.14 53.2684 1583.75 52.5598 1580.86 51.1426C1578.03 49.7254 1575.83 47.6249 1574.26 44.8411C1572.74 42.0067 1571.98 38.5649 1571.98 34.5158C1571.98 31.6308 1572.39 29.0748 1573.2 26.8477C1574.06 24.5701 1575.22 22.6468 1576.69 21.0777C1578.21 19.5087 1580 18.3192 1582.08 17.5094C1584.15 16.649 1586.41 16.2188 1588.84 16.2188C1591.92 16.2188 1594.63 16.8767 1596.96 18.1927C1599.34 19.5087 1601.18 21.3561 1602.5 23.735C1603.87 26.0632 1604.55 28.7458 1604.55 31.7826C1604.55 32.8961 1604.3 33.706 1603.79 34.2121C1603.29 34.6676 1602.58 34.946 1601.67 35.0472L1576.16 38.6155Z" fill="#FF50C7"/>
<path d="M1541.48 26.1635C1540.57 29.3522 1539.58 32.5409 1538.52 35.7296C1537.51 38.9183 1536.52 41.9045 1535.56 44.6883C1534.6 47.4721 1533.71 49.8763 1532.9 51.9008C1532.49 52.1539 1532.04 52.3564 1531.53 52.5082C1531.03 52.66 1530.34 52.736 1529.48 52.736C1528.67 52.736 1527.91 52.5841 1527.21 52.2804C1526.55 52.0274 1526.09 51.5971 1525.84 50.9898C1525.33 49.9775 1524.75 48.5097 1524.09 46.5863C1523.49 44.663 1522.83 42.4613 1522.12 39.9812C1521.46 37.5011 1520.78 34.9451 1520.07 32.3131C1519.36 29.6306 1518.7 27.0492 1518.09 24.5691C1517.54 22.089 1517.06 19.8873 1516.65 17.964C1517.01 17.6097 1517.44 17.2807 1517.94 16.977C1518.5 16.6733 1519.16 16.5215 1519.92 16.5215C1520.88 16.5215 1521.59 16.7999 1522.04 17.3566C1522.55 17.8628 1522.9 18.6979 1523.11 19.862C1523.56 21.9878 1524.07 24.392 1524.62 27.0746C1525.23 29.7571 1525.84 32.4143 1526.45 35.0463C1527.1 37.6782 1527.69 40.0571 1528.19 42.1829C1528.75 44.2581 1529.15 45.8018 1529.41 46.8141H1529.71C1530.12 45.5994 1530.75 43.6254 1531.61 40.8922C1532.47 38.1085 1533.48 34.9451 1534.65 31.4021C1535.86 27.8591 1537.08 24.2655 1538.29 20.6212C1538.69 20.3682 1539.18 20.191 1539.73 20.0898C1540.29 19.9379 1540.9 19.862 1541.55 19.862C1542.47 19.862 1543.22 20.0392 1543.83 20.3935C1544.44 20.6972 1544.84 21.178 1545.05 21.836C1546.26 25.3284 1547.4 28.7701 1548.46 32.1613C1549.53 35.5018 1550.46 38.4881 1551.27 41.12C1552.08 43.7013 1552.66 45.6247 1553.02 46.89H1553.4C1554.56 42.3854 1555.83 37.5517 1557.19 32.389C1558.56 27.2264 1559.67 22.165 1560.53 17.2048C1561.24 16.7492 1562.1 16.5215 1563.12 16.5215C1563.98 16.5215 1564.66 16.7239 1565.17 17.1289C1565.67 17.5338 1565.93 18.1664 1565.93 19.0269C1565.93 19.5836 1565.75 20.6465 1565.39 22.2156C1565.09 23.7846 1564.66 25.632 1564.1 27.7578C1563.55 29.8836 1562.91 32.1613 1562.21 34.5908C1561.55 36.9696 1560.86 39.2979 1560.16 41.5755C1559.45 43.8025 1558.76 45.8271 1558.11 47.6492C1557.5 49.4713 1556.97 50.8885 1556.51 51.9008C1556.26 52.1033 1555.83 52.2804 1555.22 52.4323C1554.66 52.6347 1554.01 52.736 1553.25 52.736C1551.17 52.736 1549.96 52.2551 1549.6 51.2935C1548.89 49.4713 1548.08 47.219 1547.17 44.5365C1546.26 41.8033 1545.33 38.8677 1544.36 35.7296C1543.4 32.5409 1542.44 29.3522 1541.48 26.1635Z" fill="#FF50C7"/>
<path d="M1491.59 32.2373H1497.66V42.7145C1497.66 44.7391 1498.24 46.1816 1499.41 47.042C1500.57 47.8518 1502.16 48.2567 1504.19 48.2567C1505.05 48.2567 1506.01 48.1049 1507.07 47.8012C1508.14 47.4975 1509.02 47.1432 1509.73 46.7383C1510.03 47.042 1510.31 47.4216 1510.57 47.8771C1510.82 48.3327 1510.95 48.8641 1510.95 49.4715C1510.95 50.585 1510.29 51.496 1508.97 52.2046C1507.66 52.9132 1505.83 53.2675 1503.51 53.2675C1499.96 53.2675 1497.08 52.483 1494.85 50.914C1492.67 49.3449 1491.59 46.7383 1491.59 43.0941V32.2373ZM1494.7 22.9749V17.9641H1510.11C1510.26 18.1666 1510.41 18.4956 1510.57 18.9511C1510.72 19.4066 1510.79 19.8875 1510.79 20.3936C1510.79 21.2034 1510.59 21.8361 1510.19 22.2916C1509.78 22.7472 1509.22 22.9749 1508.52 22.9749H1494.7ZM1497.66 34.515H1491.59V7.03145C1491.84 6.93022 1492.22 6.82899 1492.72 6.72776C1493.28 6.57592 1493.86 6.5 1494.47 6.5C1495.53 6.5 1496.32 6.72776 1496.82 7.18329C1497.38 7.58821 1497.66 8.2715 1497.66 9.23317V34.515Z" fill="#FF50C7"/>
<path d="M1454.34 38.6155L1454.04 33.8325L1476.97 30.7197C1476.77 27.9359 1475.8 25.6583 1474.08 23.8868C1472.36 22.0647 1469.98 21.1536 1466.95 21.1536C1463.81 21.1536 1461.2 22.2925 1459.13 24.5701C1457.1 26.7971 1456.09 30.0111 1456.09 34.2121V35.8824C1456.44 39.9315 1457.76 43.019 1460.04 45.1448C1462.37 47.22 1465.53 48.2575 1469.53 48.2575C1471.65 48.2575 1473.58 47.9033 1475.3 47.1947C1477.02 46.4861 1478.39 45.7268 1479.4 44.917C1479.95 45.2713 1480.38 45.7015 1480.69 46.2077C1481.04 46.6632 1481.22 47.1947 1481.22 47.802C1481.22 48.7637 1480.66 49.6747 1479.55 50.5352C1478.49 51.345 1477.04 52.003 1475.22 52.5091C1473.45 53.0153 1471.45 53.2684 1469.22 53.2684C1465.33 53.2684 1461.94 52.5598 1459.05 51.1426C1456.22 49.7254 1454.01 47.6249 1452.45 44.8411C1450.93 42.0067 1450.17 38.5649 1450.17 34.5158C1450.17 31.6308 1450.57 29.0748 1451.38 26.8477C1452.24 24.5701 1453.41 22.6468 1454.88 21.0777C1456.39 19.5087 1458.19 18.3192 1460.27 17.5094C1462.34 16.649 1464.59 16.2188 1467.02 16.2188C1470.11 16.2188 1472.82 16.8767 1475.15 18.1927C1477.52 19.5087 1479.37 21.3561 1480.69 23.735C1482.05 26.0632 1482.74 28.7458 1482.74 31.7826C1482.74 32.8961 1482.49 33.706 1481.98 34.2121C1481.47 34.6676 1480.76 34.946 1479.85 35.0472L1454.34 38.6155Z" fill="#FF50C7"/>
<path d="M1425.65 53.2684C1423.48 53.2684 1421.43 52.9394 1419.5 52.2814C1417.63 51.674 1416.26 50.9907 1415.4 50.2315V44.6133C1416.41 45.575 1417.68 46.4354 1419.2 47.1947C1420.77 47.9033 1422.64 48.2575 1424.82 48.2575C1428.36 48.2575 1431.19 47.1947 1433.32 45.0689C1435.5 42.8924 1436.58 39.4254 1436.58 34.6676C1436.58 31.3271 1436.03 28.6952 1434.91 26.7718C1433.85 24.7979 1432.41 23.3807 1430.59 22.5202C1428.82 21.6598 1426.89 21.2296 1424.82 21.2296C1422.99 21.2296 1421.45 21.4573 1420.19 21.9128C1418.92 22.3684 1417.78 22.8745 1416.77 23.4313V48.6372H1410.7V23.5831C1410.7 22.5708 1410.87 21.761 1411.23 21.1536C1411.58 20.5463 1412.31 19.9136 1413.43 19.2556C1414.8 18.4964 1416.41 17.8131 1418.29 17.2057C1420.21 16.5477 1422.39 16.2188 1424.82 16.2188C1428.16 16.2188 1431.17 16.8767 1433.85 18.1927C1436.58 19.4581 1438.74 21.4573 1440.3 24.1905C1441.92 26.873 1442.73 30.3654 1442.73 34.6676C1442.73 38.818 1442 42.2851 1440.53 45.0689C1439.12 47.802 1437.12 49.8519 1434.53 51.2185C1431.95 52.5851 1428.99 53.2684 1425.65 53.2684ZM1416.77 46.5873V65.9472C1416.52 66.0485 1416.14 66.1497 1415.63 66.2509C1415.12 66.4028 1414.57 66.4787 1413.96 66.4787C1412.9 66.4787 1412.09 66.2509 1411.53 65.7954C1410.97 65.3399 1410.7 64.6313 1410.7 63.6696V46.4354L1416.77 46.5873Z" fill="#FF50C7"/>
<path d="M1918.24 45.0022V19.4926L1924.31 19.4167V45.2299C1924.31 46.1916 1924.09 46.9761 1923.63 47.5835C1923.23 48.1403 1922.57 48.697 1921.66 49.2538C1920.64 49.9118 1919.2 50.5191 1917.33 51.0759C1915.46 51.6833 1913.31 51.9869 1910.88 51.9869C1907.23 51.9869 1904.02 51.3543 1901.23 50.0889C1898.45 48.8235 1896.27 46.8496 1894.71 44.167C1893.14 41.4339 1892.35 37.9162 1892.35 33.614C1892.35 29.2105 1893.11 25.6422 1894.63 22.9091C1896.2 20.1759 1898.3 18.1766 1900.93 16.9113C1903.56 15.5953 1906.45 14.9373 1909.59 14.9373C1911.56 14.9373 1913.43 15.2157 1915.2 15.7725C1916.98 16.3292 1918.37 17.0125 1919.38 17.8223V23.4405C1918.42 22.4788 1917.15 21.669 1915.58 21.011C1914.07 20.3024 1912.27 19.9481 1910.19 19.9481C1908.12 19.9481 1906.19 20.4037 1904.42 21.3147C1902.65 22.1752 1901.23 23.6177 1900.17 25.6422C1899.11 27.6668 1898.58 30.3747 1898.58 33.7658C1898.58 38.3717 1899.69 41.7376 1901.92 43.8634C1904.14 45.9385 1907.11 46.9761 1910.8 46.9761C1912.57 46.9761 1914.01 46.799 1915.13 46.4447C1916.29 46.0398 1917.33 45.5589 1918.24 45.0022ZM1924.31 20.9351L1918.24 21.011V1.80294C1918.49 1.70171 1918.87 1.60048 1919.38 1.49925C1919.94 1.34741 1920.49 1.27148 1921.05 1.27148C1922.16 1.27148 1922.97 1.49925 1923.48 1.95478C1924.04 2.35969 1924.31 3.04298 1924.31 4.00465V20.9351Z" fill="#FF50C7"/>
<path d="M1857.16 37.3343L1856.85 32.5512L1879.78 29.4385C1879.58 26.6547 1878.62 24.3771 1876.9 22.6056C1875.17 20.7834 1872.8 19.8724 1869.76 19.8724C1866.62 19.8724 1864.01 21.0112 1861.94 23.2888C1859.91 25.5159 1858.9 28.7299 1858.9 32.9309V34.6011C1859.26 38.6503 1860.57 41.7377 1862.85 43.8635C1865.18 45.9387 1868.34 46.9763 1872.34 46.9763C1874.47 46.9763 1876.39 46.622 1878.11 45.9134C1879.83 45.2048 1881.2 44.4456 1882.21 43.6358C1882.77 43.9901 1883.2 44.4203 1883.5 44.9264C1883.86 45.382 1884.03 45.9134 1884.03 46.5208C1884.03 47.4824 1883.48 48.3935 1882.36 49.2539C1881.3 50.0638 1879.86 50.7218 1878.03 51.2279C1876.26 51.734 1874.26 51.9871 1872.04 51.9871C1868.14 51.9871 1864.75 51.2785 1861.86 49.8613C1859.03 48.4441 1856.83 46.3436 1855.26 43.5598C1853.74 40.7254 1852.98 37.2837 1852.98 33.2345C1852.98 30.3495 1853.39 27.7935 1854.2 25.5665C1855.06 23.2888 1856.22 21.3655 1857.69 19.7965C1859.21 18.2274 1861 17.038 1863.08 16.2282C1865.15 15.3677 1867.41 14.9375 1869.84 14.9375C1872.92 14.9375 1875.63 15.5955 1877.96 16.9115C1880.34 18.2274 1882.18 20.0748 1883.5 22.4537C1884.87 24.782 1885.55 27.4645 1885.55 30.5014C1885.55 31.6149 1885.3 32.4247 1884.79 32.9309C1884.29 33.3864 1883.58 33.6648 1882.67 33.766L1857.16 37.3343Z" fill="#FF50C7"/>
<path d="M1822.48 24.8822C1821.57 28.0709 1820.58 31.2596 1819.52 34.4483C1818.51 37.637 1817.52 40.6233 1816.56 43.4071C1815.6 46.1908 1814.71 48.595 1813.9 50.6196C1813.49 50.8726 1813.04 51.0751 1812.53 51.2269C1812.03 51.3788 1811.34 51.4547 1810.48 51.4547C1809.67 51.4547 1808.91 51.3029 1808.21 50.9992C1807.55 50.7461 1807.09 50.3159 1806.84 49.7085C1806.33 48.6962 1805.75 47.2284 1805.09 45.3051C1804.49 43.3817 1803.83 41.18 1803.12 38.6999C1802.46 36.2198 1801.78 33.6638 1801.07 31.0319C1800.36 28.3493 1799.7 25.768 1799.09 23.2879C1798.54 20.8078 1798.06 18.6061 1797.65 16.6827C1798.01 16.3284 1798.44 15.9994 1798.94 15.6958C1799.5 15.3921 1800.16 15.2402 1800.92 15.2402C1801.88 15.2402 1802.59 15.5186 1803.04 16.0754C1803.55 16.5815 1803.9 17.4166 1804.11 18.5808C1804.56 20.7066 1805.07 23.1107 1805.62 25.7933C1806.23 28.4759 1806.84 31.1331 1807.45 33.765C1808.1 36.397 1808.69 38.7759 1809.19 40.9016C1809.75 42.9768 1810.15 44.5206 1810.41 45.5328H1810.71C1811.12 44.3181 1811.75 42.3442 1812.61 39.611C1813.47 36.8272 1814.48 33.6638 1815.65 30.1208C1816.86 26.5778 1818.08 22.9842 1819.29 19.34C1819.69 19.0869 1820.18 18.9098 1820.73 18.8085C1821.29 18.6567 1821.9 18.5808 1822.55 18.5808C1823.47 18.5808 1824.22 18.7579 1824.83 19.1122C1825.44 19.4159 1825.84 19.8967 1826.05 20.5547C1827.26 24.0471 1828.4 27.4889 1829.46 30.88C1830.53 34.2206 1831.46 37.2068 1832.27 39.8387C1833.08 42.4201 1833.66 44.3434 1834.02 45.6088H1834.4C1835.56 41.1041 1836.83 36.2704 1838.19 31.1078C1839.56 25.9451 1840.67 20.8837 1841.53 15.9235C1842.24 15.468 1843.1 15.2402 1844.12 15.2402C1844.98 15.2402 1845.66 15.4427 1846.17 15.8476C1846.67 16.2525 1846.93 16.8852 1846.93 17.7456C1846.93 18.3024 1846.75 19.3653 1846.39 20.9343C1846.09 22.5034 1845.66 24.3508 1845.1 26.4766C1844.55 28.6024 1843.91 30.88 1843.21 33.3095C1842.55 35.6884 1841.86 38.0166 1841.16 40.2943C1840.45 42.5213 1839.76 44.5459 1839.11 46.368C1838.5 48.1901 1837.97 49.6073 1837.51 50.6196C1837.26 50.822 1836.83 50.9992 1836.22 51.151C1835.66 51.3535 1835.01 51.4547 1834.25 51.4547C1832.17 51.4547 1830.96 50.9739 1830.6 50.0122C1829.89 48.1901 1829.08 45.9378 1828.17 43.2552C1827.26 40.522 1826.33 37.5864 1825.36 34.4483C1824.4 31.2596 1823.44 28.0709 1822.48 24.8822Z" fill="#FF50C7"/>
<path d="M1772.59 30.9561H1778.66V41.4332C1778.66 43.4578 1779.24 44.9003 1780.41 45.7607C1781.57 46.5706 1783.16 46.9755 1785.19 46.9755C1786.05 46.9755 1787.01 46.8236 1788.07 46.52C1789.14 46.2163 1790.02 45.862 1790.73 45.4571C1791.03 45.7607 1791.31 46.1404 1791.57 46.5959C1791.82 47.0514 1791.95 47.5829 1791.95 48.1902C1791.95 49.3037 1791.29 50.2148 1789.97 50.9234C1788.66 51.632 1786.83 51.9863 1784.51 51.9863C1780.96 51.9863 1778.08 51.2018 1775.85 49.6327C1773.67 48.0637 1772.59 45.4571 1772.59 41.8128V30.9561ZM1775.7 21.6937V16.6829H1791.11C1791.26 16.8853 1791.41 17.2143 1791.57 17.6698C1791.72 18.1254 1791.79 18.6062 1791.79 19.1124C1791.79 19.9222 1791.59 20.5549 1791.19 21.0104C1790.78 21.4659 1790.22 21.6937 1789.52 21.6937H1775.7ZM1778.66 33.2337H1772.59V5.7502C1772.84 5.64897 1773.22 5.54774 1773.72 5.44651C1774.28 5.29467 1774.86 5.21875 1775.47 5.21875C1776.53 5.21875 1777.32 5.44651 1777.82 5.90204C1778.38 6.30696 1778.66 6.99025 1778.66 7.95192V33.2337Z" fill="#FF50C7"/>
<path d="M1735.34 37.3343L1735.04 32.5512L1757.97 29.4385C1757.77 26.6547 1756.8 24.3771 1755.08 22.6056C1753.36 20.7834 1750.98 19.8724 1747.95 19.8724C1744.81 19.8724 1742.2 21.0112 1740.13 23.2888C1738.1 25.5159 1737.09 28.7299 1737.09 32.9309V34.6011C1737.44 38.6503 1738.76 41.7377 1741.04 43.8635C1743.37 45.9387 1746.53 46.9763 1750.53 46.9763C1752.65 46.9763 1754.58 46.622 1756.3 45.9134C1758.02 45.2048 1759.39 44.4456 1760.4 43.6358C1760.95 43.9901 1761.38 44.4203 1761.69 44.9264C1762.04 45.382 1762.22 45.9134 1762.22 46.5208C1762.22 47.4824 1761.66 48.3935 1760.55 49.2539C1759.49 50.0638 1758.04 50.7218 1756.22 51.2279C1754.45 51.734 1752.45 51.9871 1750.22 51.9871C1746.33 51.9871 1742.94 51.2785 1740.05 49.8613C1737.22 48.4441 1735.01 46.3436 1733.45 43.5598C1731.93 40.7254 1731.17 37.2837 1731.17 33.2345C1731.17 30.3495 1731.57 27.7935 1732.38 25.5665C1733.24 23.2888 1734.41 21.3655 1735.88 19.7965C1737.39 18.2274 1739.19 17.038 1741.27 16.2282C1743.34 15.3677 1745.59 14.9375 1748.02 14.9375C1751.11 14.9375 1753.82 15.5955 1756.15 16.9115C1758.52 18.2274 1760.37 20.0748 1761.69 22.4537C1763.05 24.782 1763.74 27.4645 1763.74 30.5014C1763.74 31.6149 1763.49 32.4247 1762.98 32.9309C1762.47 33.3864 1761.76 33.6648 1760.85 33.766L1735.34 37.3343Z" fill="#FF50C7"/>
<path d="M1706.65 51.9871C1704.48 51.9871 1702.43 51.6581 1700.5 51.0001C1698.63 50.3928 1697.26 49.7095 1696.4 48.9503V43.3321C1697.41 44.2938 1698.68 45.1542 1700.2 45.9134C1701.77 46.622 1703.64 46.9763 1705.82 46.9763C1709.36 46.9763 1712.19 45.9134 1714.32 43.7876C1716.5 41.6112 1717.58 38.1441 1717.58 33.3864C1717.58 30.0458 1717.03 27.4139 1715.91 25.4906C1714.85 23.5166 1713.41 22.0994 1711.59 21.239C1709.82 20.3785 1707.89 19.9483 1705.82 19.9483C1703.99 19.9483 1702.45 20.1761 1701.19 20.6316C1699.92 21.0871 1698.78 21.5933 1697.77 22.15V47.3559H1691.7V22.3019C1691.7 21.2896 1691.87 20.4798 1692.23 19.8724C1692.58 19.265 1693.31 18.6323 1694.43 17.9743C1695.8 17.2151 1697.41 16.5318 1699.29 15.9245C1701.21 15.2665 1703.39 14.9375 1705.82 14.9375C1709.16 14.9375 1712.17 15.5955 1714.85 16.9115C1717.58 18.1768 1719.74 20.1761 1721.3 22.9092C1722.92 25.5918 1723.73 29.0842 1723.73 33.3864C1723.73 37.5368 1723 41.0038 1721.53 43.7876C1720.12 46.5208 1718.12 48.5707 1715.53 49.9372C1712.95 51.3038 1709.99 51.9871 1706.65 51.9871ZM1697.77 45.306V64.666C1697.52 64.7672 1697.14 64.8684 1696.63 64.9697C1696.12 65.1215 1695.57 65.1974 1694.96 65.1974C1693.9 65.1974 1693.09 64.9697 1692.53 64.5141C1691.97 64.0586 1691.7 63.35 1691.7 62.3883V45.1542L1697.77 45.306Z" fill="#FF50C7"/>
<path d="M2199.24 44.0022V18.4926L2205.31 18.4167V44.2299C2205.31 45.1916 2205.09 45.9761 2204.63 46.5835C2204.23 47.1403 2203.57 47.697 2202.66 48.2538C2201.64 48.9118 2200.2 49.5191 2198.33 50.0759C2196.46 50.6833 2194.31 50.9869 2191.88 50.9869C2188.23 50.9869 2185.02 50.3543 2182.23 49.0889C2179.45 47.8235 2177.27 45.8496 2175.71 43.167C2174.14 40.4339 2173.35 36.9162 2173.35 32.614C2173.35 28.2105 2174.11 24.6422 2175.63 21.9091C2177.2 19.1759 2179.3 17.1766 2181.93 15.9113C2184.56 14.5953 2187.45 13.9373 2190.59 13.9373C2192.56 13.9373 2194.43 14.2157 2196.2 14.7725C2197.98 15.3292 2199.37 16.0125 2200.38 16.8223V22.4405C2199.42 21.4788 2198.15 20.669 2196.58 20.011C2195.07 19.3024 2193.27 18.9481 2191.19 18.9481C2189.12 18.9481 2187.19 19.4037 2185.42 20.3147C2183.65 21.1752 2182.23 22.6177 2181.17 24.6422C2180.11 26.6668 2179.58 29.3747 2179.58 32.7658C2179.58 37.3717 2180.69 40.7376 2182.92 42.8634C2185.14 44.9385 2188.11 45.9761 2191.8 45.9761C2193.57 45.9761 2195.01 45.799 2196.13 45.4447C2197.29 45.0398 2198.33 44.5589 2199.24 44.0022ZM2205.31 19.9351L2199.24 20.011V0.802937C2199.49 0.701706 2199.87 0.600479 2200.38 0.499252C2200.94 0.347409 2201.49 0.271484 2202.05 0.271484C2203.16 0.271484 2203.97 0.499249 2204.48 0.954777C2205.04 1.35969 2205.31 2.04298 2205.31 3.00465V19.9351Z" fill="#FF50C7"/>
<path d="M2138.16 36.3343L2137.85 31.5512L2160.78 28.4385C2160.58 25.6547 2159.62 23.3771 2157.9 21.6056C2156.17 19.7834 2153.8 18.8724 2150.76 18.8724C2147.62 18.8724 2145.01 20.0112 2142.94 22.2888C2140.91 24.5159 2139.9 27.7299 2139.9 31.9309V33.6011C2140.26 37.6503 2141.57 40.7377 2143.85 42.8635C2146.18 44.9387 2149.34 45.9763 2153.34 45.9763C2155.47 45.9763 2157.39 45.622 2159.11 44.9134C2160.83 44.2048 2162.2 43.4456 2163.21 42.6358C2163.77 42.9901 2164.2 43.4203 2164.5 43.9264C2164.86 44.382 2165.03 44.9134 2165.03 45.5208C2165.03 46.4824 2164.48 47.3935 2163.36 48.2539C2162.3 49.0638 2160.86 49.7218 2159.03 50.2279C2157.26 50.734 2155.26 50.9871 2153.04 50.9871C2149.14 50.9871 2145.75 50.2785 2142.86 48.8613C2140.03 47.4441 2137.83 45.3436 2136.26 42.5598C2134.74 39.7254 2133.98 36.2837 2133.98 32.2345C2133.98 29.3495 2134.39 26.7935 2135.2 24.5665C2136.06 22.2888 2137.22 20.3655 2138.69 18.7965C2140.21 17.2274 2142 16.038 2144.08 15.2282C2146.15 14.3677 2148.41 13.9375 2150.84 13.9375C2153.92 13.9375 2156.63 14.5955 2158.96 15.9115C2161.34 17.2274 2163.18 19.0748 2164.5 21.4537C2165.87 23.782 2166.55 26.4645 2166.55 29.5014C2166.55 30.6149 2166.3 31.4247 2165.79 31.9309C2165.29 32.3864 2164.58 32.6648 2163.67 32.766L2138.16 36.3343Z" fill="#FF50C7"/>
<path d="M2103.48 23.8822C2102.57 27.0709 2101.58 30.2596 2100.52 33.4483C2099.51 36.637 2098.52 39.6233 2097.56 42.4071C2096.6 45.1908 2095.71 47.595 2094.9 49.6196C2094.5 49.8726 2094.04 50.0751 2093.54 50.2269C2093.03 50.3788 2092.35 50.4547 2091.49 50.4547C2090.68 50.4547 2089.92 50.3029 2089.21 49.9992C2088.55 49.7461 2088.1 49.3159 2087.84 48.7085C2087.34 47.6962 2086.75 46.2284 2086.1 44.3051C2085.49 42.3817 2084.83 40.18 2084.12 37.6999C2083.46 35.2198 2082.78 32.6638 2082.07 30.0319C2081.36 27.3493 2080.71 24.768 2080.1 22.2879C2079.54 19.8078 2079.06 17.6061 2078.66 15.6827C2079.01 15.3284 2079.44 14.9994 2079.95 14.6958C2080.5 14.3921 2081.16 14.2402 2081.92 14.2402C2082.88 14.2402 2083.59 14.5186 2084.05 15.0754C2084.55 15.5815 2084.91 16.4166 2085.11 17.5808C2085.57 19.7066 2086.07 22.1107 2086.63 24.7933C2087.24 27.4759 2087.84 30.1331 2088.45 32.765C2089.11 35.397 2089.69 37.7759 2090.2 39.9016C2090.75 41.9768 2091.16 43.5206 2091.41 44.5328H2091.71C2092.12 43.3181 2092.75 41.3442 2093.61 38.611C2094.47 35.8272 2095.49 32.6638 2096.65 29.1208C2097.86 25.5778 2099.08 21.9842 2100.29 18.34C2100.7 18.0869 2101.18 17.9098 2101.74 17.8085C2102.29 17.6567 2102.9 17.5808 2103.56 17.5808C2104.47 17.5808 2105.23 17.7579 2105.84 18.1122C2106.44 18.4159 2106.85 18.8967 2107.05 19.5547C2108.27 23.0471 2109.4 26.4889 2110.47 29.88C2111.53 33.2206 2112.47 36.2068 2113.28 38.8387C2114.09 41.4201 2114.67 43.3434 2115.02 44.6088H2115.4C2116.57 40.1041 2117.83 35.2704 2119.2 30.1078C2120.56 24.9451 2121.68 19.8837 2122.54 14.9235C2123.25 14.468 2124.11 14.2402 2125.12 14.2402C2125.98 14.2402 2126.66 14.4427 2127.17 14.8476C2127.68 15.2525 2127.93 15.8852 2127.93 16.7456C2127.93 17.3024 2127.75 18.3653 2127.4 19.9343C2127.09 21.5034 2126.66 23.3508 2126.11 25.4766C2125.55 27.6024 2124.92 29.88 2124.21 32.3095C2123.55 34.6884 2122.87 37.0166 2122.16 39.2943C2121.45 41.5213 2120.77 43.5459 2120.11 45.368C2119.5 47.1901 2118.97 48.6073 2118.51 49.6196C2118.26 49.822 2117.83 49.9992 2117.22 50.151C2116.67 50.3535 2116.01 50.4547 2115.25 50.4547C2113.18 50.4547 2111.96 49.9739 2111.61 49.0122C2110.9 47.1901 2110.09 44.9378 2109.18 42.2552C2108.27 39.522 2107.33 36.5864 2106.37 33.4483C2105.41 30.2596 2104.44 27.0709 2103.48 23.8822Z" fill="#FF50C7"/>
<path d="M2053.59 29.9561H2059.66V40.4332C2059.66 42.4578 2060.24 43.9003 2061.41 44.7607C2062.57 45.5706 2064.16 45.9755 2066.19 45.9755C2067.05 45.9755 2068.01 45.8236 2069.07 45.52C2070.14 45.2163 2071.02 44.862 2071.73 44.4571C2072.03 44.7607 2072.31 45.1404 2072.57 45.5959C2072.82 46.0514 2072.95 46.5829 2072.95 47.1902C2072.95 48.3037 2072.29 49.2148 2070.97 49.9234C2069.66 50.632 2067.83 50.9863 2065.51 50.9863C2061.96 50.9863 2059.08 50.2018 2056.85 48.6327C2054.67 47.0637 2053.59 44.4571 2053.59 40.8128V29.9561ZM2056.7 20.6937V15.6829H2072.11C2072.26 15.8853 2072.41 16.2143 2072.57 16.6698C2072.72 17.1254 2072.79 17.6062 2072.79 18.1124C2072.79 18.9222 2072.59 19.5549 2072.19 20.0104C2071.78 20.4659 2071.22 20.6937 2070.52 20.6937H2056.7ZM2059.66 32.2337H2053.59V4.7502C2053.84 4.64897 2054.22 4.54774 2054.72 4.44651C2055.28 4.29467 2055.86 4.21875 2056.47 4.21875C2057.53 4.21875 2058.32 4.44651 2058.82 4.90204C2059.38 5.30696 2059.66 5.99025 2059.66 6.95192V32.2337Z" fill="#FF50C7"/>
<path d="M2016.34 36.3343L2016.04 31.5512L2038.97 28.4385C2038.77 25.6547 2037.8 23.3771 2036.08 21.6056C2034.36 19.7834 2031.98 18.8724 2028.95 18.8724C2025.81 18.8724 2023.2 20.0112 2021.13 22.2888C2019.1 24.5159 2018.09 27.7299 2018.09 31.9309V33.6011C2018.44 37.6503 2019.76 40.7377 2022.04 42.8635C2024.37 44.9387 2027.53 45.9763 2031.53 45.9763C2033.65 45.9763 2035.58 45.622 2037.3 44.9134C2039.02 44.2048 2040.39 43.4456 2041.4 42.6358C2041.95 42.9901 2042.38 43.4203 2042.69 43.9264C2043.04 44.382 2043.22 44.9134 2043.22 45.5208C2043.22 46.4824 2042.66 47.3935 2041.55 48.2539C2040.49 49.0638 2039.04 49.7218 2037.22 50.2279C2035.45 50.734 2033.45 50.9871 2031.22 50.9871C2027.33 50.9871 2023.94 50.2785 2021.05 48.8613C2018.22 47.4441 2016.01 45.3436 2014.45 42.5598C2012.93 39.7254 2012.17 36.2837 2012.17 32.2345C2012.17 29.3495 2012.57 26.7935 2013.38 24.5665C2014.24 22.2888 2015.41 20.3655 2016.88 18.7965C2018.39 17.2274 2020.19 16.038 2022.27 15.2282C2024.34 14.3677 2026.59 13.9375 2029.02 13.9375C2032.11 13.9375 2034.82 14.5955 2037.15 15.9115C2039.52 17.2274 2041.37 19.0748 2042.69 21.4537C2044.05 23.782 2044.74 26.4645 2044.74 29.5014C2044.74 30.6149 2044.49 31.4247 2043.98 31.9309C2043.47 32.3864 2042.76 32.6648 2041.85 32.766L2016.34 36.3343Z" fill="#FF50C7"/>
<path d="M1987.65 50.9871C1985.48 50.9871 1983.43 50.6581 1981.5 50.0001C1979.63 49.3928 1978.26 48.7095 1977.4 47.9503V42.3321C1978.41 43.2938 1979.68 44.1542 1981.2 44.9134C1982.77 45.622 1984.64 45.9763 1986.82 45.9763C1990.36 45.9763 1993.19 44.9134 1995.32 42.7876C1997.5 40.6112 1998.58 37.1441 1998.58 32.3864C1998.58 29.0458 1998.03 26.4139 1996.91 24.4906C1995.85 22.5166 1994.41 21.0994 1992.59 20.239C1990.82 19.3785 1988.89 18.9483 1986.82 18.9483C1984.99 18.9483 1983.45 19.1761 1982.19 19.6316C1980.92 20.0871 1979.78 20.5933 1978.77 21.15V46.3559H1972.7V21.3019C1972.7 20.2896 1972.87 19.4798 1973.23 18.8724C1973.58 18.265 1974.31 17.6323 1975.43 16.9743C1976.8 16.2151 1978.41 15.5318 1980.29 14.9245C1982.21 14.2665 1984.39 13.9375 1986.82 13.9375C1990.16 13.9375 1993.17 14.5955 1995.85 15.9115C1998.58 17.1768 2000.74 19.1761 2002.3 21.9092C2003.92 24.5918 2004.73 28.0842 2004.73 32.3864C2004.73 36.5368 2004 40.0038 2002.53 42.7876C2001.12 45.5208 1999.12 47.5707 1996.53 48.9372C1993.95 50.3038 1990.99 50.9871 1987.65 50.9871ZM1978.77 44.306V63.666C1978.52 63.7672 1978.14 63.8684 1977.63 63.9697C1977.12 64.1215 1976.57 64.1974 1975.96 64.1974C1974.9 64.1974 1974.09 63.9697 1973.53 63.5141C1972.97 63.0586 1972.7 62.35 1972.7 61.3883V44.1542L1978.77 44.306Z" fill="#FF50C7"/>
<path d="M2480.24 45.0022V19.4926L2486.31 19.4167V45.2299C2486.31 46.1916 2486.09 46.9761 2485.63 47.5835C2485.23 48.1403 2484.57 48.697 2483.66 49.2538C2482.64 49.9118 2481.2 50.5191 2479.33 51.0759C2477.46 51.6833 2475.31 51.9869 2472.88 51.9869C2469.23 51.9869 2466.02 51.3543 2463.23 50.0889C2460.45 48.8235 2458.27 46.8496 2456.71 44.167C2455.14 41.4339 2454.35 37.9162 2454.35 33.614C2454.35 29.2105 2455.11 25.6422 2456.63 22.9091C2458.2 20.1759 2460.3 18.1766 2462.93 16.9113C2465.56 15.5953 2468.45 14.9373 2471.59 14.9373C2473.56 14.9373 2475.43 15.2157 2477.2 15.7725C2478.98 16.3292 2480.37 17.0125 2481.38 17.8223V23.4405C2480.42 22.4788 2479.15 21.669 2477.58 21.011C2476.07 20.3024 2474.27 19.9481 2472.19 19.9481C2470.12 19.9481 2468.19 20.4037 2466.42 21.3147C2464.65 22.1752 2463.23 23.6177 2462.17 25.6422C2461.11 27.6668 2460.58 30.3747 2460.58 33.7658C2460.58 38.3717 2461.69 41.7376 2463.92 43.8634C2466.14 45.9385 2469.11 46.9761 2472.8 46.9761C2474.57 46.9761 2476.01 46.799 2477.13 46.4447C2478.29 46.0398 2479.33 45.5589 2480.24 45.0022ZM2486.31 20.9351L2480.24 21.011V1.80294C2480.49 1.70171 2480.87 1.60048 2481.38 1.49925C2481.94 1.34741 2482.49 1.27148 2483.05 1.27148C2484.16 1.27148 2484.97 1.49925 2485.48 1.95478C2486.04 2.35969 2486.31 3.04298 2486.31 4.00465V20.9351Z" fill="#FF50C7"/>
<path d="M2419.16 37.3343L2418.85 32.5512L2441.78 29.4385C2441.58 26.6547 2440.62 24.3771 2438.9 22.6056C2437.17 20.7834 2434.8 19.8724 2431.76 19.8724C2428.62 19.8724 2426.01 21.0112 2423.94 23.2888C2421.91 25.5159 2420.9 28.7299 2420.9 32.9309V34.6011C2421.26 38.6503 2422.57 41.7377 2424.85 43.8635C2427.18 45.9387 2430.34 46.9763 2434.34 46.9763C2436.47 46.9763 2438.39 46.622 2440.11 45.9134C2441.83 45.2048 2443.2 44.4456 2444.21 43.6358C2444.77 43.9901 2445.2 44.4203 2445.5 44.9264C2445.86 45.382 2446.03 45.9134 2446.03 46.5208C2446.03 47.4824 2445.48 48.3935 2444.36 49.2539C2443.3 50.0638 2441.86 50.7218 2440.03 51.2279C2438.26 51.734 2436.26 51.9871 2434.04 51.9871C2430.14 51.9871 2426.75 51.2785 2423.86 49.8613C2421.03 48.4441 2418.83 46.3436 2417.26 43.5598C2415.74 40.7254 2414.98 37.2837 2414.98 33.2345C2414.98 30.3495 2415.39 27.7935 2416.2 25.5665C2417.06 23.2888 2418.22 21.3655 2419.69 19.7965C2421.21 18.2274 2423 17.038 2425.08 16.2282C2427.15 15.3677 2429.41 14.9375 2431.84 14.9375C2434.92 14.9375 2437.63 15.5955 2439.96 16.9115C2442.34 18.2274 2444.18 20.0748 2445.5 22.4537C2446.87 24.782 2447.55 27.4645 2447.55 30.5014C2447.55 31.6149 2447.3 32.4247 2446.79 32.9309C2446.29 33.3864 2445.58 33.6648 2444.67 33.766L2419.16 37.3343Z" fill="#FF50C7"/>
<path d="M2384.48 24.8822C2383.57 28.0709 2382.58 31.2596 2381.52 34.4483C2380.51 37.637 2379.52 40.6233 2378.56 43.4071C2377.6 46.1908 2376.71 48.595 2375.9 50.6196C2375.5 50.8726 2375.04 51.0751 2374.54 51.2269C2374.03 51.3788 2373.35 51.4547 2372.49 51.4547C2371.68 51.4547 2370.92 51.3029 2370.21 50.9992C2369.55 50.7461 2369.1 50.3159 2368.84 49.7085C2368.34 48.6962 2367.75 47.2284 2367.1 45.3051C2366.49 43.3817 2365.83 41.18 2365.12 38.6999C2364.46 36.2198 2363.78 33.6638 2363.07 31.0319C2362.36 28.3493 2361.71 25.768 2361.1 23.2879C2360.54 20.8078 2360.06 18.6061 2359.66 16.6827C2360.01 16.3284 2360.44 15.9994 2360.95 15.6958C2361.5 15.3921 2362.16 15.2402 2362.92 15.2402C2363.88 15.2402 2364.59 15.5186 2365.05 16.0754C2365.55 16.5815 2365.91 17.4166 2366.11 18.5808C2366.57 20.7066 2367.07 23.1107 2367.63 25.7933C2368.24 28.4759 2368.84 31.1331 2369.45 33.765C2370.11 36.397 2370.69 38.7759 2371.2 40.9016C2371.75 42.9768 2372.16 44.5206 2372.41 45.5328H2372.71C2373.12 44.3181 2373.75 42.3442 2374.61 39.611C2375.47 36.8272 2376.49 33.6638 2377.65 30.1208C2378.86 26.5778 2380.08 22.9842 2381.29 19.34C2381.7 19.0869 2382.18 18.9098 2382.74 18.8085C2383.29 18.6567 2383.9 18.5808 2384.56 18.5808C2385.47 18.5808 2386.23 18.7579 2386.84 19.1122C2387.44 19.4159 2387.85 19.8967 2388.05 20.5547C2389.27 24.0471 2390.4 27.4889 2391.47 30.88C2392.53 34.2206 2393.47 37.2068 2394.28 39.8387C2395.09 42.4201 2395.67 44.3434 2396.02 45.6088H2396.4C2397.57 41.1041 2398.83 36.2704 2400.2 31.1078C2401.56 25.9451 2402.68 20.8837 2403.54 15.9235C2404.25 15.468 2405.11 15.2402 2406.12 15.2402C2406.98 15.2402 2407.66 15.4427 2408.17 15.8476C2408.68 16.2525 2408.93 16.8852 2408.93 17.7456C2408.93 18.3024 2408.75 19.3653 2408.4 20.9343C2408.09 22.5034 2407.66 24.3508 2407.11 26.4766C2406.55 28.6024 2405.92 30.88 2405.21 33.3095C2404.55 35.6884 2403.87 38.0166 2403.16 40.2943C2402.45 42.5213 2401.77 44.5459 2401.11 46.368C2400.5 48.1901 2399.97 49.6073 2399.51 50.6196C2399.26 50.822 2398.83 50.9992 2398.22 51.151C2397.67 51.3535 2397.01 51.4547 2396.25 51.4547C2394.18 51.4547 2392.96 50.9739 2392.61 50.0122C2391.9 48.1901 2391.09 45.9378 2390.18 43.2552C2389.27 40.522 2388.33 37.5864 2387.37 34.4483C2386.41 31.2596 2385.44 28.0709 2384.48 24.8822Z" fill="#FF50C7"/>
<path d="M2334.59 30.9561H2340.66V41.4332C2340.66 43.4578 2341.24 44.9003 2342.41 45.7607C2343.57 46.5706 2345.16 46.9755 2347.19 46.9755C2348.05 46.9755 2349.01 46.8236 2350.07 46.52C2351.14 46.2163 2352.02 45.862 2352.73 45.4571C2353.03 45.7607 2353.31 46.1404 2353.57 46.5959C2353.82 47.0514 2353.95 47.5829 2353.95 48.1902C2353.95 49.3037 2353.29 50.2148 2351.97 50.9234C2350.66 51.632 2348.83 51.9863 2346.51 51.9863C2342.96 51.9863 2340.08 51.2018 2337.85 49.6327C2335.67 48.0637 2334.59 45.4571 2334.59 41.8128V30.9561ZM2337.7 21.6937V16.6829H2353.11C2353.26 16.8853 2353.41 17.2143 2353.57 17.6698C2353.72 18.1254 2353.79 18.6062 2353.79 19.1124C2353.79 19.9222 2353.59 20.5549 2353.19 21.0104C2352.78 21.4659 2352.22 21.6937 2351.52 21.6937H2337.7ZM2340.66 33.2337H2334.59V5.7502C2334.84 5.64897 2335.22 5.54774 2335.72 5.44651C2336.28 5.29467 2336.86 5.21875 2337.47 5.21875C2338.53 5.21875 2339.32 5.44651 2339.82 5.90204C2340.38 6.30696 2340.66 6.99025 2340.66 7.95192V33.2337Z" fill="#FF50C7"/>
<path d="M2297.34 37.3343L2297.04 32.5512L2319.97 29.4385C2319.77 26.6547 2318.8 24.3771 2317.08 22.6056C2315.36 20.7834 2312.98 19.8724 2309.95 19.8724C2306.81 19.8724 2304.2 21.0112 2302.13 23.2888C2300.1 25.5159 2299.09 28.7299 2299.09 32.9309V34.6011C2299.44 38.6503 2300.76 41.7377 2303.04 43.8635C2305.37 45.9387 2308.53 46.9763 2312.53 46.9763C2314.65 46.9763 2316.58 46.622 2318.3 45.9134C2320.02 45.2048 2321.39 44.4456 2322.4 43.6358C2322.95 43.9901 2323.38 44.4203 2323.69 44.9264C2324.04 45.382 2324.22 45.9134 2324.22 46.5208C2324.22 47.4824 2323.66 48.3935 2322.55 49.2539C2321.49 50.0638 2320.04 50.7218 2318.22 51.2279C2316.45 51.734 2314.45 51.9871 2312.22 51.9871C2308.33 51.9871 2304.94 51.2785 2302.05 49.8613C2299.22 48.4441 2297.01 46.3436 2295.45 43.5598C2293.93 40.7254 2293.17 37.2837 2293.17 33.2345C2293.17 30.3495 2293.57 27.7935 2294.38 25.5665C2295.24 23.2888 2296.41 21.3655 2297.88 19.7965C2299.39 18.2274 2301.19 17.038 2303.27 16.2282C2305.34 15.3677 2307.59 14.9375 2310.02 14.9375C2313.11 14.9375 2315.82 15.5955 2318.15 16.9115C2320.52 18.2274 2322.37 20.0748 2323.69 22.4537C2325.05 24.782 2325.74 27.4645 2325.74 30.5014C2325.74 31.6149 2325.49 32.4247 2324.98 32.9309C2324.47 33.3864 2323.76 33.6648 2322.85 33.766L2297.34 37.3343Z" fill="#FF50C7"/>
<path d="M2268.65 51.9871C2266.48 51.9871 2264.43 51.6581 2262.5 51.0001C2260.63 50.3928 2259.26 49.7095 2258.4 48.9503V43.3321C2259.41 44.2938 2260.68 45.1542 2262.2 45.9134C2263.77 46.622 2265.64 46.9763 2267.82 46.9763C2271.36 46.9763 2274.19 45.9134 2276.32 43.7876C2278.5 41.6112 2279.58 38.1441 2279.58 33.3864C2279.58 30.0458 2279.03 27.4139 2277.91 25.4906C2276.85 23.5166 2275.41 22.0994 2273.59 21.239C2271.82 20.3785 2269.89 19.9483 2267.82 19.9483C2265.99 19.9483 2264.45 20.1761 2263.19 20.6316C2261.92 21.0871 2260.78 21.5933 2259.77 22.15V47.3559H2253.7V22.3019C2253.7 21.2896 2253.87 20.4798 2254.23 19.8724C2254.58 19.265 2255.31 18.6323 2256.43 17.9743C2257.8 17.2151 2259.41 16.5318 2261.29 15.9245C2263.21 15.2665 2265.39 14.9375 2267.82 14.9375C2271.16 14.9375 2274.17 15.5955 2276.85 16.9115C2279.58 18.1768 2281.74 20.1761 2283.3 22.9092C2284.92 25.5918 2285.73 29.0842 2285.73 33.3864C2285.73 37.5368 2285 41.0038 2283.53 43.7876C2282.12 46.5208 2280.12 48.5707 2277.53 49.9372C2274.95 51.3038 2271.99 51.9871 2268.65 51.9871ZM2259.77 45.306V64.666C2259.52 64.7672 2259.14 64.8684 2258.63 64.9697C2258.12 65.1215 2257.57 65.1974 2256.96 65.1974C2255.9 65.1974 2255.09 64.9697 2254.53 64.5141C2253.97 64.0586 2253.7 63.35 2253.7 62.3883V45.1542L2259.77 45.306Z" fill="#FF50C7"/>
<path d="M2230.7 27.3058L2230.32 27.7631C2230.26 27.8342 2230.16 27.8468 2230.08 27.792C2229.79 27.5756 2229.51 27.3349 2229.25 27.0725L2228.97 26.7817L2228.09 25.9801L2227.29 25.3738L2227.06 25.2289C2226.64 24.9713 2226.19 24.7741 2225.72 24.6432L2225.62 24.6147C2225.42 24.5596 2225.22 24.5203 2225.02 24.4977C2224.77 24.4705 2224.52 24.4673 2224.27 24.4889C2223.98 24.5141 2223.7 24.5727 2223.42 24.6633L2223.28 24.7103C2222.91 24.833 2222.55 24.9986 2222.22 25.2037L2221.95 25.3679L2221.81 25.475C2221.32 25.8594 2220.87 26.3028 2220.48 26.7953C2220.18 27.1717 2219.92 27.5748 2219.69 27.9997L2219.51 28.353L2219.49 28.3845C2219.21 29.0636 2218.99 29.7723 2218.86 30.4981L2218.83 30.643L2218.69 32.1423L2218.72 32.8134C2218.74 33.3529 2218.81 33.8898 2218.92 34.4188L2219.11 35.3505L2219.47 36.4232C2219.65 36.9766 2219.89 37.5128 2220.16 38.0259L2220.55 38.7391L2221.02 39.4992C2221.28 39.9327 2221.58 40.3454 2221.91 40.7338L2222.32 41.2203L2223.36 42.2785L2225.25 43.8419L2227.63 45.4784L2228.96 46.2278C2230.05 46.8466 2231.41 46.7554 2232.41 45.9959L2236.21 43.1147L2237.34 42.137L2238.22 41.3169L2239.14 40.2226L2240.1 38.8542L2240.8 37.5762L2241.18 36.596L2241.34 36.176C2241.53 35.6653 2241.67 35.1402 2241.78 34.6059L2241.9 33.9647L2241.99 32.8513C2242.04 32.2781 2242.04 31.7019 2241.99 31.1289L2241.94 30.5075C2241.9 30.1547 2241.85 29.8046 2241.76 29.4603C2241.64 28.9242 2241.44 28.4049 2241.2 27.9128L2240.92 27.3588L2240.3 26.4666L2239.87 26.0027C2239.66 25.7701 2239.42 25.5561 2239.17 25.3629C2238.8 25.0718 2238.39 24.8301 2237.95 24.6436L2237.55 24.4759C2237.14 24.3343 2236.71 24.2537 2236.27 24.2407C2235.94 24.2309 2235.61 24.2586 2235.29 24.3234L2235.2 24.3407C2234.79 24.4238 2234.39 24.5579 2234.01 24.7402L2233.54 24.9622L2232.58 25.5869L2231.63 26.3457L2230.7 27.3058Z" fill="#FF50C7"/>
<path d="M1386.7 27.3058L1386.32 27.7631C1386.26 27.8342 1386.16 27.8468 1386.08 27.792C1385.79 27.5756 1385.51 27.3349 1385.25 27.0725L1384.97 26.7817L1384.09 25.9801L1383.29 25.3738L1383.06 25.2289C1382.64 24.9713 1382.19 24.7741 1381.72 24.6432L1381.62 24.6147C1381.42 24.5596 1381.22 24.5203 1381.02 24.4977C1380.77 24.4705 1380.52 24.4673 1380.27 24.4889C1379.98 24.5141 1379.7 24.5727 1379.42 24.6633L1379.28 24.7103C1378.91 24.833 1378.55 24.9986 1378.22 25.2037L1377.95 25.3679L1377.81 25.475C1377.32 25.8594 1376.87 26.3028 1376.48 26.7953C1376.18 27.1717 1375.92 27.5748 1375.69 27.9997L1375.51 28.353L1375.49 28.3845C1375.21 29.0636 1374.99 29.7723 1374.86 30.4981L1374.83 30.643L1374.69 32.1423L1374.72 32.8134C1374.74 33.3529 1374.81 33.8898 1374.92 34.4188L1375.11 35.3505L1375.47 36.4232C1375.65 36.9766 1375.89 37.5128 1376.16 38.0259L1376.55 38.7391L1377.02 39.4992C1377.28 39.9327 1377.58 40.3454 1377.91 40.7338L1378.32 41.2203L1379.36 42.2785L1381.25 43.8419L1383.63 45.4784L1384.96 46.2278C1386.05 46.8466 1387.41 46.7554 1388.41 45.9959L1392.21 43.1147L1393.34 42.137L1394.22 41.3169L1395.14 40.2226L1396.1 38.8542L1396.8 37.5762L1397.18 36.596L1397.34 36.176C1397.53 35.6653 1397.67 35.1402 1397.78 34.6059L1397.9 33.9647L1397.99 32.8513C1398.04 32.2781 1398.04 31.7019 1397.99 31.1289L1397.94 30.5075C1397.9 30.1547 1397.85 29.8046 1397.76 29.4603C1397.64 28.9242 1397.44 28.4049 1397.2 27.9128L1396.92 27.3588L1396.3 26.4666L1395.87 26.0027C1395.66 25.7701 1395.42 25.5561 1395.17 25.3629C1394.8 25.0718 1394.39 24.8301 1393.95 24.6436L1393.55 24.4759C1393.14 24.3343 1392.71 24.2537 1392.27 24.2407C1391.94 24.2309 1391.61 24.2586 1391.29 24.3234L1391.2 24.3407C1390.79 24.4238 1390.39 24.5579 1390.01 24.7402L1389.54 24.9622L1388.58 25.5869L1387.63 26.3457L1386.7 27.3058Z" fill="#FF50C7"/>
</svg>
