<svg width="1280" height="193" viewBox="0 0 1280 193" fill="none" xmlns="http://www.w3.org/2000/svg">
<g clip-path="url(#clip0_903_3)">
<rect width="1280" height="3817" transform="translate(0 -3624)" fill="white"/>
<rect x="-6" y="-100" width="1292" height="377" fill="white"/>
<path d="M-7.86487 58.898C-8.52241 59.5743 -9.05573 60.3611 -9.44042 61.2223L-10.1976 62.9176L-10.4538 63.6472C-10.9664 65.1071 -11.0465 66.6838 -10.6847 68.1881L-9.36975 73.6554L-7.89167 80.5663L-7.20411 87.1079C-7.1624 87.5047 -7.0912 87.8979 -6.9911 88.2841L-5.95648 92.2758C-5.73637 93.125 -5.37868 93.9325 -4.8976 94.6661L-3.26822 97.1508C-2.81243 97.8459 -2.25155 98.466 -1.6056 98.9891L-0.454627 99.9211C0.419105 100.629 1.43159 101.145 2.51737 101.437L3.45223 101.688C4.40467 101.944 5.39609 102.022 6.3769 101.919L7.73552 101.776C9.18389 101.624 10.5637 101.081 11.7273 100.205L12.7159 99.4612C13.6466 98.7608 14.4139 97.8664 14.9647 96.8399L16.2659 94.4148L17.7065 90.9558L18.9122 88.1228L20.1118 85.6368C20.3811 85.0788 20.714 84.5537 21.104 84.0722L21.9809 82.9893L22.7572 82.0307C23.3007 81.3595 23.9488 80.7803 24.6767 80.3154L25.832 79.5776L28.446 78.1512C28.9766 77.8617 29.4729 77.5131 29.9254 77.1123L30.6723 76.4507C31.0036 76.1572 31.31 75.8368 31.5886 75.4929L33.3117 73.3649C33.5691 73.047 33.8019 72.7099 34.008 72.3566L34.521 71.4771C34.9048 70.819 35.1932 70.1096 35.3773 69.3703L35.6509 68.2716C35.8462 67.4873 35.922 66.6781 35.8759 65.8711L35.8581 65.561C35.7973 64.4977 35.5257 63.457 35.059 62.4996L34.6312 61.6217C34.3662 61.0781 34.0408 60.5661 33.661 60.0955L32.8657 59.1101C32.5103 58.6697 32.1093 58.2681 31.6695 57.912L30.692 57.1204C30.2522 56.7642 29.776 56.4555 29.2713 56.1994L28.4759 55.7958C27.7172 55.4108 26.9021 55.1487 26.0612 55.0194L25.2797 54.8992C24.7129 54.812 24.1385 54.7858 23.5662 54.8209L20.9914 54.9788L18.0173 55.2914L15.6381 55.5415L12.664 55.8541L10.4051 55.972C10.0176 55.9922 9.62913 55.9843 9.24276 55.9484L6.78652 55.7201L4.34478 55.3754L1.76996 55.195L0.0344069 55.2748C-0.502909 55.2995 -1.03639 55.3781 -1.558 55.5094L-2.24039 55.6812C-2.62903 55.779 -3.00981 55.9058 -3.37954 56.0605L-4.67766 56.6035C-5.35893 56.8884 -5.99765 57.266 -6.57581 57.7254L-7.23075 58.2458L-7.86487 58.898Z" fill="#001AFF"/>
<ellipse cx="-9.48024" cy="39.3762" rx="8.82428" ry="12.1438" transform="rotate(-37 -9.48024 39.3762)" fill="#001AFF"/>
<ellipse cx="18.569" cy="38.8437" rx="7.95744" ry="10.4946" transform="rotate(-25 18.569 38.8437)" fill="#001AFF"/>
<path d="M51.1788 144.254C50.8224 145.127 50.6227 146.056 50.5886 146.999L50.5216 148.854L50.5574 149.627C50.6291 151.172 51.1454 152.664 52.0444 153.924L55.3117 158.5L59.271 164.354L62.359 170.162C62.5463 170.514 62.7596 170.852 62.9971 171.173L65.4517 174.486C65.9739 175.191 66.6081 175.806 67.3289 176.306L69.7705 177.999C70.4534 178.473 71.2058 178.838 72.0006 179.081L73.4169 179.514C74.4921 179.842 75.6243 179.942 76.7403 179.806L77.7011 179.688C78.6801 179.569 79.6287 179.27 80.4994 178.807L81.7056 178.166C82.9915 177.482 84.0674 176.462 84.8182 175.214L85.4562 174.154C86.0567 173.155 86.4331 172.039 86.5592 170.881L86.8572 168.145L86.8972 164.398L86.9538 161.32L87.1348 158.565C87.1754 157.947 87.2875 157.335 87.4686 156.743L87.876 155.41L88.2367 154.231C88.4892 153.405 88.8732 152.625 89.3739 151.921L90.1686 150.804L92.058 148.503C92.4415 148.035 92.7711 147.526 93.0405 146.985L93.4851 146.092C93.6823 145.696 93.8465 145.284 93.9759 144.861L94.7764 142.242C94.896 141.851 94.9856 141.451 95.0443 141.046L95.1905 140.039C95.2998 139.285 95.3014 138.519 95.1952 137.765L95.0373 136.643C94.9245 135.843 94.6917 135.064 94.3466 134.333L94.214 134.053C93.7593 133.089 93.1176 132.226 92.3263 131.513L91.6007 130.86C91.1514 130.455 90.6579 130.102 90.1295 129.808L89.023 129.192C88.5284 128.917 88.0062 128.695 87.465 128.53L86.2622 128.162C85.721 127.996 85.1638 127.888 84.6 127.84L83.7112 127.764C82.8635 127.691 82.0097 127.753 81.1816 127.948L80.4118 128.13C79.8537 128.261 79.3113 128.452 78.7938 128.699L76.4656 129.81L73.8253 131.214L71.7129 132.337L69.0726 133.741L67.0223 134.697C66.6706 134.861 66.3074 134.999 65.9357 135.11L63.5728 135.819L61.1797 136.414L58.7248 137.211L57.1456 137.935C56.6566 138.159 56.1914 138.432 55.757 138.749L55.1886 139.164C54.865 139.4 54.5594 139.661 54.2745 139.942L53.2743 140.932C52.7494 141.452 52.2986 142.041 51.9347 142.683L51.5224 143.411L51.1788 144.254Z" fill="#001AFF"/>
<ellipse cx="36.3111" cy="155.002" rx="8.82428" ry="12.1438" transform="rotate(-94 36.3111 155.002)" fill="#001AFF"/>
<ellipse cx="42.3682" cy="126.759" rx="8.82428" ry="12.1438" transform="rotate(-59 42.3682 126.759)" fill="#001AFF"/>
<ellipse cx="68.1765" cy="115.758" rx="7.95744" ry="10.4946" transform="rotate(-47 68.1765 115.758)" fill="#001AFF"/>
<ellipse cx="47.8223" cy="178.663" rx="7.95744" ry="10.4946" transform="rotate(-103 47.8223 178.663)" fill="#001AFF"/>
<path d="M151.125 183.917C151.491 184.787 152.007 185.585 152.649 186.276L153.914 187.635L154.485 188.156C155.629 189.199 157.049 189.888 158.575 190.143L164.121 191.069L171.06 192.409L177.351 194.332C177.732 194.448 178.122 194.536 178.517 194.595L182.595 195.203C183.463 195.332 184.346 195.318 185.209 195.162L188.133 194.633C188.951 194.485 189.741 194.211 190.475 193.821L191.783 193.125C192.775 192.598 193.646 191.867 194.339 190.982L194.935 190.219C195.543 189.443 196.003 188.561 196.291 187.617L196.69 186.311C197.116 184.918 197.155 183.436 196.804 182.023L196.505 180.822C196.224 179.692 195.701 178.636 194.971 177.728L193.247 175.583L190.626 172.905L188.489 170.688L186.67 168.613C186.261 168.147 185.908 167.635 185.617 167.088L184.963 165.858L184.384 164.768C183.978 164.006 183.699 163.183 183.555 162.331L183.327 160.98L183.036 158.016C182.976 157.414 182.85 156.821 182.657 156.248L182.34 155.302C182.199 154.883 182.024 154.475 181.817 154.085L180.531 151.667C180.339 151.306 180.12 150.96 179.875 150.632L179.266 149.816C178.81 149.206 178.27 148.663 177.661 148.205L176.757 147.524C176.111 147.037 175.396 146.651 174.635 146.379L174.342 146.274C173.34 145.914 172.276 145.758 171.212 145.813L170.237 145.864C169.633 145.895 169.035 145.995 168.453 146.161L167.235 146.508C166.691 146.663 166.165 146.875 165.665 147.141L164.554 147.731C164.055 147.997 163.584 148.315 163.151 148.679L162.469 149.254C161.818 149.801 161.259 150.449 160.811 151.173L160.395 151.845C160.093 152.333 159.845 152.851 159.653 153.392L158.793 155.824L157.918 158.684L157.219 160.971L156.345 163.831L155.57 165.957C155.438 166.321 155.279 166.676 155.095 167.017L153.925 169.189L152.653 171.302L151.481 173.602L150.876 175.23C150.689 175.735 150.553 176.257 150.47 176.788L150.362 177.483C150.3 177.879 150.268 178.279 150.266 178.68L150.258 180.087C150.255 180.826 150.352 181.561 150.549 182.273L150.773 183.079L151.125 183.917Z" fill="#001AFF"/>
<ellipse cx="148.21" cy="202.034" rx="8.82428" ry="12.1438" transform="rotate(-139 148.21 202.034)" fill="#001AFF"/>
<ellipse cx="132.523" cy="177.777" rx="8.82428" ry="12.1438" transform="rotate(-104 132.523 177.777)" fill="#001AFF"/>
<ellipse cx="142.992" cy="151.75" rx="7.95744" ry="10.4946" transform="rotate(-92 142.992 151.75)" fill="#001AFF"/>
<path d="M252.76 162.92C253.425 163.589 254.203 164.136 255.057 164.536L256.739 165.322L257.464 165.591C258.914 166.129 260.49 166.237 262 165.901L267.489 164.682L274.425 163.325L280.978 162.751C281.375 162.717 281.769 162.652 282.157 162.559L286.167 161.594C287.019 161.389 287.833 161.045 288.575 160.577L291.088 158.991C291.791 158.548 292.42 157.998 292.955 157.361L293.907 156.227C294.629 155.365 295.163 154.362 295.474 153.281L295.741 152.351C296.014 151.403 296.109 150.413 296.023 149.431L295.904 148.07C295.777 146.619 295.259 145.23 294.403 144.051L293.677 143.05C292.993 142.107 292.112 141.324 291.095 140.756L288.693 139.412L285.26 137.912L282.448 136.657L279.984 135.414C279.43 135.135 278.911 134.793 278.436 134.395L277.369 133.499L276.424 132.706C275.762 132.151 275.195 131.493 274.743 130.757L274.025 129.589L272.644 126.95C272.364 126.415 272.024 125.912 271.632 125.453L270.983 124.695C270.695 124.358 270.38 124.046 270.041 123.762L267.944 122.002C267.63 121.739 267.298 121.5 266.948 121.288L266.077 120.76C265.426 120.365 264.722 120.064 263.986 119.867L262.892 119.574C262.111 119.365 261.304 119.275 260.496 119.307L260.186 119.32C259.121 119.362 258.076 119.615 257.111 120.065L256.225 120.478C255.677 120.733 255.16 121.049 254.683 121.421L253.683 122.199C253.237 122.547 252.828 122.941 252.465 123.374L251.656 124.338C251.292 124.771 250.975 125.242 250.71 125.742L250.293 126.53C249.895 127.282 249.619 128.093 249.475 128.931L249.341 129.71C249.244 130.276 249.207 130.849 249.233 131.422L249.346 133.999L249.606 136.978L249.815 139.362L250.075 142.341L250.154 144.601C250.167 144.989 250.153 145.377 250.11 145.763L249.839 148.215L249.451 150.65L249.226 153.222L249.276 154.958C249.291 155.496 249.36 156.031 249.482 156.555L249.642 157.24C249.733 157.63 249.853 158.013 250.002 158.386L250.522 159.693C250.795 160.379 251.161 161.024 251.611 161.61L252.119 162.274L252.76 162.92Z" fill="#001AFF"/>
<ellipse cx="256.848" cy="180.809" rx="8.82428" ry="12.1438" transform="rotate(-161 256.848 180.809)" fill="#001AFF"/>
<ellipse cx="233.216" cy="164.194" rx="8.82428" ry="12.1438" transform="rotate(-126 233.216 164.194)" fill="#001AFF"/>
<ellipse cx="233.171" cy="136.14" rx="7.95744" ry="10.4946" transform="rotate(-114 233.171 136.14)" fill="#001AFF"/>
<ellipse cx="283.126" cy="179.455" rx="7.95744" ry="10.4946" transform="rotate(-170 283.126 179.455)" fill="#001AFF"/>
<path d="M1265.74 68.898C1266.4 69.5743 1266.93 70.3611 1267.32 71.2223L1268.07 72.9176L1268.33 73.6472C1268.84 75.1071 1268.92 76.6838 1268.56 78.1881L1267.24 83.6554L1265.77 90.5663L1265.08 97.1079C1265.04 97.5047 1264.97 97.8979 1264.87 98.2841L1263.83 102.276C1263.61 103.125 1263.25 103.932 1262.77 104.666L1261.14 107.151C1260.69 107.846 1260.13 108.466 1259.48 108.989L1258.33 109.921C1257.46 110.629 1256.44 111.145 1255.36 111.437L1254.42 111.688C1253.47 111.944 1252.48 112.022 1251.5 111.919L1250.14 111.776C1248.69 111.624 1247.31 111.081 1246.15 110.205L1245.16 109.461C1244.23 108.761 1243.46 107.866 1242.91 106.84L1241.61 104.415L1240.17 100.956L1238.96 98.1228L1237.76 95.6368C1237.49 95.0788 1237.16 94.5537 1236.77 94.0722L1235.89 92.9893L1235.12 92.0307C1234.57 91.3595 1233.93 90.7803 1233.2 90.3154L1232.04 89.5776L1229.43 88.1512C1228.9 87.8617 1228.4 87.5131 1227.95 87.1123L1227.2 86.4507C1226.87 86.1572 1226.56 85.8368 1226.29 85.4929L1224.56 83.3649C1224.31 83.047 1224.07 82.7099 1223.87 82.3566L1223.35 81.4771C1222.97 80.819 1222.68 80.1096 1222.5 79.3703L1222.22 78.2716C1222.03 77.4873 1221.95 76.6781 1222 75.8711L1222.02 75.561C1222.08 74.4977 1222.35 73.457 1222.82 72.4996L1223.24 71.6217C1223.51 71.0781 1223.83 70.5661 1224.21 70.0955L1225.01 69.1101C1225.36 68.6697 1225.77 68.2681 1226.21 67.912L1227.18 67.1204C1227.62 66.7642 1228.1 66.4555 1228.6 66.1994L1229.4 65.7958C1230.16 65.4108 1230.97 65.1487 1231.81 65.0194L1232.6 64.8992C1233.16 64.812 1233.74 64.7858 1234.31 64.8209L1236.88 64.9788L1239.86 65.2914L1242.24 65.5415L1245.21 65.8541L1247.47 65.972C1247.86 65.9922 1248.25 65.9843 1248.63 65.9484L1251.09 65.7201L1253.53 65.3754L1256.11 65.195L1257.84 65.2748C1258.38 65.2995 1258.91 65.3781 1259.43 65.5094L1260.12 65.6812C1260.5 65.779 1260.88 65.9058 1261.25 66.0605L1262.55 66.6035C1263.23 66.8884 1263.87 67.266 1264.45 67.7254L1265.11 68.2458L1265.74 68.898Z" fill="#001AFF"/>
<ellipse cx="8.82428" cy="12.1438" rx="8.82428" ry="12.1438" transform="matrix(-0.309017 -0.951056 -0.951056 0.309017 1297.83 77.9336)" fill="#001AFF"/>
<ellipse cx="8.82428" cy="12.1438" rx="8.82428" ry="12.1438" transform="matrix(-0.798635 -0.601815 -0.601815 0.798635 1281.71 44.9883)" fill="#001AFF"/>
<ellipse cx="7.95744" cy="10.4946" rx="7.95744" ry="10.4946" transform="matrix(-0.906308 -0.422618 -0.422618 0.906308 1250.95 42.6953)" fill="#001AFF"/>
<ellipse cx="7.95744" cy="10.4946" rx="7.95744" ry="10.4946" transform="matrix(-0.156434 -0.987688 -0.987688 0.156434 1293.35 105.762)" fill="#001AFF"/>
<path d="M1206.7 154.254C1207.05 155.127 1207.25 156.056 1207.29 156.999L1207.35 158.854L1207.32 159.627C1207.25 161.172 1206.73 162.664 1205.83 163.924L1202.56 168.5L1198.6 174.354L1195.52 180.162C1195.33 180.514 1195.12 180.852 1194.88 181.173L1192.42 184.486C1191.9 185.191 1191.27 185.806 1190.55 186.306L1188.1 187.999C1187.42 188.473 1186.67 188.838 1185.87 189.081L1184.46 189.514C1183.38 189.842 1182.25 189.942 1181.13 189.806L1180.17 189.688C1179.19 189.569 1178.25 189.27 1177.38 188.807L1176.17 188.166C1174.88 187.482 1173.81 186.462 1173.06 185.214L1172.42 184.154C1171.82 183.155 1171.44 182.039 1171.32 180.881L1171.02 178.145L1170.98 174.398L1170.92 171.32L1170.74 168.565C1170.7 167.947 1170.59 167.335 1170.41 166.743L1170 165.41L1169.64 164.231C1169.39 163.405 1169 162.625 1168.5 161.921L1167.71 160.804L1165.82 158.503C1165.43 158.035 1165.1 157.526 1164.83 156.985L1164.39 156.092C1164.19 155.696 1164.03 155.284 1163.9 154.861L1163.1 152.242C1162.98 151.851 1162.89 151.451 1162.83 151.046L1162.68 150.039C1162.58 149.285 1162.57 148.519 1162.68 147.765L1162.84 146.643C1162.95 145.843 1163.18 145.064 1163.53 144.333L1163.66 144.053C1164.12 143.089 1164.76 142.226 1165.55 141.513L1166.27 140.86C1166.72 140.455 1167.22 140.102 1167.75 139.808L1168.85 139.192C1169.35 138.917 1169.87 138.695 1170.41 138.53L1171.61 138.162C1172.15 137.996 1172.71 137.888 1173.28 137.84L1174.16 137.764C1175.01 137.691 1175.87 137.753 1176.69 137.948L1177.46 138.13C1178.02 138.261 1178.56 138.452 1179.08 138.699L1181.41 139.81L1184.05 141.214L1186.16 142.337L1188.8 143.741L1190.85 144.697C1191.2 144.861 1191.57 144.999 1191.94 145.11L1194.3 145.819L1196.7 146.414L1199.15 147.211L1200.73 147.935C1201.22 148.159 1201.68 148.432 1202.12 148.749L1202.69 149.164C1203.01 149.4 1203.32 149.661 1203.6 149.942L1204.6 150.932C1205.13 151.452 1205.58 152.041 1205.94 152.683L1206.35 153.411L1206.7 154.254Z" fill="#001AFF"/>
<ellipse cx="8.82428" cy="12.1438" rx="8.82428" ry="12.1438" transform="matrix(0.0697565 -0.997564 -0.997564 -0.0697565 1233.06 174.652)" fill="#001AFF"/>
<ellipse cx="8.82428" cy="12.1438" rx="8.82428" ry="12.1438" transform="matrix(-0.515038 -0.857167 -0.857167 0.515038 1230.46 138.068)" fill="#001AFF"/>
<ellipse cx="7.95744" cy="10.4946" rx="7.95744" ry="10.4946" transform="matrix(-0.681998 -0.731354 -0.731354 0.681998 1202.8 124.42)" fill="#001AFF"/>
<ellipse cx="7.95744" cy="10.4946" rx="7.95744" ry="10.4946" transform="matrix(0.224951 -0.97437 -0.97437 -0.224951 1218.49 198.777)" fill="#001AFF"/>
<path d="M1106.75 193.917C1106.38 194.787 1105.86 195.585 1105.22 196.276L1103.96 197.635L1103.39 198.156C1102.24 199.199 1100.82 199.888 1099.3 200.143L1093.75 201.069L1086.81 202.409L1080.52 204.332C1080.14 204.448 1079.75 204.536 1079.35 204.595L1075.28 205.203C1074.41 205.332 1073.53 205.318 1072.66 205.162L1069.74 204.633C1068.92 204.485 1068.13 204.211 1067.4 203.821L1066.09 203.125C1065.1 202.598 1064.22 201.867 1063.53 200.982L1062.94 200.219C1062.33 199.443 1061.87 198.561 1061.58 197.617L1061.18 196.311C1060.76 194.918 1060.72 193.436 1061.07 192.023L1061.37 190.822C1061.65 189.692 1062.17 188.636 1062.9 187.728L1064.62 185.583L1067.25 182.905L1069.38 180.688L1071.2 178.613C1071.61 178.147 1071.96 177.635 1072.25 177.088L1072.91 175.858L1073.49 174.768C1073.89 174.006 1074.17 173.183 1074.32 172.331L1074.54 170.98L1074.84 168.016C1074.89 167.414 1075.02 166.821 1075.21 166.248L1075.53 165.302C1075.67 164.883 1075.85 164.475 1076.05 164.085L1077.34 161.667C1077.53 161.306 1077.75 160.96 1078 160.632L1078.61 159.816C1079.06 159.206 1079.6 158.663 1080.21 158.205L1081.11 157.524C1081.76 157.037 1082.48 156.651 1083.24 156.379L1083.53 156.274C1084.53 155.914 1085.6 155.758 1086.66 155.813L1087.63 155.864C1088.24 155.895 1088.84 155.995 1089.42 156.161L1090.64 156.508C1091.18 156.663 1091.71 156.875 1092.21 157.141L1093.32 157.731C1093.82 157.997 1094.29 158.315 1094.72 158.679L1095.4 159.254C1096.05 159.801 1096.61 160.449 1097.06 161.173L1097.48 161.845C1097.78 162.333 1098.03 162.851 1098.22 163.392L1099.08 165.824L1099.95 168.684L1100.65 170.971L1101.53 173.831L1102.3 175.957C1102.43 176.321 1102.59 176.676 1102.78 177.017L1103.95 179.189L1105.22 181.302L1106.39 183.602L1106.99 185.23C1107.18 185.735 1107.32 186.257 1107.4 186.788L1107.51 187.483C1107.57 187.879 1107.6 188.279 1107.61 188.68L1107.61 190.087C1107.62 190.826 1107.52 191.561 1107.32 192.273L1107.1 193.079L1106.75 193.917Z" fill="#001AFF"/>
<ellipse cx="8.82428" cy="12.1438" rx="8.82428" ry="12.1438" transform="matrix(0.241922 -0.970296 -0.970296 -0.241922 1135 199.277)" fill="#001AFF"/>
<ellipse cx="7.95744" cy="10.4946" rx="7.95744" ry="10.4946" transform="matrix(0.0348995 -0.999391 -0.999391 -0.0348995 1125.09 170.068)" fill="#001AFF"/>
<path d="M1005.11 172.92C1004.45 173.589 1003.67 174.136 1002.81 174.536L1001.13 175.322L1000.41 175.591C998.957 176.129 997.381 176.237 995.871 175.901L990.382 174.682L983.446 173.325L976.893 172.751C976.496 172.717 976.102 172.652 975.714 172.559L971.705 171.594C970.852 171.389 970.038 171.045 969.296 170.577L966.783 168.991C966.08 168.548 965.451 167.998 964.916 167.361L963.964 166.227C963.242 165.365 962.708 164.362 962.397 163.281L962.13 162.351C961.857 161.403 961.762 160.413 961.848 159.431L961.967 158.07C962.094 156.619 962.612 155.23 963.468 154.051L964.194 153.05C964.878 152.107 965.759 151.324 966.776 150.756L969.178 149.412L972.611 147.912L975.423 146.657L977.888 145.414C978.441 145.135 978.96 144.793 979.435 144.395L980.502 143.499L981.447 142.706C982.109 142.151 982.676 141.493 983.128 140.757L983.846 139.589L985.227 136.95C985.507 136.415 985.847 135.912 986.24 135.453L986.888 134.695C987.176 134.358 987.491 134.046 987.83 133.762L989.927 132.002C990.241 131.739 990.574 131.5 990.923 131.288L991.794 130.76C992.445 130.365 993.149 130.064 993.885 129.867L994.979 129.574C995.76 129.365 996.568 129.275 997.375 129.307L997.686 129.32C998.75 129.362 999.795 129.615 1000.76 130.065L1001.65 130.478C1002.19 130.733 1002.71 131.049 1003.19 131.421L1004.19 132.199C1004.63 132.547 1005.04 132.941 1005.41 133.374L1006.22 134.338C1006.58 134.771 1006.9 135.242 1007.16 135.742L1007.58 136.53C1007.98 137.282 1008.25 138.093 1008.4 138.931L1008.53 139.71C1008.63 140.276 1008.66 140.849 1008.64 141.422L1008.53 143.999L1008.26 146.978L1008.06 149.362L1007.8 152.341L1007.72 154.601C1007.7 154.989 1007.72 155.377 1007.76 155.763L1008.03 158.215L1008.42 160.65L1008.64 163.222L1008.6 164.958C1008.58 165.496 1008.51 166.031 1008.39 166.555L1008.23 167.24C1008.14 167.63 1008.02 168.013 1007.87 168.386L1007.35 169.693C1007.08 170.379 1006.71 171.024 1006.26 171.61L1005.75 172.274L1005.11 172.92Z" fill="#001AFF"/>
<ellipse cx="8.82428" cy="12.1438" rx="8.82428" ry="12.1438" transform="matrix(0.945519 -0.325568 -0.325568 -0.945519 996.633 205.164)" fill="#001AFF"/>
<ellipse cx="8.82428" cy="12.1438" rx="8.82428" ry="12.1438" transform="matrix(0.587785 -0.809017 -0.809017 -0.587785 1029.29 188.471)" fill="#001AFF"/>
<ellipse cx="7.95744" cy="10.4946" rx="7.95744" ry="10.4946" transform="matrix(0.406737 -0.913545 -0.913545 -0.406737 1031.05 157.678)" fill="#001AFF"/>
<ellipse cx="7.95744" cy="10.4946" rx="7.95744" ry="10.4946" transform="matrix(0.984808 -0.173648 -0.173648 -0.984808 968.73 201.172)" fill="#001AFF"/>
<path d="M-7.86487 58.898C-8.52241 59.5743 -9.05573 60.3611 -9.44042 61.2223L-10.1976 62.9176L-10.4538 63.6472C-10.9664 65.1071 -11.0465 66.6838 -10.6847 68.1881L-9.36975 73.6554L-7.89167 80.5663L-7.20411 87.1079C-7.1624 87.5047 -7.0912 87.8979 -6.9911 88.2841L-5.95648 92.2758C-5.73637 93.125 -5.37868 93.9325 -4.8976 94.6661L-3.26822 97.1508C-2.81243 97.8459 -2.25155 98.466 -1.6056 98.9891L-0.454627 99.9211C0.419105 100.629 1.43159 101.145 2.51737 101.437L3.45223 101.688C4.40467 101.944 5.39609 102.022 6.3769 101.919L7.73552 101.776C9.18389 101.624 10.5637 101.081 11.7273 100.205L12.7159 99.4612C13.6466 98.7608 14.4139 97.8664 14.9647 96.8399L16.2659 94.4148L17.7065 90.9558L18.9122 88.1228L20.1118 85.6368C20.3811 85.0788 20.714 84.5537 21.104 84.0722L21.9809 82.9893L22.7572 82.0307C23.3007 81.3595 23.9488 80.7803 24.6767 80.3154L25.832 79.5776L28.446 78.1512C28.9766 77.8617 29.4729 77.5131 29.9254 77.1123L30.6723 76.4507C31.0036 76.1572 31.31 75.8368 31.5886 75.4929L33.3117 73.3649C33.5691 73.047 33.8019 72.7099 34.008 72.3566L34.521 71.4771C34.9048 70.819 35.1932 70.1096 35.3773 69.3703L35.6509 68.2716C35.8462 67.4873 35.922 66.6781 35.8759 65.8711L35.8581 65.561C35.7973 64.4977 35.5257 63.457 35.059 62.4996L34.6312 61.6217C34.3662 61.0781 34.0408 60.5661 33.661 60.0955L32.8657 59.1101C32.5103 58.6697 32.1093 58.2681 31.6695 57.912L30.692 57.1204C30.2522 56.7642 29.776 56.4555 29.2713 56.1994L28.4759 55.7958C27.7172 55.4108 26.9021 55.1487 26.0612 55.0194L25.2797 54.8992C24.7129 54.812 24.1385 54.7858 23.5662 54.8209L20.9914 54.9788L18.0173 55.2914L15.6381 55.5415L12.664 55.8541L10.4051 55.972C10.0176 55.9922 9.62913 55.9843 9.24276 55.9484L6.78652 55.7201L4.34478 55.3754L1.76996 55.195L0.0344069 55.2748C-0.502909 55.2995 -1.03639 55.3781 -1.558 55.5094L-2.24039 55.6812C-2.62903 55.779 -3.00981 55.9058 -3.37954 56.0605L-4.67766 56.6035C-5.35893 56.8884 -5.99765 57.266 -6.57581 57.7254L-7.23075 58.2458L-7.86487 58.898Z" fill="#001AFF"/>
<ellipse cx="-9.48024" cy="39.3762" rx="8.82428" ry="12.1438" transform="rotate(-37 -9.48024 39.3762)" fill="#001AFF"/>
<ellipse cx="18.569" cy="38.8437" rx="7.95744" ry="10.4946" transform="rotate(-25 18.569 38.8437)" fill="#001AFF"/>
<path d="M51.1788 144.254C50.8224 145.127 50.6227 146.056 50.5886 146.999L50.5216 148.854L50.5574 149.627C50.6291 151.172 51.1454 152.664 52.0444 153.924L55.3117 158.5L59.271 164.354L62.359 170.162C62.5463 170.514 62.7596 170.852 62.9971 171.173L65.4517 174.486C65.9739 175.191 66.6081 175.806 67.3289 176.306L69.7705 177.999C70.4534 178.473 71.2058 178.838 72.0006 179.081L73.4169 179.514C74.4921 179.842 75.6243 179.942 76.7403 179.806L77.7011 179.688C78.6801 179.569 79.6287 179.27 80.4994 178.807L81.7056 178.166C82.9915 177.482 84.0674 176.462 84.8182 175.214L85.4562 174.154C86.0567 173.155 86.4331 172.039 86.5592 170.881L86.8572 168.145L86.8972 164.398L86.9538 161.32L87.1348 158.565C87.1754 157.947 87.2875 157.335 87.4686 156.743L87.876 155.41L88.2367 154.231C88.4892 153.405 88.8732 152.625 89.3739 151.921L90.1686 150.804L92.058 148.503C92.4415 148.035 92.7711 147.526 93.0405 146.985L93.4851 146.092C93.6823 145.696 93.8465 145.284 93.9759 144.861L94.7764 142.242C94.896 141.851 94.9856 141.451 95.0443 141.046L95.1905 140.039C95.2998 139.285 95.3014 138.519 95.1952 137.765L95.0373 136.643C94.9245 135.843 94.6917 135.064 94.3466 134.333L94.214 134.053C93.7593 133.089 93.1176 132.226 92.3263 131.513L91.6007 130.86C91.1514 130.455 90.6579 130.102 90.1295 129.808L89.023 129.192C88.5284 128.917 88.0062 128.695 87.465 128.53L86.2622 128.162C85.721 127.996 85.1638 127.888 84.6 127.84L83.7112 127.764C82.8635 127.691 82.0097 127.753 81.1816 127.948L80.4118 128.13C79.8537 128.261 79.3113 128.452 78.7938 128.699L76.4656 129.81L73.8253 131.214L71.7129 132.337L69.0726 133.741L67.0223 134.697C66.6706 134.861 66.3074 134.999 65.9357 135.11L63.5728 135.819L61.1797 136.414L58.7248 137.211L57.1456 137.935C56.6566 138.159 56.1914 138.432 55.757 138.749L55.1886 139.164C54.865 139.4 54.5594 139.661 54.2745 139.942L53.2743 140.932C52.7494 141.452 52.2986 142.041 51.9347 142.683L51.5224 143.411L51.1788 144.254Z" fill="#001AFF"/>
<ellipse cx="36.3111" cy="155.002" rx="8.82428" ry="12.1438" transform="rotate(-94 36.3111 155.002)" fill="#001AFF"/>
<ellipse cx="42.3682" cy="126.759" rx="8.82428" ry="12.1438" transform="rotate(-59 42.3682 126.759)" fill="#001AFF"/>
<ellipse cx="68.1765" cy="115.758" rx="7.95744" ry="10.4946" transform="rotate(-47 68.1765 115.758)" fill="#001AFF"/>
<ellipse cx="47.8223" cy="178.663" rx="7.95744" ry="10.4946" transform="rotate(-103 47.8223 178.663)" fill="#001AFF"/>
<path d="M151.125 183.917C151.491 184.787 152.007 185.585 152.649 186.276L153.914 187.635L154.485 188.156C155.629 189.199 157.049 189.888 158.575 190.143L164.121 191.069L171.06 192.409L177.351 194.332C177.732 194.448 178.122 194.536 178.517 194.595L182.595 195.203C183.463 195.332 184.346 195.318 185.209 195.162L188.133 194.633C188.951 194.485 189.741 194.211 190.475 193.821L191.783 193.125C192.775 192.598 193.646 191.867 194.339 190.982L194.935 190.219C195.543 189.443 196.003 188.561 196.291 187.617L196.69 186.311C197.116 184.918 197.155 183.436 196.804 182.023L196.505 180.822C196.224 179.692 195.701 178.636 194.971 177.728L193.247 175.583L190.626 172.905L188.489 170.688L186.67 168.613C186.261 168.147 185.908 167.635 185.617 167.088L184.963 165.858L184.384 164.768C183.978 164.006 183.699 163.183 183.555 162.331L183.327 160.98L183.036 158.016C182.976 157.414 182.85 156.821 182.657 156.248L182.34 155.302C182.199 154.883 182.024 154.475 181.817 154.085L180.531 151.667C180.339 151.306 180.12 150.96 179.875 150.632L179.266 149.816C178.81 149.206 178.27 148.663 177.661 148.205L176.757 147.524C176.111 147.037 175.396 146.651 174.635 146.379L174.342 146.274C173.34 145.914 172.276 145.758 171.212 145.813L170.237 145.864C169.633 145.895 169.035 145.995 168.453 146.161L167.235 146.508C166.691 146.663 166.165 146.875 165.665 147.141L164.554 147.731C164.055 147.997 163.584 148.315 163.151 148.679L162.469 149.254C161.818 149.801 161.259 150.449 160.811 151.173L160.395 151.845C160.093 152.333 159.845 152.851 159.653 153.392L158.793 155.824L157.918 158.684L157.219 160.971L156.345 163.831L155.57 165.957C155.438 166.321 155.279 166.676 155.095 167.017L153.925 169.189L152.653 171.302L151.481 173.602L150.876 175.23C150.689 175.735 150.553 176.257 150.47 176.788L150.362 177.483C150.3 177.879 150.268 178.279 150.266 178.68L150.258 180.087C150.255 180.826 150.352 181.561 150.549 182.273L150.773 183.079L151.125 183.917Z" fill="#001AFF"/>
<ellipse cx="148.21" cy="202.034" rx="8.82428" ry="12.1438" transform="rotate(-139 148.21 202.034)" fill="#001AFF"/>
<ellipse cx="132.523" cy="177.777" rx="8.82428" ry="12.1438" transform="rotate(-104 132.523 177.777)" fill="#001AFF"/>
<ellipse cx="142.992" cy="151.75" rx="7.95744" ry="10.4946" transform="rotate(-92 142.992 151.75)" fill="#001AFF"/>
<path d="M252.76 162.92C253.425 163.589 254.203 164.136 255.057 164.536L256.739 165.322L257.464 165.591C258.914 166.129 260.49 166.237 262 165.901L267.489 164.682L274.425 163.325L280.978 162.751C281.375 162.717 281.769 162.652 282.157 162.559L286.167 161.594C287.019 161.389 287.833 161.045 288.575 160.577L291.088 158.991C291.791 158.548 292.42 157.998 292.955 157.361L293.907 156.227C294.629 155.365 295.163 154.362 295.474 153.281L295.741 152.351C296.014 151.403 296.109 150.413 296.023 149.431L295.904 148.07C295.777 146.619 295.259 145.23 294.403 144.051L293.677 143.05C292.993 142.107 292.112 141.324 291.095 140.756L288.693 139.412L285.26 137.912L282.448 136.657L279.984 135.414C279.43 135.135 278.911 134.793 278.436 134.395L277.369 133.499L276.424 132.706C275.762 132.151 275.195 131.493 274.743 130.757L274.025 129.589L272.644 126.95C272.364 126.415 272.024 125.912 271.632 125.453L270.983 124.695C270.695 124.358 270.38 124.046 270.041 123.762L267.944 122.002C267.63 121.739 267.298 121.5 266.948 121.288L266.077 120.76C265.426 120.365 264.722 120.064 263.986 119.867L262.892 119.574C262.111 119.365 261.304 119.275 260.496 119.307L260.186 119.32C259.121 119.362 258.076 119.615 257.111 120.065L256.225 120.478C255.677 120.733 255.16 121.049 254.683 121.421L253.683 122.199C253.237 122.547 252.828 122.941 252.465 123.374L251.656 124.338C251.292 124.771 250.975 125.242 250.71 125.742L250.293 126.53C249.895 127.282 249.619 128.093 249.475 128.931L249.341 129.71C249.244 130.276 249.207 130.849 249.233 131.422L249.346 133.999L249.606 136.978L249.815 139.362L250.075 142.341L250.154 144.601C250.167 144.989 250.153 145.377 250.11 145.763L249.839 148.215L249.451 150.65L249.226 153.222L249.276 154.958C249.291 155.496 249.36 156.031 249.482 156.555L249.642 157.24C249.733 157.63 249.853 158.013 250.002 158.386L250.522 159.693C250.795 160.379 251.161 161.024 251.611 161.61L252.119 162.274L252.76 162.92Z" fill="#001AFF"/>
<ellipse cx="256.848" cy="180.809" rx="8.82428" ry="12.1438" transform="rotate(-161 256.848 180.809)" fill="#001AFF"/>
<ellipse cx="233.216" cy="164.194" rx="8.82428" ry="12.1438" transform="rotate(-126 233.216 164.194)" fill="#001AFF"/>
<ellipse cx="233.171" cy="136.14" rx="7.95744" ry="10.4946" transform="rotate(-114 233.171 136.14)" fill="#001AFF"/>
<ellipse cx="283.126" cy="179.455" rx="7.95744" ry="10.4946" transform="rotate(-170 283.126 179.455)" fill="#001AFF"/>
<path d="M1265.74 68.898C1266.4 69.5743 1266.93 70.3611 1267.32 71.2223L1268.07 72.9176L1268.33 73.6472C1268.84 75.1071 1268.92 76.6838 1268.56 78.1881L1267.24 83.6554L1265.77 90.5663L1265.08 97.1079C1265.04 97.5047 1264.97 97.8979 1264.87 98.2841L1263.83 102.276C1263.61 103.125 1263.25 103.932 1262.77 104.666L1261.14 107.151C1260.69 107.846 1260.13 108.466 1259.48 108.989L1258.33 109.921C1257.46 110.629 1256.44 111.145 1255.36 111.437L1254.42 111.688C1253.47 111.944 1252.48 112.022 1251.5 111.919L1250.14 111.776C1248.69 111.624 1247.31 111.081 1246.15 110.205L1245.16 109.461C1244.23 108.761 1243.46 107.866 1242.91 106.84L1241.61 104.415L1240.17 100.956L1238.96 98.1228L1237.76 95.6368C1237.49 95.0788 1237.16 94.5537 1236.77 94.0722L1235.89 92.9893L1235.12 92.0307C1234.57 91.3595 1233.93 90.7803 1233.2 90.3154L1232.04 89.5776L1229.43 88.1512C1228.9 87.8617 1228.4 87.5131 1227.95 87.1123L1227.2 86.4507C1226.87 86.1572 1226.56 85.8368 1226.29 85.4929L1224.56 83.3649C1224.31 83.047 1224.07 82.7099 1223.87 82.3566L1223.35 81.4771C1222.97 80.819 1222.68 80.1096 1222.5 79.3703L1222.22 78.2716C1222.03 77.4873 1221.95 76.6781 1222 75.8711L1222.02 75.561C1222.08 74.4977 1222.35 73.457 1222.82 72.4996L1223.24 71.6217C1223.51 71.0781 1223.83 70.5661 1224.21 70.0955L1225.01 69.1101C1225.36 68.6697 1225.77 68.2681 1226.21 67.912L1227.18 67.1204C1227.62 66.7642 1228.1 66.4555 1228.6 66.1994L1229.4 65.7958C1230.16 65.4108 1230.97 65.1487 1231.81 65.0194L1232.6 64.8992C1233.16 64.812 1233.74 64.7858 1234.31 64.8209L1236.88 64.9788L1239.86 65.2914L1242.24 65.5415L1245.21 65.8541L1247.47 65.972C1247.86 65.9922 1248.25 65.9843 1248.63 65.9484L1251.09 65.7201L1253.53 65.3754L1256.11 65.195L1257.84 65.2748C1258.38 65.2995 1258.91 65.3781 1259.43 65.5094L1260.12 65.6812C1260.5 65.779 1260.88 65.9058 1261.25 66.0605L1262.55 66.6035C1263.23 66.8884 1263.87 67.266 1264.45 67.7254L1265.11 68.2458L1265.74 68.898Z" fill="#001AFF"/>
<ellipse cx="8.82428" cy="12.1438" rx="8.82428" ry="12.1438" transform="matrix(-0.309017 -0.951056 -0.951056 0.309017 1297.83 77.9336)" fill="#001AFF"/>
<ellipse cx="8.82428" cy="12.1438" rx="8.82428" ry="12.1438" transform="matrix(-0.798635 -0.601815 -0.601815 0.798635 1281.71 44.9883)" fill="#001AFF"/>
<ellipse cx="7.95744" cy="10.4946" rx="7.95744" ry="10.4946" transform="matrix(-0.906308 -0.422618 -0.422618 0.906308 1250.95 42.6953)" fill="#001AFF"/>
<ellipse cx="7.95744" cy="10.4946" rx="7.95744" ry="10.4946" transform="matrix(-0.156434 -0.987688 -0.987688 0.156434 1293.35 105.762)" fill="#001AFF"/>
<path d="M1206.7 154.254C1207.05 155.127 1207.25 156.056 1207.29 156.999L1207.35 158.854L1207.32 159.627C1207.25 161.172 1206.73 162.664 1205.83 163.924L1202.56 168.5L1198.6 174.354L1195.52 180.162C1195.33 180.514 1195.12 180.852 1194.88 181.173L1192.42 184.486C1191.9 185.191 1191.27 185.806 1190.55 186.306L1188.1 187.999C1187.42 188.473 1186.67 188.838 1185.87 189.081L1184.46 189.514C1183.38 189.842 1182.25 189.942 1181.13 189.806L1180.17 189.688C1179.19 189.569 1178.25 189.27 1177.38 188.807L1176.17 188.166C1174.88 187.482 1173.81 186.462 1173.06 185.214L1172.42 184.154C1171.82 183.155 1171.44 182.039 1171.32 180.881L1171.02 178.145L1170.98 174.398L1170.92 171.32L1170.74 168.565C1170.7 167.947 1170.59 167.335 1170.41 166.743L1170 165.41L1169.64 164.231C1169.39 163.405 1169 162.625 1168.5 161.921L1167.71 160.804L1165.82 158.503C1165.43 158.035 1165.1 157.526 1164.83 156.985L1164.39 156.092C1164.19 155.696 1164.03 155.284 1163.9 154.861L1163.1 152.242C1162.98 151.851 1162.89 151.451 1162.83 151.046L1162.68 150.039C1162.58 149.285 1162.57 148.519 1162.68 147.765L1162.84 146.643C1162.95 145.843 1163.18 145.064 1163.53 144.333L1163.66 144.053C1164.12 143.089 1164.76 142.226 1165.55 141.513L1166.27 140.86C1166.72 140.455 1167.22 140.102 1167.75 139.808L1168.85 139.192C1169.35 138.917 1169.87 138.695 1170.41 138.53L1171.61 138.162C1172.15 137.996 1172.71 137.888 1173.28 137.84L1174.16 137.764C1175.01 137.691 1175.87 137.753 1176.69 137.948L1177.46 138.13C1178.02 138.261 1178.56 138.452 1179.08 138.699L1181.41 139.81L1184.05 141.214L1186.16 142.337L1188.8 143.741L1190.85 144.697C1191.2 144.861 1191.57 144.999 1191.94 145.11L1194.3 145.819L1196.7 146.414L1199.15 147.211L1200.73 147.935C1201.22 148.159 1201.68 148.432 1202.12 148.749L1202.69 149.164C1203.01 149.4 1203.32 149.661 1203.6 149.942L1204.6 150.932C1205.13 151.452 1205.58 152.041 1205.94 152.683L1206.35 153.411L1206.7 154.254Z" fill="#001AFF"/>
<ellipse cx="8.82428" cy="12.1438" rx="8.82428" ry="12.1438" transform="matrix(0.0697565 -0.997564 -0.997564 -0.0697565 1233.06 174.652)" fill="#001AFF"/>
<ellipse cx="8.82428" cy="12.1438" rx="8.82428" ry="12.1438" transform="matrix(-0.515038 -0.857167 -0.857167 0.515038 1230.46 138.068)" fill="#001AFF"/>
<ellipse cx="7.95744" cy="10.4946" rx="7.95744" ry="10.4946" transform="matrix(-0.681998 -0.731354 -0.731354 0.681998 1202.8 124.42)" fill="#001AFF"/>
<ellipse cx="7.95744" cy="10.4946" rx="7.95744" ry="10.4946" transform="matrix(0.224951 -0.97437 -0.97437 -0.224951 1218.49 198.777)" fill="#001AFF"/>
<path d="M1106.75 193.917C1106.38 194.787 1105.86 195.585 1105.22 196.276L1103.96 197.635L1103.39 198.156C1102.24 199.199 1100.82 199.888 1099.3 200.143L1093.75 201.069L1086.81 202.409L1080.52 204.332C1080.14 204.448 1079.75 204.536 1079.35 204.595L1075.28 205.203C1074.41 205.332 1073.53 205.318 1072.66 205.162L1069.74 204.633C1068.92 204.485 1068.13 204.211 1067.4 203.821L1066.09 203.125C1065.1 202.598 1064.22 201.867 1063.53 200.982L1062.94 200.219C1062.33 199.443 1061.87 198.561 1061.58 197.617L1061.18 196.311C1060.76 194.918 1060.72 193.436 1061.07 192.023L1061.37 190.822C1061.65 189.692 1062.17 188.636 1062.9 187.728L1064.62 185.583L1067.25 182.905L1069.38 180.688L1071.2 178.613C1071.61 178.147 1071.96 177.635 1072.25 177.088L1072.91 175.858L1073.49 174.768C1073.89 174.006 1074.17 173.183 1074.32 172.331L1074.54 170.98L1074.84 168.016C1074.89 167.414 1075.02 166.821 1075.21 166.248L1075.53 165.302C1075.67 164.883 1075.85 164.475 1076.05 164.085L1077.34 161.667C1077.53 161.306 1077.75 160.96 1078 160.632L1078.61 159.816C1079.06 159.206 1079.6 158.663 1080.21 158.205L1081.11 157.524C1081.76 157.037 1082.48 156.651 1083.24 156.379L1083.53 156.274C1084.53 155.914 1085.6 155.758 1086.66 155.813L1087.63 155.864C1088.24 155.895 1088.84 155.995 1089.42 156.161L1090.64 156.508C1091.18 156.663 1091.71 156.875 1092.21 157.141L1093.32 157.731C1093.82 157.997 1094.29 158.315 1094.72 158.679L1095.4 159.254C1096.05 159.801 1096.61 160.449 1097.06 161.173L1097.48 161.845C1097.78 162.333 1098.03 162.851 1098.22 163.392L1099.08 165.824L1099.95 168.684L1100.65 170.971L1101.53 173.831L1102.3 175.957C1102.43 176.321 1102.59 176.676 1102.78 177.017L1103.95 179.189L1105.22 181.302L1106.39 183.602L1106.99 185.23C1107.18 185.735 1107.32 186.257 1107.4 186.788L1107.51 187.483C1107.57 187.879 1107.6 188.279 1107.61 188.68L1107.61 190.087C1107.62 190.826 1107.52 191.561 1107.32 192.273L1107.1 193.079L1106.75 193.917Z" fill="#001AFF"/>
<ellipse cx="8.82428" cy="12.1438" rx="8.82428" ry="12.1438" transform="matrix(0.241922 -0.970296 -0.970296 -0.241922 1135 199.277)" fill="#001AFF"/>
<ellipse cx="7.95744" cy="10.4946" rx="7.95744" ry="10.4946" transform="matrix(0.0348995 -0.999391 -0.999391 -0.0348995 1125.09 170.068)" fill="#001AFF"/>
<path d="M1005.11 172.92C1004.45 173.589 1003.67 174.136 1002.81 174.536L1001.13 175.322L1000.41 175.591C998.957 176.129 997.381 176.237 995.871 175.901L990.382 174.682L983.446 173.325L976.893 172.751C976.496 172.717 976.102 172.652 975.714 172.559L971.705 171.594C970.852 171.389 970.038 171.045 969.296 170.577L966.783 168.991C966.08 168.548 965.451 167.998 964.916 167.361L963.964 166.227C963.242 165.365 962.708 164.362 962.397 163.281L962.13 162.351C961.857 161.403 961.762 160.413 961.848 159.431L961.967 158.07C962.094 156.619 962.612 155.23 963.468 154.051L964.194 153.05C964.878 152.107 965.759 151.324 966.776 150.756L969.178 149.412L972.611 147.912L975.423 146.657L977.888 145.414C978.441 145.135 978.96 144.793 979.435 144.395L980.502 143.499L981.447 142.706C982.109 142.151 982.676 141.493 983.128 140.757L983.846 139.589L985.227 136.95C985.507 136.415 985.847 135.912 986.24 135.453L986.888 134.695C987.176 134.358 987.491 134.046 987.83 133.762L989.927 132.002C990.241 131.739 990.574 131.5 990.923 131.288L991.794 130.76C992.445 130.365 993.149 130.064 993.885 129.867L994.979 129.574C995.76 129.365 996.568 129.275 997.375 129.307L997.686 129.32C998.75 129.362 999.795 129.615 1000.76 130.065L1001.65 130.478C1002.19 130.733 1002.71 131.049 1003.19 131.421L1004.19 132.199C1004.63 132.547 1005.04 132.941 1005.41 133.374L1006.22 134.338C1006.58 134.771 1006.9 135.242 1007.16 135.742L1007.58 136.53C1007.98 137.282 1008.25 138.093 1008.4 138.931L1008.53 139.71C1008.63 140.276 1008.66 140.849 1008.64 141.422L1008.53 143.999L1008.26 146.978L1008.06 149.362L1007.8 152.341L1007.72 154.601C1007.7 154.989 1007.72 155.377 1007.76 155.763L1008.03 158.215L1008.42 160.65L1008.64 163.222L1008.6 164.958C1008.58 165.496 1008.51 166.031 1008.39 166.555L1008.23 167.24C1008.14 167.63 1008.02 168.013 1007.87 168.386L1007.35 169.693C1007.08 170.379 1006.71 171.024 1006.26 171.61L1005.75 172.274L1005.11 172.92Z" fill="#001AFF"/>
<ellipse cx="8.82428" cy="12.1438" rx="8.82428" ry="12.1438" transform="matrix(0.945519 -0.325568 -0.325568 -0.945519 996.633 205.164)" fill="#001AFF"/>
<ellipse cx="8.82428" cy="12.1438" rx="8.82428" ry="12.1438" transform="matrix(0.587785 -0.809017 -0.809017 -0.587785 1029.29 188.471)" fill="#001AFF"/>
<ellipse cx="7.95744" cy="10.4946" rx="7.95744" ry="10.4946" transform="matrix(0.406737 -0.913545 -0.913545 -0.406737 1031.05 157.678)" fill="#001AFF"/>
<ellipse cx="7.95744" cy="10.4946" rx="7.95744" ry="10.4946" transform="matrix(0.984808 -0.173648 -0.173648 -0.984808 968.73 201.172)" fill="#001AFF"/>
</g>
<defs>
<clipPath id="clip0_903_3">
<rect width="1280" height="3817" fill="white" transform="translate(0 -3624)"/>
</clipPath>
</defs>
</svg>
