<svg width="699" height="437" viewBox="0 0 699 437" fill="none" xmlns="http://www.w3.org/2000/svg">
<g clip-path="url(#clip0_930_1140)">
<rect width="1280" height="3817" transform="translate(0 -1361)" fill="white"/>
<path d="M-102.033 461.008L539.368 289.145L695.456 625.518C716.759 671.426 711.141 725.322 680.83 765.851V765.851C644.721 814.132 580.655 833.024 523.843 812.842V812.842C506.112 806.543 489.678 796.554 475.983 783.649V783.649V783.649C474.291 797.105 468.581 809.738 459.597 819.898L451.054 829.561C437.284 845.135 418.366 855.229 397.762 857.995V857.995C389.587 859.093 381.321 859.343 373.095 858.742L372.12 858.671C358.079 857.645 344.452 853.456 332.26 846.417L328.049 843.985V843.985C348.682 899.346 322.317 961.165 268.082 984.596L265.827 985.57C256.81 989.466 247.326 992.175 237.611 993.63L230.499 994.695C204.019 998.661 176.966 993.934 153.399 981.223L147.848 978.229C135.02 971.311 123.93 961.573 115.41 949.748V949.748V949.748C104.103 964.753 88.1025 975.545 69.9544 980.408L65.5459 981.59L63.803 981.989C23.6647 991.18 -15.8753 964.497 -22.3704 923.835V923.835L-102.033 461.008Z" fill="#FFC9ED"/>
<path d="M1384.92 479.008L743.515 307.145L587.427 643.518C566.124 689.426 571.741 743.322 602.053 783.851V783.851C638.162 832.132 702.228 851.024 759.04 830.842V830.842C776.771 824.543 793.205 814.554 806.9 801.649V801.649V801.649C808.592 815.105 814.302 827.738 823.285 837.898L831.829 847.561C845.599 863.135 864.517 873.229 885.121 875.995V875.995C893.295 877.093 901.562 877.343 909.788 876.742L910.763 876.671C924.804 875.645 938.431 871.456 950.623 864.417L954.834 861.985V861.985C934.201 917.346 960.565 979.165 1014.8 1002.6L1017.06 1003.57C1026.07 1007.47 1035.56 1010.18 1045.27 1011.63L1052.38 1012.69C1078.86 1016.66 1105.92 1011.93 1129.48 999.223L1135.04 996.229C1147.86 989.311 1158.95 979.573 1167.47 967.748V967.748V967.748C1178.78 982.753 1194.78 993.545 1212.93 998.408L1217.34 999.59L1219.08 999.989C1259.22 1009.18 1298.76 982.497 1305.25 941.835V941.835L1384.92 479.008Z" fill="#FFC9ED"/>
<path d="M-68.0633 415.991L664.628 260.253L782.295 510.343C809.671 568.528 795.927 637.763 748.4 681.078V681.078C711.401 714.798 659.751 727.304 611.425 714.243L582.645 706.465C565.782 701.908 550.018 693.977 536.308 683.152V683.152V683.152C532.856 694.647 525.946 704.799 516.517 712.226L502.404 723.342C485.596 736.581 465.433 744.879 444.176 747.308L440.476 747.731C431.406 748.767 422.269 749.087 413.149 748.689V748.689C396.948 747.98 381.037 744.139 366.297 737.378L364.895 736.735V736.735C381.01 782.759 356.23 833.05 309.917 848.315L274.781 859.895C267.221 862.387 259.437 864.142 251.539 865.136L228.939 867.978C205.296 870.952 181.286 867.601 159.361 858.265L146.499 852.789C134.717 847.773 124.342 839.949 116.279 830V830V830C101.805 843.104 84.1219 852.145 65.0239 856.205L57.1531 857.878L33.8329 862.173C0.204949 868.367 -31.3363 843.943 -33.7554 809.835V809.835L-68.0633 415.991Z" fill="#FFDDF4"/>
<path d="M1352.93 403.991L620.239 248.253L502.572 498.343C475.196 556.528 488.941 625.763 536.467 669.078V669.078C573.466 702.798 625.116 715.304 673.442 702.243L702.222 694.465C719.085 689.908 734.849 681.977 748.559 671.152V671.152V671.152C752.011 682.647 758.921 692.799 768.35 700.226L782.463 711.342C799.272 724.581 819.434 732.879 840.692 735.308L844.392 735.731C853.461 736.767 862.598 737.087 871.718 736.689V736.689C887.919 735.98 903.83 732.139 918.57 725.378L919.972 724.735V724.735C903.858 770.759 928.637 821.05 974.95 836.315L1010.09 847.895C1017.65 850.387 1025.43 852.142 1033.33 853.136L1055.93 855.978C1079.57 858.952 1103.58 855.601 1125.51 846.265L1138.37 840.789C1150.15 835.773 1160.53 827.949 1168.59 818V818V818C1183.06 831.104 1200.75 840.145 1219.84 844.205L1227.71 845.878L1251.03 850.173C1284.66 856.367 1316.2 831.943 1318.62 797.835V797.835L1352.93 403.991Z" fill="#FFDDF4"/>
<path d="M-12.4708 161.082L604.569 128.744L685.416 506.501C694.854 550.601 680.727 596.438 648.101 627.573L644.702 630.817C602.601 670.995 538.22 676.476 489.933 643.995V643.995C475.784 634.477 463.751 622.142 454.587 607.762L453.258 605.678V605.678C449.167 618.674 441.323 630.17 430.713 638.718L421.224 646.364C406.215 658.457 387.107 664.27 367.905 662.585V662.585C360.253 661.914 352.701 660.391 345.387 658.045L344.1 657.632C331.715 653.659 320.432 646.842 311.155 637.726L307.027 633.67L308.105 641.35C315.876 696.728 279.552 748.705 224.877 760.443V760.443C215.042 762.554 204.957 763.264 194.923 762.55L192.724 762.394C165.903 760.486 140.537 749.48 120.821 731.197L117.956 728.54C107.206 718.571 98.7678 706.369 93.2358 692.791V692.791V692.791C80.1439 705.192 63.0613 712.522 45.0529 713.466L41.7691 713.638V713.638C2.40277 714.124 -29.2974 681.455 -27.6266 642.121L-27.4262 637.403L-12.4708 161.082Z" fill="white"/>
<path d="M1284.46 117.127L667.423 84.7892L586.576 462.546C577.138 506.645 591.265 552.483 623.891 583.618L627.29 586.862C669.391 627.04 733.772 632.521 782.059 600.039V600.039C796.208 590.522 808.241 578.187 817.406 563.807L818.734 561.723V561.723C822.825 574.719 830.669 586.215 841.279 594.763L850.768 602.409C865.777 614.502 884.886 620.315 904.087 618.63V618.63C911.739 617.959 919.292 616.436 926.606 614.09L927.892 613.677C940.277 609.704 951.56 602.887 960.837 593.771L964.965 589.715L963.887 597.395C956.116 652.773 992.44 704.75 1047.11 716.488V716.488C1056.95 718.599 1067.03 719.309 1077.07 718.595L1079.27 718.438C1106.09 716.531 1131.45 705.525 1151.17 687.242L1154.04 684.585C1164.79 674.616 1173.22 662.414 1178.76 648.836V648.836V648.836C1191.85 661.237 1208.93 668.567 1226.94 669.511L1230.22 669.683V669.683C1269.59 670.169 1301.29 637.499 1299.62 598.166L1299.42 593.448L1284.46 117.127Z" fill="white"/>
<rect x="-109" y="232" width="1287" height="260" fill="white"/>
<path d="M355.844 47.9948C356.692 47.4959 357.965 47.0219 359.661 46.5729C361.407 46.1239 363.154 45.8993 364.9 45.8993C367.394 45.8993 369.59 46.2735 371.486 47.0219C373.431 47.7204 374.679 48.843 375.228 50.3897C376.126 52.9841 377.098 56.0026 378.146 59.4452C379.194 62.8877 380.242 66.455 381.289 70.1471C382.337 73.7892 383.36 77.4064 384.358 80.9987C385.356 84.5411 386.229 87.6843 386.977 90.4284C386.378 91.1269 385.48 91.6757 384.283 92.0748C383.086 92.5239 381.664 92.7484 380.017 92.7484C378.82 92.7484 377.797 92.6486 376.949 92.449C376.151 92.2495 375.477 91.9501 374.928 91.551C374.429 91.1518 374.005 90.628 373.656 89.9794C373.357 89.3308 373.082 88.5824 372.833 87.7342L371.486 82.5703H357.94C357.541 84.0671 357.141 85.6138 356.742 87.2103C356.343 88.8069 355.944 90.3535 355.545 91.8503C354.846 92.0998 354.098 92.2994 353.3 92.449C352.551 92.6486 351.628 92.7484 350.531 92.7484C347.986 92.7484 346.09 92.3243 344.843 91.4761C343.646 90.5781 343.047 89.3557 343.047 87.809C343.047 87.1105 343.147 86.412 343.346 85.7135C343.546 85.0151 343.77 84.1918 344.02 83.2439C344.369 81.8968 344.843 80.2254 345.442 78.2297C346.09 76.234 346.789 74.0886 347.537 71.7935C348.286 69.4486 349.084 67.0538 349.932 64.609C350.78 62.1643 351.578 59.8692 352.327 57.7239C353.075 55.5286 353.749 53.5828 354.347 51.8864C354.996 50.1901 355.495 48.8929 355.844 47.9948ZM364.825 57.649C364.126 59.7445 363.328 62.0895 362.43 64.6839C361.582 67.2284 360.809 69.8228 360.11 72.4671H369.39C368.692 69.7729 367.968 67.1535 367.22 64.609C366.521 62.0146 365.873 59.6946 365.274 57.649H364.825ZM434.197 90.4284C433.498 91.1269 432.476 91.6508 431.129 92C429.831 92.3991 428.26 92.5987 426.414 92.5987C424.568 92.5987 422.821 92.3243 421.175 91.7755C419.529 91.2267 418.181 89.9045 417.134 87.809L409.725 72.6916C408.976 71.1449 408.303 69.6981 407.704 68.351C407.105 66.954 406.457 65.3574 405.758 63.5613L405.309 63.6361C405.509 66.3303 405.609 69.0744 405.609 71.8684C405.658 74.6624 405.683 77.4064 405.683 80.1006V91.7006C405.135 91.8503 404.286 92 403.139 92.1497C402.041 92.2994 400.944 92.3742 399.846 92.3742C398.748 92.3742 397.775 92.2994 396.927 92.1497C396.079 92 395.381 91.7006 394.832 91.2516C394.283 90.8026 393.859 90.2039 393.559 89.4555C393.26 88.6572 393.11 87.6344 393.11 86.3871V48.9677C393.809 47.9699 394.882 47.2215 396.329 46.7226C397.775 46.2236 399.322 45.9742 400.969 45.9742C402.815 45.9742 404.561 46.2735 406.207 46.8722C407.904 47.4211 409.251 48.7183 410.249 50.7639L417.732 65.8813C418.481 67.428 419.154 68.8998 419.753 70.2968C420.352 71.6439 421 73.2155 421.699 75.0116L422.073 74.9368C421.873 72.2426 421.749 69.5484 421.699 66.8542C421.649 64.16 421.624 61.4658 421.624 58.7716V46.6477C422.173 46.4981 422.996 46.3484 424.094 46.1987C425.241 46.049 426.364 45.9742 427.461 45.9742C429.657 45.9742 431.328 46.3733 432.476 47.1716C433.623 47.92 434.197 49.5165 434.197 51.9613V90.4284ZM456.926 82.271C457.475 82.3708 458.149 82.4705 458.947 82.5703C459.745 82.6202 460.494 82.6452 461.192 82.6452C462.888 82.6452 464.435 82.3957 465.832 81.8968C467.279 81.3978 468.501 80.6245 469.499 79.5768C470.547 78.529 471.345 77.1819 471.894 75.5355C472.493 73.8391 472.792 71.8185 472.792 69.4735C472.792 64.9832 471.744 61.6155 469.649 59.3703C467.553 57.0753 464.759 55.9277 461.267 55.9277C460.568 55.9277 459.845 55.9527 459.097 56.0026C458.398 56.0525 457.675 56.1273 456.926 56.2271V82.271ZM461.117 93.1974C460.269 93.1974 459.296 93.1725 458.199 93.1226C457.101 93.0727 455.953 92.9729 454.756 92.8232C453.608 92.6735 452.436 92.474 451.239 92.2245C450.091 92.0249 449.018 91.7256 448.02 91.3265C445.276 90.2787 443.904 88.4576 443.904 85.8632V50.9135C443.904 49.8658 444.179 49.0675 444.728 48.5187C445.326 47.92 446.125 47.446 447.122 47.0968C449.268 46.3983 451.538 45.9492 453.933 45.7497C456.328 45.5002 458.473 45.3755 460.369 45.3755C464.26 45.3755 467.778 45.8495 470.921 46.7974C474.114 47.7454 476.833 49.2172 479.079 51.2129C481.374 53.1587 483.145 55.6284 484.392 58.6219C485.639 61.6155 486.263 65.1578 486.263 69.249C486.263 73.2404 485.664 76.7329 484.467 79.7264C483.269 82.6701 481.548 85.1647 479.303 87.2103C477.108 89.206 474.463 90.7028 471.37 91.7006C468.277 92.6985 464.859 93.1974 461.117 93.1974ZM506.635 57.1252C506.286 56.5763 505.961 55.8279 505.662 54.88C505.363 53.932 505.213 52.9342 505.213 51.8864C505.213 49.9406 505.637 48.5436 506.485 47.6955C507.383 46.8473 508.531 46.4232 509.928 46.4232H542.558C542.907 46.972 543.231 47.7204 543.53 48.6684C543.83 49.6163 543.979 50.6142 543.979 51.6619C543.979 53.6077 543.53 55.0047 542.632 55.8529C541.784 56.7011 540.662 57.1252 539.265 57.1252H530.958V91.7006C530.409 91.8503 529.536 92 528.338 92.1497C527.191 92.2994 526.043 92.3742 524.896 92.3742C523.748 92.3742 522.725 92.2744 521.827 92.0748C520.979 91.9252 520.256 91.6258 519.657 91.1768C519.058 90.7277 518.609 90.1041 518.31 89.3058C518.01 88.5075 517.861 87.4598 517.861 86.1626V57.1252H506.635ZM590.878 91.7006C590.329 91.8503 589.456 92 588.259 92.1497C587.111 92.2994 585.964 92.3742 584.816 92.3742C583.669 92.3742 582.646 92.2744 581.748 92.0748C580.9 91.9252 580.176 91.6258 579.578 91.1768C578.979 90.7277 578.53 90.1041 578.23 89.3058C577.931 88.5075 577.781 87.4598 577.781 86.1626V74.4877H563.412V91.7006C562.864 91.8503 561.99 92 560.793 92.1497C559.646 92.2994 558.498 92.3742 557.35 92.3742C556.203 92.3742 555.18 92.2744 554.282 92.0748C553.434 91.9252 552.71 91.6258 552.112 91.1768C551.513 90.7277 551.064 90.1041 550.765 89.3058C550.465 88.5075 550.316 87.4598 550.316 86.1626V46.6477C550.864 46.5479 551.738 46.4232 552.935 46.2735C554.132 46.074 555.28 45.9742 556.378 45.9742C557.525 45.9742 558.523 46.074 559.371 46.2735C560.269 46.4232 561.018 46.7226 561.616 47.1716C562.215 47.6206 562.664 48.2443 562.963 49.0426C563.263 49.8409 563.412 50.8886 563.412 52.1858V64.16H577.781V46.6477C578.33 46.5479 579.203 46.4232 580.401 46.2735C581.598 46.074 582.746 45.9742 583.843 45.9742C584.991 45.9742 585.989 46.074 586.837 46.2735C587.735 46.4232 588.483 46.7226 589.082 47.1716C589.681 47.6206 590.13 48.2443 590.429 49.0426C590.729 49.8409 590.878 50.8886 590.878 52.1858V91.7006ZM600.598 53.6077C600.598 51.4624 601.222 49.766 602.469 48.5187C603.716 47.2714 605.413 46.6477 607.558 46.6477H632.255C632.604 47.1966 632.903 47.92 633.153 48.8181C633.452 49.7161 633.602 50.6641 633.602 51.6619C633.602 53.5578 633.178 54.9049 632.33 55.7032C631.531 56.5015 630.459 56.9006 629.111 56.9006H613.32V63.8606H630.159C630.508 64.4095 630.808 65.1329 631.057 66.031C631.357 66.8791 631.506 67.8021 631.506 68.8C631.506 70.6959 631.107 72.043 630.309 72.8413C629.511 73.6396 628.438 74.0387 627.091 74.0387H613.32V81.8968H632.554C632.903 82.4456 633.203 83.169 633.452 84.0671C633.751 84.9652 633.901 85.9131 633.901 86.911C633.901 88.8069 633.477 90.1789 632.629 91.0271C631.831 91.8254 630.758 92.2245 629.411 92.2245H607.558C605.413 92.2245 603.716 91.6009 602.469 90.3535C601.222 89.1062 600.598 87.4099 600.598 85.2645V53.6077ZM665.689 91.7006C665.141 91.8503 664.292 92 663.145 92.1497C661.997 92.2994 660.875 92.3742 659.777 92.3742C657.482 92.3742 655.761 92 654.613 91.2516C653.466 90.4533 652.892 88.8069 652.892 86.3123V76.209C651.645 74.363 650.298 72.3174 648.851 70.0723C647.404 67.8271 645.982 65.532 644.585 63.1871C643.188 60.8421 641.891 58.5471 640.693 56.3019C639.496 54.0069 638.523 51.9114 637.775 50.0155C638.423 49.1174 639.296 48.2942 640.394 47.5458C641.541 46.7974 642.938 46.4232 644.585 46.4232C646.531 46.4232 648.102 46.8224 649.3 47.6206C650.547 48.4189 651.72 49.9157 652.817 52.111L659.029 64.609H659.478C660.176 63.0624 660.775 61.6654 661.274 60.4181C661.823 59.1209 662.347 57.8486 662.846 56.6013C663.345 55.3041 663.868 53.9819 664.417 52.6348C664.966 51.2378 665.59 49.6413 666.288 47.8452C667.186 47.3961 668.184 47.0469 669.282 46.7974C670.379 46.5479 671.427 46.4232 672.425 46.4232C674.171 46.4232 675.643 46.8972 676.84 47.8452C678.088 48.7432 678.711 50.1153 678.711 51.9613C678.711 52.56 678.587 53.2834 678.337 54.1316C678.088 54.9798 677.514 56.277 676.616 58.0232C675.718 59.7196 674.396 62.0396 672.649 64.9832C670.953 67.9269 668.633 71.7686 665.689 76.5084V91.7006ZM492.376 168.225C490.231 168.225 488.535 167.601 487.287 166.354C486.04 165.106 485.416 163.41 485.416 161.265V122.573C485.965 122.473 486.838 122.348 488.036 122.199C489.233 121.999 490.381 121.899 491.478 121.899C492.626 121.899 493.624 121.999 494.472 122.199C495.37 122.348 496.118 122.648 496.717 123.097C497.316 123.546 497.765 124.169 498.064 124.968C498.363 125.766 498.513 126.814 498.513 128.111V157.672H515.651C516 158.221 516.325 158.969 516.624 159.917C516.924 160.815 517.073 161.763 517.073 162.761C517.073 164.757 516.649 166.179 515.801 167.027C514.953 167.825 513.83 168.225 512.433 168.225H492.376ZM536.883 167.701C536.334 167.85 535.461 168 534.263 168.15C533.116 168.299 531.968 168.374 530.821 168.374C529.673 168.374 528.65 168.274 527.752 168.075C526.904 167.925 526.181 167.626 525.582 167.177C524.983 166.728 524.534 166.104 524.235 165.306C523.936 164.508 523.786 163.46 523.786 162.163V122.648C524.335 122.548 525.208 122.423 526.405 122.274C527.603 122.074 528.75 121.974 529.848 121.974C530.995 121.974 531.993 122.074 532.841 122.274C533.739 122.423 534.488 122.723 535.086 123.172C535.685 123.621 536.134 124.244 536.434 125.043C536.733 125.841 536.883 126.889 536.883 128.186V167.701ZM573.755 166.503C573.056 167.102 571.959 167.626 570.462 168.075C569.015 168.524 567.418 168.748 565.672 168.748C563.577 168.748 561.781 168.449 560.284 167.85C558.787 167.202 557.764 166.329 557.215 165.231C556.667 164.083 555.993 162.612 555.195 160.815C554.396 158.969 553.548 156.924 552.65 154.679C551.802 152.434 550.904 150.064 549.956 147.569C549.058 145.025 548.185 142.455 547.337 139.861C546.488 137.266 545.69 134.722 544.942 132.227C544.193 129.732 543.545 127.388 542.996 125.192C543.695 124.494 544.692 123.87 545.99 123.321C547.337 122.723 548.759 122.423 550.255 122.423C552.101 122.423 553.598 122.822 554.746 123.621C555.943 124.369 556.816 125.791 557.365 127.886C558.712 132.776 560.059 137.466 561.406 141.956C562.803 146.397 564.25 151.037 565.747 155.876H566.196C567.543 151.186 568.915 146.072 570.312 140.534C571.759 134.996 573.131 129.483 574.428 123.995C575.326 123.546 576.274 123.172 577.272 122.872C578.32 122.573 579.492 122.423 580.79 122.423C582.636 122.423 584.207 122.847 585.504 123.695C586.802 124.494 587.45 125.841 587.45 127.737C587.45 128.834 587.176 130.431 586.627 132.526C586.128 134.622 585.455 136.992 584.606 139.636C583.808 142.231 582.885 144.95 581.837 147.794C580.839 150.637 579.817 153.332 578.769 155.876C577.771 158.371 576.823 160.591 575.925 162.537C575.027 164.433 574.304 165.755 573.755 166.503ZM594.02 129.608C594.02 127.462 594.644 125.766 595.891 124.519C597.139 123.271 598.835 122.648 600.98 122.648H625.677C626.026 123.197 626.326 123.92 626.575 124.818C626.874 125.716 627.024 126.664 627.024 127.662C627.024 129.558 626.6 130.905 625.752 131.703C624.954 132.501 623.881 132.901 622.534 132.901H606.743V139.861H623.582C623.931 140.409 624.23 141.133 624.48 142.031C624.779 142.879 624.929 143.802 624.929 144.8C624.929 146.696 624.53 148.043 623.731 148.841C622.933 149.64 621.86 150.039 620.513 150.039H606.743V157.897H625.976C626.326 158.446 626.625 159.169 626.874 160.067C627.174 160.965 627.323 161.913 627.323 162.911C627.323 164.807 626.899 166.179 626.051 167.027C625.253 167.825 624.18 168.225 622.833 168.225H600.98C598.835 168.225 597.139 167.601 595.891 166.354C594.644 165.106 594.02 163.41 594.02 161.265V129.608ZM648.043 158.271C648.592 158.371 649.265 158.471 650.063 158.57C650.862 158.62 651.61 158.645 652.309 158.645C654.005 158.645 655.552 158.396 656.949 157.897C658.395 157.398 659.618 156.625 660.616 155.577C661.663 154.529 662.462 153.182 663.01 151.535C663.609 149.839 663.909 147.818 663.909 145.474C663.909 140.983 662.861 137.615 660.765 135.37C658.67 133.075 655.876 131.928 652.383 131.928C651.685 131.928 650.961 131.953 650.213 132.003C649.515 132.052 648.791 132.127 648.043 132.227V158.271ZM652.234 169.197C651.386 169.197 650.413 169.172 649.315 169.123C648.217 169.073 647.07 168.973 645.872 168.823C644.725 168.674 643.552 168.474 642.355 168.225C641.207 168.025 640.135 167.726 639.137 167.326C636.393 166.279 635.021 164.458 635.021 161.863V126.914C635.021 125.866 635.295 125.068 635.844 124.519C636.443 123.92 637.241 123.446 638.239 123.097C640.384 122.398 642.654 121.949 645.049 121.75C647.444 121.5 649.589 121.375 651.485 121.375C655.377 121.375 658.894 121.849 662.038 122.797C665.231 123.745 667.95 125.217 670.195 127.213C672.49 129.159 674.261 131.628 675.509 134.622C676.756 137.615 677.379 141.158 677.379 145.249C677.379 149.24 676.781 152.733 675.583 155.726C674.386 158.67 672.665 161.165 670.419 163.21C668.224 165.206 665.58 166.703 662.487 167.701C659.393 168.698 655.976 169.197 652.234 169.197ZM442.151 243.701C441.602 243.85 440.729 244 439.532 244.15C438.384 244.299 437.236 244.374 436.089 244.374C434.941 244.374 433.919 244.274 433.021 244.075C432.172 243.925 431.449 243.626 430.85 243.177C430.252 242.728 429.802 242.104 429.503 241.306C429.204 240.508 429.054 239.46 429.054 238.163V226.488H414.685V243.701C414.136 243.85 413.263 244 412.066 244.15C410.918 244.299 409.771 244.374 408.623 244.374C407.476 244.374 406.453 244.274 405.555 244.075C404.707 243.925 403.983 243.626 403.384 243.177C402.786 242.728 402.337 242.104 402.037 241.306C401.738 240.508 401.588 239.46 401.588 238.163V198.648C402.137 198.548 403.01 198.423 404.208 198.274C405.405 198.074 406.553 197.974 407.65 197.974C408.798 197.974 409.796 198.074 410.644 198.274C411.542 198.423 412.29 198.723 412.889 199.172C413.488 199.621 413.937 200.244 414.236 201.043C414.535 201.841 414.685 202.889 414.685 204.186V216.16H429.054V198.648C429.603 198.548 430.476 198.423 431.673 198.274C432.871 198.074 434.018 197.974 435.116 197.974C436.264 197.974 437.261 198.074 438.11 198.274C439.008 198.423 439.756 198.723 440.355 199.172C440.953 199.621 441.402 200.244 441.702 201.043C442.001 201.841 442.151 202.889 442.151 204.186V243.701ZM461.525 199.995C462.373 199.496 463.645 199.022 465.341 198.573C467.088 198.124 468.834 197.899 470.58 197.899C473.075 197.899 475.27 198.274 477.166 199.022C479.112 199.72 480.359 200.843 480.908 202.39C481.806 204.984 482.779 208.003 483.827 211.445C484.874 214.888 485.922 218.455 486.97 222.147C488.018 225.789 489.04 229.406 490.038 232.999C491.036 236.541 491.909 239.684 492.658 242.428C492.059 243.127 491.161 243.676 489.963 244.075C488.766 244.524 487.344 244.748 485.698 244.748C484.5 244.748 483.477 244.649 482.629 244.449C481.831 244.249 481.157 243.95 480.609 243.551C480.11 243.152 479.686 242.628 479.336 241.979C479.037 241.331 478.763 240.582 478.513 239.734L477.166 234.57H463.62C463.221 236.067 462.822 237.614 462.423 239.21C462.024 240.807 461.625 242.354 461.225 243.85C460.527 244.1 459.778 244.299 458.98 244.449C458.232 244.649 457.309 244.748 456.211 244.748C453.667 244.748 451.771 244.324 450.523 243.476C449.326 242.578 448.727 241.356 448.727 239.809C448.727 239.111 448.827 238.412 449.027 237.714C449.226 237.015 449.451 236.192 449.7 235.244C450.049 233.897 450.523 232.225 451.122 230.23C451.771 228.234 452.469 226.089 453.218 223.794C453.966 221.449 454.764 219.054 455.612 216.609C456.461 214.164 457.259 211.869 458.007 209.724C458.756 207.529 459.429 205.583 460.028 203.886C460.677 202.19 461.175 200.893 461.525 199.995ZM470.505 209.649C469.807 211.745 469.009 214.089 468.111 216.684C467.262 219.228 466.489 221.823 465.791 224.467H475.071C474.372 221.773 473.649 219.154 472.9 216.609C472.202 214.015 471.553 211.695 470.954 209.649H470.505ZM515.779 219.677C517.875 219.677 519.471 219.203 520.569 218.255C521.717 217.258 522.29 215.761 522.29 213.765C522.29 211.869 521.692 210.422 520.494 209.425C519.347 208.377 517.65 207.853 515.405 207.853C514.607 207.853 513.933 207.878 513.384 207.928C512.886 207.928 512.362 207.978 511.813 208.077V219.677H515.779ZM511.888 243.701C511.339 243.85 510.466 244 509.268 244.15C508.121 244.299 506.973 244.374 505.826 244.374C504.678 244.374 503.655 244.274 502.757 244.075C501.909 243.925 501.186 243.626 500.587 243.177C499.988 242.728 499.539 242.104 499.24 241.306C498.941 240.508 498.791 239.46 498.791 238.163V202.914C498.791 201.866 499.065 201.068 499.614 200.519C500.213 199.92 501.011 199.446 502.009 199.097C503.705 198.498 505.626 198.074 507.772 197.825C509.967 197.525 512.162 197.375 514.357 197.375C521.243 197.375 526.506 198.847 530.148 201.791C533.79 204.735 535.612 208.726 535.612 213.765C535.612 216.21 535.212 218.43 534.414 220.426C533.666 222.372 532.518 224.068 530.972 225.515C529.475 226.912 527.554 228.009 525.209 228.808C522.914 229.556 520.245 229.93 517.201 229.93H511.888V243.701ZM559.265 219.677C561.36 219.677 562.957 219.203 564.054 218.255C565.202 217.258 565.776 215.761 565.776 213.765C565.776 211.869 565.177 210.422 563.98 209.425C562.832 208.377 561.136 207.853 558.89 207.853C558.092 207.853 557.419 207.878 556.87 207.928C556.371 207.928 555.847 207.978 555.298 208.077V219.677H559.265ZM555.373 243.701C554.824 243.85 553.951 244 552.754 244.15C551.606 244.299 550.459 244.374 549.311 244.374C548.164 244.374 547.141 244.274 546.243 244.075C545.395 243.925 544.671 243.626 544.072 243.177C543.474 242.728 543.025 242.104 542.725 241.306C542.426 240.508 542.276 239.46 542.276 238.163V202.914C542.276 201.866 542.551 201.068 543.1 200.519C543.698 199.92 544.497 199.446 545.494 199.097C547.191 198.498 549.112 198.074 551.257 197.825C553.452 197.525 555.647 197.375 557.843 197.375C564.728 197.375 569.992 198.847 573.634 201.791C577.276 204.735 579.097 208.726 579.097 213.765C579.097 216.21 578.698 218.43 577.9 220.426C577.151 222.372 576.004 224.068 574.457 225.515C572.96 226.912 571.039 228.009 568.694 228.808C566.399 229.556 563.73 229.93 560.687 229.93H555.373V243.701ZM598.858 243.701C598.31 243.85 597.437 244 596.239 244.15C595.092 244.299 593.944 244.374 592.797 244.374C591.649 244.374 590.626 244.274 589.728 244.075C588.88 243.925 588.157 243.626 587.558 243.177C586.959 242.728 586.51 242.104 586.211 241.306C585.911 240.508 585.762 239.46 585.762 238.163V198.648C586.31 198.548 587.184 198.423 588.381 198.274C589.578 198.074 590.726 197.974 591.824 197.974C592.971 197.974 593.969 198.074 594.817 198.274C595.715 198.423 596.464 198.723 597.062 199.172C597.661 199.621 598.11 200.244 598.409 201.043C598.709 201.841 598.858 202.889 598.858 204.186V243.701ZM615.524 244.225C613.379 244.225 611.682 243.601 610.435 242.354C609.188 241.106 608.564 239.41 608.564 237.265V198.573C609.113 198.473 609.986 198.348 611.183 198.199C612.381 197.999 613.528 197.899 614.626 197.899C615.774 197.899 616.771 197.999 617.62 198.199C618.518 198.348 619.266 198.648 619.865 199.097C620.463 199.546 620.912 200.169 621.212 200.968C621.511 201.766 621.661 202.814 621.661 204.111V233.672H638.799C639.148 234.221 639.472 234.969 639.772 235.917C640.071 236.815 640.221 237.763 640.221 238.761C640.221 240.757 639.797 242.179 638.949 243.027C638.1 243.825 636.978 244.225 635.581 244.225H615.524ZM665.689 243.701C665.141 243.85 664.292 244 663.145 244.15C661.997 244.299 660.875 244.374 659.777 244.374C657.482 244.374 655.761 244 654.613 243.252C653.466 242.453 652.892 240.807 652.892 238.312V228.209C651.645 226.363 650.298 224.317 648.851 222.072C647.404 219.827 645.982 217.532 644.585 215.187C643.188 212.842 641.891 210.547 640.693 208.302C639.496 206.007 638.523 203.911 637.775 202.015C638.423 201.117 639.296 200.294 640.394 199.546C641.541 198.797 642.938 198.423 644.585 198.423C646.531 198.423 648.102 198.822 649.3 199.621C650.547 200.419 651.72 201.916 652.817 204.111L659.029 216.609H659.478C660.176 215.062 660.775 213.665 661.274 212.418C661.823 211.121 662.347 209.849 662.846 208.601C663.345 207.304 663.868 205.982 664.417 204.635C664.966 203.238 665.59 201.641 666.288 199.845C667.186 199.396 668.184 199.047 669.282 198.797C670.379 198.548 671.427 198.423 672.425 198.423C674.171 198.423 675.643 198.897 676.84 199.845C678.088 200.743 678.711 202.115 678.711 203.961C678.711 204.56 678.587 205.283 678.337 206.132C678.088 206.98 677.514 208.277 676.616 210.023C675.718 211.72 674.396 214.04 672.649 216.983C670.953 219.927 668.633 223.769 665.689 228.508V243.701ZM278.952 281.608C278.952 279.462 279.576 277.766 280.823 276.519C282.07 275.271 283.767 274.648 285.912 274.648H310.609C310.958 275.197 311.258 275.92 311.507 276.818C311.806 277.716 311.956 278.664 311.956 279.662C311.956 281.558 311.532 282.905 310.684 283.703C309.885 284.501 308.813 284.901 307.466 284.901H291.675V291.861H308.513C308.863 292.409 309.162 293.133 309.411 294.031C309.711 294.879 309.861 295.802 309.861 296.8C309.861 298.696 309.461 300.043 308.663 300.841C307.865 301.64 306.792 302.039 305.445 302.039H291.675V309.897H310.908C311.258 310.446 311.557 311.169 311.806 312.067C312.106 312.965 312.255 313.913 312.255 314.911C312.255 316.807 311.831 318.179 310.983 319.027C310.185 319.825 309.112 320.225 307.765 320.225H285.912C283.767 320.225 282.07 319.601 280.823 318.354C279.576 317.106 278.952 315.41 278.952 313.265V281.608ZM347.119 318.503C346.421 319.102 345.323 319.626 343.826 320.075C342.379 320.524 340.783 320.748 339.037 320.748C336.941 320.748 335.145 320.449 333.648 319.85C332.151 319.202 331.129 318.329 330.58 317.231C330.031 316.083 329.357 314.612 328.559 312.815C327.761 310.969 326.913 308.924 326.015 306.679C325.166 304.434 324.268 302.064 323.32 299.569C322.422 297.025 321.549 294.455 320.701 291.861C319.853 289.266 319.055 286.722 318.306 284.227C317.558 281.732 316.909 279.388 316.36 277.192C317.059 276.494 318.057 275.87 319.354 275.321C320.701 274.723 322.123 274.423 323.62 274.423C325.466 274.423 326.963 274.822 328.11 275.621C329.307 276.369 330.181 277.791 330.729 279.886C332.077 284.776 333.424 289.466 334.771 293.956C336.168 298.397 337.615 303.037 339.111 307.876H339.56C340.907 303.186 342.28 298.072 343.677 292.534C345.123 286.996 346.495 281.483 347.793 275.995C348.691 275.546 349.639 275.172 350.637 274.872C351.684 274.573 352.857 274.423 354.154 274.423C356 274.423 357.572 274.847 358.869 275.695C360.166 276.494 360.815 277.841 360.815 279.737C360.815 280.834 360.54 282.431 359.991 284.526C359.492 286.622 358.819 288.992 357.971 291.636C357.172 294.231 356.249 296.95 355.202 299.794C354.204 302.637 353.181 305.332 352.133 307.876C351.135 310.371 350.187 312.591 349.289 314.537C348.391 316.433 347.668 317.755 347.119 318.503ZM367.385 281.608C367.385 279.462 368.008 277.766 369.256 276.519C370.503 275.271 372.199 274.648 374.345 274.648H399.041C399.391 275.197 399.69 275.92 399.939 276.818C400.239 277.716 400.388 278.664 400.388 279.662C400.388 281.558 399.964 282.905 399.116 283.703C398.318 284.501 397.245 284.901 395.898 284.901H380.107V291.861H396.946C397.295 292.409 397.595 293.133 397.844 294.031C398.143 294.879 398.293 295.802 398.293 296.8C398.293 298.696 397.894 300.043 397.096 300.841C396.297 301.64 395.225 302.039 393.878 302.039H380.107V309.897H399.341C399.69 310.446 399.989 311.169 400.239 312.067C400.538 312.965 400.688 313.913 400.688 314.911C400.688 316.807 400.264 318.179 399.416 319.027C398.617 319.825 397.545 320.225 396.198 320.225H374.345C372.199 320.225 370.503 319.601 369.256 318.354C368.008 317.106 367.385 315.41 367.385 313.265V281.608ZM421.407 305.332V319.701C420.858 319.85 419.985 320 418.788 320.15C417.64 320.299 416.493 320.374 415.345 320.374C414.198 320.374 413.175 320.274 412.277 320.075C411.429 319.925 410.705 319.626 410.106 319.177C409.558 318.728 409.134 318.104 408.834 317.306C408.535 316.508 408.385 315.46 408.385 314.163V278.914C408.385 277.866 408.66 277.068 409.208 276.519C409.807 275.92 410.605 275.446 411.603 275.097C413.3 274.498 415.27 274.074 417.515 273.825C419.761 273.525 422.155 273.375 424.7 273.375C431.585 273.375 436.774 274.822 440.266 277.716C443.759 280.61 445.505 284.526 445.505 289.466C445.505 292.559 444.707 295.203 443.11 297.399C441.514 299.594 439.618 301.29 437.423 302.488C439.219 304.932 440.99 307.228 442.736 309.373C444.482 311.518 445.854 313.464 446.852 315.21C446.353 316.957 445.43 318.304 444.083 319.252C442.786 320.15 441.314 320.599 439.668 320.599C438.57 320.599 437.622 320.474 436.824 320.225C436.026 319.975 435.327 319.626 434.728 319.177C434.13 318.728 433.581 318.179 433.082 317.53C432.583 316.882 432.109 316.183 431.66 315.435L425.374 305.332H421.407ZM426.122 295.378C428.018 295.378 429.515 294.904 430.612 293.956C431.71 292.958 432.259 291.511 432.259 289.615C432.259 287.72 431.635 286.298 430.388 285.35C429.19 284.352 427.269 283.853 424.625 283.853C423.877 283.853 423.278 283.878 422.829 283.928C422.38 283.978 421.881 284.052 421.332 284.152V295.378H426.122ZM478.627 275.995C479.475 275.496 480.747 275.022 482.443 274.573C484.19 274.124 485.936 273.899 487.682 273.899C490.177 273.899 492.372 274.274 494.268 275.022C496.214 275.72 497.461 276.843 498.01 278.39C498.908 280.984 499.881 284.003 500.928 287.445C501.976 290.888 503.024 294.455 504.072 298.147C505.119 301.789 506.142 305.406 507.14 308.999C508.138 312.541 509.011 315.684 509.759 318.428C509.161 319.127 508.263 319.676 507.065 320.075C505.868 320.524 504.446 320.748 502.799 320.748C501.602 320.748 500.579 320.649 499.731 320.449C498.933 320.249 498.259 319.95 497.71 319.551C497.211 319.152 496.787 318.628 496.438 317.979C496.139 317.331 495.864 316.582 495.615 315.734L494.268 310.57H480.722C480.323 312.067 479.924 313.614 479.525 315.21C479.125 316.807 478.726 318.354 478.327 319.85C477.629 320.1 476.88 320.299 476.082 320.449C475.334 320.649 474.411 320.748 473.313 320.748C470.768 320.748 468.873 320.324 467.625 319.476C466.428 318.578 465.829 317.356 465.829 315.809C465.829 315.111 465.929 314.412 466.128 313.714C466.328 313.015 466.553 312.192 466.802 311.244C467.151 309.897 467.625 308.225 468.224 306.23C468.873 304.234 469.571 302.089 470.319 299.794C471.068 297.449 471.866 295.054 472.714 292.609C473.562 290.164 474.361 287.869 475.109 285.724C475.857 283.529 476.531 281.583 477.13 279.886C477.778 278.19 478.277 276.893 478.627 275.995ZM487.607 285.649C486.909 287.745 486.11 290.089 485.212 292.684C484.364 295.228 483.591 297.823 482.892 300.467H492.172C491.474 297.773 490.75 295.154 490.002 292.609C489.304 290.015 488.655 287.695 488.056 285.649H487.607ZM547.774 274.648C548.123 275.197 548.423 275.945 548.672 276.893C548.971 277.791 549.121 278.739 549.121 279.737C549.121 281.683 548.697 283.08 547.849 283.928C547.051 284.726 545.953 285.125 544.556 285.125H528.84V293.582H545.229C545.629 294.131 545.953 294.854 546.202 295.752C546.502 296.65 546.651 297.598 546.651 298.596C546.651 300.492 546.227 301.864 545.379 302.712C544.581 303.511 543.483 303.91 542.086 303.91H528.989V319.701C528.441 319.85 527.568 320 526.37 320.15C525.223 320.299 524.075 320.374 522.928 320.374C521.78 320.374 520.757 320.274 519.859 320.075C519.011 319.925 518.288 319.626 517.689 319.177C517.09 318.728 516.641 318.104 516.342 317.306C516.042 316.508 515.893 315.46 515.893 314.163V281.608C515.893 279.462 516.516 277.766 517.764 276.519C519.011 275.271 520.707 274.648 522.853 274.648H547.774ZM554.578 285.125C554.229 284.576 553.905 283.828 553.606 282.88C553.306 281.932 553.157 280.934 553.157 279.886C553.157 277.941 553.581 276.544 554.429 275.695C555.327 274.847 556.474 274.423 557.871 274.423H590.501C590.85 274.972 591.175 275.72 591.474 276.668C591.773 277.616 591.923 278.614 591.923 279.662C591.923 281.608 591.474 283.005 590.576 283.853C589.728 284.701 588.605 285.125 587.208 285.125H578.901V319.701C578.352 319.85 577.479 320 576.282 320.15C575.134 320.299 573.987 320.374 572.839 320.374C571.692 320.374 570.669 320.274 569.771 320.075C568.923 319.925 568.199 319.626 567.6 319.177C567.002 318.728 566.553 318.104 566.253 317.306C565.954 316.508 565.804 315.46 565.804 314.163V285.125H554.578ZM598.259 281.608C598.259 279.462 598.883 277.766 600.13 276.519C601.377 275.271 603.074 274.648 605.219 274.648H629.916C630.265 275.197 630.565 275.92 630.814 276.818C631.113 277.716 631.263 278.664 631.263 279.662C631.263 281.558 630.839 282.905 629.991 283.703C629.192 284.501 628.12 284.901 626.773 284.901H610.982V291.861H627.82C628.17 292.409 628.469 293.133 628.719 294.031C629.018 294.879 629.168 295.802 629.168 296.8C629.168 298.696 628.768 300.043 627.97 300.841C627.172 301.64 626.099 302.039 624.752 302.039H610.982V309.897H630.215C630.565 310.446 630.864 311.169 631.113 312.067C631.413 312.965 631.562 313.913 631.562 314.911C631.562 316.807 631.138 318.179 630.29 319.027C629.492 319.825 628.419 320.225 627.072 320.225H605.219C603.074 320.225 601.377 319.601 600.13 318.354C598.883 317.106 598.259 315.41 598.259 313.265V281.608ZM652.282 305.332V319.701C651.733 319.85 650.86 320 649.662 320.15C648.515 320.299 647.367 320.374 646.22 320.374C645.072 320.374 644.049 320.274 643.151 320.075C642.303 319.925 641.58 319.626 640.981 319.177C640.432 318.728 640.008 318.104 639.709 317.306C639.409 316.508 639.26 315.46 639.26 314.163V278.914C639.26 277.866 639.534 277.068 640.083 276.519C640.682 275.92 641.48 275.446 642.478 275.097C644.174 274.498 646.145 274.074 648.39 273.825C650.635 273.525 653.03 273.375 655.575 273.375C662.46 273.375 667.648 274.822 671.141 277.716C674.633 280.61 676.38 284.526 676.38 289.466C676.38 292.559 675.581 295.203 673.985 297.399C672.388 299.594 670.492 301.29 668.297 302.488C670.093 304.932 671.864 307.228 673.611 309.373C675.357 311.518 676.729 313.464 677.727 315.21C677.228 316.957 676.305 318.304 674.958 319.252C673.661 320.15 672.189 320.599 670.542 320.599C669.445 320.599 668.497 320.474 667.698 320.225C666.9 319.975 666.202 319.626 665.603 319.177C665.004 318.728 664.455 318.179 663.956 317.53C663.458 316.882 662.984 316.183 662.535 315.435L656.248 305.332H652.282ZM656.996 295.378C658.892 295.378 660.389 294.904 661.487 293.956C662.584 292.958 663.133 291.511 663.133 289.615C663.133 287.72 662.51 286.298 661.262 285.35C660.065 284.352 658.144 283.853 655.5 283.853C654.751 283.853 654.153 283.878 653.704 283.928C653.255 283.978 652.756 284.052 652.207 284.152V295.378H656.996ZM377.231 361.724C377.779 361.474 378.628 361.2 379.775 360.901C380.973 360.551 382.17 360.377 383.367 360.377C385.463 360.377 387.209 360.701 388.606 361.35C390.003 361.948 390.851 362.846 391.151 364.044C391.699 366.089 392.198 368.01 392.647 369.806C393.146 371.553 393.62 373.249 394.069 374.895C394.518 376.492 394.942 378.089 395.342 379.685C395.791 381.282 396.215 382.953 396.614 384.699H396.988C397.437 381.656 397.836 378.762 398.185 376.018C398.535 373.224 398.859 370.505 399.158 367.861C399.458 365.166 399.757 362.522 400.056 359.928C400.356 357.283 400.655 354.614 400.954 351.92C402.8 350.872 404.771 350.348 406.867 350.348C408.713 350.348 410.309 350.748 411.656 351.546C413.003 352.344 413.677 353.691 413.677 355.587C413.677 356.685 413.552 358.256 413.303 360.302C413.103 362.298 412.804 364.543 412.405 367.037C412.056 369.532 411.631 372.151 411.133 374.895C410.634 377.64 410.11 380.259 409.561 382.754C409.012 385.248 408.438 387.518 407.84 389.564C407.291 391.56 406.767 393.106 406.268 394.204C405.52 394.902 404.297 395.476 402.601 395.925C400.905 396.374 399.158 396.599 397.362 396.599C395.017 396.599 393.022 396.299 391.375 395.701C389.779 395.052 388.806 394.154 388.456 393.006C387.808 391.011 387.109 388.641 386.361 385.897C385.613 383.153 384.814 380.134 383.966 376.841C383.268 380.084 382.544 383.252 381.796 386.346C381.047 389.439 380.374 392.058 379.775 394.204C379.027 394.902 377.904 395.476 376.407 395.925C374.911 396.374 373.264 396.599 371.468 396.599C369.223 396.599 367.177 396.299 365.331 395.701C363.535 395.052 362.363 394.154 361.814 393.006C361.365 392.108 360.866 390.786 360.317 389.04C359.818 387.244 359.294 385.223 358.745 382.978C358.197 380.683 357.623 378.213 357.024 375.569C356.475 372.925 355.951 370.28 355.453 367.636C355.003 364.992 354.579 362.422 354.18 359.928C353.781 357.383 353.482 355.063 353.282 352.968C353.981 352.319 354.954 351.72 356.201 351.172C357.448 350.623 358.795 350.348 360.242 350.348C362.138 350.348 363.685 350.772 364.882 351.621C366.13 352.419 366.903 353.791 367.202 355.737C368 360.826 368.649 365.067 369.148 368.459C369.697 371.852 370.121 374.646 370.42 376.841C370.77 378.987 371.019 380.658 371.169 381.855C371.318 383.053 371.468 384.001 371.618 384.699H371.992C372.441 382.704 372.865 380.858 373.264 379.161C373.663 377.465 374.062 375.769 374.462 374.072C374.911 372.326 375.36 370.48 375.809 368.534C376.258 366.538 376.732 364.268 377.231 361.724ZM420.883 357.608C420.883 355.462 421.506 353.766 422.754 352.519C424.001 351.271 425.697 350.648 427.843 350.648H452.539C452.889 351.197 453.188 351.92 453.437 352.818C453.737 353.716 453.886 354.664 453.886 355.662C453.886 357.558 453.462 358.905 452.614 359.703C451.816 360.501 450.743 360.901 449.396 360.901H433.605V367.861H450.444C450.793 368.409 451.093 369.133 451.342 370.031C451.641 370.879 451.791 371.802 451.791 372.8C451.791 374.696 451.392 376.043 450.594 376.841C449.795 377.64 448.723 378.039 447.376 378.039H433.605V385.897H452.839C453.188 386.446 453.487 387.169 453.737 388.067C454.036 388.965 454.186 389.913 454.186 390.911C454.186 392.807 453.762 394.179 452.914 395.027C452.115 395.825 451.043 396.225 449.696 396.225H427.843C425.697 396.225 424.001 395.601 422.754 394.354C421.506 393.106 420.883 391.41 420.883 389.265V357.608ZM474.905 386.271C475.454 386.371 476.127 386.471 476.926 386.57C477.724 386.62 478.472 386.645 479.171 386.645C480.867 386.645 482.414 386.396 483.811 385.897C485.258 385.398 486.48 384.625 487.478 383.577C488.526 382.529 489.324 381.182 489.873 379.535C490.472 377.839 490.771 375.818 490.771 373.474C490.771 368.983 489.723 365.615 487.628 363.37C485.532 361.075 482.738 359.928 479.246 359.928C478.547 359.928 477.824 359.953 477.075 360.003C476.377 360.052 475.653 360.127 474.905 360.227V386.271ZM479.096 397.197C478.248 397.197 477.275 397.172 476.177 397.123C475.08 397.073 473.932 396.973 472.735 396.823C471.587 396.674 470.415 396.474 469.217 396.225C468.07 396.025 466.997 395.726 465.999 395.326C463.255 394.279 461.883 392.458 461.883 389.863V354.914C461.883 353.866 462.158 353.068 462.706 352.519C463.305 351.92 464.103 351.446 465.101 351.097C467.247 350.398 469.517 349.949 471.912 349.75C474.306 349.5 476.452 349.375 478.348 349.375C482.239 349.375 485.757 349.849 488.9 350.797C492.093 351.745 494.812 353.217 497.057 355.213C499.352 357.159 501.124 359.628 502.371 362.622C503.618 365.615 504.242 369.158 504.242 373.249C504.242 377.24 503.643 380.733 502.446 383.726C501.248 386.67 499.527 389.165 497.282 391.21C495.087 393.206 492.442 394.703 489.349 395.701C486.256 396.698 482.838 397.197 479.096 397.197ZM524.749 386.271C525.298 386.371 525.971 386.471 526.769 386.57C527.568 386.62 528.316 386.645 529.015 386.645C530.711 386.645 532.258 386.396 533.655 385.897C535.102 385.398 536.324 384.625 537.322 383.577C538.369 382.529 539.168 381.182 539.717 379.535C540.315 377.839 540.615 375.818 540.615 373.474C540.615 368.983 539.567 365.615 537.471 363.37C535.376 361.075 532.582 359.928 529.089 359.928C528.391 359.928 527.668 359.953 526.919 360.003C526.221 360.052 525.497 360.127 524.749 360.227V386.271ZM528.94 397.197C528.092 397.197 527.119 397.172 526.021 397.123C524.923 397.073 523.776 396.973 522.578 396.823C521.431 396.674 520.258 396.474 519.061 396.225C517.914 396.025 516.841 395.726 515.843 395.326C513.099 394.279 511.727 392.458 511.727 389.863V354.914C511.727 353.866 512.001 353.068 512.55 352.519C513.149 351.92 513.947 351.446 514.945 351.097C517.09 350.398 519.36 349.949 521.755 349.75C524.15 349.5 526.295 349.375 528.191 349.375C532.083 349.375 535.6 349.849 538.744 350.797C541.937 351.745 544.656 353.217 546.901 355.213C549.196 357.159 550.967 359.628 552.215 362.622C553.462 365.615 554.086 369.158 554.086 373.249C554.086 377.24 553.487 380.733 552.289 383.726C551.092 386.67 549.371 389.165 547.126 391.21C544.93 393.206 542.286 394.703 539.193 395.701C536.099 396.698 532.682 397.197 528.94 397.197ZM574.667 395.701C574.119 395.85 573.245 396 572.048 396.15C570.901 396.299 569.753 396.374 568.605 396.374C567.458 396.374 566.435 396.274 565.537 396.075C564.689 395.925 563.965 395.626 563.367 395.177C562.768 394.728 562.319 394.104 562.02 393.306C561.72 392.508 561.571 391.46 561.571 390.163V350.648C562.119 350.548 562.993 350.423 564.19 350.274C565.387 350.074 566.535 349.974 567.633 349.974C568.78 349.974 569.778 350.074 570.626 350.274C571.524 350.423 572.273 350.723 572.871 351.172C573.47 351.621 573.919 352.244 574.218 353.043C574.518 353.841 574.667 354.889 574.667 356.186V395.701ZM625.46 394.428C624.761 395.127 623.738 395.651 622.391 396C621.094 396.399 619.522 396.599 617.676 396.599C615.83 396.599 614.084 396.324 612.438 395.775C610.791 395.227 609.444 393.905 608.396 391.809L600.987 376.692C600.239 375.145 599.565 373.698 598.967 372.351C598.368 370.954 597.719 369.357 597.021 367.561L596.572 367.636C596.771 370.33 596.871 373.074 596.871 375.868C596.921 378.662 596.946 381.406 596.946 384.101V395.701C596.397 395.85 595.549 396 594.401 396.15C593.304 396.299 592.206 396.374 591.109 396.374C590.011 396.374 589.038 396.299 588.19 396.15C587.342 396 586.643 395.701 586.094 395.252C585.546 394.803 585.121 394.204 584.822 393.455C584.523 392.657 584.373 391.634 584.373 390.387V352.968C585.072 351.97 586.144 351.221 587.591 350.723C589.038 350.224 590.585 349.974 592.231 349.974C594.077 349.974 595.823 350.274 597.47 350.872C599.166 351.421 600.513 352.718 601.511 354.764L608.995 369.881C609.743 371.428 610.417 372.9 611.016 374.297C611.614 375.644 612.263 377.215 612.961 379.012L613.336 378.937C613.136 376.243 613.011 373.548 612.961 370.854C612.912 368.16 612.887 365.466 612.887 362.772V350.648C613.435 350.498 614.259 350.348 615.356 350.199C616.504 350.049 617.626 349.974 618.724 349.974C620.919 349.974 622.591 350.373 623.738 351.172C624.886 351.92 625.46 353.517 625.46 355.961V394.428ZM676.253 388.591C676.253 390.138 675.979 391.285 675.43 392.034C674.881 392.782 674.008 393.505 672.811 394.204C672.112 394.603 671.239 395.002 670.191 395.401C669.144 395.751 667.996 396.05 666.749 396.299C665.502 396.599 664.179 396.823 662.782 396.973C661.435 397.123 660.088 397.197 658.741 397.197C655.149 397.197 651.781 396.723 648.638 395.775C645.495 394.778 642.751 393.306 640.406 391.36C638.111 389.364 636.289 386.895 634.942 383.951C633.595 381.007 632.922 377.59 632.922 373.698C632.922 369.607 633.645 366.04 635.092 362.996C636.589 359.953 638.535 357.433 640.929 355.437C643.374 353.392 646.143 351.87 649.237 350.872C652.38 349.874 655.598 349.375 658.891 349.375C663.631 349.375 667.373 350.149 670.117 351.695C672.911 353.192 674.308 355.163 674.308 357.608C674.308 358.905 673.983 360.028 673.335 360.975C672.686 361.923 671.938 362.672 671.09 363.221C669.842 362.472 668.271 361.749 666.375 361.05C664.529 360.302 662.433 359.928 660.088 359.928C655.897 359.928 652.554 361.125 650.06 363.52C647.615 365.915 646.393 369.233 646.393 373.474C646.393 375.769 646.717 377.764 647.366 379.461C648.064 381.107 648.987 382.479 650.135 383.577C651.282 384.625 652.604 385.423 654.101 385.972C655.598 386.471 657.194 386.72 658.891 386.72C659.988 386.72 660.961 386.62 661.81 386.421C662.658 386.221 663.306 385.997 663.755 385.747V378.712H655.748C655.448 378.163 655.149 377.44 654.85 376.542C654.6 375.644 654.475 374.696 654.475 373.698C654.475 371.902 654.874 370.605 655.673 369.806C656.521 369.008 657.594 368.609 658.891 368.609H671.539C673.035 368.609 674.183 369.033 674.981 369.881C675.829 370.68 676.253 371.827 676.253 373.324V388.591Z" fill="#FFB1D8"/>
<rect x="244" y="92" width="449" height="169" fill="white"/>
<rect x="240" y="335" width="449" height="69" fill="white"/>
<path d="M-11 321.162L109.227 344.716C120.357 346.897 131.717 347.678 143.041 347.042V347.042C189.757 344.417 231.852 317.987 254.514 277.052L282.537 226.434L301.458 187.165C304.978 179.859 305.582 171.486 303.146 163.75L302.7 162.332C298.455 148.852 285.388 140.153 271.313 141.438V141.438C260.112 142.461 250.42 149.657 246.2 160.083L237.863 180.68C237.632 181.251 236.941 181.472 236.422 181.142L212.485 165.909C200.705 158.412 185.18 160.896 176.326 171.694V171.694C174.106 174.401 172.422 177.506 171.362 180.843L171.1 181.668C166.756 195.353 172.024 210.258 184.003 218.173L218.101 240.706L270.367 276.617C282.544 284.984 295.947 291.408 310.096 295.66L347.887 307.018C376.708 315.68 407.947 307.243 428.488 285.249V285.249C437.61 275.483 444.109 263.565 447.38 250.607L465.036 180.662C478.722 126.443 521.036 84.0944 575.244 70.3639V70.3639M575.244 70.3639V70.3639C595.587 62.6788 618.565 68.9784 632.145 85.9637L632.887 86.8913C635.937 90.7063 638.347 94.9912 640.024 99.5788L641.403 103.351C652.947 134.939 625.297 166.919 592.373 160.058V160.058C581.393 157.77 571.746 151.272 565.5 141.956L563.871 139.527C551.12 120.509 552.9 95.2635 568.192 78.2219L575.244 70.3639ZM575.244 70.3639V70.3639C604.293 26.1917 642.57 -11.1607 687.439 -39.1216L706.5 -51" stroke="#001AFF" stroke-width="36.8306" stroke-linecap="round"/>
</g>
<defs>
<clipPath id="clip0_930_1140">
<rect width="1280" height="3817" fill="white" transform="translate(0 -1361)"/>
</clipPath>
</defs>
</svg>
