<svg width="581" height="596" viewBox="0 0 581 596" fill="none" xmlns="http://www.w3.org/2000/svg">
<g clip-path="url(#clip0_930_1140)">
<rect width="1280" height="3817" transform="translate(-699 -765)" fill="white"/>
<rect x="-398.516" y="28.7578" width="427.485" height="3.58228" fill="#FFC9E4"/>
<path d="M-18.6498 94.8301L-54.9497 31.9569H17.65L-18.6498 94.8301Z" fill="#001AFF"/>
<rect x="-396.711" y="129.754" width="428.679" height="3.59228" fill="#FFC9E4"/>
<rect width="63" height="190" fill="white"/>
<path d="M50.5187 124.995C51.3669 124.496 52.6391 124.022 54.3355 123.573C56.0817 123.124 57.828 122.899 59.5742 122.899C62.0688 122.899 64.2641 123.274 66.16 124.022C68.1058 124.72 69.3531 125.843 69.9019 127.39C70.8 129.984 71.7729 133.003 72.8207 136.445C73.8684 139.888 74.9161 143.455 75.9639 147.147C77.0116 150.789 78.0344 154.406 79.0323 157.999C80.0301 161.541 80.9032 164.684 81.6516 167.428C81.0529 168.127 80.1548 168.676 78.9574 169.075C77.76 169.524 76.3381 169.748 74.6916 169.748C73.4942 169.748 72.4714 169.649 71.6232 169.449C70.825 169.249 70.1514 168.95 69.6026 168.551C69.1037 168.152 68.6796 167.628 68.3303 166.979C68.031 166.331 67.7566 165.582 67.5071 164.734L66.16 159.57H52.6142C52.2151 161.067 51.8159 162.614 51.4168 164.21C51.0176 165.807 50.6185 167.354 50.2194 168.85C49.5209 169.1 48.7725 169.299 47.9742 169.449C47.2258 169.649 46.3028 169.748 45.2052 169.748C42.6606 169.748 40.7647 169.324 39.5174 168.476C38.32 167.578 37.7213 166.356 37.7213 164.809C37.7213 164.111 37.8211 163.412 38.0206 162.714C38.2202 162.015 38.4447 161.192 38.6942 160.244C39.0434 158.897 39.5174 157.225 40.1161 155.23C40.7647 153.234 41.4632 151.089 42.2116 148.794C42.96 146.449 43.7583 144.054 44.6065 141.609C45.4546 139.164 46.2529 136.869 47.0013 134.724C47.7497 132.529 48.4232 130.583 49.0219 128.886C49.6705 127.19 50.1695 125.893 50.5187 124.995ZM59.4994 134.649C58.8009 136.745 58.0026 139.089 57.1045 141.684C56.2563 144.228 55.483 146.823 54.7845 149.467H64.0645C63.366 146.773 62.6426 144.154 61.8942 141.609C61.1957 139.015 60.5471 136.695 59.9484 134.649H59.4994ZM128.871 167.428C128.173 168.127 127.15 168.651 125.803 169C124.506 169.399 122.934 169.599 121.088 169.599C119.242 169.599 117.496 169.324 115.849 168.775C114.203 168.227 112.856 166.905 111.808 164.809L104.399 149.692C103.651 148.145 102.977 146.698 102.378 145.351C101.78 143.954 101.131 142.357 100.433 140.561L99.9836 140.636C100.183 143.33 100.283 146.074 100.283 148.868C100.333 151.662 100.358 154.406 100.358 157.101V168.701C99.809 168.85 98.9608 169 97.8133 169.15C96.7156 169.299 95.618 169.374 94.5204 169.374C93.4227 169.374 92.4498 169.299 91.6017 169.15C90.7535 169 90.055 168.701 89.5062 168.252C88.9574 167.803 88.5333 167.204 88.2339 166.455C87.9346 165.657 87.7849 164.634 87.7849 163.387V125.968C88.4834 124.97 89.5561 124.221 91.003 123.723C92.4498 123.224 93.9965 122.974 95.643 122.974C97.489 122.974 99.2352 123.274 100.882 123.872C102.578 124.421 103.925 125.718 104.923 127.764L112.407 142.881C113.155 144.428 113.829 145.9 114.427 147.297C115.026 148.644 115.675 150.215 116.373 152.012L116.747 151.937C116.548 149.243 116.423 146.548 116.373 143.854C116.323 141.16 116.298 138.466 116.298 135.772V123.648C116.847 123.498 117.67 123.348 118.768 123.199C119.916 123.049 121.038 122.974 122.136 122.974C124.331 122.974 126.003 123.373 127.15 124.172C128.298 124.92 128.871 126.517 128.871 128.961V167.428ZM151.601 159.271C152.15 159.371 152.823 159.471 153.621 159.57C154.42 159.62 155.168 159.645 155.866 159.645C157.563 159.645 159.11 159.396 160.506 158.897C161.953 158.398 163.176 157.625 164.174 156.577C165.221 155.529 166.02 154.182 166.568 152.535C167.167 150.839 167.466 148.818 167.466 146.474C167.466 141.983 166.419 138.615 164.323 136.37C162.228 134.075 159.434 132.928 155.941 132.928C155.243 132.928 154.519 132.953 153.771 133.003C153.073 133.052 152.349 133.127 151.601 133.227V159.271ZM155.792 170.197C154.943 170.197 153.971 170.172 152.873 170.123C151.775 170.073 150.628 169.973 149.43 169.823C148.283 169.674 147.11 169.474 145.913 169.225C144.765 169.025 143.693 168.726 142.695 168.326C139.951 167.279 138.579 165.458 138.579 162.863V127.914C138.579 126.866 138.853 126.068 139.402 125.519C140.001 124.92 140.799 124.446 141.797 124.097C143.942 123.398 146.212 122.949 148.607 122.75C151.002 122.5 153.147 122.375 155.043 122.375C158.935 122.375 162.452 122.849 165.596 123.797C168.789 124.745 171.508 126.217 173.753 128.213C176.048 130.159 177.819 132.628 179.066 135.622C180.314 138.615 180.937 142.158 180.937 146.249C180.937 150.24 180.339 153.733 179.141 156.726C177.944 159.67 176.223 162.165 173.977 164.21C171.782 166.206 169.138 167.703 166.045 168.701C162.951 169.698 159.534 170.197 155.792 170.197ZM201.309 134.125C200.96 133.576 200.636 132.828 200.336 131.88C200.037 130.932 199.887 129.934 199.887 128.886C199.887 126.941 200.312 125.544 201.16 124.695C202.058 123.847 203.205 123.423 204.602 123.423H237.232C237.581 123.972 237.906 124.72 238.205 125.668C238.504 126.616 238.654 127.614 238.654 128.662C238.654 130.608 238.205 132.005 237.307 132.853C236.459 133.701 235.336 134.125 233.939 134.125H225.632V168.701C225.083 168.85 224.21 169 223.013 169.15C221.865 169.299 220.718 169.374 219.57 169.374C218.422 169.374 217.4 169.274 216.502 169.075C215.653 168.925 214.93 168.626 214.331 168.177C213.733 167.728 213.284 167.104 212.984 166.306C212.685 165.508 212.535 164.46 212.535 163.163V134.125H201.309ZM285.553 168.701C285.004 168.85 284.131 169 282.933 169.15C281.786 169.299 280.638 169.374 279.491 169.374C278.343 169.374 277.32 169.274 276.422 169.075C275.574 168.925 274.851 168.626 274.252 168.177C273.653 167.728 273.204 167.104 272.905 166.306C272.606 165.508 272.456 164.46 272.456 163.163V151.488H258.087V168.701C257.538 168.85 256.665 169 255.467 169.15C254.32 169.299 253.172 169.374 252.025 169.374C250.877 169.374 249.855 169.274 248.957 169.075C248.108 168.925 247.385 168.626 246.786 168.177C246.187 167.728 245.738 167.104 245.439 166.306C245.14 165.508 244.99 164.46 244.99 163.163V123.648C245.539 123.548 246.412 123.423 247.609 123.274C248.807 123.074 249.954 122.974 251.052 122.974C252.2 122.974 253.197 123.074 254.046 123.274C254.944 123.423 255.692 123.723 256.291 124.172C256.889 124.621 257.338 125.244 257.638 126.043C257.937 126.841 258.087 127.889 258.087 129.186V141.16H272.456V123.648C273.005 123.548 273.878 123.423 275.075 123.274C276.273 123.074 277.42 122.974 278.518 122.974C279.665 122.974 280.663 123.074 281.511 123.274C282.409 123.423 283.158 123.723 283.757 124.172C284.355 124.621 284.804 125.244 285.104 126.043C285.403 126.841 285.553 127.889 285.553 129.186V168.701ZM295.272 130.608C295.272 128.462 295.896 126.766 297.143 125.519C298.391 124.271 300.087 123.648 302.232 123.648H326.929C327.278 124.197 327.578 124.92 327.827 125.818C328.127 126.716 328.276 127.664 328.276 128.662C328.276 130.558 327.852 131.905 327.004 132.703C326.206 133.501 325.133 133.901 323.786 133.901H307.995V140.861H324.834C325.183 141.409 325.482 142.133 325.732 143.031C326.031 143.879 326.181 144.802 326.181 145.8C326.181 147.696 325.782 149.043 324.983 149.841C324.185 150.64 323.112 151.039 321.765 151.039H307.995V158.897H327.228C327.578 159.446 327.877 160.169 328.127 161.067C328.426 161.965 328.576 162.913 328.576 163.911C328.576 165.807 328.151 167.179 327.303 168.027C326.505 168.825 325.432 169.225 324.085 169.225H302.232C300.087 169.225 298.391 168.601 297.143 167.354C295.896 166.106 295.272 164.41 295.272 162.265V130.608ZM360.364 168.701C359.815 168.85 358.967 169 357.819 169.15C356.672 169.299 355.549 169.374 354.452 169.374C352.157 169.374 350.435 169 349.288 168.252C348.14 167.453 347.566 165.807 347.566 163.312V153.209C346.319 151.363 344.972 149.317 343.525 147.072C342.078 144.827 340.656 142.532 339.259 140.187C337.862 137.842 336.565 135.547 335.368 133.302C334.17 131.007 333.197 128.911 332.449 127.015C333.098 126.117 333.971 125.294 335.068 124.546C336.216 123.797 337.613 123.423 339.259 123.423C341.205 123.423 342.777 123.822 343.974 124.621C345.222 125.419 346.394 126.916 347.492 129.111L353.703 141.609H354.152C354.851 140.062 355.449 138.665 355.948 137.418C356.497 136.121 357.021 134.849 357.52 133.601C358.019 132.304 358.543 130.982 359.092 129.635C359.64 128.238 360.264 126.641 360.963 124.845C361.861 124.396 362.859 124.047 363.956 123.797C365.054 123.548 366.102 123.423 367.099 123.423C368.846 123.423 370.317 123.897 371.515 124.845C372.762 125.743 373.386 127.115 373.386 128.961C373.386 129.56 373.261 130.283 373.012 131.132C372.762 131.98 372.188 133.277 371.29 135.023C370.392 136.72 369.07 139.04 367.324 141.983C365.628 144.927 363.308 148.769 360.364 153.508V168.701ZM47.8245 245.225C45.6791 245.225 43.9828 244.601 42.7355 243.354C41.4882 242.106 40.8645 240.41 40.8645 238.265V199.573C41.4133 199.473 42.2865 199.348 43.4839 199.199C44.6813 198.999 45.8288 198.899 46.9265 198.899C48.074 198.899 49.0718 198.999 49.92 199.199C50.8181 199.348 51.5665 199.648 52.1652 200.097C52.7639 200.546 53.2129 201.169 53.5123 201.968C53.8116 202.766 53.9613 203.814 53.9613 205.111V234.672H71.0994C71.4486 235.221 71.7729 235.969 72.0723 236.917C72.3716 237.815 72.5213 238.763 72.5213 239.761C72.5213 241.757 72.0972 243.179 71.249 244.027C70.4009 244.825 69.2783 245.225 67.8813 245.225H47.8245ZM92.3308 244.701C91.7819 244.85 90.9088 245 89.7114 245.15C88.5639 245.299 87.4163 245.374 86.2688 245.374C85.1213 245.374 84.0985 245.274 83.2004 245.075C82.3523 244.925 81.6288 244.626 81.0301 244.177C80.4314 243.728 79.9824 243.104 79.683 242.306C79.3837 241.508 79.234 240.46 79.234 239.163V199.648C79.7828 199.548 80.6559 199.423 81.8533 199.274C83.0508 199.074 84.1983 198.974 85.2959 198.974C86.4434 198.974 87.4413 199.074 88.2895 199.274C89.1875 199.423 89.9359 199.723 90.5346 200.172C91.1333 200.621 91.5824 201.244 91.8817 202.043C92.1811 202.841 92.3308 203.889 92.3308 205.186V244.701ZM129.203 243.503C128.504 244.102 127.407 244.626 125.91 245.075C124.463 245.524 122.867 245.748 121.12 245.748C119.025 245.748 117.229 245.449 115.732 244.85C114.235 244.202 113.212 243.329 112.663 242.231C112.115 241.083 111.441 239.612 110.643 237.815C109.845 235.969 108.996 233.924 108.098 231.679C107.25 229.434 106.352 227.064 105.404 224.569C104.506 222.025 103.633 219.455 102.785 216.861C101.937 214.266 101.138 211.722 100.39 209.227C99.6416 206.732 98.993 204.388 98.4441 202.192C99.1426 201.494 100.14 200.87 101.438 200.321C102.785 199.723 104.207 199.423 105.703 199.423C107.55 199.423 109.046 199.822 110.194 200.621C111.391 201.369 112.264 202.791 112.813 204.886C114.16 209.776 115.507 214.466 116.854 218.956C118.251 223.397 119.698 228.037 121.195 232.876H121.644C122.991 228.186 124.363 223.072 125.76 217.534C127.207 211.996 128.579 206.483 129.876 200.995C130.774 200.546 131.722 200.172 132.72 199.872C133.768 199.573 134.94 199.423 136.238 199.423C138.084 199.423 139.655 199.847 140.953 200.695C142.25 201.494 142.898 202.841 142.898 204.737C142.898 205.834 142.624 207.431 142.075 209.526C141.576 211.622 140.903 213.992 140.054 216.636C139.256 219.231 138.333 221.95 137.285 224.794C136.288 227.637 135.265 230.332 134.217 232.876C133.219 235.371 132.271 237.591 131.373 239.537C130.475 241.433 129.752 242.755 129.203 243.503ZM149.468 206.608C149.468 204.462 150.092 202.766 151.339 201.519C152.587 200.271 154.283 199.648 156.428 199.648H181.125C181.474 200.197 181.774 200.92 182.023 201.818C182.323 202.716 182.472 203.664 182.472 204.662C182.472 206.558 182.048 207.905 181.2 208.703C180.402 209.501 179.329 209.901 177.982 209.901H162.191V216.861H179.03C179.379 217.409 179.678 218.133 179.928 219.031C180.227 219.879 180.377 220.802 180.377 221.8C180.377 223.696 179.978 225.043 179.179 225.841C178.381 226.64 177.308 227.039 175.961 227.039H162.191V234.897H181.425C181.774 235.446 182.073 236.169 182.323 237.067C182.622 237.965 182.772 238.913 182.772 239.911C182.772 241.807 182.348 243.179 181.499 244.027C180.701 244.825 179.628 245.225 178.281 245.225H156.428C154.283 245.225 152.587 244.601 151.339 243.354C150.092 242.106 149.468 240.41 149.468 238.265V206.608ZM203.491 235.271C204.04 235.371 204.713 235.471 205.511 235.57C206.31 235.62 207.058 235.645 207.757 235.645C209.453 235.645 211 235.396 212.397 234.897C213.844 234.398 215.066 233.625 216.064 232.577C217.111 231.529 217.91 230.182 218.459 228.535C219.057 226.839 219.357 224.818 219.357 222.474C219.357 217.983 218.309 214.615 216.213 212.37C214.118 210.075 211.324 208.928 207.831 208.928C207.133 208.928 206.41 208.953 205.661 209.003C204.963 209.052 204.239 209.127 203.491 209.227V235.271ZM207.682 246.197C206.834 246.197 205.861 246.172 204.763 246.123C203.665 246.073 202.518 245.973 201.32 245.823C200.173 245.674 199 245.474 197.803 245.225C196.656 245.025 195.583 244.726 194.585 244.326C191.841 243.279 190.469 241.458 190.469 238.863V203.914C190.469 202.866 190.743 202.068 191.292 201.519C191.891 200.92 192.689 200.446 193.687 200.097C195.832 199.398 198.102 198.949 200.497 198.75C202.892 198.5 205.037 198.375 206.933 198.375C210.825 198.375 214.342 198.849 217.486 199.797C220.679 200.745 223.398 202.217 225.643 204.213C227.938 206.159 229.709 208.628 230.957 211.622C232.204 214.615 232.828 218.158 232.828 222.249C232.828 226.24 232.229 229.733 231.031 232.726C229.834 235.67 228.113 238.165 225.868 240.21C223.672 242.206 221.028 243.703 217.935 244.701C214.841 245.698 211.424 246.197 207.682 246.197ZM81.4271 320.701C80.8783 320.85 80.0052 321 78.8078 321.15C77.6602 321.299 76.5127 321.374 75.3652 321.374C74.2176 321.374 73.1948 321.274 72.2968 321.075C71.4486 320.925 70.7252 320.626 70.1265 320.177C69.5278 319.728 69.0787 319.104 68.7794 318.306C68.48 317.508 68.3303 316.46 68.3303 315.163V303.488H53.9613V320.701C53.4125 320.85 52.5394 321 51.3419 321.15C50.1944 321.299 49.0469 321.374 47.8994 321.374C46.7518 321.374 45.729 321.274 44.831 321.075C43.9828 320.925 43.2594 320.626 42.6606 320.177C42.0619 319.728 41.6129 319.104 41.3135 318.306C41.0142 317.508 40.8645 316.46 40.8645 315.163V275.648C41.4133 275.548 42.2865 275.423 43.4839 275.274C44.6813 275.074 45.8288 274.974 46.9265 274.974C48.074 274.974 49.0718 275.074 49.92 275.274C50.8181 275.423 51.5665 275.723 52.1652 276.172C52.7639 276.621 53.2129 277.244 53.5123 278.043C53.8116 278.841 53.9613 279.889 53.9613 281.186V293.16H68.3303V275.648C68.8791 275.548 69.7523 275.423 70.9497 275.274C72.1471 275.074 73.2946 274.974 74.3923 274.974C75.5398 274.974 76.5376 275.074 77.3858 275.274C78.2839 275.423 79.0323 275.723 79.631 276.172C80.2297 276.621 80.6787 277.244 80.9781 278.043C81.2774 278.841 81.4271 279.889 81.4271 281.186V320.701ZM100.801 276.995C101.649 276.496 102.921 276.022 104.618 275.573C106.364 275.124 108.11 274.899 109.856 274.899C112.351 274.899 114.546 275.274 116.442 276.022C118.388 276.72 119.635 277.843 120.184 279.39C121.082 281.984 122.055 285.003 123.103 288.445C124.151 291.888 125.198 295.455 126.246 299.147C127.294 302.789 128.317 306.406 129.315 309.999C130.312 313.541 131.185 316.684 131.934 319.428C131.335 320.127 130.437 320.676 129.24 321.075C128.042 321.524 126.62 321.748 124.974 321.748C123.776 321.748 122.754 321.649 121.905 321.449C121.107 321.249 120.434 320.95 119.885 320.551C119.386 320.152 118.962 319.628 118.613 318.979C118.313 318.331 118.039 317.582 117.789 316.734L116.442 311.57H102.896C102.497 313.067 102.098 314.614 101.699 316.21C101.3 317.807 100.901 319.354 100.502 320.85C99.8031 321.1 99.0547 321.299 98.2565 321.449C97.5081 321.649 96.5851 321.748 95.4874 321.748C92.9429 321.748 91.047 321.324 89.7997 320.476C88.6023 319.578 88.0036 318.356 88.0036 316.809C88.0036 316.111 88.1033 315.412 88.3029 314.714C88.5025 314.015 88.727 313.192 88.9765 312.244C89.3257 310.897 89.7997 309.225 90.3984 307.23C91.047 305.234 91.7455 303.089 92.4939 300.794C93.2423 298.449 94.0405 296.054 94.8887 293.609C95.7369 291.164 96.5352 288.869 97.2836 286.724C98.0319 284.529 98.7055 282.583 99.3042 280.886C99.9528 279.19 100.452 277.893 100.801 276.995ZM109.782 286.649C109.083 288.745 108.285 291.089 107.387 293.684C106.539 296.228 105.765 298.823 105.067 301.467H114.347C113.648 298.773 112.925 296.154 112.176 293.609C111.478 291.015 110.829 288.695 110.231 286.649H109.782ZM155.056 296.677C157.151 296.677 158.748 296.203 159.845 295.255C160.993 294.258 161.567 292.761 161.567 290.765C161.567 288.869 160.968 287.422 159.77 286.425C158.623 285.377 156.927 284.853 154.681 284.853C153.883 284.853 153.21 284.878 152.661 284.928C152.162 284.928 151.638 284.978 151.089 285.077V296.677H155.056ZM151.164 320.701C150.615 320.85 149.742 321 148.545 321.15C147.397 321.299 146.25 321.374 145.102 321.374C143.954 321.374 142.932 321.274 142.034 321.075C141.185 320.925 140.462 320.626 139.863 320.177C139.265 319.728 138.816 319.104 138.516 318.306C138.217 317.508 138.067 316.46 138.067 315.163V279.914C138.067 278.866 138.342 278.068 138.89 277.519C139.489 276.92 140.287 276.446 141.285 276.097C142.982 275.498 144.902 275.074 147.048 274.825C149.243 274.525 151.438 274.375 153.634 274.375C160.519 274.375 165.782 275.847 169.425 278.791C173.067 281.735 174.888 285.726 174.888 290.765C174.888 293.21 174.489 295.43 173.69 297.426C172.942 299.372 171.794 301.068 170.248 302.515C168.751 303.912 166.83 305.009 164.485 305.808C162.19 306.556 159.521 306.93 156.477 306.93H151.164V320.701ZM198.541 296.677C200.636 296.677 202.233 296.203 203.331 295.255C204.478 294.258 205.052 292.761 205.052 290.765C205.052 288.869 204.453 287.422 203.256 286.425C202.108 285.377 200.412 284.853 198.167 284.853C197.368 284.853 196.695 284.878 196.146 284.928C195.647 284.928 195.123 284.978 194.574 285.077V296.677H198.541ZM194.649 320.701C194.1 320.85 193.227 321 192.03 321.15C190.882 321.299 189.735 321.374 188.587 321.374C187.44 321.374 186.417 321.274 185.519 321.075C184.671 320.925 183.947 320.626 183.349 320.177C182.75 319.728 182.301 319.104 182.002 318.306C181.702 317.508 181.553 316.46 181.553 315.163V279.914C181.553 278.866 181.827 278.068 182.376 277.519C182.974 276.92 183.773 276.446 184.771 276.097C186.467 275.498 188.388 275.074 190.533 274.825C192.728 274.525 194.924 274.375 197.119 274.375C204.004 274.375 209.268 275.847 212.91 278.791C216.552 281.735 218.373 285.726 218.373 290.765C218.373 293.21 217.974 295.43 217.176 297.426C216.427 299.372 215.28 301.068 213.733 302.515C212.236 303.912 210.316 305.009 207.971 305.808C205.676 306.556 203.006 306.93 199.963 306.93H194.649V320.701ZM238.135 320.701C237.586 320.85 236.713 321 235.515 321.15C234.368 321.299 233.22 321.374 232.073 321.374C230.925 321.374 229.902 321.274 229.004 321.075C228.156 320.925 227.433 320.626 226.834 320.177C226.235 319.728 225.786 319.104 225.487 318.306C225.188 317.508 225.038 316.46 225.038 315.163V275.648C225.587 275.548 226.46 275.423 227.657 275.274C228.855 275.074 230.002 274.974 231.1 274.974C232.247 274.974 233.245 275.074 234.093 275.274C234.991 275.423 235.74 275.723 236.339 276.172C236.937 276.621 237.386 277.244 237.686 278.043C237.985 278.841 238.135 279.889 238.135 281.186V320.701ZM254.8 321.225C252.655 321.225 250.959 320.601 249.711 319.354C248.464 318.106 247.84 316.41 247.84 314.265V275.573C248.389 275.473 249.262 275.348 250.46 275.199C251.657 274.999 252.805 274.899 253.902 274.899C255.05 274.899 256.048 274.999 256.896 275.199C257.794 275.348 258.542 275.648 259.141 276.097C259.74 276.546 260.189 277.169 260.488 277.968C260.787 278.766 260.937 279.814 260.937 281.111V310.672H278.075C278.424 311.221 278.749 311.969 279.048 312.917C279.347 313.815 279.497 314.763 279.497 315.761C279.497 317.757 279.073 319.179 278.225 320.027C277.377 320.825 276.254 321.225 274.857 321.225H254.8ZM304.966 320.701C304.417 320.85 303.569 321 302.421 321.15C301.274 321.299 300.151 321.374 299.053 321.374C296.758 321.374 295.037 321 293.89 320.252C292.742 319.453 292.168 317.807 292.168 315.312V305.209C290.921 303.363 289.574 301.317 288.127 299.072C286.68 296.827 285.258 294.532 283.861 292.187C282.464 289.842 281.167 287.547 279.97 285.302C278.772 283.007 277.799 280.911 277.051 279.015C277.699 278.117 278.573 277.294 279.67 276.546C280.818 275.797 282.215 275.423 283.861 275.423C285.807 275.423 287.379 275.822 288.576 276.621C289.823 277.419 290.996 278.916 292.093 281.111L298.305 293.609H298.754C299.453 292.062 300.051 290.665 300.55 289.418C301.099 288.121 301.623 286.849 302.122 285.601C302.621 284.304 303.145 282.982 303.693 281.635C304.242 280.238 304.866 278.641 305.564 276.845C306.462 276.396 307.46 276.047 308.558 275.797C309.656 275.548 310.703 275.423 311.701 275.423C313.447 275.423 314.919 275.897 316.117 276.845C317.364 277.743 317.988 279.115 317.988 280.961C317.988 281.56 317.863 282.283 317.613 283.132C317.364 283.98 316.79 285.277 315.892 287.023C314.994 288.72 313.672 291.04 311.926 293.983C310.229 296.927 307.909 300.769 304.966 305.508V320.701ZM40.8645 358.608C40.8645 356.462 41.4882 354.766 42.7355 353.519C43.9828 352.271 45.6791 351.648 47.8245 351.648H72.5213C72.8705 352.197 73.1699 352.92 73.4194 353.818C73.7187 354.716 73.8684 355.664 73.8684 356.662C73.8684 358.558 73.4443 359.905 72.5961 360.703C71.7979 361.501 70.7252 361.901 69.3781 361.901H53.5871V368.861H70.4258C70.7751 369.409 71.0744 370.133 71.3239 371.031C71.6232 371.879 71.7729 372.802 71.7729 373.8C71.7729 375.696 71.3738 377.043 70.5755 377.841C69.7772 378.64 68.7045 379.039 67.3574 379.039H53.5871V386.897H72.8207C73.1699 387.446 73.4693 388.169 73.7187 389.067C74.0181 389.965 74.1678 390.913 74.1678 391.911C74.1678 393.807 73.7437 395.179 72.8955 396.027C72.0972 396.825 71.0245 397.225 69.6774 397.225H47.8245C45.6791 397.225 43.9828 396.601 42.7355 395.354C41.4882 394.106 40.8645 392.41 40.8645 390.265V358.608ZM109.031 395.503C108.333 396.102 107.235 396.626 105.739 397.075C104.292 397.524 102.695 397.748 100.949 397.748C98.8534 397.748 97.0573 397.449 95.5605 396.85C94.0637 396.202 93.0409 395.329 92.4921 394.231C91.9433 393.083 91.2698 391.612 90.4715 389.815C89.6732 387.969 88.825 385.924 87.927 383.679C87.0788 381.434 86.1807 379.064 85.2328 376.569C84.3347 374.025 83.4616 371.455 82.6134 368.861C81.7652 366.266 80.967 363.722 80.2186 361.227C79.4702 358.732 78.8216 356.388 78.2728 354.192C78.9713 353.494 79.9691 352.87 81.2663 352.321C82.6134 351.723 84.0354 351.423 85.5321 351.423C87.3781 351.423 88.8749 351.822 90.0224 352.621C91.2199 353.369 92.093 354.791 92.6418 356.886C93.9889 361.776 95.336 366.466 96.6831 370.956C98.0801 375.397 99.527 380.037 101.024 384.876H101.473C102.82 380.186 104.192 375.072 105.589 369.534C107.036 363.996 108.408 358.483 109.705 352.995C110.603 352.546 111.551 352.172 112.549 351.872C113.597 351.573 114.769 351.423 116.066 351.423C117.912 351.423 119.484 351.847 120.781 352.695C122.078 353.494 122.727 354.841 122.727 356.737C122.727 357.834 122.453 359.431 121.904 361.526C121.405 363.622 120.731 365.992 119.883 368.636C119.085 371.231 118.162 373.95 117.114 376.794C116.116 379.637 115.093 382.332 114.046 384.876C113.048 387.371 112.1 389.591 111.202 391.537C110.304 393.433 109.58 394.755 109.031 395.503ZM129.297 358.608C129.297 356.462 129.921 354.766 131.168 353.519C132.415 352.271 134.112 351.648 136.257 351.648H160.954C161.303 352.197 161.602 352.92 161.852 353.818C162.151 354.716 162.301 355.664 162.301 356.662C162.301 358.558 161.877 359.905 161.029 360.703C160.23 361.501 159.158 361.901 157.811 361.901H142.02V368.861H158.858C159.208 369.409 159.507 370.133 159.756 371.031C160.056 371.879 160.205 372.802 160.205 373.8C160.205 375.696 159.806 377.043 159.008 377.841C158.21 378.64 157.137 379.039 155.79 379.039H142.02V386.897H161.253C161.602 387.446 161.902 388.169 162.151 389.067C162.451 389.965 162.6 390.913 162.6 391.911C162.6 393.807 162.176 395.179 161.328 396.027C160.53 396.825 159.457 397.225 158.11 397.225H136.257C134.112 397.225 132.415 396.601 131.168 395.354C129.921 394.106 129.297 392.41 129.297 390.265V358.608ZM183.319 382.332V396.701C182.771 396.85 181.898 397 180.7 397.15C179.553 397.299 178.405 397.374 177.258 397.374C176.11 397.374 175.087 397.274 174.189 397.075C173.341 396.925 172.618 396.626 172.019 396.177C171.47 395.728 171.046 395.104 170.747 394.306C170.447 393.508 170.298 392.46 170.298 391.163V355.914C170.298 354.866 170.572 354.068 171.121 353.519C171.719 352.92 172.518 352.446 173.516 352.097C175.212 351.498 177.183 351.074 179.428 350.825C181.673 350.525 184.068 350.375 186.612 350.375C193.498 350.375 198.686 351.822 202.179 354.716C205.671 357.61 207.418 361.526 207.418 366.466C207.418 369.559 206.619 372.203 205.023 374.399C203.426 376.594 201.53 378.29 199.335 379.488C201.131 381.932 202.902 384.228 204.648 386.373C206.395 388.518 207.767 390.464 208.765 392.21C208.266 393.957 207.343 395.304 205.996 396.252C204.698 397.15 203.227 397.599 201.58 397.599C200.482 397.599 199.534 397.474 198.736 397.225C197.938 396.975 197.239 396.626 196.641 396.177C196.042 395.728 195.493 395.179 194.994 394.53C194.495 393.882 194.021 393.183 193.572 392.435L187.286 382.332H183.319ZM188.034 372.378C189.93 372.378 191.427 371.904 192.525 370.956C193.622 369.958 194.171 368.511 194.171 366.615C194.171 364.72 193.547 363.298 192.3 362.35C191.103 361.352 189.182 360.853 186.538 360.853C185.789 360.853 185.19 360.878 184.741 360.928C184.292 360.978 183.793 361.052 183.245 361.152V372.378H188.034ZM240.539 352.995C241.387 352.496 242.659 352.022 244.356 351.573C246.102 351.124 247.848 350.899 249.594 350.899C252.089 350.899 254.284 351.274 256.18 352.022C258.126 352.72 259.373 353.843 259.922 355.39C260.82 357.984 261.793 361.003 262.841 364.445C263.889 367.888 264.936 371.455 265.984 375.147C267.032 378.789 268.055 382.406 269.052 385.999C270.05 389.541 270.923 392.684 271.672 395.428C271.073 396.127 270.175 396.676 268.978 397.075C267.78 397.524 266.358 397.748 264.712 397.748C263.514 397.748 262.492 397.649 261.643 397.449C260.845 397.249 260.172 396.95 259.623 396.551C259.124 396.152 258.7 395.628 258.351 394.979C258.051 394.331 257.777 393.582 257.527 392.734L256.18 387.57H242.634C242.235 389.067 241.836 390.614 241.437 392.21C241.038 393.807 240.639 395.354 240.24 396.85C239.541 397.1 238.793 397.299 237.994 397.449C237.246 397.649 236.323 397.748 235.225 397.748C232.681 397.748 230.785 397.324 229.538 396.476C228.34 395.578 227.741 394.356 227.741 392.809C227.741 392.111 227.841 391.412 228.041 390.714C228.24 390.015 228.465 389.192 228.714 388.244C229.064 386.897 229.538 385.225 230.136 383.23C230.785 381.234 231.483 379.089 232.232 376.794C232.98 374.449 233.778 372.054 234.627 369.609C235.475 367.164 236.273 364.869 237.021 362.724C237.77 360.529 238.443 358.583 239.042 356.886C239.691 355.19 240.19 353.893 240.539 352.995ZM249.52 362.649C248.821 364.745 248.023 367.089 247.125 369.684C246.277 372.228 245.503 374.823 244.805 377.467H254.085C253.386 374.773 252.663 372.154 251.914 369.609C251.216 367.015 250.567 364.695 249.969 362.649H249.52ZM309.686 351.648C310.036 352.197 310.335 352.945 310.584 353.893C310.884 354.791 311.033 355.739 311.033 356.737C311.033 358.683 310.609 360.08 309.761 360.928C308.963 361.726 307.865 362.125 306.468 362.125H290.752V370.582H307.142C307.541 371.131 307.865 371.854 308.115 372.752C308.414 373.65 308.564 374.598 308.564 375.596C308.564 377.492 308.14 378.864 307.292 379.712C306.493 380.511 305.396 380.91 303.999 380.91H290.902V396.701C290.353 396.85 289.48 397 288.283 397.15C287.135 397.299 285.987 397.374 284.84 397.374C283.692 397.374 282.67 397.274 281.772 397.075C280.923 396.925 280.2 396.626 279.601 396.177C279.003 395.728 278.553 395.104 278.254 394.306C277.955 393.508 277.805 392.46 277.805 391.163V358.608C277.805 356.462 278.429 354.766 279.676 353.519C280.923 352.271 282.62 351.648 284.765 351.648H309.686ZM316.491 362.125C316.142 361.576 315.817 360.828 315.518 359.88C315.219 358.932 315.069 357.934 315.069 356.886C315.069 354.941 315.493 353.544 316.341 352.695C317.239 351.847 318.387 351.423 319.784 351.423H352.413C352.763 351.972 353.087 352.72 353.386 353.668C353.686 354.616 353.835 355.614 353.835 356.662C353.835 358.608 353.386 360.005 352.488 360.853C351.64 361.701 350.518 362.125 349.121 362.125H340.813V396.701C340.265 396.85 339.392 397 338.194 397.15C337.047 397.299 335.899 397.374 334.752 397.374C333.604 397.374 332.581 397.274 331.683 397.075C330.835 396.925 330.112 396.626 329.513 396.177C328.914 395.728 328.465 395.104 328.166 394.306C327.866 393.508 327.717 392.46 327.717 391.163V362.125H316.491ZM360.172 358.608C360.172 356.462 360.795 354.766 362.042 353.519C363.29 352.271 364.986 351.648 367.132 351.648H391.828C392.178 352.197 392.477 352.92 392.726 353.818C393.026 354.716 393.175 355.664 393.175 356.662C393.175 358.558 392.751 359.905 391.903 360.703C391.105 361.501 390.032 361.901 388.685 361.901H372.894V368.861H389.733C390.082 369.409 390.381 370.133 390.631 371.031C390.93 371.879 391.08 372.802 391.08 373.8C391.08 375.696 390.681 377.043 389.882 377.841C389.084 378.64 388.012 379.039 386.664 379.039H372.894V386.897H392.128C392.477 387.446 392.776 388.169 393.026 389.067C393.325 389.965 393.475 390.913 393.475 391.911C393.475 393.807 393.051 395.179 392.202 396.027C391.404 396.825 390.332 397.225 388.984 397.225H367.132C364.986 397.225 363.29 396.601 362.042 395.354C360.795 394.106 360.172 392.41 360.172 390.265V358.608ZM414.194 382.332V396.701C413.645 396.85 412.772 397 411.575 397.15C410.427 397.299 409.28 397.374 408.132 397.374C406.985 397.374 405.962 397.274 405.064 397.075C404.215 396.925 403.492 396.626 402.893 396.177C402.345 395.728 401.92 395.104 401.621 394.306C401.322 393.508 401.172 392.46 401.172 391.163V355.914C401.172 354.866 401.446 354.068 401.995 353.519C402.594 352.92 403.392 352.446 404.39 352.097C406.086 351.498 408.057 351.074 410.302 350.825C412.548 350.525 414.942 350.375 417.487 350.375C424.372 350.375 429.561 351.822 433.053 354.716C436.546 357.61 438.292 361.526 438.292 366.466C438.292 369.559 437.494 372.203 435.897 374.399C434.301 376.594 432.405 378.29 430.209 379.488C432.006 381.932 433.777 384.228 435.523 386.373C437.269 388.518 438.641 390.464 439.639 392.21C439.14 393.957 438.217 395.304 436.87 396.252C435.573 397.15 434.101 397.599 432.455 397.599C431.357 397.599 430.409 397.474 429.611 397.225C428.812 396.975 428.114 396.626 427.515 396.177C426.917 395.728 426.368 395.179 425.869 394.53C425.37 393.882 424.896 393.183 424.447 392.435L418.16 382.332H414.194ZM418.909 372.378C420.805 372.378 422.302 371.904 423.399 370.956C424.497 369.958 425.046 368.511 425.046 366.615C425.046 364.72 424.422 363.298 423.175 362.35C421.977 361.352 420.056 360.853 417.412 360.853C416.664 360.853 416.065 360.878 415.616 360.928C415.167 360.978 414.668 361.052 414.119 361.152V372.378H418.909ZM61.8194 438.724C62.3682 438.474 63.2163 438.2 64.3639 437.901C65.5613 437.551 66.7587 437.377 67.9561 437.377C70.0516 437.377 71.7979 437.701 73.1948 438.35C74.5918 438.948 75.44 439.846 75.7394 441.044C76.2882 443.089 76.7871 445.01 77.2361 446.806C77.7351 448.553 78.209 450.249 78.6581 451.895C79.1071 453.492 79.5312 455.089 79.9303 456.685C80.3794 458.282 80.8034 459.953 81.2026 461.699H81.5768C82.0258 458.656 82.425 455.762 82.7742 453.018C83.1235 450.224 83.4478 447.505 83.7471 444.861C84.0465 442.166 84.3458 439.522 84.6452 436.928C84.9445 434.283 85.2439 431.614 85.5432 428.92C87.3893 427.872 89.36 427.348 91.4555 427.348C93.3015 427.348 94.8981 427.748 96.2452 428.546C97.5923 429.344 98.2658 430.691 98.2658 432.587C98.2658 433.685 98.1411 435.256 97.8916 437.302C97.6921 439.298 97.3927 441.543 96.9936 444.037C96.6443 446.532 96.2202 449.151 95.7213 451.895C95.2224 454.64 94.6985 457.259 94.1497 459.754C93.6009 462.248 93.0271 464.518 92.4284 466.564C91.8796 468.56 91.3557 470.106 90.8568 471.204C90.1084 471.902 88.886 472.476 87.1897 472.925C85.4933 473.374 83.7471 473.599 81.951 473.599C79.606 473.599 77.6103 473.299 75.9639 472.701C74.3673 472.052 73.3944 471.154 73.0452 470.006C72.3966 468.011 71.6981 465.641 70.9497 462.897C70.2013 460.153 69.403 457.134 68.5548 453.841C67.8564 457.084 67.1329 460.252 66.3845 463.346C65.6361 466.439 64.9626 469.058 64.3639 471.204C63.6155 471.902 62.4929 472.476 60.9961 472.925C59.4994 473.374 57.8529 473.599 56.0568 473.599C53.8116 473.599 51.766 473.299 49.92 472.701C48.1239 472.052 46.9514 471.154 46.4026 470.006C45.9536 469.108 45.4546 467.786 44.9058 466.04C44.4069 464.244 43.883 462.223 43.3342 459.978C42.7854 457.683 42.2116 455.213 41.6129 452.569C41.0641 449.925 40.5402 447.28 40.0413 444.636C39.5923 441.992 39.1682 439.422 38.769 436.928C38.3699 434.383 38.0705 432.063 37.871 429.968C38.5695 429.319 39.5424 428.72 40.7897 428.172C42.037 427.623 43.3841 427.348 44.831 427.348C46.7269 427.348 48.2736 427.772 49.471 428.621C50.7183 429.419 51.4916 430.791 51.791 432.737C52.5893 437.826 53.2379 442.067 53.7368 445.459C54.2856 448.852 54.7097 451.646 55.009 453.841C55.3583 455.987 55.6077 457.658 55.7574 458.855C55.9071 460.053 56.0568 461.001 56.2065 461.699H56.5806C57.0297 459.704 57.4538 457.858 57.8529 456.161C58.252 454.465 58.6512 452.769 59.0503 451.072C59.4994 449.326 59.9484 447.48 60.3974 445.534C60.8465 443.538 61.3204 441.268 61.8194 438.724ZM105.471 434.608C105.471 432.462 106.095 430.766 107.342 429.519C108.59 428.271 110.286 427.648 112.431 427.648H137.128C137.477 428.197 137.777 428.92 138.026 429.818C138.326 430.716 138.475 431.664 138.475 432.662C138.475 434.558 138.051 435.905 137.203 436.703C136.405 437.501 135.332 437.901 133.985 437.901H118.194V444.861H135.033C135.382 445.409 135.681 446.133 135.931 447.031C136.23 447.879 136.38 448.802 136.38 449.8C136.38 451.696 135.981 453.043 135.182 453.841C134.384 454.64 133.311 455.039 131.964 455.039H118.194V462.897H137.428C137.777 463.446 138.076 464.169 138.326 465.067C138.625 465.965 138.775 466.913 138.775 467.911C138.775 469.807 138.351 471.179 137.502 472.027C136.704 472.825 135.631 473.225 134.284 473.225H112.431C110.286 473.225 108.59 472.601 107.342 471.354C106.095 470.106 105.471 468.41 105.471 466.265V434.608ZM159.494 463.271C160.043 463.371 160.716 463.471 161.514 463.57C162.313 463.62 163.061 463.645 163.76 463.645C165.456 463.645 167.003 463.396 168.4 462.897C169.847 462.398 171.069 461.625 172.067 460.577C173.114 459.529 173.913 458.182 174.462 456.535C175.06 454.839 175.36 452.818 175.36 450.474C175.36 445.983 174.312 442.615 172.216 440.37C170.121 438.075 167.327 436.928 163.834 436.928C163.136 436.928 162.413 436.953 161.664 437.003C160.966 437.052 160.242 437.127 159.494 437.227V463.271ZM163.685 474.197C162.837 474.197 161.864 474.172 160.766 474.123C159.668 474.073 158.521 473.973 157.324 473.823C156.176 473.674 155.004 473.474 153.806 473.225C152.659 473.025 151.586 472.726 150.588 472.326C147.844 471.279 146.472 469.458 146.472 466.863V431.914C146.472 430.866 146.746 430.068 147.295 429.519C147.894 428.92 148.692 428.446 149.69 428.097C151.835 427.398 154.105 426.949 156.5 426.75C158.895 426.5 161.04 426.375 162.936 426.375C166.828 426.375 170.345 426.849 173.489 427.797C176.682 428.745 179.401 430.217 181.646 432.213C183.941 434.159 185.712 436.628 186.96 439.622C188.207 442.615 188.831 446.158 188.831 450.249C188.831 454.24 188.232 457.733 187.034 460.726C185.837 463.67 184.116 466.165 181.871 468.21C179.675 470.206 177.031 471.703 173.938 472.701C170.844 473.698 167.427 474.197 163.685 474.197ZM209.338 463.271C209.886 463.371 210.56 463.471 211.358 463.57C212.157 463.62 212.905 463.645 213.603 463.645C215.3 463.645 216.846 463.396 218.243 462.897C219.69 462.398 220.913 461.625 221.911 460.577C222.958 459.529 223.757 458.182 224.305 456.535C224.904 454.839 225.203 452.818 225.203 450.474C225.203 445.983 224.156 442.615 222.06 440.37C219.965 438.075 217.171 436.928 213.678 436.928C212.98 436.928 212.256 436.953 211.508 437.003C210.809 437.052 210.086 437.127 209.338 437.227V463.271ZM213.529 474.197C212.68 474.197 211.707 474.172 210.61 474.123C209.512 474.073 208.365 473.973 207.167 473.823C206.02 473.674 204.847 473.474 203.65 473.225C202.502 473.025 201.43 472.726 200.432 472.326C197.688 471.279 196.316 469.458 196.316 466.863V431.914C196.316 430.866 196.59 430.068 197.139 429.519C197.738 428.92 198.536 428.446 199.534 428.097C201.679 427.398 203.949 426.949 206.344 426.75C208.739 426.5 210.884 426.375 212.78 426.375C216.672 426.375 220.189 426.849 223.332 427.797C226.526 428.745 229.245 430.217 231.49 432.213C233.785 434.159 235.556 436.628 236.803 439.622C238.051 442.615 238.674 446.158 238.674 450.249C238.674 454.24 238.076 457.733 236.878 460.726C235.681 463.67 233.96 466.165 231.714 468.21C229.519 470.206 226.875 471.703 223.781 472.701C220.688 473.698 217.271 474.197 213.529 474.197ZM259.256 472.701C258.707 472.85 257.834 473 256.637 473.15C255.489 473.299 254.342 473.374 253.194 473.374C252.047 473.374 251.024 473.274 250.126 473.075C249.278 472.925 248.554 472.626 247.956 472.177C247.357 471.728 246.908 471.104 246.608 470.306C246.309 469.508 246.159 468.46 246.159 467.163V427.648C246.708 427.548 247.581 427.423 248.779 427.274C249.976 427.074 251.124 426.974 252.221 426.974C253.369 426.974 254.367 427.074 255.215 427.274C256.113 427.423 256.861 427.723 257.46 428.172C258.059 428.621 258.508 429.244 258.807 430.043C259.107 430.841 259.256 431.889 259.256 433.186V472.701ZM310.048 471.428C309.35 472.127 308.327 472.651 306.98 473C305.683 473.399 304.111 473.599 302.265 473.599C300.419 473.599 298.673 473.324 297.026 472.775C295.38 472.227 294.033 470.905 292.985 468.809L285.576 453.692C284.828 452.145 284.154 450.698 283.555 449.351C282.957 447.954 282.308 446.357 281.61 444.561L281.161 444.636C281.36 447.33 281.46 450.074 281.46 452.868C281.51 455.662 281.535 458.406 281.535 461.101V472.701C280.986 472.85 280.138 473 278.99 473.15C277.893 473.299 276.795 473.374 275.697 473.374C274.6 473.374 273.627 473.299 272.779 473.15C271.93 473 271.232 472.701 270.683 472.252C270.134 471.803 269.71 471.204 269.411 470.455C269.112 469.657 268.962 468.634 268.962 467.387V429.968C269.66 428.97 270.733 428.221 272.18 427.723C273.627 427.224 275.173 426.974 276.82 426.974C278.666 426.974 280.412 427.274 282.059 427.872C283.755 428.421 285.102 429.718 286.1 431.764L293.584 446.881C294.332 448.428 295.006 449.9 295.604 451.297C296.203 452.644 296.852 454.215 297.55 456.012L297.924 455.937C297.725 453.243 297.6 450.548 297.55 447.854C297.5 445.16 297.475 442.466 297.475 439.772V427.648C298.024 427.498 298.847 427.348 299.945 427.199C301.093 427.049 302.215 426.974 303.313 426.974C305.508 426.974 307.179 427.373 308.327 428.172C309.475 428.92 310.048 430.517 310.048 432.961V471.428ZM360.842 465.591C360.842 467.138 360.568 468.285 360.019 469.034C359.47 469.782 358.597 470.505 357.4 471.204C356.701 471.603 355.828 472.002 354.78 472.401C353.732 472.751 352.585 473.05 351.338 473.299C350.09 473.599 348.768 473.823 347.371 473.973C346.024 474.123 344.677 474.197 343.33 474.197C339.738 474.197 336.37 473.723 333.227 472.775C330.083 471.778 327.339 470.306 324.994 468.36C322.699 466.364 320.878 463.895 319.531 460.951C318.184 458.007 317.511 454.59 317.511 450.698C317.511 446.607 318.234 443.04 319.681 439.996C321.178 436.953 323.123 434.433 325.518 432.437C327.963 430.392 330.732 428.87 333.825 427.872C336.969 426.874 340.187 426.375 343.48 426.375C348.219 426.375 351.961 427.149 354.705 428.695C357.499 430.192 358.896 432.163 358.896 434.608C358.896 435.905 358.572 437.028 357.923 437.975C357.275 438.923 356.526 439.672 355.678 440.221C354.431 439.472 352.859 438.749 350.963 438.05C349.117 437.302 347.022 436.928 344.677 436.928C340.486 436.928 337.143 438.125 334.649 440.52C332.204 442.915 330.981 446.233 330.981 450.474C330.981 452.769 331.306 454.764 331.954 456.461C332.653 458.107 333.576 459.479 334.723 460.577C335.871 461.625 337.193 462.423 338.69 462.972C340.187 463.471 341.783 463.72 343.48 463.72C344.577 463.72 345.55 463.62 346.398 463.421C347.246 463.221 347.895 462.997 348.344 462.747V455.712H340.336C340.037 455.163 339.738 454.44 339.438 453.542C339.189 452.644 339.064 451.696 339.064 450.698C339.064 448.902 339.463 447.605 340.262 446.806C341.11 446.008 342.182 445.609 343.48 445.609H356.127C357.624 445.609 358.772 446.033 359.57 446.881C360.418 447.68 360.842 448.827 360.842 450.324V465.591Z" fill="#001AFF"/>
<rect x="29" y="94" width="344" height="83" fill="white"/>
<rect x="32" y="333" width="464" height="146" fill="white"/>
<path d="M51 0V24.7508C51 72.5225 89.7266 111.249 137.498 111.249V111.249C145.367 111.249 153.2 110.175 160.778 108.057L247.214 83.903C260.761 80.1173 275.135 86.1224 281.963 98.4199V98.4199C289.816 112.563 285.213 130.38 271.492 138.949L209.476 177.682C203.22 181.589 196.544 184.776 189.573 187.182L119.917 211.229C95.1472 219.78 85.0032 249.329 99.298 271.29V271.29C105.5 280.818 115.438 287.283 126.662 289.089L194.481 300.004C232.314 306.093 271.104 300.421 305.61 283.753V283.753C340.29 267.002 368.957 239.957 387.699 206.311L412.05 162.595L431.768 129.742C444.55 108.447 467.566 95.4175 492.403 95.4175H504.937C527.589 95.4175 547.749 109.781 555.148 131.191V131.191C561.787 150.403 556.881 171.719 542.512 186.096L516.477 212.146C498.186 230.447 495.867 259.311 511 280.298V280.298C513.849 284.249 516.137 288.575 517.799 293.154L528.895 323.721C537.132 346.413 529.449 371.82 510.018 386.145V386.145C494.378 397.676 473.779 400.002 455.962 392.248L387.968 362.657C369.346 354.553 348.278 354.124 329.342 361.464L324.927 363.175C306.567 370.291 292.275 385.135 285.86 403.751V403.751C276.56 430.736 251.161 448.847 222.618 448.847H214.439C204.934 448.847 195.509 447.118 186.623 443.745L102.253 411.71C90.939 407.414 78.1963 409.434 68.7655 417.018V417.018C58.0119 425.666 53.5272 439.94 57.403 453.184L62.3581 470.116C67.878 488.978 82.2139 503.984 100.804 510.36L161.284 531.103C189.011 540.613 207.634 566.688 207.634 596V596" stroke="#FFC9E4" stroke-width="45"/>
</g>
<defs>
<clipPath id="clip0_930_1140">
<rect width="1280" height="3817" fill="white" transform="translate(-699 -765)"/>
</clipPath>
</defs>
</svg>
