<svg width="240" height="233" viewBox="0 0 240 233" fill="none" xmlns="http://www.w3.org/2000/svg">
<circle cx="120.5" cy="117.5" r="107.5" fill="#FF88C4"/>
<circle cx="44" cy="54" r="21" fill="white"/>
<circle cx="79" cy="29" r="21" fill="white"/>
<circle cx="124" cy="21" r="21" fill="white"/>
<circle cx="168" cy="26" r="21" fill="white"/>
<circle cx="202" cy="54" r="21" fill="white"/>
<circle cx="219" cy="94" r="21" fill="white"/>
<path d="M114.434 90.1726L113.479 92.0474C113.33 92.339 112.981 92.4654 112.68 92.3366C111.492 91.8277 110.349 91.221 109.261 90.5226L108.057 89.7488L104.394 87.6941L101.177 86.2434L100.261 85.9305C98.6337 85.3742 96.935 85.0528 95.2166 84.9761L94.8422 84.9594C94.1186 84.9271 93.3841 84.9544 92.6647 85.0388C91.7984 85.1404 90.9329 85.3286 90.1034 85.5982C89.1321 85.9138 88.2005 86.3407 87.3272 86.8704L86.8749 87.1448C85.6936 87.8613 84.5997 88.713 83.6154 89.6825L82.8279 90.4581L82.4373 90.9359C81.0359 92.6503 79.8479 94.5285 78.8993 96.5294C78.1745 98.0583 77.5932 99.6513 77.1628 101.288L76.8049 102.649L76.7838 102.767C76.3287 105.329 76.1558 107.934 76.2682 110.533L76.2907 111.053L77.0014 116.313L77.6301 118.596C78.1355 120.431 78.7873 122.223 79.5792 123.954L80.974 127.003L83.0625 130.401C84.1399 132.155 85.3673 133.811 86.7309 135.353L88.6265 137.495L90.8335 139.736C92.0918 141.014 93.4449 142.195 94.8812 143.268L96.6799 144.613L101.088 147.424L108.801 151.299L118.286 155.03L123.433 156.553C127.684 157.811 132.274 156.421 135.114 153.018L145.884 140.107L148.995 135.852L151.348 132.341L153.635 127.855L155.853 122.391L157.242 117.447L157.795 113.773L157.993 112.208C158.233 110.305 158.32 108.385 158.251 106.468L158.168 104.167L157.605 100.269C157.316 98.2622 156.855 96.2837 156.228 94.3552L155.549 92.264C155.163 91.0765 154.689 89.9194 154.131 88.8023C153.263 87.0633 152.196 85.4309 150.952 83.9377L149.552 82.2566L146.718 79.6828L144.887 78.4274C143.969 77.7978 142.999 77.2474 141.987 76.782C140.463 76.0808 138.856 75.5773 137.204 75.2839L135.719 75.02C134.191 74.8605 132.628 74.9301 131.122 75.2307C129.983 75.458 128.875 75.8142 127.817 76.2926L127.535 76.4204C126.178 77.0342 124.903 77.8141 123.738 78.7422L122.32 79.8729L119.52 82.7793L116.867 86.1373L114.434 90.1726Z" fill="#FFC9E4"/>
<circle cx="215" cy="139" r="21" fill="white"/>
<circle cx="194" cy="179" r="21" fill="white"/>
<circle cx="157" cy="204" r="21" fill="white"/>
<circle cx="113" cy="212" r="21" fill="white"/>
<circle cx="69" cy="204" r="21" fill="white"/>
<circle cx="35" cy="177" r="21" fill="white"/>
<circle cx="21" cy="135" r="21" fill="white"/>
<circle cx="23" cy="91" r="21" fill="white"/>
<rect x="103.164" y="110.49" width="31.2704" height="8.76175" transform="rotate(49 103.164 110.49)" fill="#FF50C7"/>
<ellipse cx="122.632" cy="134.334" rx="10.2724" ry="6.34472" transform="rotate(22 122.632 134.334)" fill="#FF50C7"/>
<ellipse cx="116.379" cy="138.822" rx="10.2724" ry="6.34472" transform="rotate(80 116.379 138.822)" fill="#FF50C7"/>
<ellipse cx="10.1627" cy="6.55038" rx="10.1627" ry="6.55038" transform="matrix(-0.212712 -0.977116 -0.962943 0.269708 106.363 112.941)" fill="#FF50C7"/>
<ellipse cx="10.2081" cy="6.52338" rx="10.2081" ry="6.52338" transform="matrix(-0.960622 -0.277861 -0.338819 0.940852 104.309 107.268)" fill="#FF50C7"/>
<path d="M133.582 86.3828C135.398 84.2353 138.865 84.9092 139.743 87.5804L144.925 103.335C145.569 105.291 143.871 107.217 141.849 106.824L124.421 103.436C122.4 103.044 121.547 100.622 122.876 99.0489L133.582 86.3828Z" fill="#FF50C7"/>
<path d="M135.782 90.8231L136.219 84.5986L137.915 84.9592L135.782 90.8231Z" fill="#FFD4F1"/>
<ellipse cx="139.881" cy="98.9758" rx="2.32189" ry="2.09719" transform="rotate(140 139.881 98.9758)" fill="#FFD4F1"/>
<path d="M123.121 133.768L126.318 126.392L128.793 118.155L132.052 101.841L133.226 102.069L130.17 117L127.679 126.032L124.378 133.984L123.121 133.768Z" fill="#FF50C7"/>
<path d="M141.978 114.81C142.058 114.873 142.124 114.952 142.171 115.043L142.253 115.196C142.432 115.534 142.252 115.951 141.884 116.053V116.053C141.782 116.082 141.675 116.083 141.573 116.056L119.244 110.27C119.16 110.249 119.085 110.201 119.029 110.135V110.135C118.87 109.944 118.911 109.657 119.118 109.52L119.183 109.476C119.256 109.428 119.341 109.4 119.428 109.395L125.84 109.057C126.529 109.021 127.218 109.09 127.886 109.263L134.625 111.009L138.075 112.2C138.797 112.449 139.472 112.819 140.07 113.294L141.978 114.81Z" fill="#FF50C7"/>
<path d="M137.759 126.691C137.887 126.785 137.98 126.92 138.021 127.073V127.073C138.117 127.425 137.925 127.792 137.582 127.915L137.515 127.939C137.321 128.008 137.109 127.998 136.923 127.911L133.804 126.446C133.388 126.251 132.953 126.098 132.506 125.991L127.919 124.894L122.711 123.931L118.701 123.437C118.592 123.424 118.493 123.364 118.43 123.274V123.274C118.313 123.107 118.346 122.877 118.506 122.749L118.596 122.676C118.673 122.615 118.765 122.577 118.862 122.566L123.912 122.025C124.723 121.938 125.544 121.999 126.333 122.205L131.609 123.582L134.527 124.645C135.097 124.853 135.635 125.14 136.126 125.499L137.759 126.691Z" fill="#FF50C7"/>
<path d="M140.063 121.497C140.14 121.56 140.182 121.657 140.173 121.756L140.137 122.174C140.123 122.326 139.998 122.444 139.845 122.448L139.233 122.462C139.181 122.463 139.13 122.451 139.085 122.427L135.47 120.504C135.454 120.496 135.437 120.489 135.42 120.483L131.56 119.265L129.234 118.686L126.933 118.112C126.917 118.108 126.9 118.105 126.884 118.104L122.605 117.773L119.509 117.293C119.475 117.288 119.443 117.277 119.413 117.261L119.243 117.169C119.031 117.056 119.032 116.753 119.244 116.641L119.649 116.426C119.679 116.41 119.712 116.399 119.746 116.394L123.05 115.907C123.075 115.903 123.101 115.903 123.126 115.905L127.343 116.362L129.669 116.941L131.995 117.521L137.104 119.135C137.14 119.147 137.173 119.165 137.202 119.188L140.063 121.497Z" fill="#FF50C7"/>
<path d="M133.767 131.933C133.822 131.974 133.861 132.031 133.879 132.097L134.082 132.857C134.13 133.034 134.008 133.212 133.826 133.232L133.447 133.275C133.393 133.281 133.338 133.273 133.288 133.25L132.233 132.767L128.858 130.985C128.837 130.974 128.814 130.965 128.791 130.96L126.696 130.437L124.282 129.563L120.117 128.644C120.094 128.638 120.07 128.636 120.046 128.637L117.415 128.696C117.324 128.699 117.237 128.659 117.179 128.589L116.79 128.126C116.684 127.999 116.7 127.81 116.827 127.704L117.045 127.521C117.1 127.475 117.17 127.45 117.242 127.451L121.67 127.529C121.687 127.529 121.704 127.531 121.721 127.534L125.001 128.162L127.131 128.693L129.227 129.216C129.249 129.221 129.271 129.23 129.292 129.24L132.033 130.658C132.047 130.665 132.06 130.673 132.073 130.683L133.767 131.933Z" fill="#FF50C7"/>
<path d="M121.888 138.713C120.639 135.458 122.43 133.518 123.585 133.075C124.739 132.632 126.688 134.911 127.937 138.166C129.186 141.42 129.263 144.418 128.109 144.861C126.955 145.304 123.137 141.967 121.888 138.713Z" fill="#FF50C7"/>
<path d="M118.842 136.522C121.264 134.014 123.948 132.678 124.837 133.537C125.727 134.396 126.642 136.301 124.221 138.808C121.799 141.316 116.957 143.477 116.068 142.618C115.178 141.759 116.42 139.03 118.842 136.522Z" fill="#FF50C7"/>
</svg>
